<?xml version="1.0"?>
<COLLADA xmlns="http://www.collada.org/2005/11/COLLADASchema" version="1.4.1">
    <asset>
        <contributor>
            <authoring_tool>J3D Ripoff Exporter</authoring_tool>
        </contributor>
        <created>2026-05-17T21:55:16.253Z</created>
        <modified>2026-05-17T21:55:16.253Z</modified>
		<unit meter="0.01" name="centimeter" ></unit>
        <up_axis>Y_UP</up_axis>
    </asset>
    <library_images>
        <image id="tex0">
            <init_from>V_tri_spc.png</init_from>
        </image>
        <image id="tex1">
            <init_from>Vtrif.png</init_from>
        </image>
        <image id="tex2">
            <init_from>V_tri_spc.png</init_from>
        </image>
        <image id="tex3">
            <init_from>ZAtoon.png</init_from>
        </image>
    </library_images>
    <library_effects>
        <effect id="effect0">
            <profile_COMMON>
                <newparam sid="surface0">
                    <surface type="2D">
                        <init_from>tex0</init_from>
                    </surface>
                </newparam>
                <newparam sid="sampler0">
                    <sampler2D>
                        <source>surface0</source>
                    </sampler2D>
                </newparam>
                <technique sid="COMMON">
                    <blinn>
                        <diffuse>
                            <texture texture="sampler0" texcoord="UVSET0"></texture>
                        </diffuse>
                    </blinn>
                </technique>
            </profile_COMMON>
        </effect>
        <effect id="effect1">
            <profile_COMMON>
                <newparam sid="surface1">
                    <surface type="2D">
                        <init_from>tex1</init_from>
                    </surface>
                </newparam>
                <newparam sid="sampler1">
                    <sampler2D>
                        <source>surface1</source>
                    </sampler2D>
                </newparam>
                <technique sid="COMMON">
                    <blinn>
                        <diffuse>
                            <texture texture="sampler1" texcoord="UVSET0"></texture>
                        </diffuse>
                    </blinn>
                </technique>
            </profile_COMMON>
        </effect>
    </library_effects>
    <library_materials>
        <material id="mat0" name="SC_tri_out">
            <instance_effect url="#effect0"></instance_effect>
        </material>
        <material id="mat1" name="Z_tri_in">
            <instance_effect url="#effect1"></instance_effect>
        </material>
    </library_materials>
    <library_geometries>
        <geometry id="mesh0">
            <mesh>
                <source id="points0">
                    <float_array id="pointarray0" count="72">-11.934542655944824 -7.891048908233643 -7.80766487121582 -11.935279846191406 -11.351765632629395 -7.80766487121582 12.664735794067383 -11.351765632629395 -7.80766487121582 -11.935279846191406 -11.351761817932129 2.6787800788879395 12.664735794067383 -11.351763725280762 2.678781032562256 5.948447227478027 -7.347474098205566 7.80766487121582 -0.44315001368522644 11.351765632629395 2.6787819862365723 -7.186397075653076 5.2994279861450195 7.807665824890137 -5.284823894500732 6.979051113128662 7.80766487121582 -7.971452236175537 3.0858240127563477 7.807666778564453 -9.97024917602539 0.47591298818588257 7.80766487121582 -11.939178466796875 -0.9761649966239929 7.80766487121582 -3.53519606590271 8.036003112792969 7.807665824890137 -3.1634039878845215 8.434700012207031 7.807665824890137 -9.049365997314453 1.1474210023880005 -7.80766487121582 -11.933073043823242 -0.969622015953064 -7.807666778564453 -11.525367736816406 -5.046048164367676 -7.80766487121582 -11.834381103515625 -3.9319229125976562 7.80766487121582 -11.512530326843262 -5.572555065155029 7.80766487121582 -11.935279846191406 -7.347466945648193 7.80766487121582 -6.828126907348633 4.409341812133789 -7.80766487121582 -6.525291919708252 5.857431888580322 -7.80766487121582 -3.53519606590271 8.036003112792969 -7.80766487121582 -0.44315001368522644 11.351765632629395 -7.80766487121582</float_array>
                    <technique_common>
                        <accessor count="24" source="#pointarray0" stride="3">
                            <param name="X" type="float"/>
                            <param name="Y" type="float"/>
                            <param name="Z" type="float"/>
                        </accessor>
                    </technique_common>
                </source>
                <source id="uvs0">
                    <float_array id="uvarray0" count="38">0.046875 0.1875 0.046875 0.05078125 0.94921875 0.05078125 0.703125 0.2109375 0.46875 0.953125 0.22265625 0.7109375 0.29296875 0.77734375 0.19140625 0.625 0.12109375 0.51953125 0.046875 0.46484375 0.35546875 0.8203125 0.3671875 0.8359375 0.15234375 0.546875 0.0625 0.30078125 0.05078125 0.34765625 0.0625 0.28125 0.046875 0.2109375 0.234375 0.67578125 0.24609375 0.734375</float_array>
                    <technique_common>
                        <accessor count="19" source="#uvarray0" stride="2">
                            <param name="S" type="float"/>
                            <param name="T" type="float"/>
                        </accessor>
                    </technique_common>
                </source>
                <vertices id="vertices0">
                    <input semantic="POSITION" source="#points0"/>
                </vertices>
                <polylist count="25" material="Material1">
                    <input offset="0" semantic="VERTEX" source="#vertices0"/>
                    <input offset="1" semantic="TEXCOORD" source="#uvs0" set="0"/>
                    <vcount>3 3 3 3 3 3 3 3 3 3 3 3 3 3 3 3 3 3 3 3 3 3 3 3 3</vcount>
                    <p>2 2 1 1 0 0 3 1 1 1 2 2 4 2 3 1 2 2 5 3 3 1 4 2 6 4 5 3 4 2 9 7 8 6 7 5 5 3 8 6 9 7 10 8 5 3 9 7 11 9 5 3 10 8 5 3 12 10 8 6 13 11 12 10 5 3 6 4 13 11 5 3 2 2 15 9 14 12 16 13 15 9 2 2 0 0 16 13 2 2 17 14 5 3 11 9 18 15 5 3 17 14 19 16 5 3 18 15 3 1 5 3 19 16 20 17 2 2 14 12 21 18 2 2 20 17 22 10 2 2 21 18 23 4 2 2 22 10 2 2 6 4 4 2 23 4 6 4 2 2</p>
                </polylist>
            </mesh>
        </geometry>
        <geometry id="mesh1">
            <mesh>
                <source id="points1">
                    <float_array id="pointarray1" count="102">-7.115243911743164 5.246957778930664 7.7303619384765625 -5.2324981689453125 6.909951210021973 7.7303619384765625 5.889553070068359 -7.274728775024414 7.730360984802246 -3.5001940727233887 7.956438064575195 7.7303619384765625 -3.1320838928222656 8.351187705993652 7.7303619384765625 -11.820968627929688 -0.966500997543335 7.730360984802246 -9.871535301208496 0.47120100259780884 7.730360984802246 -7.892526149749756 3.0552709102630615 7.730362892150879 -11.817110061645508 -7.27471923828125 7.730360984802246 -11.398547172546387 -5.517381191253662 7.730360984802246 -11.717209815979004 -3.8929901123046875 7.730360984802246 -11.817110061645508 -11.239372253417969 -7.7303619384765625 12.539342880249023 -11.239372253417969 -7.7303619384765625 -11.816381454467773 -7.812921047210693 -7.7303619384765625 -11.411256790161133 -4.996086120605469 -7.7303619384765625 -11.814925193786621 -0.96002197265625 -7.730362892150879 -8.959768295288086 1.1360609531402588 -7.7303619384765625 -6.76052188873291 4.3656840324401855 -7.7303619384765625 -6.460683822631836 5.799437999725342 -7.7303619384765625 -3.5001940727233887 7.956438064575195 -7.7303619384765625 -0.43876200914382935 11.239372253417969 -7.7303619384765625 -0.43876200914382935 11.239372253417969 2.652259111404419 12.539342880249023 -11.239370346069336 2.652259111404419 -11.817110061645508 -11.23936653137207 2.652256965637207 -11.882616996765137 -8.64216423034668 1.625095009803772 -10.908201217651367 -6.492448806762695 1.6250979900360107 -12.539341926574707 -4.624107837677002 1.6250959634780884 -5.881734848022461 5.975752830505371 1.0541579723358154 -7.260752201080322 4.0586371421813965 9.999999974752427e-7 -8.03935432434082 2.3143310546875 -0.0000019999999949504854 -11.817947387695312 -0.9632599949836731 0.9999340176582336 -9.171618461608887 0.48315000534057617 0 -4.1025190353393555 8.395286560058594 9.999999974752427e-7 -2.760411024093628 10.160197257995605 -0.74515700340271</float_array>
                    <technique_common>
                        <accessor count="34" source="#pointarray1" stride="3">
                            <param name="X" type="float"/>
                            <param name="Y" type="float"/>
                            <param name="Z" type="float"/>
                        </accessor>
                    </technique_common>
                </source>
                <source id="uvs1">
                    <float_array id="uvarray1" count="100">0.06640625 0.140625 0.07421875 0.1484375 0.1328125 0.06640625 0.08203125 0.15625 0.0859375 0.16015625 0.0390625 0.1015625 0.05078125 0.11328125 0.0625 0.125 0.0390625 0.06640625 0.046875 0.07421875 0.0390625 0.0859375 0.0390625 0.04296875 0.16796875 0.04296875 0.0390625 0.0625 0.04296875 0.078125 0.0546875 0.1171875 0.06640625 0.1328125 0.06640625 0.14453125 0.1015625 0.17578125 0.19140625 0.5234375 0.265625 0.8046875 0.19140625 0.83203125 0.3046875 0.984375 0.33984375 0.8046875 0.359375 0.984375 0.37109375 0.8046875 0.40234375 0.98828125 0.76171875 0.78515625 0.796875 0.984375 0.72265625 0.98828125 0.6875 0.75390625 0.62890625 0.75390625 0.65234375 0.98828125 0.55078125 0.98828125 0.484375 0.98828125 0.484375 0.78515625 0.5625 0.75390625 0.84765625 0.984375 0.85546875 0.75390625 0.9296875 0.75390625 0.8671875 0.984375 0.984375 0.83203125 0.984375 0.5234375 0.84765625 0.5234375 0.75 0.5234375 0.484375 0.5234375 0.2890625 0.5234375 0.375 0.5234375 0.703125 0.5234375 0.58203125 0.5234375</float_array>
                    <technique_common>
                        <accessor count="50" source="#uvarray1" stride="2">
                            <param name="S" type="float"/>
                            <param name="T" type="float"/>
                        </accessor>
                    </technique_common>
                </source>
                <vertices id="vertices1">
                    <input semantic="POSITION" source="#points1"/>
                </vertices>
                <polylist count="64" material="Material1">
                    <input offset="0" semantic="VERTEX" source="#vertices1"/>
                    <input offset="1" semantic="TEXCOORD" source="#uvs1" set="0"/>
                    <vcount>3 3 3 3 3 3 3 3 3 3 3 3 3 3 3 3 3 3 3 3 3 3 3 3 3 3 3 3 3 3 3 3 3 3 3 3 3 3 3 3 3 3 3 3 3 3 3 3 3 3 3 3 3 3 3 3 3 3 3 3 3 3 3 3</vcount>
                    <p>2 2 1 1 0 0 3 3 1 1 2 2 4 4 3 3 2 2 2 2 6 6 5 5 7 7 6 6 2 2 0 0 7 7 2 2 2 2 9 9 8 8 10 10 9 9 2 2 5 5 10 10 2 2 13 13 12 12 11 11 14 14 12 12 13 13 15 5 12 12 14 14 16 15 12 12 15 5 17 16 12 12 16 15 18 17 12 12 17 16 19 3 12 12 18 17 20 18 12 12 19 3 2 2 21 18 4 4 22 12 21 18 2 2 12 12 21 18 22 12 20 18 21 18 12 12 23 11 2 2 8 8 22 12 2 2 23 11 12 12 23 11 11 11 22 12 23 11 12 12 23 21 24 20 11 19 9 24 25 23 8 22 10 26 26 25 9 24 25 23 9 24 26 25 0 29 1 28 27 27 28 30 0 29 27 27 6 33 7 32 29 31 6 33 30 35 5 34 31 36 30 35 6 33 8 22 24 20 23 21 33 39 32 38 3 37 4 40 33 39 3 37 5 34 30 35 10 26 21 41 33 39 4 40 19 43 33 39 20 42 32 38 33 39 19 43 27 27 32 38 19 43 21 41 20 42 33 39 27 27 19 43 18 44 3 37 32 38 27 27 3 37 27 27 1 28 26 25 30 35 15 45 10 26 30 35 26 25 8 22 25 23 24 20 24 20 25 23 13 46 13 46 26 25 14 47 28 30 7 32 0 29 29 31 28 30 17 48 6 33 29 31 31 36 16 49 31 36 29 31 29 31 7 32 28 30 25 23 26 25 13 46 28 30 18 44 17 48 27 27 18 44 28 30 29 31 17 48 16 49 24 20 13 46 11 19 26 25 15 45 14 47 30 35 31 36 16 49 15 45 30 35 16 49</p>
                </polylist>
            </mesh>
        </geometry>
    </library_geometries>
    <library_controllers>
        <controller id="controller0">
            <skin source="#mesh0">
                <bind_shape_matrix>1 0 0 0 0 1 0 0 0 0 1 0 0 0 0 1</bind_shape_matrix>
                <source id="joints0">
                    <Name_array id="JointArr0" count="4">jointnode-1 jointnode0 jointnode1 jointnode2</Name_array>
                    <technique_common>
                        <accessor source="#JointArr0" count="4">
                            <param name="JOINT" type="Name" />
                        </accessor>
                    </technique_common>
                </source>
                <source id="matrices0">
                    <float_array id="MatArr0" count="64">1 0 0 0 0 1 0 0 0 0 1 0 0 0 0 1 1 0 0 0 0 1 0 0 0 0 1 0 0 0 0 1 1 0 0 0 0 1 0 0 0 0 1 0 0 0 0 1 1 0 0 0 0 1 0 0 0 0 1 0 0 0 0 1</float_array>
                    <technique_common>
                        <accessor source="#MatArr0" count="4" stride="16">
                            <param type="float4x4" />
                        </accessor>
                    </technique_common>
                </source>
                <source id="weights0">
                    <float_array id="WeightArr0" count="1">1</float_array>
                    <technique_common>
                        <accessor source="#WeightArr0" count="1">
                            <param type="float" />
                        </accessor>
                    </technique_common>
                </source>
                <joints>
                    <input semantic="JOINT" source="#joints0" />
                    <input semantic="INV_BIND_MATRIX" source="#matrices0" />
                </joints>
                <vertex_weights count="24">
                    <input semantic="JOINT" offset="0" source="#joints0" />
                    <input semantic="WEIGHT" offset="1" source="#weights0" />
                    <vcount>1 1 1 1 1 1 1 1 1 1 1 1 1 1 1 1 1 1 1 1 1 1 1 1</vcount>
                    <v>2 0 2 0 2 0 2 0 2 0 2 0 2 0 2 0 2 0 2 0 2 0 2 0 2 0 2 0 2 0 2 0 2 0 2 0 2 0 2 0 2 0 2 0 2 0 2 0</v>
                </vertex_weights>
            </skin>
        </controller>
        <controller id="controller1">
            <skin source="#mesh1">
                <bind_shape_matrix>1 0 0 0 0 1 0 0 0 0 1 0 0 0 0 1</bind_shape_matrix>
                <source id="joints1">
                    <Name_array id="JointArr1" count="4">jointnode-1 jointnode0 jointnode1 jointnode2</Name_array>
                    <technique_common>
                        <accessor source="#JointArr1" count="4">
                            <param name="JOINT" type="Name" />
                        </accessor>
                    </technique_common>
                </source>
                <source id="matrices1">
                    <float_array id="MatArr1" count="64">1 0 0 0 0 1 0 0 0 0 1 0 0 0 0 1 1 0 0 0 0 1 0 0 0 0 1 0 0 0 0 1 1 0 0 0 0 1 0 0 0 0 1 0 0 0 0 1 1 0 0 0 0 1 0 0 0 0 1 0 0 0 0 1</float_array>
                    <technique_common>
                        <accessor source="#MatArr1" count="4" stride="16">
                            <param type="float4x4" />
                        </accessor>
                    </technique_common>
                </source>
                <source id="weights1">
                    <float_array id="WeightArr1" count="1">1</float_array>
                    <technique_common>
                        <accessor source="#WeightArr1" count="1">
                            <param type="float" />
                        </accessor>
                    </technique_common>
                </source>
                <joints>
                    <input semantic="JOINT" source="#joints1" />
                    <input semantic="INV_BIND_MATRIX" source="#matrices1" />
                </joints>
                <vertex_weights count="34">
                    <input semantic="JOINT" offset="0" source="#joints1" />
                    <input semantic="WEIGHT" offset="1" source="#weights1" />
                    <vcount>1 1 1 1 1 1 1 1 1 1 1 1 1 1 1 1 1 1 1 1 1 1 1 1 1 1 1 1 1 1 1 1 1 1</vcount>
                    <v>3 0 3 0 3 0 3 0 3 0 3 0 3 0 3 0 3 0 3 0 3 0 3 0 3 0 3 0 3 0 3 0 3 0 3 0 3 0 3 0 3 0 3 0 3 0 3 0 3 0 3 0 3 0 3 0 3 0 3 0 3 0 3 0 3 0 3 0</v>
                </vertex_weights>
            </skin>
        </controller>
    </library_controllers>
    <library_visual_scenes>
        <visual_scene id="VisualSceneNode">
            <node id="node0" name="m0" type="NODE">
                <instance_controller url="#controller0">
                    <skeleton>#jointnode-1</skeleton>
                    <bind_material>
                        <technique_common>
                            <instance_material symbol="Material1" target="#mat0">
                                <bind_vertex_input semantic="UVSET0" input_semantic="TEXCOORD" input_set="0"></bind_vertex_input>
                            </instance_material>
                        </technique_common>
                    </bind_material>
                </instance_controller>
            </node>
            <node id="node1" name="m1" type="NODE">
                <instance_controller url="#controller1">
                    <skeleton>#jointnode-1</skeleton>
                    <bind_material>
                        <technique_common>
                            <instance_material symbol="Material1" target="#mat1">
                                <bind_vertex_input semantic="UVSET0" input_semantic="TEXCOORD" input_set="0"></bind_vertex_input>
                            </instance_material>
                        </technique_common>
                    </bind_material>
                </instance_controller>
            </node>
            <node id="jointnode-1" name="root" sid="jointnode-1" type="JOINT">
                <node id="jointnode0" name="Vtri7" sid="jointnode0" type="JOINT">
                    <node id="jointnode1" name="Vtri7_model1" sid="jointnode1" type="JOINT">
                    </node>
                    <node id="jointnode2" name="Vtri7_model2" sid="jointnode2" type="JOINT">
                    </node>
                </node>
            </node>
        </visual_scene>
    </library_visual_scenes>
    <scene>
        <instance_visual_scene url="#VisualSceneNode"></instance_visual_scene>
    </scene>
</COLLADA>
