<?xml version="1.0"?>
<COLLADA xmlns="http://www.collada.org/2005/11/COLLADASchema" version="1.4.1">
    <asset>
        <contributor>
            <authoring_tool>J3D Ripoff Exporter</authoring_tool>
        </contributor>
        <created>2026-05-17T21:55:09.691Z</created>
        <modified>2026-05-17T21:55:09.691Z</modified>
		<unit meter="0.01" name="centimeter" ></unit>
        <up_axis>Y_UP</up_axis>
    </asset>
    <library_images>
        <image id="tex0">
            <init_from>V_tri_spc.png</init_from>
        </image>
        <image id="tex1">
            <init_from>Vtrif.png</init_from>
        </image>
        <image id="tex2">
            <init_from>V_tri_spc.png</init_from>
        </image>
        <image id="tex3">
            <init_from>ZAtoon.png</init_from>
        </image>
    </library_images>
    <library_effects>
        <effect id="effect0">
            <profile_COMMON>
                <newparam sid="surface0">
                    <surface type="2D">
                        <init_from>tex0</init_from>
                    </surface>
                </newparam>
                <newparam sid="sampler0">
                    <sampler2D>
                        <source>surface0</source>
                    </sampler2D>
                </newparam>
                <technique sid="COMMON">
                    <blinn>
                        <diffuse>
                            <texture texture="sampler0" texcoord="UVSET0"></texture>
                        </diffuse>
                    </blinn>
                </technique>
            </profile_COMMON>
        </effect>
        <effect id="effect1">
            <profile_COMMON>
                <newparam sid="surface1">
                    <surface type="2D">
                        <init_from>tex1</init_from>
                    </surface>
                </newparam>
                <newparam sid="sampler1">
                    <sampler2D>
                        <source>surface1</source>
                    </sampler2D>
                </newparam>
                <technique sid="COMMON">
                    <blinn>
                        <diffuse>
                            <texture texture="sampler1" texcoord="UVSET0"></texture>
                        </diffuse>
                    </blinn>
                </technique>
            </profile_COMMON>
        </effect>
    </library_effects>
    <library_materials>
        <material id="mat0" name="SC_tri_out">
            <instance_effect url="#effect0"></instance_effect>
        </material>
        <material id="mat1" name="Z_tri_in">
            <instance_effect url="#effect1"></instance_effect>
        </material>
    </library_materials>
    <library_geometries>
        <geometry id="mesh0">
            <mesh>
                <source id="points0">
                    <float_array id="pointarray0" count="114">-5.092735767364502 -6.397611141204834 -7.807665824890137 3.88919997215271 -5.2303547859191895 -7.807665824890137 -4.291800022125244 -3.3120009899139404 -7.807665824890137 4.661630153656006 -1.5609040260314941 -7.80766487121582 -3.9362521171569824 -0.3268130123615265 -7.80766487121582 3.9025719165802 2.1085479259490967 -7.80766487121582 -5.112661838531494 2.658374071121216 -7.80766487121582 -3.884958028793335 5.323497772216797 -7.807665824890137 -4.291800022125244 -3.3120009899139404 7.807665824890137 -4.291800022125244 1.005748987197876 7.80766487121582 3.227726936340332 1.694991946220398 7.807666778564453 -3.3095109462738037 5.323500156402588 7.80766487121582 3.88919997215271 5.7779998779296875 7.80766487121582 1.8439500331878662 7.823248863220215 7.80766487121582 3.88919997215271 -12.569256782531738 -7.807668209075928 4.291433811187744 -8.899806022644043 -7.807665824890137 -0.48301100730895996 -12.567326545715332 -7.807665824890137 -4.291800022125244 -8.605756759643555 -7.8076629638671875 -4.291800022125244 -12.568829536437988 -7.807665824890137 3.88919997215271 5.7779998779296875 -7.807665824890137 1.5015920400619507 7.093337059020996 -7.80766487121582 -0.2012999951839447 9.868499755859375 -7.80766487121582 -4.617003917694092 9.641249656677246 -7.80766487121582 -1.8438169956207275 11.913750648498535 -7.80766487121582 -4.291800022125244 13.959000587463379 -7.80766487121582 4.684937953948975 -6.881650924682617 7.807668209075928 -4.449254989624023 -8.483968734741211 7.807665824890137 3.1968300342559814 -4.88244104385376 7.807668209075928 -5.0927348136901855 -6.397611141204834 7.807665824890137 -4.291800022125244 -12.568829536437988 7.807665824890137 -0.48301100730895996 -13.959004402160645 7.807665824890137 3.88919997215271 -12.569257736206055 7.807665824890137 4.684937953948975 -8.899805068969727 7.807665824890137 3.88919997215271 -1.5609019994735718 7.807665824890137 -4.291800022125244 8.250452041625977 7.807665824890137 0.36542999744415283 10.709741592407227 7.807665824890137 -1.613049030303955 12.645407676696777 7.807665824890137 -4.291800022125244 13.958998680114746 7.80766487121582</float_array>
                    <technique_common>
                        <accessor count="38" source="#pointarray0" stride="3">
                            <param name="X" type="float"/>
                            <param name="Y" type="float"/>
                            <param name="Z" type="float"/>
                        </accessor>
                    </technique_common>
                </source>
                <source id="uvs0">
                    <float_array id="uvarray0" count="64">0.27734375 0.296875 0.68359375 0.33203125 0.3125 0.39453125 0.71875 0.453125 0.33203125 0.4921875 0.68359375 0.5703125 0.27734375 0.5859375 0.33203125 0.671875 0.3125 0.53515625 0.65234375 0.5546875 0.359375 0.671875 0.68359375 0.6875 0.58984375 0.75390625 0.68359375 0.09765625 0.69921875 0.21484375 0.484375 0.09765625 0.3125 0.22265625 0.3125 0.09765625 0.57421875 0.73046875 0.5 0.8203125 0.30078125 0.8125 0.42578125 0.88671875 0.3125 0.953125 0.71875 0.28125 0.30859375 0.2265625 0.65234375 0.34375 0.484375 0.05078125 0.71875 0.21484375 0.68359375 0.453125 0.3125 0.76953125 0.5234375 0.84765625 0.43359375 0.91015625</float_array>
                    <technique_common>
                        <accessor count="32" source="#uvarray0" stride="2">
                            <param name="S" type="float"/>
                            <param name="T" type="float"/>
                        </accessor>
                    </technique_common>
                </source>
                <vertices id="vertices0">
                    <input semantic="POSITION" source="#points0"/>
                </vertices>
                <polylist count="34" material="Material1">
                    <input offset="0" semantic="VERTEX" source="#vertices0"/>
                    <input offset="1" semantic="TEXCOORD" source="#uvs0" set="0"/>
                    <vcount>3 3 3 3 3 3 3 3 3 3 3 3 3 3 3 3 3 3 3 3 3 3 3 3 3 3 3 3 3 3 3 3 3 3</vcount>
                    <p>2 2 1 1 0 0 3 3 1 1 2 2 4 4 3 3 2 2 5 5 3 3 4 4 6 6 5 5 4 4 7 7 5 5 6 6 10 9 9 8 8 2 11 10 9 8 10 9 12 11 11 10 10 9 13 12 11 10 12 11 16 15 15 14 14 13 17 16 15 14 16 15 18 17 17 16 16 15 7 7 19 11 5 5 20 18 19 11 7 7 21 19 20 18 7 7 22 20 21 19 7 7 23 21 21 19 22 20 24 22 23 21 22 20 27 25 26 24 25 23 28 0 26 24 27 25 8 2 28 0 27 25 17 16 1 1 15 14 0 0 1 1 17 16 30 26 26 24 29 17 31 13 26 24 30 26 32 27 26 24 31 13 25 23 26 24 32 27 33 28 8 2 27 25 10 9 8 2 33 28 13 12 34 29 11 10 35 30 34 29 13 12 36 31 34 29 35 30 37 22 34 29 36 31</p>
                </polylist>
            </mesh>
        </geometry>
        <geometry id="mesh1">
            <mesh>
                <source id="points1">
                    <float_array id="pointarray1" count="177">-5.042312145233154 -6.334268093109131 -7.7303619384765625 3.8506929874420166 -5.1785688400268555 -7.7303619384765625 -4.249307155609131 -3.2792088985443115 -7.7303619384765625 4.615475177764893 -1.5454490184783936 -7.7303619384765625 -3.897279977798462 -0.32357800006866455 -7.7303619384765625 3.8639330863952637 2.0876710414886475 -7.730360984802246 -5.06204080581665 2.6320528984069824 -7.7303619384765625 -3.8464930057525635 5.270790100097656 -7.7303619384765625 -4.249307155609131 -3.2792088985443115 7.7303619384765625 -4.249307155609131 0.9957919716835022 7.7303619384765625 3.1957690715789795 1.6782100200653076 7.730363845825195 -3.276742935180664 5.270791053771973 7.7303619384765625 3.8506929874420166 5.720791816711426 7.7303619384765625 1.8256930112838745 7.745791912078857 7.7303619384765625 4.638553142547607 -6.813516139984131 7.730363845825195 -4.405202865600586 -8.399969100952148 7.7303619384765625 3.165178060531616 -4.834099769592285 7.730363845825195 -5.042312145233154 -6.334269046783447 7.7303619384765625 -0.19930699467658997 9.770792007446289 -7.7303619384765625 -4.571290969848633 9.545792579650879 -7.7303619384765625 -1.8255620002746582 11.795792579650879 -7.7303619384765625 -4.249307155609131 13.820793151855469 -7.7303619384765625 3.8506929874420166 5.720791816711426 -7.7303619384765625 1.4867240190505981 7.023106098175049 -7.7303619384765625 3.8506929874420166 -12.444808959960938 -7.730363845825195 4.248945236206055 -8.811689376831055 -7.7303619384765625 -0.47822898626327515 -12.44289779663086 -7.7303619384765625 -4.249307155609131 -8.520551681518555 -7.730359077453613 -4.249307155609131 -12.444387435913086 -7.7303619384765625 -4.249307155609131 -12.444387435913086 9.999999974752427e-7 -0.47822898626327515 -13.712766647338867 9.999999974752427e-7 -4.2493062019348145 -12.444384574890137 7.7303619384765625 0.3618119955062866 10.603704452514648 7.7303619384765625 -4.249307155609131 8.168764114379883 7.7303619384765625 -1.5970790386199951 12.520208358764648 7.7303619384765625 -4.249307155609131 13.820793151855469 7.7303619384765625 -4.249307155609131 13.82079029083252 9.999999974752427e-7 -2.910485029220581 9.545792579650879 9.999999974752427e-7 3.8506929874420166 5.720791816711426 9.999999974752427e-7 1.4867249727249146 7.023106098175049 0 3.8506929874420166 -1.5454479455947876 7.7303619384765625 3.850693941116333 -12.44481086730957 7.730362892150879 4.638553142547607 -8.811689376831055 7.730362892150879 -2.224307060241699 11.795792579650879 9.999999974752427e-7 -0.47822898626327515 -13.820794105529785 7.7303619384765625 -3.8583760261535645 -9.389327049255371 9.999999974752427e-7 4.1468119621276855 -11.615416526794434 1.452733039855957 5.062042236328125 -7.542810916900635 1.7633739709854126 3.850693941116333 -5.1785688400268555 9.999999974752427e-7 4.824216842651367 -2.958242893218994 1.4193979501724243 3.8506929874420166 1.6782089471817017 9.999999974752427e-7 4.9410810470581055 -0.14627300202846527 1.6680229902267456 3.9988059997558594 -9.907052040100098 2.7979021072387695 -3.14677095413208 5.270791053771973 9.999999974752427e-7 -4.249307155609131 2.3468799591064453 1.1424369812011719 -3.3848440647125244 -0.4661650061607361 1.243738055229187 -4.249307155609131 -3.279207944869995 2.168483018875122 -4.249307155609131 -6.3342671394348145 1.603971004486084 -0.19930699467658997 10.603704452514648 0</float_array>
                    <technique_common>
                        <accessor count="59" source="#pointarray1" stride="3">
                            <param name="X" type="float"/>
                            <param name="Y" type="float"/>
                            <param name="Z" type="float"/>
                        </accessor>
                    </technique_common>
                </source>
                <source id="uvs1">
                    <float_array id="uvarray1" count="206">0.0390625 0.09765625 0.16015625 0.1015625 0.05078125 0.109375 0.171875 0.12109375 0.0546875 0.125 0.16015625 0.13671875 0.0390625 0.140625 0.0546875 0.15234375 0.05078125 0.1328125 0.15234375 0.1328125 0.0625 0.15234375 0.16015625 0.15234375 0.1328125 0.1640625 0.171875 0.09375 0.046875 0.0859375 0.1484375 0.10546875 0.10546875 0.171875 0.046875 0.171875 0.08203125 0.18359375 0.05078125 0.19140625 0.12890625 0.16015625 0.16015625 0.06640625 0.1640625 0.0859375 0.1015625 0.06640625 0.05078125 0.0859375 0.05078125 0.06640625 0.7421875 0.5234375 0.7421875 0.75390625 0.8515625 0.7578125 0.7421875 0.984375 0.11328125 0.17578125 0.05078125 0.1640625 0.0859375 0.1875 0.8984375 0.51953125 0.8984375 0.734375 0.75 0.7421875 0.8984375 0.9921875 0.390625 0.75 0.328125 0.75 0.390625 0.98046875 0.32421875 0.984375 0.16015625 0.12109375 0.171875 0.0859375 0.05859375 0.5234375 0.05859375 0.75390625 0.140625 0.75390625 0.0546875 0.984375 0.1015625 0.0625 0.0078125 0.984375 0.0078125 0.75 0.109375 0.75390625 0.0078125 0.51953125 0.8515625 0.52734375 0.98046875 0.796875 0.98046875 0.52734375 0.98046875 0.98828125 0.8515625 0.98828125 0.82421875 0.69921875 0.7265625 0.98046875 0.84375 0.98046875 0.73046875 0.75 0.67578125 0.70703125 0.62109375 0.98046875 0.515625 0.75 0.59375 0.703125 0.5 0.98046875 0.84765625 0.51953125 0.8984375 0.66796875 0.953125 0.51953125 0.390625 0.51953125 0.5078125 0.51953125 0.78515625 0.51953125 0.6171875 0.51953125 0.7109375 0.51953125 0.59765625 0.74609375 0.74609375 0.51953125 0.49609375 0.78125 0.59765625 0.9921875 0.50390625 0.51953125 0.59765625 0.51953125 0.39453125 0.7890625 0.4453125 0.9921875 0.40234375 0.51953125 0.30078125 0.8203125 0.30078125 0.51953125 0.296875 0.9921875 0.1328125 0.98828125 0.19921875 0.80078125 0.19140625 0.98828125 0.296875 0.8203125 0.296875 0.98828125 0.1328125 0.51953125 0.19140625 0.51953125 0.296875 0.51953125 0.140625 0.984375 0.22265625 0.984375 0.19921875 0.75 0.30859375 0.51953125 0.203125 0.51953125 0.125 0.51953125 0.9140625 0.70703125 0.94921875 0.98046875 0.69921875 0.9921875</float_array>
                    <technique_common>
                        <accessor count="103" source="#uvarray1" stride="2">
                            <param name="S" type="float"/>
                            <param name="T" type="float"/>
                        </accessor>
                    </technique_common>
                </source>
                <vertices id="vertices1">
                    <input semantic="POSITION" source="#points1"/>
                </vertices>
                <polylist count="114" material="Material1">
                    <input offset="0" semantic="VERTEX" source="#vertices1"/>
                    <input offset="1" semantic="TEXCOORD" source="#uvs1" set="0"/>
                    <vcount>3 3 3 3 3 3 3 3 3 3 3 3 3 3 3 3 3 3 3 3 3 3 3 3 3 3 3 3 3 3 3 3 3 3 3 3 3 3 3 3 3 3 3 3 3 3 3 3 3 3 3 3 3 3 3 3 3 3 3 3 3 3 3 3 3 3 3 3 3 3 3 3 3 3 3 3 3 3 3 3 3 3 3 3 3 3 3 3 3 3 3 3 3 3 3 3 3 3 3 3 3 3 3 3 3 3 3 3 3 3 3 3 3 3</vcount>
                    <p>2 2 1 1 0 0 3 3 1 1 2 2 4 4 3 3 2 2 5 5 3 3 4 4 6 6 5 5 4 4 7 7 5 5 6 6 10 9 9 8 8 2 11 10 9 8 10 9 12 11 11 10 10 9 13 12 11 10 12 11 16 15 15 14 14 13 17 0 15 14 16 15 8 2 17 0 16 15 19 17 18 16 7 7 20 18 18 16 19 17 21 19 20 18 19 17 7 7 22 11 5 5 23 20 22 11 7 7 18 16 23 20 7 7 26 23 25 22 24 21 27 24 25 22 26 23 28 25 27 24 26 23 30 28 29 27 28 26 31 29 29 27 30 28 34 32 33 31 32 30 35 19 33 31 34 32 13 12 33 31 11 10 32 30 33 31 13 12 37 35 36 34 21 33 35 36 36 34 37 35 22 39 39 38 38 37 23 40 39 38 22 39 40 41 8 2 16 15 10 9 8 2 40 41 27 24 1 1 25 22 0 0 1 1 27 24 42 42 15 14 41 21 14 13 15 14 42 42 43 45 36 44 35 43 21 46 36 44 43 45 44 47 15 14 31 25 41 21 15 14 44 47 45 50 29 49 31 48 28 51 29 49 45 50 28 26 26 52 30 28 30 28 24 54 46 53 41 55 30 28 46 53 30 28 26 52 24 54 41 55 44 56 30 28 44 56 31 29 30 28 25 59 1 58 47 57 1 58 48 60 47 57 1 58 3 62 49 61 51 64 3 62 50 63 3 62 5 65 50 63 50 63 5 65 38 37 5 65 22 39 38 37 41 68 52 67 42 66 10 70 50 63 12 69 38 37 12 69 50 63 48 60 14 71 47 57 51 64 40 72 49 61 50 63 10 70 51 64 10 70 40 72 51 64 25 59 47 57 52 67 14 71 42 66 47 57 42 66 52 67 47 57 16 73 14 71 48 60 16 73 48 60 49 61 1 58 49 61 48 60 3 62 51 64 49 61 40 72 16 73 49 61 37 35 19 75 53 74 11 77 53 74 54 76 7 79 6 78 54 76 9 81 54 76 55 80 6 78 4 82 55 80 21 33 19 75 37 35 19 75 7 79 53 74 11 77 37 35 53 74 4 82 2 84 56 83 8 85 55 80 56 83 4 82 56 83 55 80 31 48 15 86 45 50 15 86 17 88 57 87 17 88 8 90 56 89 45 50 27 91 28 51 57 87 0 92 45 50 2 93 0 92 57 87 56 89 2 93 57 87 15 86 57 87 45 50 0 92 27 91 45 50 17 88 56 89 57 87 20 94 21 46 43 45 18 95 39 38 23 40 20 94 58 96 18 95 38 37 13 97 12 69 39 38 32 98 13 97 58 96 34 99 32 98 34 99 43 45 35 43 20 94 43 45 58 96 58 96 43 45 34 99 39 38 58 96 32 98 18 95 58 96 39 38 38 37 39 38 13 97 52 67 46 100 25 59 24 101 25 59 46 100 46 100 52 67 41 68 8 85 9 81 55 80 9 81 11 77 54 76 11 77 33 102 37 35 33 102 35 36 37 35 54 76 6 78 55 80 53 74 7 79 54 76</p>
                </polylist>
            </mesh>
        </geometry>
    </library_geometries>
    <library_controllers>
        <controller id="controller0">
            <skin source="#mesh0">
                <bind_shape_matrix>1 0 0 0 0 1 0 0 0 0 1 0 0 0 0 1</bind_shape_matrix>
                <source id="joints0">
                    <Name_array id="JointArr0" count="4">jointnode-1 jointnode0 jointnode1 jointnode2</Name_array>
                    <technique_common>
                        <accessor source="#JointArr0" count="4">
                            <param name="JOINT" type="Name" />
                        </accessor>
                    </technique_common>
                </source>
                <source id="matrices0">
                    <float_array id="MatArr0" count="64">1 0 0 0 0 1 0 0 0 0 1 0 0 0 0 1 1 0 0 0 0 1 0 0 0 0 1 0 0 0 0 1 1 0 0 0 0 1 0 0 0 0 1 0 0 0 0 1 1 0 0 0 0 1 0 0 0 0 1 0 0 0 0 1</float_array>
                    <technique_common>
                        <accessor source="#MatArr0" count="4" stride="16">
                            <param type="float4x4" />
                        </accessor>
                    </technique_common>
                </source>
                <source id="weights0">
                    <float_array id="WeightArr0" count="1">1</float_array>
                    <technique_common>
                        <accessor source="#WeightArr0" count="1">
                            <param type="float" />
                        </accessor>
                    </technique_common>
                </source>
                <joints>
                    <input semantic="JOINT" source="#joints0" />
                    <input semantic="INV_BIND_MATRIX" source="#matrices0" />
                </joints>
                <vertex_weights count="38">
                    <input semantic="JOINT" offset="0" source="#joints0" />
                    <input semantic="WEIGHT" offset="1" source="#weights0" />
                    <vcount>1 1 1 1 1 1 1 1 1 1 1 1 1 1 1 1 1 1 1 1 1 1 1 1 1 1 1 1 1 1 1 1 1 1 1 1 1 1</vcount>
                    <v>2 0 2 0 2 0 2 0 2 0 2 0 2 0 2 0 2 0 2 0 2 0 2 0 2 0 2 0 2 0 2 0 2 0 2 0 2 0 2 0 2 0 2 0 2 0 2 0 2 0 2 0 2 0 2 0 2 0 2 0 2 0 2 0 2 0 2 0 2 0 2 0 2 0 2 0</v>
                </vertex_weights>
            </skin>
        </controller>
        <controller id="controller1">
            <skin source="#mesh1">
                <bind_shape_matrix>1 0 0 0 0 1 0 0 0 0 1 0 0 0 0 1</bind_shape_matrix>
                <source id="joints1">
                    <Name_array id="JointArr1" count="4">jointnode-1 jointnode0 jointnode1 jointnode2</Name_array>
                    <technique_common>
                        <accessor source="#JointArr1" count="4">
                            <param name="JOINT" type="Name" />
                        </accessor>
                    </technique_common>
                </source>
                <source id="matrices1">
                    <float_array id="MatArr1" count="64">1 0 0 0 0 1 0 0 0 0 1 0 0 0 0 1 1 0 0 0 0 1 0 0 0 0 1 0 0 0 0 1 1 0 0 0 0 1 0 0 0 0 1 0 0 0 0 1 1 0 0 0 0 1 0 0 0 0 1 0 0 0 0 1</float_array>
                    <technique_common>
                        <accessor source="#MatArr1" count="4" stride="16">
                            <param type="float4x4" />
                        </accessor>
                    </technique_common>
                </source>
                <source id="weights1">
                    <float_array id="WeightArr1" count="1">1</float_array>
                    <technique_common>
                        <accessor source="#WeightArr1" count="1">
                            <param type="float" />
                        </accessor>
                    </technique_common>
                </source>
                <joints>
                    <input semantic="JOINT" source="#joints1" />
                    <input semantic="INV_BIND_MATRIX" source="#matrices1" />
                </joints>
                <vertex_weights count="59">
                    <input semantic="JOINT" offset="0" source="#joints1" />
                    <input semantic="WEIGHT" offset="1" source="#weights1" />
                    <vcount>1 1 1 1 1 1 1 1 1 1 1 1 1 1 1 1 1 1 1 1 1 1 1 1 1 1 1 1 1 1 1 1 1 1 1 1 1 1 1 1 1 1 1 1 1 1 1 1 1 1 1 1 1 1 1 1 1 1 1</vcount>
                    <v>3 0 3 0 3 0 3 0 3 0 3 0 3 0 3 0 3 0 3 0 3 0 3 0 3 0 3 0 3 0 3 0 3 0 3 0 3 0 3 0 3 0 3 0 3 0 3 0 3 0 3 0 3 0 3 0 3 0 3 0 3 0 3 0 3 0 3 0 3 0 3 0 3 0 3 0 3 0 3 0 3 0 3 0 3 0 3 0 3 0 3 0 3 0 3 0 3 0 3 0 3 0 3 0 3 0 3 0 3 0 3 0 3 0 3 0 3 0</v>
                </vertex_weights>
            </skin>
        </controller>
    </library_controllers>
    <library_visual_scenes>
        <visual_scene id="VisualSceneNode">
            <node id="node0" name="m0" type="NODE">
                <instance_controller url="#controller0">
                    <skeleton>#jointnode-1</skeleton>
                    <bind_material>
                        <technique_common>
                            <instance_material symbol="Material1" target="#mat0">
                                <bind_vertex_input semantic="UVSET0" input_semantic="TEXCOORD" input_set="0"></bind_vertex_input>
                            </instance_material>
                        </technique_common>
                    </bind_material>
                </instance_controller>
            </node>
            <node id="node1" name="m1" type="NODE">
                <instance_controller url="#controller1">
                    <skeleton>#jointnode-1</skeleton>
                    <bind_material>
                        <technique_common>
                            <instance_material symbol="Material1" target="#mat1">
                                <bind_vertex_input semantic="UVSET0" input_semantic="TEXCOORD" input_set="0"></bind_vertex_input>
                            </instance_material>
                        </technique_common>
                    </bind_material>
                </instance_controller>
            </node>
            <node id="jointnode-1" name="root" sid="jointnode-1" type="JOINT">
                <node id="jointnode0" name="Vtri5" sid="jointnode0" type="JOINT">
                    <node id="jointnode1" name="Vtri5_model1" sid="jointnode1" type="JOINT">
                    </node>
                    <node id="jointnode2" name="Vtri5_model2" sid="jointnode2" type="JOINT">
                    </node>
                </node>
            </node>
        </visual_scene>
    </library_visual_scenes>
    <scene>
        <instance_visual_scene url="#VisualSceneNode"></instance_visual_scene>
    </scene>
</COLLADA>
