<?xml version="1.0"?>
<COLLADA xmlns="http://www.collada.org/2005/11/COLLADASchema" version="1.4.1">
    <asset>
        <contributor>
            <authoring_tool>J3D Ripoff Exporter</authoring_tool>
        </contributor>
        <created>2026-05-17T21:55:05.758Z</created>
        <modified>2026-05-17T21:55:05.758Z</modified>
		<unit meter="0.01" name="centimeter" ></unit>
        <up_axis>Y_UP</up_axis>
    </asset>
    <library_images>
        <image id="tex0">
            <init_from>V_tri_spc.png</init_from>
        </image>
        <image id="tex1">
            <init_from>Vtrif.png</init_from>
        </image>
        <image id="tex2">
            <init_from>V_tri_spc.png</init_from>
        </image>
        <image id="tex3">
            <init_from>ZAtoon.png</init_from>
        </image>
    </library_images>
    <library_effects>
        <effect id="effect0">
            <profile_COMMON>
                <newparam sid="surface0">
                    <surface type="2D">
                        <init_from>tex0</init_from>
                    </surface>
                </newparam>
                <newparam sid="sampler0">
                    <sampler2D>
                        <source>surface0</source>
                    </sampler2D>
                </newparam>
                <technique sid="COMMON">
                    <blinn>
                        <diffuse>
                            <texture texture="sampler0" texcoord="UVSET0"></texture>
                        </diffuse>
                    </blinn>
                </technique>
            </profile_COMMON>
        </effect>
        <effect id="effect1">
            <profile_COMMON>
                <newparam sid="surface1">
                    <surface type="2D">
                        <init_from>tex1</init_from>
                    </surface>
                </newparam>
                <newparam sid="sampler1">
                    <sampler2D>
                        <source>surface1</source>
                    </sampler2D>
                </newparam>
                <technique sid="COMMON">
                    <blinn>
                        <diffuse>
                            <texture texture="sampler1" texcoord="UVSET0"></texture>
                        </diffuse>
                    </blinn>
                </technique>
            </profile_COMMON>
        </effect>
    </library_effects>
    <library_materials>
        <material id="mat0" name="SC_tri_out">
            <instance_effect url="#effect0"></instance_effect>
        </material>
        <material id="mat1" name="Z_tri_in">
            <instance_effect url="#effect1"></instance_effect>
        </material>
    </library_materials>
    <library_geometries>
        <geometry id="mesh0">
            <mesh>
                <source id="points0">
                    <float_array id="pointarray0" count="99">-9.197402954101562 5.262456893920898 7.804459095001221 -8.535929679870605 9.345465660095215 7.804457187652588 -8.535929679870605 2.006563901901245 7.804458141326904 -7.428338050842285 8.9902982711792 7.804459095001221 6.136140823364258 -8.992663383483887 7.806060791015625 6.508048057556152 -8.594071388244629 7.804458141326904 2.327014923095703 -9.99177074432373 7.810873031616211 -0.27083298563957214 -8.779048919677734 7.810873031616211 -7.74019193649292 -3.3141860961914062 7.804460048675537 -5.473697185516357 -8.47222900390625 7.810873031616211 -7.74019193649292 -5.332339763641357 7.804459095001221 -8.535928726196289 -9.001792907714844 7.8065972328186035 0.5550739765167236 9.345464706420898 2.6755740642547607 0.5550749897956848 9.345465660095215 -7.810873985290527 9.228302001953125 -5.677005767822266 -7.810873985290527 -1.7176769971847534 8.606578826904297 -7.810873985290527 6.136140823364258 -8.99266242980957 -7.809268951416016 2.327014923095703 -10.25538444519043 -7.804458141326904 -1.4817759990692139 -9.109764099121094 -7.804458141326904 -3.4047770500183105 -0.3178449869155884 -7.807665824890137 -5.091876983642578 -9.242268562316895 -7.804458141326904 -9.228301048278809 -1.3149750232696533 7.804460048675537 -3.9904279708862305 9.598043441772461 -7.8108720779418945 -8.522558212280273 5.676012992858887 -7.8108720779418945 -7.763500213623047 2.0065619945526123 -7.8108720779418945 -8.535929679870605 -1.662889003753662 -7.810873985290527 -8.535929679870605 -9.001791000366211 -7.8087358474731445 -8.133695602416992 -5.332339763641357 -7.810873985290527 -5.801168918609619 8.884085655212402 7.804457187652588 -3.8493340015411377 9.345463752746582 7.804457187652588 -8.535929679870605 9.345465660095215 -7.810873985290527 -6.360098838806152 9.321431159973145 -7.810873985290527 9.228302001953125 -5.677004814147949 2.6755740642547607</float_array>
                    <technique_common>
                        <accessor count="33" source="#pointarray0" stride="3">
                            <param name="X" type="float"/>
                            <param name="Y" type="float"/>
                            <param name="Z" type="float"/>
                        </accessor>
                    </technique_common>
                </source>
                <source id="uvs0">
                    <float_array id="uvarray0" count="56">0.05078125 0.75390625 0.08203125 0.94140625 0.08203125 0.609375 0.13671875 0.92578125 0.796875 0.109375 0.81640625 0.12890625 0.61328125 0.0625 0.484375 0.1171875 0.12109375 0.3671875 0.23046875 0.1328125 0.12109375 0.2734375 0.08203125 0.109375 0.5234375 0.94140625 0.94921875 0.2578125 0.4140625 0.90625 0.61328125 0.05078125 0.42578125 0.10546875 0.33203125 0.50390625 0.25 0.09765625 0.046875 0.45703125 0.3046875 0.953125 0.08203125 0.7734375 0.12109375 0.609375 0.08203125 0.44140625 0.1015625 0.2734375 0.21484375 0.91796875 0.30859375 0.94140625 0.1875 0.9375</float_array>
                    <technique_common>
                        <accessor count="28" source="#uvarray0" stride="2">
                            <param name="S" type="float"/>
                            <param name="T" type="float"/>
                        </accessor>
                    </technique_common>
                </source>
                <vertices id="vertices0">
                    <input semantic="POSITION" source="#points0"/>
                </vertices>
                <polylist count="32" material="Material1">
                    <input offset="0" semantic="VERTEX" source="#vertices0"/>
                    <input offset="1" semantic="TEXCOORD" source="#uvs0" set="0"/>
                    <vcount>3 3 3 3 3 3 3 3 3 3 3 3 3 3 3 3 3 3 3 3 3 3 3 3 3 3 3 3 3 3 3 3</vcount>
                    <p>2 2 1 1 0 0 3 3 1 1 2 2 4 4 3 3 2 2 5 5 3 3 4 4 8 8 7 7 6 6 9 9 7 7 8 8 10 10 9 9 8 8 11 11 9 9 10 10 14 13 13 12 12 12 15 14 13 12 14 13 16 4 15 14 14 13 17 15 15 14 16 4 18 16 15 14 17 15 19 17 15 14 18 16 20 18 19 17 18 16 15 14 19 17 20 18 8 8 2 2 21 19 4 4 2 2 8 8 6 6 4 4 8 8 15 14 23 21 22 20 24 22 23 21 15 14 25 23 24 22 15 14 27 24 20 18 26 11 15 14 20 18 27 24 25 23 15 14 27 24 5 5 28 25 3 3 29 26 28 25 5 5 12 12 29 26 5 5 31 27 23 21 30 1 22 20 23 21 31 27 32 13 12 12 5 5 14 13 12 12 32 13</p>
                </polylist>
            </mesh>
        </geometry>
        <geometry id="mesh1">
            <mesh>
                <source id="points1">
                    <float_array id="pointarray1" count="144">2.3039751052856445 -9.892842292785645 7.733537197113037 -0.26815199851989746 -8.69212818145752 7.733537197113037 -5.74373197555542 8.796124458312988 7.72718620300293 -5.419501781463623 -8.388345718383789 7.733537197113037 -7.663556098937988 -5.279544830322266 7.727187156677246 -8.451415061950684 -8.912666320800781 7.72930383682251 -7.663556098937988 -3.2813720703125 7.7271881103515625 -9.136931419372559 -1.301954984664917 7.7271881103515625 -8.451416015625 1.9866969585418701 7.72718620300293 -3.8112220764160156 9.252935409545898 7.72718620300293 6.443611145019531 -8.508980751037598 7.72718620300293 6.0753889083862305 -8.903627395629883 7.728774070739746 -1.4671030044555664 -9.01956844329834 -7.72718620300293 -1.7006700038909912 8.521366119384766 -7.7335381507873535 -5.041461944580078 -9.150760650634766 -7.72718620300293 -8.053163528442383 -5.279544830322266 -7.7335381507873535 -8.451416015625 -8.912665367126465 -7.731421947479248 -7.686633110046387 1.9866950511932373 -7.7335381507873535 -8.438176155090332 5.619814872741699 -7.733537197113037 -3.950917959213257 9.503011703491211 -7.7335381507873535 -6.297128200531006 9.229140281677246 -7.7335381507873535 -9.106340408325195 5.210353851318359 7.7271881103515625 -7.354791164398193 8.901285171508789 7.727187156677246 0.5495790243148804 9.252936363220215 -7.7335381507873535 9.136932373046875 -5.620798110961914 -7.7335381507873535 6.0753889083862305 -8.903627395629883 -7.731949806213379 2.3039751052856445 -10.15384578704834 -7.72718620300293 -8.451416015625 -1.6464250087738037 -7.7335381507873535 9.136932373046875 -5.620797157287598 2.649082899093628 0.549576997756958 9.252936363220215 2.649082899093628 -8.451416015625 9.252936363220215 -7.7335381507873535 -6.552926063537598 10.153844833374023 -0.0031759999692440033 -8.451416015625 9.252936363220215 -0.00317499996162951 -8.451416015625 9.252936363220215 7.72718620300293 -7.477890968322754 0.5739009976387024 1.4162219762802124 -8.155296325683594 -8.083271980285645 1.452731966972351 -8.303302764892578 -6.374907970428467 2.7947258949279785 -7.36102819442749 3.3858718872070312 1.6648470163345337 5.473176002502441 -8.464879989624023 0 -6.459917068481445 -7.817584037780762 2.5082778930664062 -8.451415061950684 -1.6464250087738037 -0.00317499996162951 -1.4671030044555664 -8.906289100646973 0.0031759999692440033 2.3039751052856445 -8.904801368713379 -1.178400993347168 -7.240067005157471 -4.0106658935546875 1.7601979970932007 -8.451416015625 5.210352897644043 -0.00317499996162951 6.81528377532959 -6.6999711990356445 -0.7483339905738831 -2.7559449672698975 8.521364212036133 -0.00317499996162951 -4.293242931365967 9.57843017578125 -0.00317499996162951</float_array>
                    <technique_common>
                        <accessor count="48" source="#pointarray1" stride="3">
                            <param name="X" type="float"/>
                            <param name="Y" type="float"/>
                            <param name="Z" type="float"/>
                        </accessor>
                    </technique_common>
                </source>
                <source id="uvs1">
                    <float_array id="uvarray1" count="164">0.11328125 0.0625 0.09765625 0.06640625 0.06640625 0.15625 0.0703125 0.0703125 0.0546875 0.0859375 0.05078125 0.06640625 0.0546875 0.09375 0.046875 0.10546875 0.05078125 0.12109375 0.078125 0.16015625 0.13671875 0.06640625 0.1328125 0.06640625 0.08984375 0.06640625 0.08984375 0.15625 0.0703125 0.06640625 0.0546875 0.12109375 0.05078125 0.140625 0.0625 0.16015625 0.046875 0.140625 0.05859375 0.15625 0.1015625 0.16015625 0.15234375 0.08203125 0.11328125 0.05859375 0.05078125 0.10546875 0.39453125 0.51953125 0.3359375 0.75390625 0.3984375 0.75390625 0.3984375 0.9921875 0.7109375 0.51953125 0.67578125 0.70703125 0.6171875 0.51953125 0.9140625 0.70703125 0.84375 0.98046875 0.8984375 0.66796875 0.59375 0.703125 0.62109375 0.98046875 0.94921875 0.98046875 0.953125 0.51953125 0.97265625 0.75 0.83203125 0.51953125 0.97265625 0.51953125 0.57421875 0.67578125 0.48046875 0.51953125 0.58984375 0.51953125 0.73046875 0.75 0.7265625 0.98046875 0.71484375 0.75 0.7578125 0.51953125 0.8359375 0.78515625 0.83203125 0.98046875 0.48046875 0.98046875 0.46875 0.70703125 0.82421875 0.69921875 0.515625 0.75 0.5 0.98046875 0.390625 0.75 0.390625 0.98046875 0.84765625 0.51953125 0.390625 0.51953125 0.5078125 0.51953125 0.78515625 0.51953125 0.9296875 0.75390625 0.984375 0.5234375 0.84765625 0.5234375 0.85546875 0.75390625 0.984375 0.83203125 0.84765625 0.984375 0.8671875 0.984375 0.203125 0.75390625 0.2578125 0.75390625 0.1640625 0.51953125 0.2421875 0.51953125 0.36328125 0.98828125 0.30859375 0.98828125 0.2421875 0.98828125 0.1015625 0.83203125 0.08984375 0.515625 0.3203125 0.51953125 0.05078125 0.16015625 0.59375 0.98046875 0.71484375 0.98046875 0.97265625 0.98046875</float_array>
                    <technique_common>
                        <accessor count="82" source="#uvarray1" stride="2">
                            <param name="S" type="float"/>
                            <param name="T" type="float"/>
                        </accessor>
                    </technique_common>
                </source>
                <vertices id="vertices1">
                    <input semantic="POSITION" source="#points1"/>
                </vertices>
                <polylist count="92" material="Material1">
                    <input offset="0" semantic="VERTEX" source="#vertices1"/>
                    <input offset="1" semantic="TEXCOORD" source="#uvs1" set="0"/>
                    <vcount>3 3 3 3 3 3 3 3 3 3 3 3 3 3 3 3 3 3 3 3 3 3 3 3 3 3 3 3 3 3 3 3 3 3 3 3 3 3 3 3 3 3 3 3 3 3 3 3 3 3 3 3 3 3 3 3 3 3 3 3 3 3 3 3 3 3 3 3 3 3 3 3 3 3 3 3 3 3 3 3 3 3 3 3 3 3 3 3 3 3 3 3</vcount>
                    <p>2 2 1 1 0 0 3 3 1 1 2 2 4 4 3 3 2 2 5 5 3 3 4 4 2 2 6 6 4 4 7 7 6 6 2 2 8 8 7 7 2 2 2 2 10 10 9 9 11 11 10 10 2 2 0 0 11 11 2 2 14 14 13 13 12 12 15 4 13 13 14 14 16 5 15 4 14 14 18 16 13 13 17 15 19 9 13 13 18 16 20 17 19 9 18 16 2 2 21 18 8 8 22 19 21 18 2 2 24 21 13 13 23 20 25 11 13 13 24 21 26 22 13 13 25 11 12 12 13 13 26 22 27 23 13 13 15 4 17 15 13 13 27 23 29 20 10 10 28 21 9 9 10 10 29 20 29 20 24 21 23 20 28 21 24 21 29 20 32 26 31 25 30 24 33 27 31 25 32 26 8 30 34 29 7 28 36 33 15 32 35 31 17 35 34 29 37 34 16 36 35 31 15 32 35 31 5 37 36 33 11 40 0 39 38 38 3 43 5 42 39 41 27 45 40 44 34 29 1 47 3 43 41 46 0 39 1 47 42 48 42 48 26 49 38 38 35 51 16 50 39 41 15 32 43 52 27 45 43 52 40 44 27 45 27 45 34 29 17 35 37 34 44 53 17 35 17 35 44 53 18 54 44 53 32 55 18 54 18 54 32 55 30 56 5 37 4 57 36 33 21 59 33 58 44 53 32 55 44 53 33 58 40 44 43 52 6 60 37 34 34 29 8 30 44 53 37 34 21 59 37 34 8 30 21 59 15 32 36 33 43 52 6 60 43 52 4 57 43 52 36 33 4 57 7 28 40 44 6 60 7 28 34 29 40 44 25 63 24 62 45 61 38 64 25 63 45 61 28 65 45 61 24 62 11 66 38 64 45 61 10 67 11 66 45 61 28 65 10 67 45 61 13 70 47 69 46 68 19 71 31 25 47 69 2 73 31 25 22 72 46 68 47 69 2 73 46 68 2 73 9 74 47 69 31 25 2 73 31 25 33 27 22 72 29 75 46 68 9 74 13 70 46 68 29 75 13 70 29 75 23 76 19 71 47 69 13 70 20 77 31 25 19 71 30 24 31 25 20 77 33 78 21 18 22 19 30 78 20 17 18 16 5 42 35 51 39 41 16 50 14 79 39 41 14 79 12 80 41 46 3 43 39 41 41 46 41 46 26 49 42 48 0 39 42 48 38 38 26 49 25 81 38 38 1 47 41 46 42 48 41 46 12 80 26 49 39 41 14 79 41 46</p>
                </polylist>
            </mesh>
        </geometry>
    </library_geometries>
    <library_controllers>
        <controller id="controller0">
            <skin source="#mesh0">
                <bind_shape_matrix>1 0 0 0 0 1 0 0 0 0 1 0 0 0 0 1</bind_shape_matrix>
                <source id="joints0">
                    <Name_array id="JointArr0" count="4">jointnode-1 jointnode0 jointnode1 jointnode2</Name_array>
                    <technique_common>
                        <accessor source="#JointArr0" count="4">
                            <param name="JOINT" type="Name" />
                        </accessor>
                    </technique_common>
                </source>
                <source id="matrices0">
                    <float_array id="MatArr0" count="64">1 0 0 0 0 1 0 0 0 0 1 0 0 0 0 1 1 0 0 0 0 1 0 0 0 0 1 0 0 0 0 1 1 0 0 0 0 1 0 0 0 0 1 0 0 0 0 1 1 0 0 0 0 1 0 0 0 0 1 0 0 0 0 1</float_array>
                    <technique_common>
                        <accessor source="#MatArr0" count="4" stride="16">
                            <param type="float4x4" />
                        </accessor>
                    </technique_common>
                </source>
                <source id="weights0">
                    <float_array id="WeightArr0" count="1">1</float_array>
                    <technique_common>
                        <accessor source="#WeightArr0" count="1">
                            <param type="float" />
                        </accessor>
                    </technique_common>
                </source>
                <joints>
                    <input semantic="JOINT" source="#joints0" />
                    <input semantic="INV_BIND_MATRIX" source="#matrices0" />
                </joints>
                <vertex_weights count="33">
                    <input semantic="JOINT" offset="0" source="#joints0" />
                    <input semantic="WEIGHT" offset="1" source="#weights0" />
                    <vcount>1 1 1 1 1 1 1 1 1 1 1 1 1 1 1 1 1 1 1 1 1 1 1 1 1 1 1 1 1 1 1 1 1</vcount>
                    <v>2 0 2 0 2 0 2 0 2 0 2 0 2 0 2 0 2 0 2 0 2 0 2 0 2 0 2 0 2 0 2 0 2 0 2 0 2 0 2 0 2 0 2 0 2 0 2 0 2 0 2 0 2 0 2 0 2 0 2 0 2 0 2 0 2 0</v>
                </vertex_weights>
            </skin>
        </controller>
        <controller id="controller1">
            <skin source="#mesh1">
                <bind_shape_matrix>1 0 0 0 0 1 0 0 0 0 1 0 0 0 0 1</bind_shape_matrix>
                <source id="joints1">
                    <Name_array id="JointArr1" count="4">jointnode-1 jointnode0 jointnode1 jointnode2</Name_array>
                    <technique_common>
                        <accessor source="#JointArr1" count="4">
                            <param name="JOINT" type="Name" />
                        </accessor>
                    </technique_common>
                </source>
                <source id="matrices1">
                    <float_array id="MatArr1" count="64">1 0 0 0 0 1 0 0 0 0 1 0 0 0 0 1 1 0 0 0 0 1 0 0 0 0 1 0 0 0 0 1 1 0 0 0 0 1 0 0 0 0 1 0 0 0 0 1 1 0 0 0 0 1 0 0 0 0 1 0 0 0 0 1</float_array>
                    <technique_common>
                        <accessor source="#MatArr1" count="4" stride="16">
                            <param type="float4x4" />
                        </accessor>
                    </technique_common>
                </source>
                <source id="weights1">
                    <float_array id="WeightArr1" count="1">1</float_array>
                    <technique_common>
                        <accessor source="#WeightArr1" count="1">
                            <param type="float" />
                        </accessor>
                    </technique_common>
                </source>
                <joints>
                    <input semantic="JOINT" source="#joints1" />
                    <input semantic="INV_BIND_MATRIX" source="#matrices1" />
                </joints>
                <vertex_weights count="48">
                    <input semantic="JOINT" offset="0" source="#joints1" />
                    <input semantic="WEIGHT" offset="1" source="#weights1" />
                    <vcount>1 1 1 1 1 1 1 1 1 1 1 1 1 1 1 1 1 1 1 1 1 1 1 1 1 1 1 1 1 1 1 1 1 1 1 1 1 1 1 1 1 1 1 1 1 1 1 1</vcount>
                    <v>3 0 3 0 3 0 3 0 3 0 3 0 3 0 3 0 3 0 3 0 3 0 3 0 3 0 3 0 3 0 3 0 3 0 3 0 3 0 3 0 3 0 3 0 3 0 3 0 3 0 3 0 3 0 3 0 3 0 3 0 3 0 3 0 3 0 3 0 3 0 3 0 3 0 3 0 3 0 3 0 3 0 3 0 3 0 3 0 3 0 3 0 3 0 3 0</v>
                </vertex_weights>
            </skin>
        </controller>
    </library_controllers>
    <library_visual_scenes>
        <visual_scene id="VisualSceneNode">
            <node id="node0" name="m0" type="NODE">
                <instance_controller url="#controller0">
                    <skeleton>#jointnode-1</skeleton>
                    <bind_material>
                        <technique_common>
                            <instance_material symbol="Material1" target="#mat0">
                                <bind_vertex_input semantic="UVSET0" input_semantic="TEXCOORD" input_set="0"></bind_vertex_input>
                            </instance_material>
                        </technique_common>
                    </bind_material>
                </instance_controller>
            </node>
            <node id="node1" name="m1" type="NODE">
                <instance_controller url="#controller1">
                    <skeleton>#jointnode-1</skeleton>
                    <bind_material>
                        <technique_common>
                            <instance_material symbol="Material1" target="#mat1">
                                <bind_vertex_input semantic="UVSET0" input_semantic="TEXCOORD" input_set="0"></bind_vertex_input>
                            </instance_material>
                        </technique_common>
                    </bind_material>
                </instance_controller>
            </node>
            <node id="jointnode-1" name="root" sid="jointnode-1" type="JOINT">
                <node id="jointnode0" name="Vtri4" sid="jointnode0" type="JOINT">
                    <node id="jointnode1" name="Vtri4_model1" sid="jointnode1" type="JOINT">
                    </node>
                    <node id="jointnode2" name="Vtri4_model2" sid="jointnode2" type="JOINT">
                    </node>
                </node>
            </node>
        </visual_scene>
    </library_visual_scenes>
    <scene>
        <instance_visual_scene url="#VisualSceneNode"></instance_visual_scene>
    </scene>
</COLLADA>
