<?xml version="1.0"?>
<COLLADA xmlns="http://www.collada.org/2005/11/COLLADASchema" version="1.4.1">
    <asset>
        <contributor>
            <authoring_tool>J3D Ripoff Exporter</authoring_tool>
        </contributor>
        <created>2026-05-17T21:55:19.722Z</created>
        <modified>2026-05-17T21:55:19.722Z</modified>
		<unit meter="0.01" name="centimeter" ></unit>
        <up_axis>Y_UP</up_axis>
    </asset>
    <library_images>
        <image id="tex0">
            <init_from>V_tri_spc.png</init_from>
        </image>
        <image id="tex1">
            <init_from>Vtrif.png</init_from>
        </image>
        <image id="tex2">
            <init_from>V_tri_spc.png</init_from>
        </image>
        <image id="tex3">
            <init_from>ZAtoon.png</init_from>
        </image>
    </library_images>
    <library_effects>
        <effect id="effect0">
            <profile_COMMON>
                <newparam sid="surface0">
                    <surface type="2D">
                        <init_from>tex0</init_from>
                    </surface>
                </newparam>
                <newparam sid="sampler0">
                    <sampler2D>
                        <source>surface0</source>
                    </sampler2D>
                </newparam>
                <technique sid="COMMON">
                    <blinn>
                        <diffuse>
                            <texture texture="sampler0" texcoord="UVSET0"></texture>
                        </diffuse>
                    </blinn>
                </technique>
            </profile_COMMON>
        </effect>
        <effect id="effect1">
            <profile_COMMON>
                <newparam sid="surface1">
                    <surface type="2D">
                        <init_from>tex1</init_from>
                    </surface>
                </newparam>
                <newparam sid="sampler1">
                    <sampler2D>
                        <source>surface1</source>
                    </sampler2D>
                </newparam>
                <technique sid="COMMON">
                    <blinn>
                        <diffuse>
                            <texture texture="sampler1" texcoord="UVSET0"></texture>
                        </diffuse>
                    </blinn>
                </technique>
            </profile_COMMON>
        </effect>
    </library_effects>
    <library_materials>
        <material id="mat0" name="SC_tri_out">
            <instance_effect url="#effect0"></instance_effect>
        </material>
        <material id="mat1" name="Z_tri_in">
            <instance_effect url="#effect1"></instance_effect>
        </material>
    </library_materials>
    <library_geometries>
        <geometry id="mesh0">
            <mesh>
                <source id="points0">
                    <float_array id="pointarray0" count="75">-5.088650226593018 -4.045899868011475 -7.80766487121582 12.183354377746582 -12.226901054382324 -7.807665824890137 -7.3279900550842285 -3.160933017730713 -7.80766487121582 -2.361649990081787 12.965787887573242 -7.80766487121582 -12.183354377746582 -4.045901775360107 -7.80766487121582 -2.361649990081787 12.96578598022461 2.678781032562256 -12.183354377746582 -4.045903205871582 2.6787819862365723 -2.3616509437561035 5.33712100982666 7.80766487121582 -7.778943061828613 -3.6023080348968506 7.80766487121582 -5.088650226593018 -4.045905113220215 7.80766487121582 0.7047420144081116 -10.911564826965332 -7.80766487121582 3.0923500061035156 -12.22690200805664 -7.807665824890137 -0.9981499910354614 -8.136401176452637 -7.80766487121582 5.268180847167969 -12.250935554504395 -7.807665824890137 -2.640666961669922 -6.091149806976318 -7.80766487121582 7.637852191925049 -11.974324226379395 -7.80766487121582 9.910602569580078 -12.965786933898926 -7.807665824890137 12.183353424072266 -12.22690200805664 2.6787819862365723 -2.409899950027466 -5.359492778778076 7.80766487121582 -0.4314210116863251 -7.295158863067627 7.80766487121582 1.0470999479293823 -10.181652069091797 7.80766487121582 3.0923500061035156 -12.226901054382324 7.80766487121582 4.199942111968994 -12.582069396972656 7.807665824890137 5.827110767364502 -12.688281059265137 7.80766487121582 7.7789459228515625 -12.226902961730957 7.80766487121582</float_array>
                    <technique_common>
                        <accessor count="25" source="#pointarray0" stride="3">
                            <param name="X" type="float"/>
                            <param name="Y" type="float"/>
                            <param name="Z" type="float"/>
                        </accessor>
                    </technique_common>
                </source>
                <source id="uvs0">
                    <float_array id="uvarray0" count="40">0.30859375 0.36328125 0.94921875 0.078125 0.2265625 0.390625 0.41015625 0.953125 0.046875 0.36328125 0.41015625 0.6875 0.2109375 0.375 0.5234375 0.125 0.61328125 0.078125 0.4609375 0.21875 0.69140625 0.078125 0.40234375 0.2890625 0.78125 0.0859375 0.86328125 0.05078125 0.41015625 0.31640625 0.48046875 0.25 0.53515625 0.1484375 0.65234375 0.06640625 0.71484375 0.0625 0.78515625 0.078125</float_array>
                    <technique_common>
                        <accessor count="20" source="#uvarray0" stride="2">
                            <param name="S" type="float"/>
                            <param name="T" type="float"/>
                        </accessor>
                    </technique_common>
                </source>
                <vertices id="vertices0">
                    <input semantic="POSITION" source="#points0"/>
                </vertices>
                <polylist count="26" material="Material1">
                    <input offset="0" semantic="VERTEX" source="#vertices0"/>
                    <input offset="1" semantic="TEXCOORD" source="#uvs0" set="0"/>
                    <vcount>3 3 3 3 3 3 3 3 3 3 3 3 3 3 3 3 3 3 3 3 3 3 3 3 3 3</vcount>
                    <p>2 2 1 1 0 0 3 3 1 1 2 2 4 4 3 3 2 2 5 3 3 3 4 4 6 4 5 3 4 4 7 5 5 3 6 4 8 6 7 5 6 4 9 0 7 5 8 6 12 9 11 8 10 7 13 10 11 8 12 9 14 11 13 10 12 9 15 12 13 10 14 11 15 12 1 1 16 13 0 0 1 1 15 12 14 11 0 0 15 12 3 3 17 1 1 1 5 3 17 1 3 3 18 14 7 5 9 0 19 15 7 5 18 14 20 16 7 5 19 15 21 8 7 5 20 16 22 17 7 5 21 8 23 18 7 5 22 17 24 19 7 5 23 18 17 1 7 5 24 19 5 3 7 5 17 1</p>
                </polylist>
            </mesh>
        </geometry>
        <geometry id="mesh1">
            <mesh>
                <source id="points1">
                    <float_array id="pointarray1" count="105">7.701927185058594 -12.105843544006348 7.730360984802246 5.769415855407715 -12.562655448913574 7.730360984802246 -2.3382680416107178 5.284278869628906 7.730360984802246 4.158358097076416 -12.457493782043457 7.7303619384765625 3.061732053756714 -12.105842590332031 7.730360984802246 1.0367330312728882 -10.080842971801758 7.730360984802246 -0.4271489977836609 -7.222930908203125 7.7303619384765625 -2.3860390186309814 -5.306427001953125 7.7303619384765625 -12.062726974487305 -4.0058441162109375 -7.7303619384765625 -7.255435943603516 -3.1296370029449463 -7.7303619384765625 -2.3382670879364014 12.837414741516113 -7.7303619384765625 -5.038268089294434 -4.005842208862305 -7.7303619384765625 -2.6145219802856445 -6.030841827392578 -7.7303619384765625 -0.9882680177688599 -8.055843353271484 -7.7303619384765625 0.697763979434967 -10.803528785705566 -7.7303619384765625 3.061732053756714 -12.105843544006348 -7.7303619384765625 5.2160210609436035 -12.129638671875 -7.7303619384765625 7.562230110168457 -11.855767250061035 -7.7303619384765625 9.812478065490723 -12.83741283416748 -7.7303619384765625 3.061732053756714 -12.105842590332031 0 4.960223197937012 -11.204934120178223 0 -5.038267135620117 -4.0058441162109375 7.7303619384765625 -3.0132670402526855 -6.030841827392578 9.999999974752427e-7 -5.038267135620117 -4.0058441162109375 9.999999974752427e-7 -7.836944103240967 -3.960655927658081 9.999999974752427e-7 0.6977649927139282 -10.803528785705566 0 12.062727928161621 -12.105842590332031 -7.7303619384765625 -2.3382680416107178 12.837411880493164 2.652259111404419 12.062725067138672 -12.105842590332031 2.652259111404419 -7.701923847198486 -3.5666420459747314 7.7303619384765625 -12.062726974487305 -4.0058441162109375 2.652259111404419 8.757203102111816 -12.837414741516113 0 7.219904899597168 -11.780348777770996 0 -9.88232707977295 -4.896002769470215 1.095410943031311 -0.9882670044898987 -7.222930908203125 0</float_array>
                    <technique_common>
                        <accessor count="35" source="#pointarray1" stride="3">
                            <param name="X" type="float"/>
                            <param name="Y" type="float"/>
                            <param name="Z" type="float"/>
                        </accessor>
                    </technique_common>
                </source>
                <source id="uvs1">
                    <float_array id="uvarray1" count="102">0.1796875 0.05859375 0.16796875 0.05859375 0.10546875 0.1875 0.15625 0.05859375 0.14453125 0.05859375 0.12890625 0.07421875 0.11328125 0.08984375 0.09765625 0.10546875 0.03125 0.1171875 0.05859375 0.1171875 0.10546875 0.2421875 0.0859375 0.1171875 0.16015625 0.05859375 0.1953125 0.05859375 0.3984375 0.51953125 0.3984375 0.75390625 0.46484375 0.75390625 0.3984375 0.984375 0.046875 0.98828125 0.1484375 0.75390625 0.046875 0.75390625 0.046875 0.51953125 -0.03125 0.75 0.046875 0.75 0.39453125 0.5234375 0.33203125 0.75390625 0.328125 0.5234375 0.2109375 0.05859375 0.0625 0.1171875 0.4921875 0.984375 0.55859375 0.984375 0.59765625 0.75390625 0.54296875 0.75390625 0.43359375 0.984375 0.69921875 0.83203125 0.63671875 0.51953125 0.69921875 0.515625 0.55859375 0.51953125 0.4765625 0.51953125 -0.015625 0.51953125 -0.08984375 0.78515625 -0.02734375 0.98828125 -0.15625 0.51953125 -0.15625 0.83203125 0.3125 0.98828125 0.203125 0.75390625 0.2265625 0.51953125 0.2109375 0.98828125 0.12890625 0.98828125 0.1484375 0.51953125 0.39453125 0.98828125</float_array>
                    <technique_common>
                        <accessor count="51" source="#uvarray1" stride="2">
                            <param name="S" type="float"/>
                            <param name="T" type="float"/>
                        </accessor>
                    </technique_common>
                </source>
                <vertices id="vertices1">
                    <input semantic="POSITION" source="#points1"/>
                </vertices>
                <polylist count="66" material="Material1">
                    <input offset="0" semantic="VERTEX" source="#vertices1"/>
                    <input offset="1" semantic="TEXCOORD" source="#uvs1" set="0"/>
                    <vcount>3 3 3 3 3 3 3 3 3 3 3 3 3 3 3 3 3 3 3 3 3 3 3 3 3 3 3 3 3 3 3 3 3 3 3 3 3 3 3 3 3 3 3 3 3 3 3 3 3 3 3 3 3 3 3 3 3 3 3 3 3 3 3 3 3 3</vcount>
                    <p>2 2 1 1 0 0 3 3 1 1 2 2 4 4 3 3 2 2 2 2 5 5 4 4 6 6 5 5 2 2 7 7 6 6 2 2 10 10 9 9 8 8 11 11 9 9 10 10 12 7 11 11 10 10 10 10 13 6 12 7 14 5 13 6 10 10 15 4 14 5 10 10 10 10 16 12 15 4 17 0 16 12 10 10 18 13 17 0 10 10 20 16 19 15 15 14 4 17 19 15 20 16 23 20 22 19 21 18 11 21 22 19 23 20 23 23 24 22 11 21 21 18 24 22 23 23 25 25 15 24 19 15 14 26 15 24 25 25 27 10 26 27 10 10 28 27 26 27 27 10 28 27 2 2 0 0 27 10 2 2 28 27 2 2 21 11 7 7 29 28 21 11 2 2 27 10 8 8 30 8 10 10 8 8 27 10 2 2 30 8 29 28 27 10 30 8 2 2 31 31 0 30 1 29 32 32 1 29 20 16 20 16 3 33 4 17 28 34 0 30 31 31 18 35 28 34 31 31 18 35 26 36 28 34 17 37 18 35 32 32 16 38 17 37 20 16 15 14 16 38 20 16 9 39 11 21 24 22 29 41 33 40 24 22 8 42 9 39 24 22 30 43 8 42 33 40 33 40 8 42 24 22 21 18 29 41 24 22 29 41 30 43 33 40 26 27 18 13 10 10 19 15 5 44 25 25 13 46 25 25 34 45 25 25 6 47 34 45 34 45 7 48 22 19 12 49 34 45 22 19 7 48 21 18 22 19 34 45 6 47 7 48 25 25 5 44 6 47 19 15 4 50 5 44 12 49 13 46 34 45 13 46 14 26 25 25 12 49 22 19 11 21 18 35 31 31 32 32 17 37 32 32 20 16 1 29 3 33 20 16 31 31 1 29 32 32</p>
                </polylist>
            </mesh>
        </geometry>
    </library_geometries>
    <library_controllers>
        <controller id="controller0">
            <skin source="#mesh0">
                <bind_shape_matrix>1 0 0 0 0 1 0 0 0 0 1 0 0 0 0 1</bind_shape_matrix>
                <source id="joints0">
                    <Name_array id="JointArr0" count="4">jointnode-1 jointnode0 jointnode1 jointnode2</Name_array>
                    <technique_common>
                        <accessor source="#JointArr0" count="4">
                            <param name="JOINT" type="Name" />
                        </accessor>
                    </technique_common>
                </source>
                <source id="matrices0">
                    <float_array id="MatArr0" count="64">1 0 0 0 0 1 0 0 0 0 1 0 0 0 0 1 1 0 0 0 0 1 0 0 0 0 1 0 0 0 0 1 1 0 0 0 0 1 0 0 0 0 1 0 0 0 0 1 1 0 0 0 0 1 0 0 0 0 1 0 0 0 0 1</float_array>
                    <technique_common>
                        <accessor source="#MatArr0" count="4" stride="16">
                            <param type="float4x4" />
                        </accessor>
                    </technique_common>
                </source>
                <source id="weights0">
                    <float_array id="WeightArr0" count="1">1</float_array>
                    <technique_common>
                        <accessor source="#WeightArr0" count="1">
                            <param type="float" />
                        </accessor>
                    </technique_common>
                </source>
                <joints>
                    <input semantic="JOINT" source="#joints0" />
                    <input semantic="INV_BIND_MATRIX" source="#matrices0" />
                </joints>
                <vertex_weights count="25">
                    <input semantic="JOINT" offset="0" source="#joints0" />
                    <input semantic="WEIGHT" offset="1" source="#weights0" />
                    <vcount>1 1 1 1 1 1 1 1 1 1 1 1 1 1 1 1 1 1 1 1 1 1 1 1 1</vcount>
                    <v>2 0 2 0 2 0 2 0 2 0 2 0 2 0 2 0 2 0 2 0 2 0 2 0 2 0 2 0 2 0 2 0 2 0 2 0 2 0 2 0 2 0 2 0 2 0 2 0 2 0</v>
                </vertex_weights>
            </skin>
        </controller>
        <controller id="controller1">
            <skin source="#mesh1">
                <bind_shape_matrix>1 0 0 0 0 1 0 0 0 0 1 0 0 0 0 1</bind_shape_matrix>
                <source id="joints1">
                    <Name_array id="JointArr1" count="4">jointnode-1 jointnode0 jointnode1 jointnode2</Name_array>
                    <technique_common>
                        <accessor source="#JointArr1" count="4">
                            <param name="JOINT" type="Name" />
                        </accessor>
                    </technique_common>
                </source>
                <source id="matrices1">
                    <float_array id="MatArr1" count="64">1 0 0 0 0 1 0 0 0 0 1 0 0 0 0 1 1 0 0 0 0 1 0 0 0 0 1 0 0 0 0 1 1 0 0 0 0 1 0 0 0 0 1 0 0 0 0 1 1 0 0 0 0 1 0 0 0 0 1 0 0 0 0 1</float_array>
                    <technique_common>
                        <accessor source="#MatArr1" count="4" stride="16">
                            <param type="float4x4" />
                        </accessor>
                    </technique_common>
                </source>
                <source id="weights1">
                    <float_array id="WeightArr1" count="1">1</float_array>
                    <technique_common>
                        <accessor source="#WeightArr1" count="1">
                            <param type="float" />
                        </accessor>
                    </technique_common>
                </source>
                <joints>
                    <input semantic="JOINT" source="#joints1" />
                    <input semantic="INV_BIND_MATRIX" source="#matrices1" />
                </joints>
                <vertex_weights count="35">
                    <input semantic="JOINT" offset="0" source="#joints1" />
                    <input semantic="WEIGHT" offset="1" source="#weights1" />
                    <vcount>1 1 1 1 1 1 1 1 1 1 1 1 1 1 1 1 1 1 1 1 1 1 1 1 1 1 1 1 1 1 1 1 1 1 1</vcount>
                    <v>3 0 3 0 3 0 3 0 3 0 3 0 3 0 3 0 3 0 3 0 3 0 3 0 3 0 3 0 3 0 3 0 3 0 3 0 3 0 3 0 3 0 3 0 3 0 3 0 3 0 3 0 3 0 3 0 3 0 3 0 3 0 3 0 3 0 3 0 3 0</v>
                </vertex_weights>
            </skin>
        </controller>
    </library_controllers>
    <library_visual_scenes>
        <visual_scene id="VisualSceneNode">
            <node id="node0" name="m0" type="NODE">
                <instance_controller url="#controller0">
                    <skeleton>#jointnode-1</skeleton>
                    <bind_material>
                        <technique_common>
                            <instance_material symbol="Material1" target="#mat0">
                                <bind_vertex_input semantic="UVSET0" input_semantic="TEXCOORD" input_set="0"></bind_vertex_input>
                            </instance_material>
                        </technique_common>
                    </bind_material>
                </instance_controller>
            </node>
            <node id="node1" name="m1" type="NODE">
                <instance_controller url="#controller1">
                    <skeleton>#jointnode-1</skeleton>
                    <bind_material>
                        <technique_common>
                            <instance_material symbol="Material1" target="#mat1">
                                <bind_vertex_input semantic="UVSET0" input_semantic="TEXCOORD" input_set="0"></bind_vertex_input>
                            </instance_material>
                        </technique_common>
                    </bind_material>
                </instance_controller>
            </node>
            <node id="jointnode-1" name="root" sid="jointnode-1" type="JOINT">
                <node id="jointnode0" name="Vtri8" sid="jointnode0" type="JOINT">
                    <node id="jointnode1" name="Vtri8_model1" sid="jointnode1" type="JOINT">
                    </node>
                    <node id="jointnode2" name="Vtri8_model2" sid="jointnode2" type="JOINT">
                    </node>
                </node>
            </node>
        </visual_scene>
    </library_visual_scenes>
    <scene>
        <instance_visual_scene url="#VisualSceneNode"></instance_visual_scene>
    </scene>
</COLLADA>
