<?xml version="1.0"?>
<COLLADA xmlns="http://www.collada.org/2005/11/COLLADASchema" version="1.4.1">
    <asset>
        <contributor>
            <authoring_tool>J3D Ripoff Exporter</authoring_tool>
        </contributor>
        <created>2026-05-17T21:55:12.521Z</created>
        <modified>2026-05-17T21:55:12.521Z</modified>
		<unit meter="0.01" name="centimeter" ></unit>
        <up_axis>Y_UP</up_axis>
    </asset>
    <library_images>
        <image id="tex0">
            <init_from>V_tri_spc.png</init_from>
        </image>
        <image id="tex1">
            <init_from>Vtrif.png</init_from>
        </image>
        <image id="tex2">
            <init_from>V_tri_spc.png</init_from>
        </image>
        <image id="tex3">
            <init_from>ZAtoon.png</init_from>
        </image>
    </library_images>
    <library_effects>
        <effect id="effect0">
            <profile_COMMON>
                <newparam sid="surface0">
                    <surface type="2D">
                        <init_from>tex0</init_from>
                    </surface>
                </newparam>
                <newparam sid="sampler0">
                    <sampler2D>
                        <source>surface0</source>
                    </sampler2D>
                </newparam>
                <technique sid="COMMON">
                    <blinn>
                        <diffuse>
                            <texture texture="sampler0" texcoord="UVSET0"></texture>
                        </diffuse>
                    </blinn>
                </technique>
            </profile_COMMON>
        </effect>
        <effect id="effect1">
            <profile_COMMON>
                <newparam sid="surface1">
                    <surface type="2D">
                        <init_from>tex1</init_from>
                    </surface>
                </newparam>
                <newparam sid="sampler1">
                    <sampler2D>
                        <source>surface1</source>
                    </sampler2D>
                </newparam>
                <technique sid="COMMON">
                    <blinn>
                        <diffuse>
                            <texture texture="sampler1" texcoord="UVSET0"></texture>
                        </diffuse>
                    </blinn>
                </technique>
            </profile_COMMON>
        </effect>
    </library_effects>
    <library_materials>
        <material id="mat0" name="SC_tri_out">
            <instance_effect url="#effect0"></instance_effect>
        </material>
        <material id="mat1" name="Z_tri_in">
            <instance_effect url="#effect1"></instance_effect>
        </material>
    </library_materials>
    <library_geometries>
        <geometry id="mesh0">
            <mesh>
                <source id="points0">
                    <float_array id="pointarray0" count="141">-13.031760215759277 -3.022068977355957 7.804458141326904 -11.478729248046875 -1.4155329465866089 7.804458141326904 -13.24444580078125 -4.6286139488220215 7.804459095001221 8.620123863220215 -6.238091945648193 7.804458141326904 -14.708101272583008 -6.235168933868408 7.804457187652588 8.620123863220215 -10.24238395690918 2.675575017929077 -17.019983291625977 -10.239460945129395 2.675575017929077 -17.019981384277344 -10.239457130432129 -7.810873031616211 -5.8329758644104 9.136781692504883 7.8108720779418945 -2.0241870880126953 7.746610164642334 7.8108720779418945 -6.934980869293213 7.598740100860596 7.8108720779418945 -9.161141395568848 3.3722949028015137 7.804458141326904 -10.997973442077637 0.19100899994373322 7.804457187652588 17.019983291625977 9.145588874816895 -7.804457187652588 13.210968017578125 7.8827619552612305 -7.804457187652588 14.03011417388916 6.966807842254639 -7.810873031616211 9.402177810668945 9.028382301330566 -7.804457187652588 13.727277755737305 5.5187177658081055 -7.810873031616211 5.792078018188477 8.895877838134766 -7.804457187652588 2.348022937774658 9.13635540008545 -7.804457187652588 -6.46238899230957 5.812861919403076 -7.804457187652588 -8.629721641540527 4.292716979980469 -7.804457187652588 8.622330665588379 0.13975399732589722 -7.810873985290527 -9.255130767822266 2.518467903137207 -7.810873031616211 9.030036926269531 -3.936671018600464 -7.810873031616211 8.620862007141113 -6.78167200088501 -7.810873031616211 17.019983291625977 9.145588874816895 7.8108720779418945 15.27058219909668 8.08842658996582 7.80766487121582 13.210968017578125 8.14637565612793 7.810873031616211 13.369009017944336 6.408803939819336 7.804458141326904 8.616226196289062 0.13321100175380707 7.804457187652588 10.613120079040527 9.359098434448242 7.810873031616211 5.410256862640381 9.66591739654541 7.810873031616211 -5.8329758644104 9.136781692504883 -7.804457187652588 -2.0241870880126953 9.138284683227539 -7.804457187652588 11.506038665771484 2.2567970752716064 -7.810873031616211 -10.997977256774902 0.19100600481033325 -7.8108720779418945 -12.711161613464355 -2.416609048843384 -7.8108720779418945 -15.033334732055664 -5.024221897125244 -7.8108720779418945 9.042874336242676 -4.463180065155029 7.804458141326904 8.721022605895996 -2.8225460052490234 7.804458141326904 8.620124816894531 -10.242388725280762 -7.810873031616211 -15.487104415893555 -7.631834983825684 -7.8108720779418945 10.585156440734863 1.5852890014648438 7.804458141326904 12.583953857421875 4.195199966430664 7.804459095001221 2.3480238914489746 9.13635540008545 7.810873985290527 -8.562511444091797 6.4033308029174805 7.810873031616211</float_array>
                    <technique_common>
                        <accessor count="47" source="#pointarray0" stride="3">
                            <param name="X" type="float"/>
                            <param name="Y" type="float"/>
                            <param name="Z" type="float"/>
                        </accessor>
                    </technique_common>
                </source>
                <source id="uvs0">
                    <float_array id="uvarray0" count="80">0.15234375 0.37890625 0.1953125 0.44921875 0.1484375 0.3046875 0.7265625 0.234375 0.109375 0.234375 0.7265625 0.05078125 0.046875 0.05078125 0.34375 0.9296875 0.4453125 0.86328125 0.31640625 0.859375 0.25390625 0.66796875 0.20703125 0.5234375 0.94921875 0.9296875 0.84765625 0.87109375 0.8671875 0.828125 0.74609375 0.921875 0.859375 0.765625 0.65234375 0.91796875 0.55859375 0.9296875 0.328125 0.77734375 0.26953125 0.7109375 0.7265625 0.51953125 0.25390625 0.62890625 0.73828125 0.3359375 0.7265625 0.20703125 0.90234375 0.87890625 0.84765625 0.8828125 0.8515625 0.8046875 0.77734375 0.9375 0.640625 0.953125 0.4453125 0.9296875 0.80078125 0.6171875 0.16015625 0.40625 0.1015625 0.2890625 0.73828125 0.3125 0.73046875 0.38671875 0.08984375 0.171875 0.77734375 0.5859375 0.83203125 0.703125 0.2734375 0.8046875</float_array>
                    <technique_common>
                        <accessor count="40" source="#uvarray0" stride="2">
                            <param name="S" type="float"/>
                            <param name="T" type="float"/>
                        </accessor>
                    </technique_common>
                </source>
                <vertices id="vertices0">
                    <input semantic="POSITION" source="#points0"/>
                </vertices>
                <polylist count="45" material="Material1">
                    <input offset="0" semantic="VERTEX" source="#vertices0"/>
                    <input offset="1" semantic="TEXCOORD" source="#uvs0" set="0"/>
                    <vcount>3 3 3 3 3 3 3 3 3 3 3 3 3 3 3 3 3 3 3 3 3 3 3 3 3 3 3 3 3 3 3 3 3 3 3 3 3 3 3 3 3 3 3 3 3</vcount>
                    <p>2 2 1 1 0 0 3 3 1 1 2 2 4 4 3 3 2 2 5 5 3 3 4 4 6 6 5 5 4 4 7 6 5 5 6 6 10 9 9 8 8 7 3 3 9 8 10 9 11 10 3 3 10 9 1 1 3 3 11 10 12 11 1 1 11 10 15 14 14 13 13 12 16 15 14 13 15 14 17 16 16 15 15 14 18 17 16 15 17 16 19 18 18 17 17 16 22 21 21 20 20 19 23 22 21 20 22 21 24 23 23 22 22 21 25 24 23 22 24 23 28 26 27 25 26 12 29 27 27 25 28 26 30 21 29 27 28 26 32 29 28 26 31 28 30 21 28 26 32 29 3 3 30 21 32 29 34 30 20 19 33 7 22 21 20 19 34 30 35 31 22 21 34 30 25 24 36 11 23 22 37 32 36 11 25 24 38 33 37 32 25 24 40 35 3 3 39 34 30 21 3 3 40 35 7 6 41 5 5 5 42 36 41 5 7 6 44 38 30 21 43 37 29 27 30 21 44 38 32 29 9 8 3 3 45 18 9 8 32 29 34 30 17 16 35 31 19 18 17 16 34 30 42 36 25 24 41 5 38 33 25 24 42 36 11 10 10 9 46 39</p>
                </polylist>
            </mesh>
        </geometry>
        <geometry id="mesh1">
            <mesh>
                <source id="points1">
                    <float_array id="pointarray1" count="213">16.851469039916992 9.05504035949707 7.733537197113037 15.11938762664795 8.008344650268555 7.730360984802246 13.080166816711426 8.065719604492188 7.7335381507873535 13.236641883850098 6.345351219177246 7.72718620300293 10.508039474487305 9.266433715820312 7.7335381507873535 12.45936107635498 4.1536641120910645 7.727187156677246 10.480352401733398 1.5695949792861938 7.727184772491455 16.851469039916992 9.05504035949707 -7.72718620300293 13.080166816711426 7.804716110229492 -7.72718620300293 13.891201972961426 6.897830963134766 -7.7335381507873535 9.309087753295898 8.938994407653809 -7.72718620300293 13.591364860534668 5.464076995849609 -7.7335381507873535 11.392118453979492 2.234455108642578 -7.7335381507873535 8.530917167663574 0.13189199566841125 7.727184772491455 8.634675979614258 -2.7945969104766846 7.727184772491455 -9.07043743133545 3.33890700340271 7.727187156677246 8.953338623046875 -4.418988227844238 7.727184772491455 8.534775733947754 -6.176325798034668 7.727184772491455 5.734729766845703 8.807801246643066 -7.72718620300293 2.3247759342193604 9.045896530151367 -7.72718620300293 8.53696060180664 0.13837100565433502 -7.73353910446167 -2.004146099090576 9.047807693481445 -7.72718620300293 -5.775224208831787 9.046319007873535 -7.72718620300293 -9.163496017456055 2.4935340881347656 -7.7335381507873535 -10.889084815979004 0.1891150027513504 -7.7335357666015625 8.535506248474121 -6.714527130126953 -7.7335381507873535 -12.585309982299805 -2.3926799297332764 -7.7335357666015625 -14.884490013122559 -4.9744768142700195 -7.7335357666015625 -6.398405075073242 5.75531005859375 -7.72718620300293 -8.544280052185059 4.250216960906982 -7.72718620300293 5.356689929962158 9.570216178894043 7.7335381507873535 2.3247759342193604 9.045896530151367 7.7335381507873535 -2.004146099090576 7.669911861419678 7.7335381507873535 -5.775224208831787 9.046319961547852 7.7335381507873535 -6.866318225860596 7.523506164550781 7.7335381507873535 -8.477733612060547 6.339932918548584 7.7335381507873535 -10.889082908630371 0.18911899626255035 7.72718620300293 -11.36507797241211 -1.4015170335769653 7.72718620300293 -7.195133209228516 7.639159202575684 0.0031769999768584967 -5.775224208831787 9.046319961547852 0.0031769999768584967 -12.902732849121094 -2.992147922515869 7.72718620300293 -13.113312721252441 -4.582784175872803 7.7271881103515625 -2.004146099090576 7.777937889099121 0.0031769999768584967 8.940629005432129 -3.897692918777466 -7.7335381507873535 -15.33376693725586 -7.556271076202393 -7.7335357666015625 8.534775733947754 -10.140978813171387 -7.7335381507873535 8.534775733947754 -10.140974044799805 2.6490840911865234 -14.562477111816406 -6.173433780670166 7.727184772491455 -16.851469039916992 -10.138079643249512 2.6490840911865234 -16.85146713256836 -10.13807487487793 -7.7335381507873535 -12.420028686523438 -2.6924149990081787 0.3673810064792633 -11.620320320129395 -1.8970990180969238 0.3673799932003021 -12.672593116760254 -4.778629779815674 2.535460948944092 -15.717727661132812 -8.155740737915039 1.5003329515457153 -13.441267967224121 -6.864842891693115 3.4121599197387695 16.249366760253906 9.493681907653809 0.0031759999692440033 14.470151901245117 7.0741472244262695 1.0573320388793945 8.533939361572266 0.1351339966058731 0.996757984161377 8.469268798828125 -7.543770790100098 1.62191903591156 11.180269241333008 1.58154296875 -0.0031759999692440033 12.312533378601074 3.412724018096924 -0.00317799998447299 13.091134071350098 5.15703010559082 0.0031759999692440033 7.812543869018555 -3.5257151126861572 1.6219199895858765 9.443684577941895 -5.394054889678955 1.6219220161437988 4.316274166107178 10.14097785949707 2.5082778930664062 2.6208949089050293 9.875289916992188 1.455907940864563 -8.950499534606934 4.745798110961914 0.0031759999692440033 -10.25391674041748 0.4341239929199219 1.3378340005874634 -8.897004127502441 2.59553599357605 1.057893991470337 9.309087753295898 9.05227279663086 0.0031759999692440033 13.080166816711426 9.053760528564453 -1.178400993347168</float_array>
                    <technique_common>
                        <accessor count="71" source="#pointarray1" stride="3">
                            <param name="X" type="float"/>
                            <param name="Y" type="float"/>
                            <param name="Z" type="float"/>
                        </accessor>
                    </technique_common>
                </source>
                <source id="uvs1">
                    <float_array id="uvarray1" count="230">0.21484375 0.171875 0.20703125 0.16796875 0.1953125 0.16796875 0.1953125 0.15625 0.1796875 0.17578125 0.19140625 0.140625 0.1796875 0.125 0.1953125 0.1640625 0.19921875 0.16015625 0.17578125 0.171875 0.19921875 0.15234375 0.1875 0.12890625 0.171875 0.1171875 0.171875 0.09765625 0.078125 0.13671875 0.171875 0.0859375 0.171875 0.07421875 0.15625 0.171875 0.13671875 0.171875 0.11328125 0.171875 0.09375 0.171875 0.078125 0.1328125 0.06640625 0.1171875 0.05859375 0.1015625 0.046875 0.08203125 0.09375 0.15234375 0.08203125 0.14453125 0.15234375 0.17578125 0.11328125 0.1640625 0.08984375 0.1640625 0.08203125 0.15625 0.06640625 0.10546875 0.203125 0.51953125 0.13671875 0.75 0.203125 0.75 0.203125 0.9765625 0.05859375 0.09765625 0.0546875 0.0859375 0.31640625 0.75 0.171875 0.08984375 0.04296875 0.06640625 0.171875 0.05078125 0.046875 0.078125 0.03515625 0.05078125 0.3125 0.75 0.34375 0.74609375 0.35546875 0.97265625 0.296875 0.97265625 0.25390625 0.75 0.2578125 0.97265625 0.078125 0.81640625 0.1953125 0.97265625 0.18359375 0.75 0.85546875 0.75390625 0.84765625 0.5234375 0.76171875 0.78515625 0.75 0.5234375 0.328125 0.5234375 0.41015625 0.5234375 0.16796875 0.5234375 0.25 0.5234375 0.078125 0.5234375 0.484375 0.78515625 0.40234375 0.984375 0.46875 0.98828125 0.265625 0.8046875 0.19140625 0.83203125 0.3046875 0.984375 0.55078125 0.98828125 0.55859375 0.75390625 0.65234375 0.98828125 0.62890625 0.75390625 0.72265625 0.98828125 0.6875 0.75390625 0.796875 0.984375 0.359375 0.984375 0.37109375 0.8046875 0.33984375 0.8046875 0.19140625 0.5234375 0.58203125 0.5234375 0.484375 0.5234375 0.375 0.5234375 0.2890625 0.5234375 0.703125 0.5234375 0.84765625 0.984375 0.59375 0.98046875 0.57421875 0.67578125 0.48046875 0.98046875 0.46875 0.70703125 0.48046875 0.51953125 0.33203125 0.9765625 0.02734375 0.51953125 0.046875 0.75 0.08203125 0.51953125 0.15234375 0.51953125 0.41015625 0.74609375 0.48828125 0.96875 0.41015625 0.96875 0.4921875 0.5234375 0.015625 0.98046875 0.03125 0.71875 0.05859375 0.98046875 0.14453125 0.98046875 0.48828125 0.75 0.83203125 0.51953125 0.97265625 0.75 0.97265625 0.51953125 0.31640625 0.51953125 0.58984375 0.51953125 0.71484375 0.75 0.7578125 0.51953125 0.8359375 0.78515625 0.83203125 0.98046875 0.71484375 0.98046875 0.97265625 0.98046875</float_array>
                    <technique_common>
                        <accessor count="115" source="#uvarray1" stride="2">
                            <param name="S" type="float"/>
                            <param name="T" type="float"/>
                        </accessor>
                    </technique_common>
                </source>
                <vertices id="vertices1">
                    <input semantic="POSITION" source="#points1"/>
                </vertices>
                <polylist count="138" material="Material1">
                    <input offset="0" semantic="VERTEX" source="#vertices1"/>
                    <input offset="1" semantic="TEXCOORD" source="#uvs1" set="0"/>
                    <vcount>3 3 3 3 3 3 3 3 3 3 3 3 3 3 3 3 3 3 3 3 3 3 3 3 3 3 3 3 3 3 3 3 3 3 3 3 3 3 3 3 3 3 3 3 3 3 3 3 3 3 3 3 3 3 3 3 3 3 3 3 3 3 3 3 3 3 3 3 3 3 3 3 3 3 3 3 3 3 3 3 3 3 3 3 3 3 3 3 3 3 3 3 3 3 3 3 3 3 3 3 3 3 3 3 3 3 3 3 3 3 3 3 3 3 3 3 3 3 3 3 3 3 3 3 3 3 3 3 3 3 3 3 3 3 3 3 3 3</vcount>
                    <p>2 2 1 1 0 0 3 3 1 1 2 2 4 4 3 3 2 2 5 5 3 3 4 4 6 6 5 5 4 4 9 8 8 7 7 0 10 9 8 7 9 8 11 10 10 9 9 8 12 11 10 9 11 10 15 14 14 13 13 12 16 15 14 13 15 14 17 16 16 15 15 14 20 12 19 18 18 17 21 19 19 18 20 12 22 20 21 19 20 12 25 16 24 22 23 21 26 23 24 22 25 16 27 24 26 23 25 16 20 12 28 25 22 20 29 26 28 25 20 12 23 21 29 26 20 12 31 18 13 12 30 27 32 28 13 12 31 18 33 20 13 12 32 28 34 29 13 12 33 20 35 30 13 12 34 29 15 14 13 12 35 30 36 22 17 16 15 14 37 31 17 16 36 22 39 34 38 33 33 32 22 35 38 33 39 34 4 4 13 12 6 6 30 27 13 12 4 4 40 36 17 16 37 31 41 37 17 16 40 36 39 34 42 38 22 35 33 32 42 38 39 34 43 39 23 21 20 12 25 16 23 21 43 39 25 16 44 40 27 24 45 41 44 40 25 16 47 42 46 41 17 16 48 43 46 41 47 42 49 43 46 41 48 43 45 41 46 41 49 43 12 11 18 17 10 9 20 12 18 17 12 11 37 46 51 45 50 44 40 47 37 46 50 44 41 49 40 47 52 48 47 51 53 33 48 50 52 48 54 52 41 49 56 55 7 54 55 53 56 55 9 56 7 54 47 51 54 52 53 33 51 45 24 58 26 57 54 52 44 59 53 33 51 45 26 57 50 44 52 48 27 60 54 52 50 44 26 57 52 48 53 33 49 61 48 50 13 64 14 63 57 62 17 67 46 66 58 65 59 69 6 68 57 62 6 68 13 64 57 62 6 68 60 71 5 70 61 73 56 55 3 72 3 72 56 55 1 74 63 77 62 76 16 75 14 63 16 75 62 76 16 75 17 67 63 77 46 66 45 78 58 65 20 80 12 79 57 62 57 62 12 79 59 69 62 76 43 81 20 80 58 65 45 78 25 82 60 71 12 79 11 83 56 55 61 73 9 56 61 73 11 83 9 56 63 77 25 82 62 76 60 71 61 73 5 70 12 79 60 71 59 69 6 68 59 69 60 71 60 71 11 83 61 73 61 73 3 72 5 70 25 82 43 81 62 76 58 65 25 82 63 77 17 67 58 65 63 77 14 63 62 76 57 62 62 76 20 80 57 62 0 84 1 74 56 55 0 84 56 55 55 53 19 87 64 86 18 85 31 89 64 86 65 88 31 89 65 88 42 38 42 38 65 88 19 87 22 35 42 38 21 90 35 93 66 92 15 91 34 94 38 33 35 93 36 97 15 96 67 95 51 45 36 97 67 95 67 95 23 98 24 58 68 100 66 92 23 99 66 92 29 101 23 99 66 92 38 33 29 101 22 35 28 102 38 33 35 93 38 33 66 92 33 32 38 33 34 94 29 101 38 33 28 102 15 91 66 92 68 100 51 45 37 46 36 97 67 95 68 103 23 98 51 45 67 95 24 58 67 95 15 96 68 103 42 38 19 87 21 90 44 59 49 61 53 33 27 60 44 59 54 52 40 47 50 44 52 48 26 57 27 60 52 48 49 43 44 40 45 41 47 42 17 16 41 37 47 51 41 49 54 52 0 106 55 105 2 104 32 107 42 38 33 32 31 89 42 38 32 107 30 108 64 86 31 89 4 110 69 109 30 108 2 104 70 111 4 110 70 111 55 105 8 112 65 88 64 86 19 87 64 86 69 109 18 85 69 109 8 112 10 113 4 110 70 111 69 109 8 112 55 105 7 114 2 104 55 105 70 111 69 109 70 111 8 112 30 108 69 109 64 86 18 85 69 109 10 113</p>
                </polylist>
            </mesh>
        </geometry>
    </library_geometries>
    <library_controllers>
        <controller id="controller0">
            <skin source="#mesh0">
                <bind_shape_matrix>1 0 0 0 0 1 0 0 0 0 1 0 0 0 0 1</bind_shape_matrix>
                <source id="joints0">
                    <Name_array id="JointArr0" count="4">jointnode-1 jointnode0 jointnode1 jointnode2</Name_array>
                    <technique_common>
                        <accessor source="#JointArr0" count="4">
                            <param name="JOINT" type="Name" />
                        </accessor>
                    </technique_common>
                </source>
                <source id="matrices0">
                    <float_array id="MatArr0" count="64">1 0 0 0 0 1 0 0 0 0 1 0 0 0 0 1 1 0 0 0 0 1 0 0 0 0 1 0 0 0 0 1 1 0 0 0 0 1 0 0 0 0 1 0 0 0 0 1 1 0 0 0 0 1 0 0 0 0 1 0 0 0 0 1</float_array>
                    <technique_common>
                        <accessor source="#MatArr0" count="4" stride="16">
                            <param type="float4x4" />
                        </accessor>
                    </technique_common>
                </source>
                <source id="weights0">
                    <float_array id="WeightArr0" count="1">1</float_array>
                    <technique_common>
                        <accessor source="#WeightArr0" count="1">
                            <param type="float" />
                        </accessor>
                    </technique_common>
                </source>
                <joints>
                    <input semantic="JOINT" source="#joints0" />
                    <input semantic="INV_BIND_MATRIX" source="#matrices0" />
                </joints>
                <vertex_weights count="47">
                    <input semantic="JOINT" offset="0" source="#joints0" />
                    <input semantic="WEIGHT" offset="1" source="#weights0" />
                    <vcount>1 1 1 1 1 1 1 1 1 1 1 1 1 1 1 1 1 1 1 1 1 1 1 1 1 1 1 1 1 1 1 1 1 1 1 1 1 1 1 1 1 1 1 1 1 1 1</vcount>
                    <v>2 0 2 0 2 0 2 0 2 0 2 0 2 0 2 0 2 0 2 0 2 0 2 0 2 0 2 0 2 0 2 0 2 0 2 0 2 0 2 0 2 0 2 0 2 0 2 0 2 0 2 0 2 0 2 0 2 0 2 0 2 0 2 0 2 0 2 0 2 0 2 0 2 0 2 0 2 0 2 0 2 0 2 0 2 0 2 0 2 0 2 0 2 0</v>
                </vertex_weights>
            </skin>
        </controller>
        <controller id="controller1">
            <skin source="#mesh1">
                <bind_shape_matrix>1 0 0 0 0 1 0 0 0 0 1 0 0 0 0 1</bind_shape_matrix>
                <source id="joints1">
                    <Name_array id="JointArr1" count="4">jointnode-1 jointnode0 jointnode1 jointnode2</Name_array>
                    <technique_common>
                        <accessor source="#JointArr1" count="4">
                            <param name="JOINT" type="Name" />
                        </accessor>
                    </technique_common>
                </source>
                <source id="matrices1">
                    <float_array id="MatArr1" count="64">1 0 0 0 0 1 0 0 0 0 1 0 0 0 0 1 1 0 0 0 0 1 0 0 0 0 1 0 0 0 0 1 1 0 0 0 0 1 0 0 0 0 1 0 0 0 0 1 1 0 0 0 0 1 0 0 0 0 1 0 0 0 0 1</float_array>
                    <technique_common>
                        <accessor source="#MatArr1" count="4" stride="16">
                            <param type="float4x4" />
                        </accessor>
                    </technique_common>
                </source>
                <source id="weights1">
                    <float_array id="WeightArr1" count="1">1</float_array>
                    <technique_common>
                        <accessor source="#WeightArr1" count="1">
                            <param type="float" />
                        </accessor>
                    </technique_common>
                </source>
                <joints>
                    <input semantic="JOINT" source="#joints1" />
                    <input semantic="INV_BIND_MATRIX" source="#matrices1" />
                </joints>
                <vertex_weights count="71">
                    <input semantic="JOINT" offset="0" source="#joints1" />
                    <input semantic="WEIGHT" offset="1" source="#weights1" />
                    <vcount>1 1 1 1 1 1 1 1 1 1 1 1 1 1 1 1 1 1 1 1 1 1 1 1 1 1 1 1 1 1 1 1 1 1 1 1 1 1 1 1 1 1 1 1 1 1 1 1 1 1 1 1 1 1 1 1 1 1 1 1 1 1 1 1 1 1 1 1 1 1 1</vcount>
                    <v>3 0 3 0 3 0 3 0 3 0 3 0 3 0 3 0 3 0 3 0 3 0 3 0 3 0 3 0 3 0 3 0 3 0 3 0 3 0 3 0 3 0 3 0 3 0 3 0 3 0 3 0 3 0 3 0 3 0 3 0 3 0 3 0 3 0 3 0 3 0 3 0 3 0 3 0 3 0 3 0 3 0 3 0 3 0 3 0 3 0 3 0 3 0 3 0 3 0 3 0 3 0 3 0 3 0 3 0 3 0 3 0 3 0 3 0 3 0 3 0 3 0 3 0 3 0 3 0 3 0 3 0 3 0 3 0 3 0 3 0 3 0</v>
                </vertex_weights>
            </skin>
        </controller>
    </library_controllers>
    <library_visual_scenes>
        <visual_scene id="VisualSceneNode">
            <node id="node0" name="m0" type="NODE">
                <instance_controller url="#controller0">
                    <skeleton>#jointnode-1</skeleton>
                    <bind_material>
                        <technique_common>
                            <instance_material symbol="Material1" target="#mat0">
                                <bind_vertex_input semantic="UVSET0" input_semantic="TEXCOORD" input_set="0"></bind_vertex_input>
                            </instance_material>
                        </technique_common>
                    </bind_material>
                </instance_controller>
            </node>
            <node id="node1" name="m1" type="NODE">
                <instance_controller url="#controller1">
                    <skeleton>#jointnode-1</skeleton>
                    <bind_material>
                        <technique_common>
                            <instance_material symbol="Material1" target="#mat1">
                                <bind_vertex_input semantic="UVSET0" input_semantic="TEXCOORD" input_set="0"></bind_vertex_input>
                            </instance_material>
                        </technique_common>
                    </bind_material>
                </instance_controller>
            </node>
            <node id="jointnode-1" name="root" sid="jointnode-1" type="JOINT">
                <node id="jointnode0" name="Vtri6" sid="jointnode0" type="JOINT">
                    <node id="jointnode1" name="Vtri6_model1" sid="jointnode1" type="JOINT">
                    </node>
                    <node id="jointnode2" name="Vtri6_model2" sid="jointnode2" type="JOINT">
                    </node>
                </node>
            </node>
        </visual_scene>
    </library_visual_scenes>
    <scene>
        <instance_visual_scene url="#VisualSceneNode"></instance_visual_scene>
    </scene>
</COLLADA>
