# Blender 5.0.0
# www.blender.org
mtllib Treasure 2.mtl
o Treasure
v 0.600000 0.000000 -0.600000
v 0.600000 0.270000 -0.757500
v 0.674246 0.270000 -0.711369
v 0.705000 0.270000 -0.600000
v 0.674246 0.270000 -0.488631
v 0.600000 0.270000 -0.442500
v 0.525754 0.270000 -0.488631
v 0.495000 0.270000 -0.600000
v 0.525754 0.270000 -0.711369
v 0.600000 0.180000 -0.285000
v 0.748493 0.180000 -0.377261
v 0.810000 0.180000 -0.600000
v 0.748493 0.180000 -0.822739
v 0.600000 0.180000 -0.915000
v 0.451508 0.180000 -0.822739
v 0.390000 0.180000 -0.600000
v 0.451508 0.180000 -0.377261
v 0.525664 0.240000 -0.330804
v 0.674336 0.240000 -0.330804
v 0.779464 0.240000 -0.488496
v 0.779464 0.240000 -0.711504
v 0.674336 0.240000 -0.869195
v 0.525664 0.240000 -0.869195
v 0.420536 0.240000 -0.711504
v 0.420536 0.240000 -0.488496
v 0.000000 -0.000000 0.600000
v 0.000000 0.270000 0.495000
v 0.074246 0.270000 0.525754
v 0.105000 0.270000 0.600000
v 0.074246 0.270000 0.674246
v 0.000000 0.270000 0.705000
v -0.074246 0.270000 0.674246
v -0.105000 0.270000 0.600000
v -0.074246 0.270000 0.525754
v 0.000000 0.180000 0.810000
v 0.148492 0.180000 0.748492
v 0.210000 0.180000 0.600000
v 0.148492 0.180000 0.451508
v 0.000000 0.180000 0.390000
v -0.148492 0.180000 0.451508
v -0.210000 0.180000 0.600000
v -0.148492 0.180000 0.748492
v -0.074336 0.240000 0.779464
v 0.074336 0.240000 0.779464
v 0.179464 0.240000 0.674336
v 0.179464 0.240000 0.525664
v 0.074336 0.240000 0.420536
v -0.074336 0.240000 0.420536
v -0.179464 0.240000 0.525664
v -0.179464 0.240000 0.674336
v -0.170330 0.269649 -0.074907
v -0.299964 0.269649 0.149625
v -0.429597 0.269649 -0.074907
v -0.245950 0.269649 0.093492
v -0.191936 0.269649 -0.000063
v -0.407992 0.269649 -0.000063
v -0.353978 0.269649 0.093492
v -0.245950 0.269649 -0.093618
v -0.353978 0.269649 -0.093618
v -0.123191 0.242649 -0.102123
v -0.476737 0.242649 -0.102123
v -0.299964 0.242649 0.204057
v -0.406912 0.242649 -0.123555
v -0.299964 0.242649 -0.135904
v -0.193016 0.242649 -0.123555
v -0.353438 0.242649 0.154303
v -0.417606 0.242649 0.067858
v -0.460385 0.242649 -0.030936
v -0.139542 0.242649 -0.030936
v -0.182321 0.242649 0.067858
v -0.246490 0.242649 0.154303
v -0.387259 0.181363 -0.151263
v -0.212668 0.181363 -0.151263
v -0.387259 0.181363 0.151137
v -0.474555 0.181363 -0.000063
v -0.125373 0.181363 -0.000063
v -0.212669 0.181363 0.151137
v -0.509473 0.181363 -0.121023
v -0.299964 0.181363 0.241857
v -0.090455 0.181363 -0.121023
v -0.300000 0.000000 0.000000
v -0.510000 0.270000 -0.690000
v -0.690000 0.270000 -0.690000
v -0.510000 0.270000 -0.510000
v -0.690000 0.270000 -0.510000
v -0.510000 0.270000 -0.600000
v -0.600000 0.270000 -0.690000
v -0.690000 0.270000 -0.600000
v -0.600000 0.270000 -0.510000
v -0.600000 0.270000 -0.600000
v -0.750000 0.240000 -0.690000
v -0.750000 0.240000 -0.510000
v -0.750000 0.240000 -0.630000
v -0.750000 0.240000 -0.570000
v -0.690000 0.240000 -0.750000
v -0.690000 0.240000 -0.450000
v -0.510000 0.240000 -0.450000
v -0.450000 0.240000 -0.510000
v -0.450000 0.240000 -0.690000
v -0.510000 0.240000 -0.750000
v -0.630000 0.240000 -0.750000
v -0.570000 0.240000 -0.750000
v -0.450000 0.240000 -0.570000
v -0.450000 0.240000 -0.630000
v -0.630000 0.240000 -0.450000
v -0.570000 0.240000 -0.450000
v -0.780000 0.180000 -0.690000
v -0.780000 0.180000 -0.510000
v -0.780000 0.180000 -0.600000
v -0.510000 0.180000 -0.780000
v -0.690000 0.180000 -0.780000
v -0.600000 0.180000 -0.780000
v -0.420000 0.180000 -0.690000
v -0.420000 0.180000 -0.510000
v -0.420000 0.180000 -0.600000
v -0.510000 0.180000 -0.420000
v -0.690000 0.180000 -0.420000
v -0.600000 0.180000 -0.420000
v -0.645000 0.180000 -0.780000
v -0.555000 0.180000 -0.780000
v -0.555000 0.180000 -0.420000
v -0.645000 0.180000 -0.420000
v -0.600000 0.000000 -0.600000
v 0.210000 0.270000 -0.180000
v 0.210000 0.270000 0.180000
v 0.390000 0.270000 -0.180000
v 0.390000 0.270000 0.180000
v 0.300000 0.270000 -0.180000
v 0.210000 0.270000 -0.000000
v 0.300000 0.270000 0.180000
v 0.390000 0.270000 0.000000
v 0.300000 0.270000 -0.000000
v 0.210000 0.240000 0.240000
v 0.390000 0.240000 0.240000
v 0.270000 0.240000 0.240000
v 0.330000 0.240000 0.240000
v 0.150000 0.240000 0.180000
v 0.450000 0.240000 0.180000
v 0.450000 0.240000 -0.180000
v 0.390000 0.240000 -0.240000
v 0.210000 0.240000 -0.240000
v 0.150000 0.240000 -0.180000
v 0.150000 0.240000 0.060000
v 0.150000 0.240000 -0.060000
v 0.330000 0.240000 -0.240000
v 0.270000 0.240000 -0.240000
v 0.450000 0.240000 0.060000
v 0.450000 0.240000 -0.060000
v 0.210000 0.180000 0.270000
v 0.390000 0.180000 0.270000
v 0.300000 0.180000 0.270000
v 0.120000 0.180000 -0.180000
v 0.120000 0.180000 0.180000
v 0.120000 0.180000 -0.000000
v 0.210000 0.180000 -0.270000
v 0.390000 0.180000 -0.270000
v 0.300000 0.180000 -0.270000
v 0.480000 0.180000 -0.180000
v 0.480000 0.180000 0.180000
v 0.480000 0.180000 0.000000
v 0.120000 0.180000 0.105000
v 0.120000 0.180000 -0.105000
v 0.480000 0.180000 -0.105000
v 0.480000 0.180000 0.105000
v 0.300000 0.000000 -0.000000
vn -0.0000 1.0000 -0.0000
vn -0.3737 0.9276 -0.0000
vn -0.2733 0.9590 -0.0755
vn -0.2695 0.9461 -0.1797
vn -0.1152 0.9759 -0.1854
vn -0.0000 0.9658 -0.2594
vn 0.1152 0.9759 -0.1854
vn 0.2695 0.9461 -0.1797
vn 0.2733 0.9590 -0.0755
vn 0.3737 0.9276 -0.0000
vn 0.2733 0.9590 0.0755
vn 0.2695 0.9461 0.1797
vn 0.1152 0.9759 0.1854
vn -0.0000 0.9658 0.2594
vn -0.1152 0.9759 0.1854
vn -0.2733 0.9590 0.0755
vn -0.2695 0.9461 0.1797
vn -0.0000 0.6068 0.7949
vn 0.5277 -0.0054 0.8494
vn 0.7138 0.5138 0.4759
vn 0.9639 -0.0041 0.2662
vn 0.8912 0.4536 -0.0000
vn 0.9639 -0.0041 -0.2662
vn 0.7138 0.5138 -0.4759
vn 0.5277 -0.0054 -0.8494
vn -0.0000 0.6068 -0.7949
vn -0.5277 -0.0054 -0.8494
vn -0.7138 0.5138 -0.4759
vn -0.9639 -0.0041 -0.2662
vn -0.8912 0.4536 -0.0000
vn -0.9639 -0.0041 0.2662
vn -0.7138 0.5138 0.4759
vn -0.5277 -0.0054 0.8494
vn -0.6405 -0.7473 0.1769
vn -0.2946 -0.8297 0.4741
vn 0.2946 -0.8297 0.4741
vn 0.6405 -0.7473 0.1769
vn 0.6405 -0.7473 -0.1769
vn 0.2946 -0.8297 -0.4741
vn -0.6405 -0.7473 -0.1769
vn -0.2946 -0.8297 -0.4741
vn -0.2724 0.9556 -0.1128
vn -0.2642 0.9276 -0.2642
vn -0.1128 0.9556 -0.2724
vn -0.0000 0.9276 -0.3737
vn 0.1128 0.9556 -0.2724
vn 0.2642 0.9276 -0.2642
vn 0.2724 0.9556 -0.1128
vn 0.2724 0.9556 0.1128
vn 0.2642 0.9276 0.2642
vn 0.1128 0.9556 0.2724
vn -0.0000 0.9276 0.3737
vn -0.1128 0.9556 0.2724
vn -0.2724 0.9556 0.1128
vn -0.2642 0.9276 0.2642
vn -0.0000 0.4536 0.8912
vn 0.3827 -0.0039 0.9239
vn 0.6302 0.4536 0.6302
vn 0.9239 -0.0039 0.3827
vn 0.9239 -0.0039 -0.3827
vn 0.6302 0.4536 -0.6302
vn 0.3827 -0.0039 -0.9239
vn -0.0000 0.4536 -0.8912
vn -0.3827 -0.0039 -0.9239
vn -0.6302 0.4536 -0.6302
vn -0.9239 -0.0039 -0.3827
vn -0.9239 -0.0039 0.3827
vn -0.6302 0.4536 0.6302
vn -0.3827 -0.0039 0.9239
vn -0.6284 -0.7331 0.2603
vn -0.2603 -0.7331 0.6284
vn 0.2603 -0.7331 0.6284
vn 0.6284 -0.7331 0.2603
vn 0.6284 -0.7331 -0.2603
vn 0.2603 -0.7331 -0.6284
vn -0.6284 -0.7331 -0.2603
vn -0.2603 -0.7331 -0.6284
vn -0.0000 0.8944 0.4472
vn -0.4082 0.8165 0.4082
vn -0.4472 0.8944 -0.0000
vn -0.4082 0.8165 -0.4082
vn -0.0000 0.8944 -0.4472
vn 0.4082 0.8165 -0.4082
vn 0.4472 0.8944 -0.0000
vn 0.4082 0.8165 0.4082
vn -0.8944 0.4472 -0.0000
vn -0.6667 0.3333 -0.6667
vn -0.0000 0.4472 -0.8944
vn 0.6667 0.3333 -0.6667
vn 0.8944 0.4472 -0.0000
vn 0.6667 0.3333 0.6667
vn -0.0000 0.4472 0.8944
vn -0.6667 0.3333 0.6667
vn -0.0000 -0.7071 0.7071
vn 0.4851 -0.7276 0.4851
vn 0.7071 -0.7071 -0.0000
vn 0.4851 -0.7276 -0.4851
vn -0.0000 -0.7071 -0.7071
vn -0.4851 -0.7276 -0.4851
vn -0.7071 -0.7071 -0.0000
vn -0.4851 -0.7276 0.4851
vn 0.4082 -0.8165 -0.4082
vn -0.0000 -0.8321 -0.5547
vn -0.4082 -0.8165 -0.4082
vn -0.4082 -0.8165 0.4082
vn -0.0000 -0.8321 0.5547
vn 0.4082 -0.8165 0.4082
vn -0.5291 -0.6788 0.5091
vn -0.6653 -0.6402 0.3841
vn -0.7054 -0.6789 0.2036
vn -0.1763 -0.6791 -0.7125
vn -0.0000 -0.6405 -0.7680
vn 0.1763 -0.6792 -0.7125
vn 0.7053 -0.6790 0.2036
vn 0.6652 -0.6403 0.3840
vn 0.5290 -0.6790 0.5091
vn -0.8400 0.2431 0.4850
vn -0.8484 0.3812 0.3674
vn -0.9034 0.3403 0.2608
vn -0.8883 0.4115 0.2040
vn -0.2674 0.4115 -0.8713
vn -0.2259 0.3403 -0.9128
vn -0.1060 0.3812 -0.9184
vn -0.0000 0.2431 -0.9700
vn 0.1060 0.3812 -0.9184
vn 0.2259 0.3403 -0.9128
vn 0.2674 0.4115 -0.8713
vn 0.8883 0.4115 0.2040
vn 0.9034 0.3403 0.2608
vn 0.8484 0.3812 0.3674
vn 0.8400 0.2431 0.4850
vn 0.7423 0.3812 0.5510
vn 0.6776 0.3403 0.6520
vn 0.6208 0.4115 0.6672
vn -0.6208 0.4115 0.6672
vn -0.6776 0.3403 0.6520
vn -0.7423 0.3812 0.5510
vn -0.3821 0.8279 0.4107
vn -0.3911 0.8399 0.3764
vn -0.4834 0.7985 0.3588
vn -0.4661 0.8428 0.2691
vn -0.5524 0.7985 0.2392
vn -0.5215 0.8399 0.1505
vn -0.5467 0.8279 0.1256
vn -0.1646 0.8279 -0.5362
vn -0.1304 0.8399 -0.5269
vn -0.0691 0.7985 -0.5980
vn -0.0000 0.8428 -0.5382
vn 0.0691 0.7985 -0.5980
vn 0.1304 0.8399 -0.5269
vn 0.1646 0.8279 -0.5362
vn 0.5467 0.8279 0.1256
vn 0.5215 0.8399 0.1505
vn 0.5524 0.7985 0.2392
vn 0.4661 0.8428 0.2691
vn 0.4834 0.7985 0.3588
vn 0.3911 0.8399 0.3764
vn 0.3821 0.8279 0.4107
vt 0.000000 0.000000
s 0
usemtl Red
f 32/1/1 31/1/1 33/1/1
f 50/1/2 33/1/2 49/1/2
f 33/1/42 34/1/42 49/1/42
f 49/1/43 34/1/43 48/1/43
f 34/1/44 27/1/44 48/1/44
f 48/1/45 27/1/45 47/1/45
f 27/1/46 28/1/46 47/1/46
f 47/1/47 28/1/47 46/1/47
f 28/1/48 29/1/48 46/1/48
f 46/1/10 29/1/10 45/1/10
f 29/1/49 30/1/49 45/1/49
f 45/1/50 30/1/50 44/1/50
f 30/1/51 31/1/51 44/1/51
f 44/1/52 31/1/52 43/1/52
f 31/1/53 32/1/53 43/1/53
f 32/1/54 33/1/54 50/1/54
f 43/1/55 32/1/55 50/1/55
f 43/1/56 35/1/56 44/1/56
f 35/1/57 36/1/57 44/1/57
f 44/1/58 36/1/58 45/1/58
f 36/1/59 37/1/59 45/1/59
f 45/1/22 37/1/22 46/1/22
f 37/1/60 38/1/60 46/1/60
f 46/1/61 38/1/61 47/1/61
f 38/1/62 39/1/62 47/1/62
f 47/1/63 39/1/63 48/1/63
f 39/1/64 40/1/64 48/1/64
f 48/1/65 40/1/65 49/1/65
f 40/1/66 41/1/66 49/1/66
f 49/1/30 41/1/30 50/1/30
f 41/1/67 42/1/67 50/1/67
f 50/1/68 42/1/68 43/1/68
f 35/1/69 43/1/69 42/1/69
f 41/1/70 26/1/70 42/1/70
f 42/1/71 26/1/71 35/1/71
f 35/1/72 26/1/72 36/1/72
f 36/1/73 26/1/73 37/1/73
f 37/1/74 26/1/74 38/1/74
f 38/1/75 26/1/75 39/1/75
f 41/1/76 40/1/76 26/1/76
f 39/1/77 26/1/77 40/1/77
f 30/1/1 33/1/1 31/1/1
f 33/1/1 30/1/1 34/1/1
f 30/1/1 29/1/1 34/1/1
f 27/1/1 34/1/1 28/1/1
f 28/1/1 34/1/1 29/1/1
usemtl Green
f 79/1/108 74/1/108 81/1/108
f 74/1/109 75/1/109 81/1/109
f 75/1/110 78/1/110 81/1/110
f 78/1/111 72/1/111 81/1/111
f 72/1/112 73/1/112 81/1/112
f 73/1/113 80/1/113 81/1/113
f 80/1/114 76/1/114 81/1/114
f 76/1/115 77/1/115 81/1/115
f 77/1/116 79/1/116 81/1/116
f 74/1/117 67/1/117 75/1/117
f 67/1/118 68/1/118 75/1/118
f 75/1/119 68/1/119 78/1/119
f 68/1/120 61/1/120 78/1/120
f 63/1/121 78/1/121 61/1/121
f 78/1/122 63/1/122 72/1/122
f 63/1/123 64/1/123 72/1/123
f 73/1/124 72/1/124 64/1/124
f 65/1/125 73/1/125 64/1/125
f 73/1/126 65/1/126 80/1/126
f 65/1/127 60/1/127 80/1/127
f 69/1/128 80/1/128 60/1/128
f 76/1/129 80/1/129 69/1/129
f 70/1/130 76/1/130 69/1/130
f 77/1/131 76/1/131 70/1/131
f 71/1/132 77/1/132 70/1/132
f 79/1/133 77/1/133 71/1/133
f 62/1/134 79/1/134 71/1/134
f 66/1/135 79/1/135 62/1/135
f 74/1/136 79/1/136 66/1/136
f 67/1/137 74/1/137 66/1/137
f 66/1/138 62/1/138 52/1/138
f 57/1/139 66/1/139 52/1/139
f 67/1/140 66/1/140 57/1/140
f 57/1/141 56/1/141 67/1/141
f 67/1/142 56/1/142 68/1/142
f 53/1/143 68/1/143 56/1/143
f 61/1/144 68/1/144 53/1/144
f 63/1/145 61/1/145 53/1/145
f 59/1/146 63/1/146 53/1/146
f 64/1/147 63/1/147 59/1/147
f 58/1/148 64/1/148 59/1/148
f 65/1/149 64/1/149 58/1/149
f 51/1/150 65/1/150 58/1/150
f 60/1/151 65/1/151 51/1/151
f 69/1/152 60/1/152 51/1/152
f 55/1/153 69/1/153 51/1/153
f 70/1/154 69/1/154 55/1/154
f 54/1/155 70/1/155 55/1/155
f 71/1/156 70/1/156 54/1/156
f 52/1/157 71/1/157 54/1/157
f 62/1/158 71/1/158 52/1/158
f 52/1/1 54/1/1 57/1/1
f 54/1/1 58/1/1 57/1/1
f 55/1/1 58/1/1 54/1/1
f 51/1/1 58/1/1 55/1/1
f 57/1/1 58/1/1 56/1/1
f 53/1/1 56/1/1 59/1/1
f 58/1/1 59/1/1 56/1/1
usemtl Blue
f 130/1/1 127/1/1 132/1/1
f 131/1/1 132/1/1 127/1/1
f 128/1/1 132/1/1 131/1/1
f 132/1/1 128/1/1 129/1/1
f 132/1/1 129/1/1 130/1/1
f 126/1/1 128/1/1 131/1/1
f 124/1/1 129/1/1 128/1/1
f 129/1/1 125/1/1 130/1/1
f 127/1/84 147/1/84 131/1/84
f 147/1/84 127/1/84 138/1/84
f 138/1/85 127/1/85 134/1/85
f 136/1/78 134/1/78 127/1/78
f 130/1/78 136/1/78 127/1/78
f 135/1/78 136/1/78 130/1/78
f 125/1/78 135/1/78 130/1/78
f 135/1/78 125/1/78 133/1/78
f 137/1/79 133/1/79 125/1/79
f 137/1/80 125/1/80 143/1/80
f 125/1/80 129/1/80 143/1/80
f 143/1/80 129/1/80 144/1/80
f 129/1/80 124/1/80 144/1/80
f 144/1/80 124/1/80 142/1/80
f 142/1/81 124/1/81 141/1/81
f 141/1/82 124/1/82 146/1/82
f 124/1/82 128/1/82 146/1/82
f 146/1/82 128/1/82 145/1/82
f 128/1/82 126/1/82 145/1/82
f 145/1/82 126/1/82 140/1/82
f 140/1/83 126/1/83 139/1/83
f 148/1/84 139/1/84 126/1/84
f 126/1/84 131/1/84 148/1/84
f 148/1/84 131/1/84 147/1/84
f 134/1/92 136/1/92 150/1/92
f 150/1/92 136/1/92 151/1/92
f 136/1/92 135/1/92 151/1/92
f 151/1/92 135/1/92 149/1/92
f 135/1/92 133/1/92 149/1/92
f 133/1/93 137/1/93 149/1/93
f 149/1/93 137/1/93 153/1/93
f 153/1/86 137/1/86 161/1/86
f 137/1/86 143/1/86 161/1/86
f 161/1/86 143/1/86 154/1/86
f 143/1/86 144/1/86 154/1/86
f 154/1/86 144/1/86 162/1/86
f 144/1/86 142/1/86 162/1/86
f 162/1/86 142/1/86 152/1/86
f 142/1/87 141/1/87 152/1/87
f 152/1/87 141/1/87 155/1/87
f 141/1/88 146/1/88 155/1/88
f 155/1/88 146/1/88 157/1/88
f 146/1/88 145/1/88 157/1/88
f 156/1/88 157/1/88 145/1/88
f 145/1/88 140/1/88 156/1/88
f 139/1/89 156/1/89 140/1/89
f 158/1/89 156/1/89 139/1/89
f 148/1/90 163/1/90 139/1/90
f 163/1/90 158/1/90 139/1/90
f 160/1/90 163/1/90 148/1/90
f 147/1/90 160/1/90 148/1/90
f 164/1/90 160/1/90 147/1/90
f 147/1/90 138/1/90 164/1/90
f 159/1/90 164/1/90 138/1/90
f 134/1/91 159/1/91 138/1/91
f 150/1/91 159/1/91 134/1/91
f 163/1/96 160/1/96 165/1/96
f 158/1/96 163/1/96 165/1/96
f 158/1/102 165/1/102 156/1/102
f 157/1/103 156/1/103 165/1/103
f 155/1/103 157/1/103 165/1/103
f 155/1/104 165/1/104 152/1/104
f 162/1/100 152/1/100 165/1/100
f 154/1/100 162/1/100 165/1/100
f 161/1/100 154/1/100 165/1/100
f 153/1/100 161/1/100 165/1/100
f 153/1/105 165/1/105 149/1/105
f 151/1/106 149/1/106 165/1/106
f 150/1/106 151/1/106 165/1/106
f 159/1/107 150/1/107 165/1/107
f 164/1/96 159/1/96 165/1/96
f 160/1/96 164/1/96 165/1/96
usemtl Yellow
f 88/1/1 85/1/1 90/1/1
f 89/1/1 90/1/1 85/1/1
f 86/1/1 90/1/1 89/1/1
f 90/1/1 86/1/1 87/1/1
f 90/1/1 87/1/1 88/1/1
f 84/1/1 86/1/1 89/1/1
f 82/1/1 87/1/1 86/1/1
f 87/1/1 83/1/1 88/1/1
f 85/1/78 105/1/78 89/1/78
f 105/1/78 85/1/78 96/1/78
f 96/1/79 85/1/79 92/1/79
f 94/1/80 92/1/80 85/1/80
f 88/1/80 94/1/80 85/1/80
f 93/1/80 94/1/80 88/1/80
f 83/1/80 93/1/80 88/1/80
f 93/1/80 83/1/80 91/1/80
f 95/1/81 91/1/81 83/1/81
f 95/1/82 83/1/82 101/1/82
f 83/1/82 87/1/82 101/1/82
f 101/1/82 87/1/82 102/1/82
f 87/1/82 82/1/82 102/1/82
f 102/1/82 82/1/82 100/1/82
f 100/1/83 82/1/83 99/1/83
f 99/1/84 82/1/84 104/1/84
f 82/1/84 86/1/84 104/1/84
f 104/1/84 86/1/84 103/1/84
f 86/1/84 84/1/84 103/1/84
f 103/1/84 84/1/84 98/1/84
f 98/1/85 84/1/85 97/1/85
f 106/1/78 97/1/78 84/1/78
f 84/1/78 89/1/78 106/1/78
f 106/1/78 89/1/78 105/1/78
f 92/1/86 94/1/86 108/1/86
f 108/1/86 94/1/86 109/1/86
f 94/1/86 93/1/86 109/1/86
f 109/1/86 93/1/86 107/1/86
f 93/1/86 91/1/86 107/1/86
f 91/1/87 95/1/87 107/1/87
f 107/1/87 95/1/87 111/1/87
f 111/1/88 95/1/88 119/1/88
f 95/1/88 101/1/88 119/1/88
f 119/1/88 101/1/88 112/1/88
f 101/1/88 102/1/88 112/1/88
f 112/1/88 102/1/88 120/1/88
f 102/1/88 100/1/88 120/1/88
f 120/1/88 100/1/88 110/1/88
f 100/1/89 99/1/89 110/1/89
f 110/1/89 99/1/89 113/1/89
f 99/1/90 104/1/90 113/1/90
f 113/1/90 104/1/90 115/1/90
f 104/1/90 103/1/90 115/1/90
f 114/1/90 115/1/90 103/1/90
f 103/1/90 98/1/90 114/1/90
f 97/1/91 114/1/91 98/1/91
f 116/1/91 114/1/91 97/1/91
f 106/1/92 121/1/92 97/1/92
f 121/1/92 116/1/92 97/1/92
f 118/1/92 121/1/92 106/1/92
f 105/1/92 118/1/92 106/1/92
f 122/1/92 118/1/92 105/1/92
f 105/1/92 96/1/92 122/1/92
f 117/1/92 122/1/92 96/1/92
f 92/1/93 117/1/93 96/1/93
f 108/1/93 117/1/93 92/1/93
f 121/1/94 118/1/94 123/1/94
f 116/1/94 121/1/94 123/1/94
f 116/1/95 123/1/95 114/1/95
f 115/1/96 114/1/96 123/1/96
f 113/1/96 115/1/96 123/1/96
f 113/1/97 123/1/97 110/1/97
f 120/1/98 110/1/98 123/1/98
f 112/1/98 120/1/98 123/1/98
f 119/1/98 112/1/98 123/1/98
f 111/1/98 119/1/98 123/1/98
f 111/1/99 123/1/99 107/1/99
f 109/1/100 107/1/100 123/1/100
f 108/1/100 109/1/100 123/1/100
f 117/1/101 108/1/101 123/1/101
f 122/1/94 117/1/94 123/1/94
f 118/1/94 122/1/94 123/1/94
usemtl Purple
f 7/1/1 6/1/1 8/1/1
f 25/1/2 8/1/2 24/1/2
f 8/1/3 9/1/3 24/1/3
f 24/1/4 9/1/4 23/1/4
f 9/1/5 2/1/5 23/1/5
f 23/1/6 2/1/6 22/1/6
f 2/1/7 3/1/7 22/1/7
f 22/1/8 3/1/8 21/1/8
f 3/1/9 4/1/9 21/1/9
f 21/1/10 4/1/10 20/1/10
f 4/1/11 5/1/11 20/1/11
f 20/1/12 5/1/12 19/1/12
f 5/1/13 6/1/13 19/1/13
f 19/1/14 6/1/14 18/1/14
f 6/1/15 7/1/15 18/1/15
f 7/1/16 8/1/16 25/1/16
f 18/1/17 7/1/17 25/1/17
f 18/1/18 10/1/18 19/1/18
f 10/1/19 11/1/19 19/1/19
f 19/1/20 11/1/20 20/1/20
f 11/1/21 12/1/21 20/1/21
f 20/1/22 12/1/22 21/1/22
f 12/1/23 13/1/23 21/1/23
f 21/1/24 13/1/24 22/1/24
f 13/1/25 14/1/25 22/1/25
f 22/1/26 14/1/26 23/1/26
f 14/1/27 15/1/27 23/1/27
f 23/1/28 15/1/28 24/1/28
f 15/1/29 16/1/29 24/1/29
f 24/1/30 16/1/30 25/1/30
f 16/1/31 17/1/31 25/1/31
f 25/1/32 17/1/32 18/1/32
f 10/1/33 18/1/33 17/1/33
f 16/1/34 1/1/34 17/1/34
f 17/1/35 1/1/35 10/1/35
f 10/1/36 1/1/36 11/1/36
f 11/1/37 1/1/37 12/1/37
f 12/1/38 1/1/38 13/1/38
f 13/1/39 1/1/39 14/1/39
f 16/1/40 15/1/40 1/1/40
f 14/1/41 1/1/41 15/1/41
f 5/1/1 8/1/1 6/1/1
f 8/1/1 5/1/1 9/1/1
f 5/1/1 4/1/1 9/1/1
f 2/1/1 9/1/1 3/1/1
f 3/1/1 9/1/1 4/1/1
