# 3ds Max Wavefront OBJ Exporter v0.97b - (c)2007 guruware
# File Created: 11.09.2016 18:33:29

mtllib Blue Gem.mtl

#
# object BlueGem
#

v  0.0000 -1.5191 -0.0000
v  1.9025 0.2248 3.1090
v  0.5782 0.2254 3.6520
v  3.5409 0.2248 0.8520
v  2.9867 0.2254 2.1740
v  3.1042 0.2248 -1.9040
v  3.6475 0.2254 -0.5780
v  0.8491 0.2248 -3.5450
v  2.1693 0.2254 -2.9900
v  1.0212 1.5196 -1.4100
v  -0.4737 0.9272 -2.9910
v  -1.4075 1.5196 -1.0260
v  1.4070 1.5196 1.0260
v  2.9867 0.9272 -0.4730
v  -1.0217 1.5196 1.4100
v  0.4732 0.9272 2.9910
v  -2.9872 0.9272 0.4730
v  -2.1698 0.2254 2.9900
v  -0.8496 0.2248 3.5450
v  -2.9872 0.2254 -2.1740
v  -3.5414 0.2248 -0.8520
v  -3.1047 0.2248 1.9040
v  -1.9030 0.2248 -3.1090
v  2.4454 0.9272 1.7800
v  1.7757 0.9272 -2.4490
v  -0.5782 0.2254 -3.6520
v  -1.7762 0.9272 2.4490
v  -2.4459 0.9272 -1.7800
v  -3.6480 0.2254 0.5780
v  0.0000 -1.5393 -0.0000
v  1.9129 0.2222 3.1260
v  0.5813 0.2222 3.6710
v  3.5602 0.2222 0.8570
v  3.0028 0.2222 2.1850
v  3.1213 0.2222 -1.9150
v  3.6673 0.2222 -0.5810
v  0.8538 0.2222 -3.5640
v  2.1807 0.2222 -3.0060
v  1.0243 1.5393 -1.4140
v  -0.4758 0.9436 -3.0020
v  -1.4117 1.5393 -1.0290
v  1.4112 1.5393 1.0290
v  2.9976 0.9436 -0.4750
v  -1.0243 1.5393 1.4140
v  0.4752 0.9436 3.0020
v  -2.9981 0.9436 0.4750
v  -2.1812 0.2222 3.0060
v  -0.8543 0.2222 3.5640
v  -3.0033 0.2222 -2.1850
v  -3.5607 0.2222 -0.8570
v  -3.1218 0.2222 1.9150
v  -1.9134 0.2222 -3.1260
v  2.4547 0.9436 1.7870
v  1.7824 0.9436 -2.4580
v  -0.5813 0.2222 -3.6710
v  -1.7829 0.9436 2.4580
v  -2.4552 0.9436 -1.7870
v  -3.6673 0.2222 0.5810
# 58 vertices

vn 0.1651 -0.8999 0.4037
vn 0.4024 -0.8997 0.1691
vn 0.4041 -0.8997 -0.1652
vn 0.1694 -0.8998 -0.4021
vn -0.0489 0.9496 -0.3095
vn 0.3096 0.9496 -0.0490
vn 0.0000 1.0000 -0.0000
vn 0.0489 0.9496 0.3095
vn -0.3096 0.9496 0.0490
vn -0.1694 -0.8998 0.4020
vn -0.4024 -0.8997 -0.1691
vn -0.3305 -0.8997 0.2851
vn -0.2852 -0.8998 -0.3301
vn 0.3337 0.7703 0.5434
vn 0.6201 0.7703 0.1490
vn 0.7310 0.6801 0.0548
vn 0.5439 0.7701 -0.3333
vn 0.1494 0.7703 -0.6200
vn 0.0551 0.6802 -0.7309
vn -0.1494 0.7703 0.6200
vn -0.5439 0.7701 0.3333
vn -0.6201 0.7703 -0.1490
vn -0.3337 0.7703 -0.5434
vn -0.2783 0.6802 -0.6782
vn -0.4783 0.6805 -0.5551
vn -0.6760 0.6803 -0.2831
vn -0.7310 0.6801 -0.0548
vn -0.6782 0.6802 0.2782
vn -0.5557 0.6802 0.4780
vn -0.2838 0.6802 0.6759
vn -0.0551 0.6802 0.7309
vn 0.2783 0.6803 0.6781
vn 0.4783 0.6805 0.5551
vn 0.6760 0.6803 0.2831
vn 0.6782 0.6802 -0.2782
vn 0.5557 0.6802 -0.4780
vn 0.2838 0.6802 -0.6759
vn -0.4041 -0.8997 0.1652
vn -0.0322 -0.8999 0.4350
vn 0.2852 -0.8998 0.3302
vn 0.4354 -0.8997 0.0321
vn 0.3306 -0.8997 -0.2851
vn 0.0322 -0.8999 -0.4350
vn -0.1651 -0.8999 -0.4037
vn -0.4353 -0.8997 -0.0321
vn 0.4345 0.8946 0.1044
vn 0.3809 0.8946 -0.2335
vn 0.1046 0.8947 -0.4342
vn -0.2338 0.8946 -0.3808
vn -0.4345 0.8946 -0.1044
vn -0.3809 0.8946 0.2335
vn -0.1046 0.8947 0.4342
vn 0.2338 0.8946 0.3808
vn 0.1658 -0.8991 0.4052
vn 0.4040 -0.8989 0.1696
vn 0.4055 -0.8989 -0.1660
vn 0.1698 -0.8990 -0.4037
vn -0.0490 0.9495 -0.3099
vn 0.3100 0.9495 -0.0491
vn 0.0490 0.9495 0.3099
vn -0.3099 0.9495 0.0491
vn -0.1697 -0.8990 0.4037
vn -0.4039 -0.8990 -0.1695
vn -0.3318 -0.8989 0.2860
vn -0.2862 -0.8990 -0.3314
vn 0.3367 0.7653 0.5486
vn 0.6258 0.7654 0.1502
vn 0.7358 0.6750 0.0548
vn 0.5488 0.7654 -0.3363
vn 0.1507 0.7653 -0.6258
vn 0.0549 0.6746 -0.7361
vn -0.1508 0.7653 0.6258
vn -0.5488 0.7654 0.3363
vn -0.6258 0.7654 -0.1502
vn -0.3367 0.7653 -0.5486
vn -0.2795 0.6745 -0.6833
vn -0.4824 0.6747 -0.5587
vn -0.6806 0.6747 -0.2857
vn -0.7360 0.6748 -0.0546
vn -0.6831 0.6748 0.2793
vn -0.5590 0.6747 0.4819
vn -0.2861 0.6748 0.6803
vn -0.0549 0.6746 0.7361
vn 0.2796 0.6746 0.6831
vn 0.4824 0.6747 0.5587
vn 0.6806 0.6747 0.2857
vn 0.6829 0.6750 -0.2795
vn 0.5590 0.6747 -0.4819
vn 0.2861 0.6748 -0.6803
vn -0.4055 -0.8989 0.1658
vn -0.0325 -0.8991 0.4366
vn 0.2862 -0.8990 0.3315
vn 0.4369 -0.8989 0.0325
vn 0.3318 -0.8989 -0.2861
vn 0.0326 -0.8991 -0.4366
vn -0.1658 -0.8991 -0.4052
vn -0.4369 -0.8989 -0.0324
vn 0.4348 0.8945 0.1044
vn 0.3812 0.8945 -0.2336
vn 0.1047 0.8946 -0.4345
vn -0.2339 0.8945 -0.3810
vn -0.4348 0.8945 -0.1044
vn -0.3811 0.8946 0.2335
vn -0.1047 0.8946 0.4344
vn 0.2339 0.8945 0.3810
# 105 vertex normals

vt 0.6263 0.2369 0.0000
vt 0.6262 0.2370 0.0000
vt 0.6263 0.2370 0.0000
vt 0.6262 0.2369 0.0000
# 4 texture coords

g BlueGem
usemtl material_51
s off
f 1/1/1 2/2/1 3/2/1 
f 1/1/2 4/3/2 5/3/2 
f 1/1/3 6/3/3 7/3/3 
f 1/1/4 8/3/4 9/3/4 
f 10/1/5 11/1/5 12/1/5 
f 10/1/6 13/4/6 14/4/6 
f 10/1/7 12/1/7 15/4/7 
f 10/1/7 15/4/7 13/4/7 
f 13/4/8 15/4/8 16/2/8 
f 12/1/9 17/4/9 15/4/9 
f 18/3/10 1/1/10 19/2/10 
f 20/3/11 1/1/11 21/3/11 
f 22/3/12 1/1/12 18/3/12 
f 23/3/13 1/1/13 20/3/13 
f 16/2/14 2/2/14 24/3/14 
f 24/3/15 4/3/15 14/3/15 
f 14/3/16 4/3/16 7/3/16 
f 14/3/17 6/3/17 25/3/17 
f 25/3/18 8/3/18 11/3/18 
f 11/3/19 8/3/19 26/3/19 
f 19/2/20 16/2/20 27/3/20 
f 22/3/21 27/3/21 17/3/21 
f 21/3/22 17/3/22 28/3/22 
f 23/3/23 28/3/23 11/3/23 
f 23/3/24 11/3/24 26/3/24 
f 23/3/25 20/3/25 28/3/25 
f 21/3/26 28/3/26 20/3/26 
f 21/3/27 29/3/27 17/3/27 
f 22/3/28 17/3/28 29/3/28 
f 22/3/29 18/3/29 27/3/29 
f 19/2/30 27/3/30 18/3/30 
f 19/2/31 3/2/31 16/2/31 
f 2/2/32 16/2/32 3/2/32 
f 24/3/33 2/2/33 5/3/33 
f 4/3/34 24/3/34 5/3/34 
f 6/3/35 14/3/35 7/3/35 
f 25/3/36 6/3/36 9/3/36 
f 8/3/37 25/3/37 9/3/37 
f 29/3/38 1/1/38 22/3/38 
f 19/2/39 1/1/39 3/2/39 
f 5/3/40 2/2/40 1/1/40 
f 7/3/41 4/3/41 1/1/41 
f 9/3/42 6/3/42 1/1/42 
f 26/3/43 8/3/43 1/1/43 
f 26/3/44 1/1/44 23/3/44 
f 21/3/45 1/1/45 29/3/45 
f 24/4/46 14/4/46 13/4/46 
f 14/4/47 25/1/47 10/1/47 
f 25/1/48 11/1/48 10/1/48 
f 28/1/49 12/1/49 11/1/49 
f 17/4/50 12/1/50 28/1/50 
f 27/4/51 15/4/51 17/4/51 
f 16/2/52 15/4/52 27/4/52 
f 16/2/53 24/4/53 13/4/53 
f 30/1/54 31/2/54 32/2/54 
f 30/1/55 33/3/55 34/3/55 
f 30/1/56 35/3/56 36/3/56 
f 30/1/57 37/3/57 38/3/57 
f 39/1/58 40/1/58 41/1/58 
f 39/1/59 42/4/59 43/4/59 
f 39/1/7 41/1/7 44/4/7 
f 39/1/7 44/4/7 42/4/7 
f 42/4/60 44/4/60 45/2/60 
f 41/1/61 46/4/61 44/4/61 
f 47/3/62 30/1/62 48/2/62 
f 49/3/63 30/1/63 50/3/63 
f 51/3/64 30/1/64 47/3/64 
f 52/3/65 30/1/65 49/3/65 
f 45/2/66 31/2/66 53/3/66 
f 53/3/67 33/3/67 43/3/67 
f 43/3/68 33/3/68 36/3/68 
f 43/3/69 35/3/69 54/3/69 
f 54/3/70 37/3/70 40/3/70 
f 40/3/71 37/3/71 55/3/71 
f 48/2/72 45/2/72 56/3/72 
f 51/3/73 56/3/73 46/3/73 
f 50/3/74 46/3/74 57/3/74 
f 52/3/75 57/3/75 40/3/75 
f 52/3/76 40/3/76 55/3/76 
f 52/3/77 49/3/77 57/3/77 
f 50/3/78 57/3/78 49/3/78 
f 50/3/79 58/3/79 46/3/79 
f 51/3/80 46/3/80 58/3/80 
f 51/3/81 47/3/81 56/3/81 
f 48/2/82 56/3/82 47/3/82 
f 48/2/83 32/2/83 45/2/83 
f 31/2/84 45/2/84 32/2/84 
f 53/3/85 31/2/85 34/3/85 
f 33/3/86 53/3/86 34/3/86 
f 35/3/87 43/3/87 36/3/87 
f 54/3/88 35/3/88 38/3/88 
f 37/3/89 54/3/89 38/3/89 
f 58/3/90 30/1/90 51/3/90 
f 48/2/91 30/1/91 32/2/91 
f 34/3/92 31/2/92 30/1/92 
f 36/3/93 33/3/93 30/1/93 
f 38/3/94 35/3/94 30/1/94 
f 55/3/95 37/3/95 30/1/95 
f 55/3/96 30/1/96 52/3/96 
f 50/3/97 30/1/97 58/3/97 
f 53/4/98 43/4/98 42/4/98 
f 43/4/99 54/1/99 39/1/99 
f 54/1/100 40/1/100 39/1/100 
f 57/1/101 41/1/101 40/1/101 
f 46/4/102 41/1/102 57/1/102 
f 56/4/103 44/4/103 46/4/103 
f 45/2/104 44/4/104 56/4/104 
f 45/2/105 53/4/105 42/4/105 
# 0 polygons - 108 triangles

