# 3ds Max Wavefront OBJ Exporter v0.97b - (c)2007 guruware
# File Created: 11.09.2016 18:34:14

mtllib Clear Gem.mtl

#
# object ClearGem
#

v  0.1005 -2.1204 0.0735
v  2.1139 0.0491 -1.7717
v  2.3221 0.0491 -1.5099
v  -0.8801 0.0491 -2.4129
v  -0.5663 0.0491 -2.5291
v  -2.4160 0.0491 0.2373
v  -2.4277 0.0491 -0.0987
v  -0.3683 0.0491 2.5165
v  -0.6923 0.0491 2.4241
v  -0.5190 2.1182 -1.8235
v  1.6721 2.1190 -1.2075
v  1.7725 2.0156 -1.2887
v  -0.5642 2.0156 -1.9397
v  -1.7755 2.1197 0.0679
v  -1.9058 2.0156 0.0819
v  1.7696 2.1197 1.0479
v  1.8752 2.0156 1.1361
v  -0.3640 2.1204 1.8487
v  -0.3982 2.0156 1.9831
v  2.4306 0.0491 1.2733
v  2.2450 0.0491 1.5533
v  2.4881 0.3909 1.2551
v  2.2464 0.3947 1.6275
v  -0.3385 0.3976 2.5837
v  -0.7702 0.3991 2.4633
v  -2.4757 0.3984 0.2975
v  -2.4881 0.3947 -0.1491
v  -0.9551 0.3917 -2.4353
v  -0.5416 0.3880 -2.5837
v  2.1045 0.3872 -1.8361
v  2.3775 0.3887 -1.4931
v  0.1005 -2.0996 0.0735
v  2.1030 0.0587 -1.7577
v  2.3047 0.0587 -1.5029
v  -0.8692 0.0587 -2.3989
v  -0.5649 0.0587 -2.5095
v  -2.3986 0.0587 0.2317
v  -2.4095 0.0587 -0.0931
v  -0.3683 0.0587 2.4983
v  -0.6821 0.0587 2.4087
v  -0.5154 2.0996 -1.8151
v  1.6648 2.0996 -1.2019
v  1.7594 2.0038 -1.2775
v  -0.5583 2.0038 -1.9229
v  -1.7660 2.1011 0.0679
v  -1.8890 2.0038 0.0805
v  1.7616 2.1011 1.0423
v  1.8613 2.0038 1.1263
v  -0.3618 2.1011 1.8403
v  -0.3931 2.0038 1.9663
v  2.4131 0.0587 1.2677
v  2.2326 0.0587 1.5393
v  2.4677 0.3887 1.2509
v  2.2333 0.3932 1.6107
v  -0.3392 0.3961 2.5627
v  -0.7585 0.3976 2.4465
v  -2.4561 0.3969 0.2891
v  -2.4685 0.3932 -0.1421
v  -0.9420 0.3895 -2.4199
v  -0.5409 0.3865 -2.5627
v  2.0936 0.3850 -1.8179
v  2.3578 0.3865 -1.4861
# 62 vertices

vn 0.4876 -0.7823 -0.3877
vn -0.2189 -0.7763 -0.5911
vn -0.6519 -0.7579 0.0227
vn -0.1807 -0.7524 0.6335
vn 0.1894 0.7136 -0.6745
vn 0.1924 0.6973 -0.6905
vn -0.5905 0.7050 -0.3928
vn -0.5985 0.6957 -0.3972
vn 0.7148 0.6987 -0.0311
vn 0.7053 0.7083 -0.0299
vn 0.2383 0.7356 0.6342
vn 0.2293 0.7541 0.6155
vn -0.5367 0.7289 0.4251
vn -0.5397 0.7250 0.4280
vn 0.5334 -0.7684 0.3536
vn 0.1856 -0.7309 -0.6568
vn -0.5840 -0.7116 -0.3906
vn -0.5672 -0.6917 0.4471
vn 0.2468 -0.7006 0.6695
vn 0.6886 -0.7247 -0.0268
vn 0.8284 -0.1101 0.5491
vn 0.8322 -0.1196 0.5414
vn -0.2707 -0.1599 0.9493
vn -0.2655 -0.1655 0.9498
vn -0.9841 -0.1741 0.0343
vn -0.9854 -0.1680 0.0288
vn -0.3440 -0.1361 -0.9291
vn -0.3361 -0.1259 -0.9334
vn 0.7790 -0.0963 -0.6195
vn 0.7790 -0.0964 -0.6196
vn 0.2679 -0.1722 -0.9479
vn 0.2677 -0.1731 -0.9478
vn -0.8107 -0.2208 -0.5422
vn -0.8116 -0.2132 -0.5439
vn -0.7630 -0.2372 0.6014
vn -0.7638 -0.2342 0.6015
vn 0.3389 -0.1988 0.9196
vn 0.3393 -0.2060 0.9178
vn 0.9865 -0.1590 -0.0385
vn 0.9850 -0.1678 -0.0395
vn 0.3284 0.3393 0.8815
vn 0.3264 0.3419 0.8812
vn -0.2527 0.3285 0.9101
vn -0.7375 0.3378 0.5848
vn -0.7382 0.3425 0.5812
vn -0.7816 0.3465 -0.5187
vn -0.7768 0.3533 -0.5213
vn 0.2510 0.3540 -0.9009
vn 0.2539 0.3589 -0.8982
vn 0.9359 0.3501 -0.0396
vn 0.9350 0.3525 -0.0379
vn 0.7333 0.3462 -0.5852
vn 0.7916 0.3360 0.5104
vn -0.9419 0.3350 0.0234
vn -0.3142 0.3455 -0.8842
vn 0.4888 -0.7819 -0.3870
vn -0.2155 -0.7759 -0.5929
vn -0.6527 -0.7573 0.0219
vn -0.1811 -0.7517 0.6341
vn 0.1889 0.7165 -0.6716
vn 0.1931 0.6940 -0.6936
vn -0.5899 0.7057 -0.3924
vn -0.5945 0.7004 -0.3949
vn 0.7114 0.7021 -0.0312
vn 0.6994 0.7141 -0.0297
vn 0.2368 0.7396 0.6300
vn 0.2272 0.7593 0.6098
vn -0.5349 0.7310 0.4237
vn -0.5385 0.7264 0.4271
vn 0.5335 -0.7679 0.3546
vn 0.1854 -0.7301 -0.6578
vn -0.5851 -0.7106 -0.3908
vn -0.5680 -0.6905 0.4478
vn 0.2472 -0.6996 0.6705
vn 0.6895 -0.7238 -0.0270
vn 0.8279 -0.1090 0.5502
vn 0.8314 -0.1177 0.5431
vn -0.2711 -0.1579 0.9495
vn -0.2639 -0.1655 0.9502
vn -0.9844 -0.1730 0.0330
vn -0.9851 -0.1694 0.0298
vn -0.3385 -0.1336 -0.9314
vn -0.3335 -0.1272 -0.9341
vn 0.7808 -0.0915 -0.6181
vn 0.7790 -0.0944 -0.6199
vn 0.2671 -0.1734 -0.9479
vn 0.2681 -0.1673 -0.9487
vn -0.8107 -0.2223 -0.5416
vn -0.8118 -0.2132 -0.5437
vn -0.7625 -0.2390 0.6012
vn -0.7644 -0.2321 0.6016
vn 0.3392 -0.1971 0.9199
vn 0.3395 -0.2045 0.9181
vn 0.9867 -0.1579 -0.0386
vn 0.9855 -0.1651 -0.0394
vn 0.3286 0.3382 0.8819
vn 0.3267 0.3406 0.8816
vn -0.2511 0.3293 0.9102
vn -0.7378 0.3364 0.5853
vn -0.7386 0.3418 0.5811
vn -0.7817 0.3456 -0.5192
vn -0.7773 0.3518 -0.5215
vn 0.2510 0.3527 -0.9014
vn 0.2542 0.3581 -0.8984
vn 0.9365 0.3485 -0.0397
vn 0.9356 0.3511 -0.0378
vn 0.7330 0.3467 -0.5852
vn 0.7910 0.3364 0.5111
vn -0.9417 0.3355 0.0242
vn -0.3123 0.3466 -0.8845
vn 0.0001 1.0000 -0.0005
vn 0.0001 1.0000 -0.0003
vn -0.0001 1.0000 -0.0009
vn 0.0000 1.0000 -0.0000
vn 0.0002 1.0000 -0.0007
# 115 vertex normals

vt 0.1270 0.7838 0.0000
vt 0.1269 0.7838 0.0000
vt 0.1270 0.7839 0.0000
vt 0.1269 0.7839 0.0000
# 4 texture coords

g ClearGem
usemtl material_51
s off
f 1/1/1 2/1/1 3/1/1 
f 1/2/2 4/2/2 5/2/2 
f 1/1/3 6/1/3 7/1/3 
f 1/1/4 8/1/4 9/1/4 
f 10/2/5 11/1/5 12/1/5 
f 10/2/6 12/1/6 13/2/6 
f 14/2/7 10/1/7 13/1/7 
f 14/2/8 13/1/8 15/2/8 
f 11/2/9 16/1/9 17/1/9 
f 11/2/10 17/1/10 12/2/10 
f 16/2/11 18/1/11 19/1/11 
f 16/2/12 19/1/12 17/2/12 
f 18/2/13 14/1/13 15/1/13 
f 18/2/14 15/1/14 19/2/14 
f 1/1/15 20/1/15 21/1/15 
f 5/2/16 2/1/16 1/1/16 
f 7/1/17 4/2/17 1/2/17 
f 6/1/18 1/1/18 9/1/18 
f 21/1/19 8/1/19 1/1/19 
f 3/1/20 20/1/20 1/1/20 
f 21/2/21 20/1/21 22/3/21 
f 21/2/22 22/3/22 23/4/22 
f 9/2/23 8/1/23 24/3/23 
f 9/2/24 24/3/24 25/4/24 
f 7/2/25 6/1/25 26/3/25 
f 7/2/26 26/3/26 27/4/26 
f 5/2/27 4/1/27 28/3/27 
f 5/2/28 28/3/28 29/4/28 
f 3/2/29 2/1/29 30/3/29 
f 3/2/30 30/3/30 31/4/30 
f 2/2/31 5/1/31 29/3/31 
f 2/2/32 29/3/32 30/4/32 
f 4/2/33 7/1/33 27/3/33 
f 4/2/34 27/3/34 28/4/34 
f 6/2/35 9/1/35 25/3/35 
f 6/2/36 25/3/36 26/4/36 
f 8/2/37 21/1/37 23/3/37 
f 8/2/38 23/3/38 24/4/38 
f 20/2/39 3/1/39 31/3/39 
f 20/2/40 31/3/40 22/4/40 
f 17/2/41 19/1/41 24/1/41 
f 17/2/42 24/1/42 23/2/42 
f 24/2/43 19/1/43 25/2/43 
f 19/2/44 15/1/44 26/1/44 
f 19/2/45 26/1/45 25/2/45 
f 15/2/46 13/1/46 28/1/46 
f 15/2/47 28/1/47 27/2/47 
f 13/2/48 12/1/48 30/1/48 
f 13/2/49 30/1/49 29/2/49 
f 12/2/50 17/1/50 22/1/50 
f 12/2/51 22/1/51 31/2/51 
f 12/2/52 31/1/52 30/1/52 
f 17/2/53 23/1/53 22/1/53 
f 15/2/54 27/1/54 26/1/54 
f 13/2/55 29/1/55 28/1/55 
f 32/1/56 33/1/56 34/1/56 
f 32/2/57 35/2/57 36/2/57 
f 32/1/58 37/1/58 38/1/58 
f 32/1/59 39/1/59 40/1/59 
f 41/2/60 42/1/60 43/1/60 
f 41/2/61 43/1/61 44/2/61 
f 45/2/62 41/1/62 44/1/62 
f 45/2/63 44/1/63 46/2/63 
f 42/2/64 47/1/64 48/1/64 
f 42/2/65 48/1/65 43/2/65 
f 47/2/66 49/1/66 50/1/66 
f 47/2/67 50/1/67 48/2/67 
f 49/2/68 45/1/68 46/1/68 
f 49/2/69 46/1/69 50/2/69 
f 32/1/70 51/1/70 52/1/70 
f 36/2/71 33/1/71 32/1/71 
f 38/1/72 35/2/72 32/2/72 
f 37/1/73 32/1/73 40/1/73 
f 52/1/74 39/1/74 32/1/74 
f 34/1/75 51/1/75 32/1/75 
f 52/2/76 51/1/76 53/3/76 
f 52/2/77 53/3/77 54/4/77 
f 40/2/78 39/1/78 55/3/78 
f 40/2/79 55/3/79 56/4/79 
f 38/2/80 37/1/80 57/3/80 
f 38/2/81 57/3/81 58/4/81 
f 36/2/82 35/1/82 59/3/82 
f 36/2/83 59/3/83 60/4/83 
f 34/2/84 33/1/84 61/3/84 
f 34/2/85 61/3/85 62/4/85 
f 33/2/86 36/1/86 60/3/86 
f 33/2/87 60/3/87 61/4/87 
f 35/2/88 38/1/88 58/3/88 
f 35/2/89 58/3/89 59/4/89 
f 37/2/90 40/1/90 56/3/90 
f 37/2/91 56/3/91 57/4/91 
f 39/2/92 52/1/92 54/3/92 
f 39/2/93 54/3/93 55/4/93 
f 51/2/94 34/1/94 62/3/94 
f 51/2/95 62/3/95 53/4/95 
f 48/2/96 50/1/96 55/1/96 
f 48/2/97 55/1/97 54/2/97 
f 55/2/98 50/1/98 56/2/98 
f 50/2/99 46/1/99 57/1/99 
f 50/2/100 57/1/100 56/2/100 
f 46/2/101 44/1/101 59/1/101 
f 46/2/102 59/1/102 58/2/102 
f 44/2/103 43/1/103 61/1/103 
f 44/2/104 61/1/104 60/2/104 
f 43/2/105 48/1/105 53/1/105 
f 43/2/106 53/1/106 62/2/106 
f 43/2/107 62/1/107 61/1/107 
f 48/2/108 54/1/108 53/1/108 
f 46/2/109 58/1/109 57/1/109 
f 44/2/110 60/1/110 59/1/110 
f 14/2/111 18/1/111 16/1/111 
f 14/2/112 16/1/112 11/3/112 
f 10/1/113 14/1/113 11/2/113 
f 45/2/114 49/1/114 47/1/114 
f 45/2/115 47/1/115 42/3/115 
f 41/1/115 45/1/115 42/2/115 
# 0 polygons - 116 triangles

