# 3ds Max Wavefront OBJ Exporter v0.97b - (c)2007 guruware
# File Created: 11.09.2016 18:34:57

mtllib Gray Gem.mtl

#
# object GrayGem
#

v  -0.0155 -1.9029 -0.0308
v  -2.7871 0.0440 -2.2351
v  -2.4930 0.0440 -2.5543
v  -3.0004 0.0440 1.7283
v  -3.2119 0.0440 1.3496
v  0.7045 0.0440 3.1570
v  0.2775 0.0440 3.2403
v  3.2071 0.0440 0.0735
v  3.1555 0.0440 0.5068
v  -2.3194 1.9014 1.1466
v  -1.9740 1.9017 -1.7836
v  -2.0981 1.8092 -1.8963
v  -2.4581 1.8092 1.2278
v  0.3674 1.9029 2.3702
v  0.3947 1.8092 2.5368
v  0.8934 1.9025 -2.3653
v  0.9847 1.8092 -2.5193
v  2.3522 1.9029 0.2037
v  2.5298 1.8092 0.2198
v  1.0477 0.0440 -3.2578
v  1.4441 0.0440 -3.0765
v  1.0138 0.3506 -3.3278
v  1.5387 0.3547 -3.0940
v  3.2876 0.3569 0.0217
v  3.2206 0.3584 0.5985
v  0.7929 0.3577 3.2221
v  0.2248 0.3543 3.3278
v  -3.0142 0.3517 1.8284
v  -3.2876 0.3488 1.3293
v  -2.8665 0.3480 -2.2106
v  -2.4832 0.3488 -2.6292
v  -0.0158 -1.8783 -0.0315
v  -2.7686 0.0574 -2.2260
v  -2.4825 0.0574 -2.5368
v  -2.9862 0.0582 1.7143
v  -3.1922 0.0578 1.3454
v  0.6954 0.0585 3.1395
v  0.2794 0.0582 3.2207
v  3.1875 0.0582 0.0770
v  3.1369 0.0582 0.4991
v  -2.3121 1.8783 1.1424
v  -1.9678 1.8787 -1.7780
v  -2.0850 1.7925 -1.8844
v  -2.4424 1.7925 1.2194
v  0.3656 1.8794 2.3618
v  0.3911 1.7925 2.5193
v  0.8905 1.8794 -2.3583
v  0.9771 1.7925 -2.5032
v  2.3445 1.8798 0.2023
v  2.5120 1.7925 0.2177
v  1.0448 0.0574 -3.2382
v  1.4310 0.0578 -3.0611
v  1.0117 0.3473 -3.3040
v  1.5219 0.3517 -3.0758
v  3.2636 0.3543 0.0266
v  3.1988 0.3562 0.5880
v  0.7805 0.3555 3.2004
v  0.2280 0.3517 3.3040
v  -2.9979 0.3488 1.8102
v  -3.2639 0.3454 1.3251
v  -2.8443 0.3443 -2.2008
v  -2.4719 0.3454 -2.6075
# 62 vertices

vn -0.3550 -0.8758 -0.3271
vn -0.4278 -0.8717 0.2389
vn 0.0980 -0.8590 0.5025
vn 0.5147 -0.8552 0.0613
vn -0.5573 0.8277 -0.0656
vn -0.5792 0.8125 -0.0667
vn -0.2384 0.8187 0.5224
vn -0.2319 0.8311 0.5054
vn -0.1146 0.8181 -0.5636
vn -0.1119 0.8250 -0.5539
vn 0.4686 0.8424 -0.2662
vn 0.4488 0.8570 -0.2532
vn 0.4254 0.8168 0.3897
vn 0.4060 0.8338 0.3741
vn 0.2077 -0.8663 -0.4542
vn -0.5391 -0.8398 -0.0639
vn -0.2364 -0.8255 0.5125
vn 0.4301 -0.8104 0.3978
vn 0.5029 -0.8173 -0.2814
vn -0.1071 -0.8353 -0.5393
vn 0.4106 -0.1596 -0.8977
vn 0.4019 -0.1730 -0.8992
vn 0.9665 -0.2296 0.1151
vn 0.9659 -0.2329 0.1128
vn 0.1854 -0.2495 0.9505
vn 0.1790 -0.2387 0.9544
vn -0.8565 -0.1940 0.4783
vn -0.8619 -0.1825 0.4732
vn -0.7286 -0.1362 -0.6713
vn -0.7300 -0.1409 -0.6687
vn -0.9624 -0.2466 -0.1140
vn -0.9634 -0.2424 -0.1145
vn -0.3981 -0.3110 0.8630
vn -0.4006 -0.2996 0.8659
vn 0.6929 -0.3304 0.6408
vn 0.6933 -0.3285 0.6414
vn 0.8374 -0.2814 -0.4687
vn 0.8341 -0.2921 -0.4680
vn -0.1897 -0.2285 -0.9549
vn -0.1901 -0.2385 -0.9524
vn 0.7723 0.4624 -0.4356
vn 0.7718 0.4652 -0.4335
vn 0.8876 0.4492 0.1019
vn 0.6520 0.4625 0.6008
vn 0.6493 0.4661 0.6010
vn -0.3679 0.4708 0.8019
vn -0.3696 0.4768 0.7976
vn -0.8715 0.4799 -0.1004
vn -0.8679 0.4858 -0.1034
vn -0.1743 0.4747 -0.8627
vn -0.1723 0.4777 -0.8614
vn -0.6512 0.4705 -0.5954
vn 0.3587 0.4580 -0.8134
vn 0.1601 0.4570 0.8749
vn -0.7754 0.4698 0.4220
vn -0.3552 -0.8758 -0.3269
vn -0.4274 -0.8717 0.2396
vn 0.0987 -0.8589 0.5025
vn 0.5148 -0.8551 0.0617
vn -0.5523 0.8311 -0.0650
vn -0.5758 0.8149 -0.0663
vn -0.2359 0.8226 0.5174
vn -0.2287 0.8362 0.4984
vn -0.1139 0.8205 -0.5602
vn -0.1109 0.8284 -0.5490
vn 0.4648 0.8451 -0.2640
vn 0.4441 0.8603 -0.2505
vn 0.4202 0.8216 0.3853
vn 0.4022 0.8371 0.3707
vn 0.2090 -0.8663 -0.4538
vn -0.5394 -0.8396 -0.0639
vn -0.2366 -0.8252 0.5129
vn 0.4305 -0.8100 0.3982
vn 0.5034 -0.8169 -0.2816
vn -0.1073 -0.8351 -0.5396
vn 0.4118 -0.1567 -0.8977
vn 0.4036 -0.1698 -0.8990
vn 0.9666 -0.2287 0.1159
vn 0.9657 -0.2341 0.1123
vn 0.1858 -0.2482 0.9507
vn 0.1805 -0.2392 0.9540
vn -0.8567 -0.1924 0.4786
vn -0.8617 -0.1814 0.4738
vn -0.7292 -0.1334 -0.6712
vn -0.7303 -0.1374 -0.6691
vn -0.9620 -0.2479 -0.1141
vn -0.9630 -0.2440 -0.1145
vn -0.3976 -0.3143 0.8620
vn -0.4004 -0.3017 0.8653
vn 0.6919 -0.3346 0.6398
vn 0.6928 -0.3300 0.6412
vn 0.8371 -0.2823 -0.4685
vn 0.8336 -0.2939 -0.4677
vn -0.1899 -0.2275 -0.9551
vn -0.1903 -0.2379 -0.9525
vn 0.7726 0.4617 -0.4358
vn 0.7721 0.4644 -0.4338
vn 0.8872 0.4502 0.1009
vn 0.6523 0.4617 0.6011
vn 0.6494 0.4655 0.6013
vn -0.3681 0.4699 0.8023
vn -0.3698 0.4763 0.7977
vn -0.8720 0.4791 -0.1004
vn -0.8682 0.4853 -0.1035
vn -0.1744 0.4740 -0.8631
vn -0.1726 0.4768 -0.8619
vn -0.6511 0.4713 -0.5949
vn 0.3595 0.4588 -0.8125
vn 0.1608 0.4580 0.8743
vn -0.7750 0.4707 0.4217
vn -0.0001 1.0000 -0.0001
vn -0.0003 1.0000 -0.0001
vn -0.0006 1.0000 0.0000
vn -0.0002 1.0000 -0.0000
vn -0.0003 1.0000 -0.0000
vn -0.0004 1.0000 0.0001
# 116 vertex normals

vt 0.8815 0.7370 0.0000
vt 0.8815 0.7371 0.0000
vt 0.8814 0.7370 0.0000
vt 0.8814 0.7371 0.0000
# 4 texture coords

g GrayGem
usemtl material_51
s off
f 1/1/1 2/2/1 3/2/1 
f 1/3/2 4/4/2 5/4/2 
f 1/1/3 6/4/3 7/4/3 
f 1/1/4 8/2/4 9/2/4 
f 10/3/5 11/1/5 12/1/5 
f 10/3/6 12/1/6 13/3/6 
f 14/3/7 10/1/7 13/1/7 
f 14/3/8 13/1/8 15/3/8 
f 11/3/9 16/1/9 17/1/9 
f 11/3/10 17/1/10 12/3/10 
f 16/3/11 18/1/11 19/1/11 
f 16/3/12 19/1/12 17/3/12 
f 18/3/13 14/1/13 15/1/13 
f 18/3/14 15/1/14 19/3/14 
f 1/1/15 20/2/15 21/2/15 
f 5/4/16 2/2/16 1/1/16 
f 7/4/17 4/4/17 1/3/17 
f 6/4/18 1/1/18 9/2/18 
f 21/2/19 8/2/19 1/1/19 
f 3/2/20 20/2/20 1/1/20 
f 21/3/21 20/1/21 22/2/21 
f 21/3/22 22/2/22 23/4/22 
f 9/3/23 8/1/23 24/2/23 
f 9/3/24 24/2/24 25/4/24 
f 7/3/25 6/1/25 26/2/25 
f 7/3/26 26/2/26 27/4/26 
f 5/3/27 4/1/27 28/2/27 
f 5/3/28 28/2/28 29/4/28 
f 3/3/29 2/1/29 30/2/29 
f 3/3/30 30/2/30 31/4/30 
f 2/3/31 5/1/31 29/2/31 
f 2/3/32 29/2/32 30/4/32 
f 4/3/33 7/1/33 27/2/33 
f 4/3/34 27/2/34 28/4/34 
f 6/3/35 9/1/35 25/2/35 
f 6/3/36 25/2/36 26/4/36 
f 8/3/37 21/1/37 23/2/37 
f 8/3/38 23/2/38 24/4/38 
f 20/3/39 3/1/39 31/2/39 
f 20/3/40 31/2/40 22/4/40 
f 17/3/41 19/1/41 24/1/41 
f 17/3/42 24/1/42 23/3/42 
f 24/3/43 19/1/43 25/3/43 
f 19/3/44 15/1/44 26/1/44 
f 19/3/45 26/1/45 25/3/45 
f 15/3/46 13/1/46 28/2/46 
f 15/3/47 28/2/47 27/4/47 
f 13/3/48 12/1/48 30/2/48 
f 13/3/49 30/2/49 29/4/49 
f 12/3/50 17/1/50 22/1/50 
f 12/3/51 22/1/51 31/3/51 
f 12/3/52 31/1/52 30/1/52 
f 17/3/53 23/1/53 22/1/53 
f 15/3/54 27/1/54 26/1/54 
f 13/3/55 29/1/55 28/1/55 
f 32/1/56 33/2/56 34/2/56 
f 32/3/57 35/4/57 36/4/57 
f 32/1/58 37/4/58 38/4/58 
f 32/1/59 39/2/59 40/2/59 
f 41/3/60 42/1/60 43/1/60 
f 41/3/61 43/1/61 44/3/61 
f 45/3/62 41/1/62 44/1/62 
f 45/3/63 44/1/63 46/3/63 
f 42/3/64 47/1/64 48/1/64 
f 42/3/65 48/1/65 43/3/65 
f 47/3/66 49/1/66 50/1/66 
f 47/3/67 50/1/67 48/3/67 
f 49/3/68 45/1/68 46/1/68 
f 49/3/69 46/1/69 50/3/69 
f 32/1/70 51/2/70 52/2/70 
f 36/4/71 33/2/71 32/1/71 
f 38/4/72 35/4/72 32/3/72 
f 37/4/73 32/1/73 40/2/73 
f 52/2/74 39/2/74 32/1/74 
f 34/2/75 51/2/75 32/1/75 
f 52/3/76 51/1/76 53/2/76 
f 52/3/77 53/2/77 54/4/77 
f 40/3/78 39/1/78 55/2/78 
f 40/3/79 55/2/79 56/4/79 
f 38/3/80 37/1/80 57/2/80 
f 38/3/81 57/2/81 58/4/81 
f 36/3/82 35/1/82 59/2/82 
f 36/3/83 59/2/83 60/4/83 
f 34/3/84 33/1/84 61/2/84 
f 34/3/85 61/2/85 62/4/85 
f 33/3/86 36/1/86 60/2/86 
f 33/3/87 60/2/87 61/4/87 
f 35/3/88 38/1/88 58/2/88 
f 35/3/89 58/2/89 59/4/89 
f 37/3/90 40/1/90 56/2/90 
f 37/3/91 56/2/91 57/4/91 
f 39/3/92 52/1/92 54/2/92 
f 39/3/93 54/2/93 55/4/93 
f 51/3/94 34/1/94 62/2/94 
f 51/3/95 62/2/95 53/4/95 
f 48/3/96 50/1/96 55/1/96 
f 48/3/97 55/1/97 54/3/97 
f 55/3/98 50/1/98 56/3/98 
f 50/3/99 46/1/99 57/1/99 
f 50/3/100 57/1/100 56/3/100 
f 46/3/101 44/1/101 59/2/101 
f 46/3/102 59/2/102 58/4/102 
f 44/3/103 43/1/103 61/2/103 
f 44/3/104 61/2/104 60/4/104 
f 43/3/105 48/1/105 53/1/105 
f 43/3/106 53/1/106 62/3/106 
f 43/3/107 62/1/107 61/1/107 
f 48/3/108 54/1/108 53/1/108 
f 46/3/109 58/1/109 57/1/109 
f 44/3/110 60/1/110 59/1/110 
f 14/3/111 18/1/111 16/2/111 
f 14/3/112 16/2/112 11/2/112 
f 10/3/113 14/1/113 11/4/113 
f 45/3/114 49/1/114 47/2/114 
f 45/3/115 47/2/115 42/2/115 
f 41/3/116 45/1/116 42/4/116 
# 0 polygons - 116 triangles

