# 3ds Max Wavefront OBJ Exporter v0.97b - (c)2007 guruware
# File Created: 11.09.2016 18:35:33

mtllib Green Gem.mtl

#
# object GreenGem
#

v  -0.6466 -1.7386 -0.5305
v  -1.5763 -1.2651 -0.7255
v  -0.5998 -1.5024 -1.6285
v  -0.6086 -1.6691 0.5655
v  -1.9657 -1.0506 0.7275
v  -1.2554 -1.0506 1.7315
v  -0.4979 -1.0506 2.0805
v  0.4573 -1.5857 1.2385
v  0.8176 -1.6691 0.3775
v  1.9054 -1.0506 0.8795
v  0.6112 -1.8767 -0.5625
v  1.6309 -1.5024 -0.5995
v  0.7287 -1.5024 -1.5755
v  -2.2293 -0.9179 -1.0275
v  -0.8488 -0.9179 -2.3035
v  0.8514 -0.9179 2.3065
v  2.3058 -0.9179 -0.8485
v  1.0298 -0.9179 -2.2295
v  -2.6235 -0.1163 -1.9055
v  -1.6938 -0.1163 -2.7645
v  -3.1533 -0.1163 -0.7565
v  -3.0285 -0.3175 0.4815
v  -2.6141 -0.3175 1.6045
v  -1.2586 -0.3175 2.7335
v  0.5088 -0.1163 3.2065
v  1.6964 -0.1163 2.7675
v  2.8912 -0.1163 1.3335
v  3.0311 -0.3175 -0.4785
v  2.7675 -0.1163 -1.6935
v  1.9085 -0.1163 -2.6235
v  0.1401 -0.2166 -3.0905
v  -3.4403 0.4082 -0.1395
v  -2.9162 0.0849 1.7895
v  -1.4286 0.3005 3.1025
v  3.4403 0.3005 -0.5435
v  0.1427 0.4082 -3.4405
v  -2.8642 0.5160 -2.0805
v  -1.8492 0.5160 -3.0185
v  -2.9677 0.7316 1.8205
v  0.5457 0.7316 3.4405
v  1.8518 0.5160 3.0215
v  3.1564 0.5160 1.4565
v  3.0217 0.5160 -1.8495
v  2.0832 0.5160 -2.8645
v  -2.1586 1.1483 -2.3355
v  -3.2656 1.0480 -0.1095
v  -1.4036 0.9476 3.0485
v  1.7889 0.9476 2.9185
v  2.8912 1.1483 1.3335
v  3.3805 0.9476 -0.5335
v  2.9188 0.9476 -1.7865
v  2.0125 0.9476 -2.7665
v  0.1334 0.9476 -3.3515
v  -1.4286 1.4360 2.3775
v  -2.5923 1.6086 -0.0735
v  0.4370 1.5220 2.7535
v  1.6366 1.5220 2.2115
v  3.0311 1.3495 -0.4785
v  2.3770 1.5220 -1.4545
v  1.6392 1.5220 -2.2525
v  0.1193 1.3495 -3.0045
v  -1.6662 1.6946 -1.8025
v  -1.7848 1.8931 0.6985
v  -0.6611 1.8931 1.7345
v  2.0801 1.8273 0.5005
v  2.4753 1.6946 -0.3905
v  0.0835 1.8273 -2.0935
v  -1.0599 2.0014 -1.0295
v  1.1806 1.9595 1.2775
v  0.8525 2.1055 0.1185
v  1.2768 1.9595 -1.1775
v  -0.8421 2.1262 0.3125
v  -0.2857 2.1262 0.8215
v  0.0341 2.1262 -0.8285
v  0.0013 -2.1830 0.0015
v  0.0013 2.1830 0.0015
v  -0.6403 -1.7201 -0.5275
v  -1.5674 -1.2476 -0.7225
v  -0.5961 -1.4849 -1.6195
v  -0.6013 -1.6510 0.5605
v  -1.9558 -1.0336 0.7235
v  -1.2487 -1.0336 1.7225
v  -0.4953 -1.0342 2.0695
v  0.4547 -1.5677 1.2305
v  0.8093 -1.6516 0.3735
v  1.8950 -1.0342 0.8745
v  0.6065 -1.8575 -0.5585
v  1.6210 -1.4854 -0.5975
v  0.7246 -1.4854 -1.5665
v  -2.2189 -0.9020 -1.0225
v  -0.8442 -0.9030 -2.2915
v  0.8468 -0.9020 2.2945
v  2.2938 -0.9030 -0.8445
v  1.0241 -0.9030 -2.2175
v  -2.6099 -0.1051 -1.8955
v  -1.6860 -0.1051 -2.7505
v  -3.1372 -0.1056 -0.7525
v  -3.0134 -0.3042 0.4785
v  -2.6016 -0.3042 1.5955
v  -1.2523 -0.3037 2.7205
v  0.5072 -0.1062 3.1885
v  1.6870 -0.1051 2.7545
v  2.8767 -0.1046 1.3265
v  3.0160 -0.3042 -0.4775
v  2.7540 -0.1046 -1.6845
v  1.8997 -0.1046 -2.6095
v  0.1396 -0.2049 -3.0745
v  -3.4206 0.4088 -0.1385
v  -2.9001 0.0913 1.7795
v  -1.4203 0.3053 3.0845
v  3.4206 0.3042 -0.5415
v  0.1417 0.4093 -3.4205
v  -2.8470 0.5144 -2.0705
v  -1.8404 0.5155 -3.0005
v  -2.9516 0.7247 1.8105
v  0.5441 0.7273 3.4215
v  1.8404 0.5171 3.0055
v  3.1382 0.5171 1.4475
v  3.0046 0.5181 -1.8385
v  2.0728 0.5181 -2.8475
v  -2.1482 1.1356 -2.3245
v  -3.2500 1.0357 -0.1095
v  -1.3964 0.9386 3.0325
v  1.7796 0.9370 2.9045
v  2.8762 1.1366 1.3275
v  3.3628 0.9386 -0.5325
v  2.9037 0.9381 -1.7765
v  2.0031 0.9381 -2.7515
v  0.1329 0.9370 -3.3345
v  -1.4218 1.4196 2.3675
v  -2.5824 1.5910 -0.0735
v  0.4360 1.5056 2.7425
v  1.6298 1.5056 2.2025
v  3.0181 1.3341 -0.4775
v  2.3676 1.5050 -1.4485
v  1.6329 1.5056 -2.2425
v  0.1199 1.3341 -2.9915
v  -1.6595 1.6771 -1.7955
v  -1.7770 1.8751 0.6945
v  -0.6590 1.8745 1.7275
v  2.0728 1.8087 0.4985
v  2.4669 1.6765 -0.3895
v  0.0840 1.8087 -2.0855
v  -1.0563 1.9818 -1.0265
v  1.1769 1.9404 1.2725
v  0.8494 2.0853 0.1185
v  1.2731 1.9404 -1.1735
v  -0.8390 2.1065 0.3115
v  -0.2852 2.1065 0.8185
v  0.0341 2.1065 -0.8255
v  0.0029 -2.1633 0.0015
v  0.0013 2.1628 0.0015
# 152 vertices

vn -0.4088 -0.8885 -0.2086
vn -0.4065 -0.9108 0.0719
vn -0.4554 -0.8902 0.0094
vn -0.3737 -0.8891 0.2643
vn -0.1765 -0.9067 0.3831
vn -0.1708 -0.9078 0.3831
vn 0.3894 -0.8868 0.2488
vn 0.3458 -0.9293 0.1293
vn 0.4156 -0.8886 0.1943
vn 0.3197 -0.9002 -0.2955
vn -0.1120 -0.9705 -0.2135
vn 0.0138 -0.9384 -0.3452
vn -0.3922 -0.9006 -0.1874
vn -0.4482 -0.7510 -0.4849
vn -0.4709 -0.8822 0.0040
vn -0.0058 -0.8469 0.5317
vn 0.4016 -0.8358 0.3744
vn 0.6721 -0.7337 0.0994
vn 0.4848 -0.7511 -0.4481
vn 0.4850 -0.7509 -0.4481
vn 0.0263 -0.7509 -0.6599
vn 0.0260 -0.7513 -0.6595
vn -0.4480 -0.7512 -0.4847
vn -0.4480 -0.7511 -0.4849
vn -0.6732 -0.6711 -0.3104
vn -0.5714 -0.8203 0.0238
vn -0.6634 -0.7463 -0.0544
vn -0.5878 -0.7794 0.2169
vn -0.6397 -0.6213 0.4525
vn -0.3574 -0.8295 0.4291
vn -0.2623 -0.7792 0.5693
vn -0.0360 -0.7530 0.6570
vn -0.1022 -0.7187 0.6878
vn 0.2571 -0.6710 0.6955
vn 0.5024 -0.7441 0.4403
vn 0.4972 -0.7624 0.4143
vn 0.6107 -0.7877 0.0810
vn 0.6487 -0.7493 0.1333
vn 0.6911 -0.6738 -0.2615
vn 0.4847 -0.7514 -0.4478
vn 0.4848 -0.7513 -0.4478
vn 0.2327 -0.6224 -0.7473
vn 0.0255 -0.7620 -0.6470
vn -0.1701 -0.6199 -0.7661
vn -0.8729 -0.4879 0.0087
vn -0.7101 -0.6536 0.2620
vn -0.9146 -0.3577 0.1886
vn -0.5403 -0.5360 0.6487
vn -0.4594 -0.6319 0.6242
vn -0.1602 -0.5381 0.8275
vn 0.8333 -0.5387 0.1242
vn 0.7915 -0.5517 -0.2631
vn -0.1789 -0.4803 -0.8587
vn -0.6161 -0.4191 -0.6669
vn -0.6162 -0.4193 -0.6667
vn -0.9081 -0.0043 -0.4187
vn -0.8687 -0.4083 -0.2805
vn -0.9649 -0.0887 0.2473
vn -0.6520 -0.0880 0.7531
vn -0.1075 -0.2601 0.9596
vn 0.3148 -0.4194 0.8515
vn 0.2540 -0.2676 0.9295
vn 0.7015 -0.4079 0.5844
vn 0.7015 -0.4073 0.5848
vn 0.8962 -0.4092 0.1713
vn 0.8409 -0.4217 -0.3391
vn 0.6670 -0.4191 -0.6161
vn 0.6664 -0.4199 -0.6161
vn 0.2499 -0.4740 -0.8443
vn 0.2805 -0.4086 -0.8686
vn -0.2103 -0.4085 -0.8882
vn -0.6163 0.4188 -0.6669
vn -0.9281 0.2657 -0.2607
vn -0.6940 0.6470 -0.3160
vn -0.9497 0.2505 0.1877
vn -0.6227 0.0889 0.7774
vn -0.1869 0.0889 0.9784
vn 0.3339 0.2646 0.9047
vn 0.7013 0.4079 0.5846
vn 0.7796 0.2506 0.5739
vn 0.9874 0.0892 0.1305
vn 0.8918 0.4109 0.1895
vn 0.9313 0.2594 -0.2557
vn 0.9344 0.0917 -0.3443
vn 0.7081 0.2646 -0.6547
vn 0.7080 0.2644 -0.6548
vn 0.2726 0.1612 -0.9485
vn 0.2873 0.2566 -0.9228
vn -0.1106 0.7039 -0.7017
vn -0.3906 0.1433 -0.9094
vn -0.4693 0.8570 0.2129
vn -0.6122 0.7134 0.3409
vn -0.5039 0.6893 0.5205
vn -0.0806 0.6475 0.7578
vn -0.1546 0.7960 0.5852
vn 0.1202 0.7830 0.6103
vn 0.3139 0.6471 0.6948
vn 0.5338 0.7089 0.4610
vn 0.7570 0.6404 0.1296
vn 0.6359 0.7353 -0.2343
vn 0.6844 0.6422 -0.3452
vn 0.4976 0.7352 -0.4602
vn 0.4976 0.7353 -0.4601
vn 0.2282 0.6408 -0.7330
vn 0.2355 0.7286 -0.6432
vn -0.2705 0.6237 -0.7334
vn -0.6078 0.7473 -0.2686
vn -0.5714 0.7759 -0.2674
vn -0.5760 0.7495 0.3263
vn -0.2834 0.9084 0.3074
vn 0.4421 0.8562 0.2674
vn 0.5380 0.8323 0.1339
vn 0.5580 0.8203 0.1253
vn 0.4974 0.8479 -0.1835
vn 0.1261 0.8805 -0.4569
vn -0.2388 0.7798 -0.5787
vn -0.1435 0.8741 -0.4641
vn -0.3181 0.9400 -0.1236
vn -0.2818 0.9577 -0.0582
vn -0.1337 0.8761 0.4632
vn 0.1598 0.9216 0.3537
vn 0.0408 0.9522 0.3028
vn 0.3501 0.9023 0.2517
vn 0.2330 0.9716 -0.0413
vn 0.3238 0.9287 -0.1806
vn 0.2358 0.9713 -0.0322
vn 0.2953 0.9155 -0.2730
vn 0.1493 0.9324 -0.3291
vn -0.1194 0.9514 -0.2840
vn -0.2582 0.9649 -0.0478
vn -0.1655 0.9697 0.1795
vn -0.1656 0.9694 0.1810
vn -0.0044 0.9920 0.1262
vn 0.2171 0.9207 0.3243
vn 0.2009 0.9774 0.0663
vn 0.1119 0.9909 -0.0750
vn 0.0666 0.9716 -0.2270
vn -0.0681 0.9703 -0.2319
vn -0.6033 -0.7943 0.0713
vn -0.2464 -0.8341 0.4936
vn 0.4250 -0.8665 0.2618
vn 0.5048 -0.8596 0.0790
vn -0.1045 -0.8222 -0.5595
vn -0.1000 0.9924 -0.0719
vn -0.0952 0.9925 -0.0768
vn -0.0479 0.9975 0.0523
vn 0.0772 0.9924 0.0958
vn 0.0992 0.9930 -0.0640
vn -0.4091 -0.8885 -0.2079
vn -0.4064 -0.9108 0.0724
vn -0.4556 -0.8901 0.0094
vn -0.3735 -0.8892 0.2644
vn -0.1771 -0.9066 0.3830
vn -0.1714 -0.9077 0.3831
vn 0.3898 -0.8868 0.2481
vn 0.3458 -0.9292 0.1300
vn 0.4153 -0.8885 0.1951
vn 0.3190 -0.9006 -0.2951
vn -0.1123 -0.9705 -0.2136
vn 0.0135 -0.9385 -0.3449
vn -0.3921 -0.9009 -0.1863
vn -0.4481 -0.7510 -0.4849
vn -0.4702 -0.8826 0.0043
vn -0.0058 -0.8468 0.5319
vn 0.4021 -0.8355 0.3746
vn 0.6719 -0.7339 0.0999
vn 0.4849 -0.7508 -0.4486
vn 0.4851 -0.7506 -0.4486
vn 0.0262 -0.7509 -0.6599
vn 0.0261 -0.7510 -0.6598
vn -0.4481 -0.7511 -0.4849
vn -0.4482 -0.7514 -0.4843
vn -0.6732 -0.6709 -0.3109
vn -0.5714 -0.8203 0.0243
vn -0.6632 -0.7465 -0.0537
vn -0.5878 -0.7795 0.2167
vn -0.6392 -0.6218 0.4525
vn -0.3575 -0.8295 0.4291
vn -0.2627 -0.7793 0.5690
vn -0.0359 -0.7532 0.6568
vn -0.1022 -0.7188 0.6877
vn 0.2564 -0.6716 0.6952
vn 0.5023 -0.7444 0.4401
vn 0.4970 -0.7628 0.4138
vn 0.6112 -0.7872 0.0817
vn 0.6485 -0.7495 0.1330
vn 0.6913 -0.6736 -0.2615
vn 0.4845 -0.7513 -0.4481
vn 0.4851 -0.7510 -0.4480
vn 0.2329 -0.6223 -0.7473
vn 0.0256 -0.7620 -0.6471
vn -0.1698 -0.6199 -0.7661
vn -0.8715 -0.4903 0.0085
vn -0.7082 -0.6560 0.2611
vn -0.9141 -0.3588 0.1887
vn -0.5403 -0.5365 0.6483
vn -0.4573 -0.6349 0.6227
vn -0.1596 -0.5385 0.8273
vn 0.8322 -0.5404 0.1241
vn 0.7904 -0.5533 -0.2631
vn -0.1786 -0.4825 -0.8575
vn -0.6153 -0.4233 -0.6649
vn -0.6151 -0.4215 -0.6663
vn -0.9080 -0.0003 -0.4189
vn -0.8675 -0.4111 -0.2800
vn -0.9648 -0.0905 0.2468
vn -0.6514 -0.0898 0.7534
vn -0.1079 -0.2632 0.9587
vn 0.3135 -0.4207 0.8513
vn 0.2541 -0.2708 0.9285
vn 0.7013 -0.4087 0.5841
vn 0.7013 -0.4086 0.5842
vn 0.8958 -0.4101 0.1711
vn 0.8406 -0.4222 -0.3393
vn 0.6665 -0.4205 -0.6156
vn 0.6666 -0.4205 -0.6156
vn 0.2499 -0.4759 -0.8433
vn 0.2806 -0.4097 -0.8680
vn -0.2100 -0.4098 -0.8876
vn -0.6159 0.4205 -0.6662
vn -0.9283 0.2647 -0.2611
vn -0.6920 0.6496 -0.3149
vn -0.9499 0.2498 0.1881
vn -0.6229 0.0873 0.7774
vn -0.1866 0.0874 0.9785
vn 0.3334 0.2658 0.9045
vn 0.7010 0.4096 0.5839
vn 0.7796 0.2509 0.5739
vn 0.9875 0.0881 0.1308
vn 0.8907 0.4133 0.1890
vn 0.9308 0.2613 -0.2555
vn 0.9343 0.0900 -0.3449
vn 0.7080 0.2669 -0.6538
vn 0.7080 0.2666 -0.6540
vn 0.2726 0.1592 -0.9489
vn 0.2874 0.2585 -0.9223
vn -0.1102 0.7069 -0.6986
vn -0.3904 0.1417 -0.9097
vn -0.4670 0.8585 0.2117
vn -0.6119 0.7136 0.3411
vn -0.5029 0.6911 0.5191
vn -0.0810 0.6488 0.7566
vn -0.1546 0.7977 0.5829
vn 0.1218 0.7838 0.6089
vn 0.3137 0.6486 0.6935
vn 0.5334 0.7093 0.4607
vn 0.7564 0.6412 0.1296
vn 0.6349 0.7361 -0.2346
vn 0.6834 0.6436 -0.3446
vn 0.4971 0.7362 -0.4592
vn 0.4972 0.7360 -0.4595
vn 0.2282 0.6407 -0.7331
vn 0.2353 0.7295 -0.6422
vn -0.2702 0.6243 -0.7330
vn -0.6074 0.7477 -0.2684
vn -0.5709 0.7763 -0.2672
vn -0.5757 0.7497 0.3263
vn -0.2836 0.9083 0.3075
vn 0.4411 0.8568 0.2671
vn 0.5382 0.8322 0.1334
vn 0.5574 0.8207 0.1252
vn 0.4973 0.8479 -0.1839
vn 0.1261 0.8808 -0.4564
vn -0.2384 0.7802 -0.5784
vn -0.1431 0.8744 -0.4637
vn -0.3177 0.9401 -0.1233
vn -0.2819 0.9577 -0.0587
vn -0.1340 0.8762 0.4630
vn 0.1598 0.9218 0.3532
vn 0.0407 0.9524 0.3022
vn 0.3499 0.9024 0.2515
vn 0.2326 0.9717 -0.0414
vn 0.3240 0.9286 -0.1808
vn 0.2355 0.9713 -0.0317
vn 0.2956 0.9155 -0.2729
vn 0.1491 0.9325 -0.3291
vn -0.1190 0.9515 -0.2837
vn -0.2577 0.9650 -0.0481
vn -0.1653 0.9698 0.1795
vn -0.1654 0.9695 0.1807
vn -0.0044 0.9920 0.1258
vn 0.2173 0.9206 0.3243
vn 0.2006 0.9775 0.0658
vn 0.1119 0.9909 -0.0744
vn 0.0665 0.9716 -0.2270
vn -0.0682 0.9703 -0.2320
vn -0.6054 -0.7926 0.0720
vn -0.2483 -0.8328 0.4948
vn 0.4281 -0.8650 0.2618
vn 0.5079 -0.8578 0.0790
vn -0.1044 -0.8212 -0.5610
vn -0.1003 0.9924 -0.0715
vn -0.0949 0.9925 -0.0771
vn -0.0476 0.9975 0.0520
vn 0.0775 0.9924 0.0956
vn 0.0995 0.9930 -0.0637
# 296 vertex normals

vt 0.8787 0.2528 0.0000
vt 0.8788 0.2528 0.0000
vt 0.8788 0.2527 0.0000
# 3 texture coords

g GreenGem
usemtl material_51
s off
f 1/1/1 2/1/1 3/1/1 
f 1/1/2 4/1/2 5/1/2 
f 1/1/3 5/1/3 2/1/3 
f 4/1/4 6/1/4 5/1/4 
f 4/1/5 7/1/5 6/1/5 
f 4/1/6 8/2/6 7/1/6 
f 8/2/7 9/2/7 10/2/7 
f 9/2/8 11/2/8 12/2/8 
f 9/2/9 12/2/9 10/2/9 
f 11/2/10 13/2/10 12/2/10 
f 11/2/11 1/2/11 3/2/11 
f 11/2/12 3/2/12 13/2/12 
f 3/1/13 2/1/13 14/1/13 
f 3/1/14 14/1/14 15/1/14 
f 2/1/15 5/1/15 14/1/15 
f 7/1/16 8/2/16 16/2/16 
f 8/2/17 10/2/17 16/2/17 
f 10/2/18 12/2/18 17/2/18 
f 12/2/19 13/2/19 18/2/19 
f 12/2/20 18/2/20 17/2/20 
f 13/2/21 3/2/21 15/2/21 
f 13/2/22 15/2/22 18/2/22 
f 15/1/23 14/1/23 19/1/23 
f 15/1/24 19/1/24 20/1/24 
f 14/1/25 21/1/25 19/1/25 
f 14/1/26 5/1/26 22/1/26 
f 14/1/27 22/1/27 21/1/27 
f 5/1/28 23/1/28 22/1/28 
f 5/1/29 6/1/29 24/1/29 
f 5/1/30 24/1/30 23/1/30 
f 6/1/31 7/1/31 24/1/31 
f 7/1/32 16/2/32 25/1/32 
f 7/1/33 25/1/33 24/1/33 
f 16/2/34 26/2/34 25/1/34 
f 16/2/35 10/2/35 27/2/35 
f 16/2/36 27/2/36 26/2/36 
f 10/2/37 17/2/37 28/2/37 
f 10/2/38 28/2/38 27/2/38 
f 17/2/39 29/2/39 28/2/39 
f 17/2/40 18/2/40 30/2/40 
f 17/2/41 30/2/41 29/2/41 
f 18/2/42 31/2/42 30/2/42 
f 18/2/43 15/2/43 31/2/43 
f 15/2/44 20/2/44 31/2/44 
f 21/1/45 22/1/45 32/1/45 
f 22/1/46 23/1/46 33/1/46 
f 22/1/47 33/1/47 32/1/47 
f 23/1/48 24/1/48 34/1/48 
f 23/1/49 34/1/49 33/1/49 
f 24/1/50 25/1/50 34/1/50 
f 27/2/51 28/2/51 35/2/51 
f 28/2/52 29/2/52 35/2/52 
f 31/2/53 20/2/53 36/2/53 
f 20/1/54 19/1/54 37/1/54 
f 20/1/55 37/1/55 38/1/55 
f 19/1/56 21/1/56 32/1/56 
f 19/1/57 32/1/57 37/1/57 
f 32/1/58 33/1/58 39/1/58 
f 33/1/59 34/1/59 39/1/59 
f 34/1/60 25/1/60 40/1/60 
f 25/1/61 26/2/61 41/2/61 
f 25/1/62 41/2/62 40/1/62 
f 26/2/63 27/2/63 42/2/63 
f 26/2/64 42/2/64 41/2/64 
f 27/2/65 35/2/65 42/2/65 
f 35/2/66 29/2/66 43/2/66 
f 29/2/67 30/2/67 44/2/67 
f 29/2/68 44/2/68 43/2/68 
f 30/2/69 31/2/69 36/2/69 
f 30/2/70 36/2/70 44/2/70 
f 36/2/71 20/2/71 38/2/71 
f 38/1/72 37/1/72 45/1/72 
f 37/1/73 32/1/73 46/1/73 
f 37/1/74 46/1/74 45/1/74 
f 32/1/75 39/1/75 46/1/75 
f 39/1/76 34/1/76 47/1/76 
f 34/1/77 40/1/77 47/1/77 
f 40/1/78 41/2/78 48/2/78 
f 41/2/79 42/2/79 49/2/79 
f 41/2/80 49/2/80 48/2/80 
f 42/2/81 35/2/81 50/2/81 
f 42/2/82 50/2/82 49/2/82 
f 35/2/83 43/2/83 51/2/83 
f 35/2/84 51/2/84 50/2/84 
f 43/2/85 44/2/85 52/2/85 
f 43/2/86 52/2/86 51/2/86 
f 44/2/87 36/2/87 53/2/87 
f 44/2/88 53/2/88 52/2/88 
f 36/2/89 38/2/89 45/2/89 
f 36/2/90 45/2/90 53/2/90 
f 46/1/91 39/1/91 54/1/91 
f 46/1/92 54/1/92 55/1/92 
f 39/1/93 47/1/93 54/1/93 
f 47/1/94 40/1/94 56/1/94 
f 47/1/95 56/1/95 54/1/95 
f 40/1/96 48/2/96 57/2/96 
f 40/1/97 57/2/97 56/1/97 
f 48/2/98 49/2/98 57/2/98 
f 49/2/99 50/2/99 58/2/99 
f 50/2/100 51/2/100 59/2/100 
f 50/2/101 59/2/101 58/2/101 
f 51/2/102 52/2/102 60/2/102 
f 51/2/103 60/2/103 59/2/103 
f 52/2/104 53/2/104 61/2/104 
f 52/2/105 61/2/105 60/2/105 
f 53/2/106 45/2/106 61/2/106 
f 45/1/107 46/1/107 55/1/107 
f 45/1/108 55/1/108 62/1/108 
f 55/1/109 54/1/109 63/1/109 
f 54/1/110 64/1/110 63/1/110 
f 49/2/111 65/2/111 57/2/111 
f 49/2/112 58/2/112 66/2/112 
f 49/2/113 66/2/113 65/2/113 
f 58/2/114 59/2/114 66/2/114 
f 60/2/115 61/2/115 67/2/115 
f 61/2/116 45/2/116 62/2/116 
f 61/2/117 62/2/117 67/2/117 
f 62/1/118 55/1/118 68/1/118 
f 55/1/119 63/1/119 68/1/119 
f 54/1/120 56/1/120 64/1/120 
f 56/1/121 57/2/121 69/2/121 
f 56/1/122 69/2/122 64/1/122 
f 57/2/123 65/2/123 69/2/123 
f 65/2/124 66/2/124 70/2/124 
f 66/2/125 59/2/125 71/2/125 
f 66/2/126 71/2/126 70/2/126 
f 59/2/127 60/2/127 71/2/127 
f 60/2/128 67/2/128 71/2/128 
f 67/2/129 62/2/129 68/2/129 
f 68/1/130 63/1/130 72/1/130 
f 63/1/131 64/1/131 73/1/131 
f 63/1/132 73/1/132 72/1/132 
f 64/1/133 69/2/133 70/2/133 
f 64/1/134 70/2/134 73/1/134 
f 69/2/135 65/2/135 70/2/135 
f 71/2/136 74/2/136 70/2/136 
f 71/2/137 67/2/137 74/2/137 
f 67/2/138 68/2/138 74/2/138 
f 4/1/139 1/1/139 75/3/139 
f 8/2/140 4/1/140 75/3/140 
f 9/2/141 8/2/141 75/3/141 
f 11/2/142 9/2/142 75/3/142 
f 1/2/143 11/2/143 75/3/143 
f 74/1/144 68/1/144 76/2/144 
f 68/1/145 72/1/145 76/2/145 
f 72/1/146 73/1/146 76/2/146 
f 73/1/147 70/2/147 76/2/147 
f 70/2/148 74/2/148 76/2/148 
f 77/1/149 78/1/149 79/1/149 
f 77/1/150 80/1/150 81/1/150 
f 77/1/151 81/1/151 78/1/151 
f 80/1/152 82/1/152 81/1/152 
f 80/1/153 83/1/153 82/1/153 
f 80/1/154 84/2/154 83/1/154 
f 84/2/155 85/2/155 86/2/155 
f 85/2/156 87/2/156 88/2/156 
f 85/2/157 88/2/157 86/2/157 
f 87/2/158 89/2/158 88/2/158 
f 87/2/159 77/2/159 79/2/159 
f 87/2/160 79/2/160 89/2/160 
f 79/1/161 78/1/161 90/1/161 
f 79/1/162 90/1/162 91/1/162 
f 78/1/163 81/1/163 90/1/163 
f 83/1/164 84/2/164 92/2/164 
f 84/2/165 86/2/165 92/2/165 
f 86/2/166 88/2/166 93/2/166 
f 88/2/167 89/2/167 94/2/167 
f 88/2/168 94/2/168 93/2/168 
f 89/2/169 79/2/169 91/2/169 
f 89/2/170 91/2/170 94/2/170 
f 91/1/171 90/1/171 95/1/171 
f 91/1/172 95/1/172 96/1/172 
f 90/1/173 97/1/173 95/1/173 
f 90/1/174 81/1/174 98/1/174 
f 90/1/175 98/1/175 97/1/175 
f 81/1/176 99/1/176 98/1/176 
f 81/1/177 82/1/177 100/1/177 
f 81/1/178 100/1/178 99/1/178 
f 82/1/179 83/1/179 100/1/179 
f 83/1/180 92/2/180 101/1/180 
f 83/1/181 101/1/181 100/1/181 
f 92/2/182 102/2/182 101/1/182 
f 92/2/183 86/2/183 103/2/183 
f 92/2/184 103/2/184 102/2/184 
f 86/2/185 93/2/185 104/2/185 
f 86/2/186 104/2/186 103/2/186 
f 93/2/187 105/2/187 104/2/187 
f 93/2/188 94/2/188 106/2/188 
f 93/2/189 106/2/189 105/2/189 
f 94/2/190 107/2/190 106/2/190 
f 94/2/191 91/2/191 107/2/191 
f 91/2/192 96/2/192 107/2/192 
f 97/1/193 98/1/193 108/1/193 
f 98/1/194 99/1/194 109/1/194 
f 98/1/195 109/1/195 108/1/195 
f 99/1/196 100/1/196 110/1/196 
f 99/1/197 110/1/197 109/1/197 
f 100/1/198 101/1/198 110/1/198 
f 103/2/199 104/2/199 111/2/199 
f 104/2/200 105/2/200 111/2/200 
f 107/2/201 96/2/201 112/2/201 
f 96/1/202 95/1/202 113/1/202 
f 96/1/203 113/1/203 114/1/203 
f 95/1/204 97/1/204 108/1/204 
f 95/1/205 108/1/205 113/1/205 
f 108/1/206 109/1/206 115/1/206 
f 109/1/207 110/1/207 115/1/207 
f 110/1/208 101/1/208 116/1/208 
f 101/1/209 102/2/209 117/2/209 
f 101/1/210 117/2/210 116/1/210 
f 102/2/211 103/2/211 118/2/211 
f 102/2/212 118/2/212 117/2/212 
f 103/2/213 111/2/213 118/2/213 
f 111/2/214 105/2/214 119/2/214 
f 105/2/215 106/2/215 120/2/215 
f 105/2/216 120/2/216 119/2/216 
f 106/2/217 107/2/217 112/2/217 
f 106/2/218 112/2/218 120/2/218 
f 112/2/219 96/2/219 114/2/219 
f 114/1/220 113/1/220 121/1/220 
f 113/1/221 108/1/221 122/1/221 
f 113/1/222 122/1/222 121/1/222 
f 108/1/223 115/1/223 122/1/223 
f 115/1/224 110/1/224 123/1/224 
f 110/1/225 116/1/225 123/1/225 
f 116/1/226 117/2/226 124/2/226 
f 117/2/227 118/2/227 125/2/227 
f 117/2/228 125/2/228 124/2/228 
f 118/2/229 111/2/229 126/2/229 
f 118/2/230 126/2/230 125/2/230 
f 111/2/231 119/2/231 127/2/231 
f 111/2/232 127/2/232 126/2/232 
f 119/2/233 120/2/233 128/2/233 
f 119/2/234 128/2/234 127/2/234 
f 120/2/235 112/2/235 129/2/235 
f 120/2/236 129/2/236 128/2/236 
f 112/2/237 114/2/237 121/2/237 
f 112/2/238 121/2/238 129/2/238 
f 122/1/239 115/1/239 130/1/239 
f 122/1/240 130/1/240 131/1/240 
f 115/1/241 123/1/241 130/1/241 
f 123/1/242 116/1/242 132/1/242 
f 123/1/243 132/1/243 130/1/243 
f 116/1/244 124/2/244 133/2/244 
f 116/1/245 133/2/245 132/1/245 
f 124/2/246 125/2/246 133/2/246 
f 125/2/247 126/2/247 134/2/247 
f 126/2/248 127/2/248 135/2/248 
f 126/2/249 135/2/249 134/2/249 
f 127/2/250 128/2/250 136/2/250 
f 127/2/251 136/2/251 135/2/251 
f 128/2/252 129/2/252 137/2/252 
f 128/2/253 137/2/253 136/2/253 
f 129/2/254 121/2/254 137/2/254 
f 121/1/255 122/1/255 131/1/255 
f 121/1/256 131/1/256 138/1/256 
f 131/1/257 130/1/257 139/1/257 
f 130/1/258 140/1/258 139/1/258 
f 125/2/259 141/2/259 133/2/259 
f 125/2/260 134/2/260 142/2/260 
f 125/2/261 142/2/261 141/2/261 
f 134/2/262 135/2/262 142/2/262 
f 136/2/263 137/2/263 143/2/263 
f 137/2/264 121/2/264 138/2/264 
f 137/2/265 138/2/265 143/2/265 
f 138/1/266 131/1/266 144/1/266 
f 131/1/267 139/1/267 144/1/267 
f 130/1/268 132/1/268 140/1/268 
f 132/1/269 133/2/269 145/2/269 
f 132/1/270 145/2/270 140/1/270 
f 133/2/271 141/2/271 145/2/271 
f 141/2/272 142/2/272 146/2/272 
f 142/2/273 135/2/273 147/2/273 
f 142/2/274 147/2/274 146/2/274 
f 135/2/275 136/2/275 147/2/275 
f 136/2/276 143/2/276 147/2/276 
f 143/2/277 138/2/277 144/2/277 
f 144/1/278 139/1/278 148/1/278 
f 139/1/279 140/1/279 149/1/279 
f 139/1/280 149/1/280 148/1/280 
f 140/1/281 145/2/281 146/2/281 
f 140/1/282 146/2/282 149/1/282 
f 145/2/283 141/2/283 146/2/283 
f 147/2/284 150/2/284 146/2/284 
f 147/2/285 143/2/285 150/2/285 
f 143/2/286 144/2/286 150/2/286 
f 80/1/287 77/1/287 151/3/287 
f 84/2/288 80/1/288 151/3/288 
f 85/2/289 84/2/289 151/3/289 
f 87/2/290 85/2/290 151/3/290 
f 77/2/291 87/2/291 151/3/291 
f 150/1/292 144/1/292 152/2/292 
f 144/1/293 148/1/293 152/2/293 
f 148/1/294 149/1/294 152/2/294 
f 149/1/295 146/2/295 152/2/295 
f 146/2/296 150/2/296 152/2/296 
# 0 polygons - 296 triangles

