# 3ds Max Wavefront OBJ Exporter v0.97b - (c)2007 guruware
# File Created: 11.09.2016 18:36:14

mtllib Purple Gem.mtl

#
# object PurpleGem
#

v  -0.0122 -1.5534 -0.0255
v  -2.2751 0.0356 -1.8245
v  -2.0349 0.0361 -2.0855
v  -2.4493 0.0356 1.4105
v  -2.6219 0.0356 1.1015
v  0.5753 0.0361 2.5775
v  0.2264 0.0356 2.6455
v  2.6183 0.0361 0.0595
v  2.5761 0.0361 0.4135
v  -1.8934 1.5523 0.9355
v  -1.6116 1.5523 -1.4565
v  -1.7125 1.4769 -1.5485
v  -2.0063 1.4769 1.0025
v  0.2925 1.5534 1.9355
v  0.3284 1.4769 2.0695
v  0.7292 1.5528 -1.9315
v  0.8041 1.4769 -2.0565
v  1.9205 1.5534 0.1665
v  2.0650 1.4769 0.1795
v  0.8551 0.0361 -2.6595
v  1.1790 0.0361 -2.5115
v  0.8280 0.2861 -2.7165
v  1.2565 0.2893 -2.5255
v  2.6838 0.2915 0.0175
v  2.6292 0.2925 0.4885
v  0.6471 0.2920 2.6295
v  0.1838 0.2893 2.7165
v  -2.4607 0.2872 1.4925
v  -2.6838 0.2846 1.0845
v  -2.3401 0.2840 -1.8045
v  -2.0271 0.2846 -2.1465
v  -0.0127 -1.5337 -0.0255
v  -2.2600 0.0467 -1.8175
v  -2.0265 0.0467 -2.0715
v  -2.4378 0.0472 1.3995
v  -2.6058 0.0472 1.0985
v  0.5675 0.0478 2.5625
v  0.2280 0.0472 2.6285
v  2.6021 0.0472 0.0625
v  2.5611 0.0472 0.4075
v  -1.8872 1.5332 0.9325
v  -1.6064 1.5337 -1.4515
v  -1.7016 1.4631 -1.5385
v  -1.9938 1.4631 0.9955
v  0.2914 1.5342 1.9295
v  0.3252 1.4631 2.0555
v  0.7272 1.5342 -1.9255
v  0.7979 1.4631 -2.0435
v  1.9142 1.5342 0.1655
v  2.0510 1.4631 0.1775
v  0.8530 0.0467 -2.6435
v  1.1681 0.0472 -2.4985
v  0.8260 0.2835 -2.6965
v  1.2424 0.2872 -2.5115
v  2.6645 0.2893 0.0215
v  2.6115 0.2904 0.4805
v  0.6372 0.2899 2.6125
v  0.1864 0.2872 2.6965
v  -2.4472 0.2846 1.4775
v  -2.6640 0.2819 1.0815
v  -2.3219 0.2808 -1.7965
v  -2.0177 0.2819 -2.1285
# 62 vertices

vn -0.3544 -0.8758 -0.3278
vn -0.4277 -0.8718 0.2389
vn 0.0991 -0.8591 0.5022
vn 0.5147 -0.8551 0.0614
vn -0.5581 0.8271 -0.0658
vn -0.5813 0.8109 -0.0669
vn -0.2386 0.8198 0.5206
vn -0.2418 0.8134 0.5291
vn -0.1148 0.8171 -0.5649
vn -0.1118 0.8252 -0.5537
vn 0.4696 0.8416 -0.2669
vn 0.4478 0.8577 -0.2525
vn 0.4023 0.8373 0.3702
vn 0.4074 0.8330 0.3743
vn 0.2076 -0.8663 -0.4544
vn -0.5390 -0.8399 -0.0639
vn -0.2365 -0.8256 0.5123
vn 0.4302 -0.8104 0.3978
vn 0.5029 -0.8172 -0.2815
vn -0.1071 -0.8353 -0.5393
vn 0.4102 -0.1602 -0.8978
vn 0.4021 -0.1728 -0.8992
vn 0.9666 -0.2289 0.1152
vn 0.9660 -0.2329 0.1125
vn 0.1858 -0.2455 0.9514
vn 0.1806 -0.2368 0.9546
vn -0.8563 -0.1947 0.4783
vn -0.8622 -0.1821 0.4726
vn -0.9623 -0.2470 -0.1141
vn -0.9633 -0.2428 -0.1145
vn -0.3986 -0.3086 0.8636
vn -0.4005 -0.3003 0.8657
vn 0.6929 -0.3309 0.6406
vn 0.6940 -0.3252 0.6424
vn 0.8371 -0.2821 -0.4686
vn 0.8344 -0.2910 -0.4681
vn -0.1897 -0.2285 -0.9549
vn -0.1900 -0.2378 -0.9525
vn 0.7722 0.4626 -0.4355
vn 0.7718 0.4652 -0.4336
vn 0.8875 0.4494 0.1019
vn 0.6539 0.4598 0.6008
vn 0.6492 0.4661 0.6011
vn -0.3668 0.4706 0.8025
vn -0.3691 0.4789 0.7965
vn -0.8715 0.4800 -0.1004
vn -0.8678 0.4860 -0.1033
vn -0.1742 0.4747 -0.8628
vn -0.1723 0.4776 -0.8615
vn -0.6514 0.4704 -0.5953
vn 0.3591 0.4579 -0.8132
vn 0.1616 0.4569 0.8747
vn -0.7758 0.4698 0.4212
vn -0.3554 -0.8758 -0.3267
vn -0.4279 -0.8717 0.2388
vn 0.0992 -0.8588 0.5026
vn 0.5149 -0.8551 0.0612
vn -0.5553 0.8291 -0.0652
vn -0.5753 0.8152 -0.0663
vn -0.2365 0.8233 0.5160
vn -0.2400 0.8165 0.5251
vn -0.1143 0.8191 -0.5621
vn -0.1111 0.8277 -0.5501
vn 0.4630 0.8465 -0.2628
vn 0.4452 0.8595 -0.2512
vn 0.3990 0.8402 0.3671
vn 0.4027 0.8372 0.3700
vn 0.2100 -0.8662 -0.4534
vn -0.5395 -0.8396 -0.0638
vn -0.2365 -0.8252 0.5130
vn 0.4304 -0.8099 0.3984
vn 0.5033 -0.8168 -0.2818
vn -0.1072 -0.8351 -0.5396
vn 0.4133 -0.1538 -0.8975
vn 0.4012 -0.1729 -0.8995
vn 0.9665 -0.2297 0.1149
vn 0.9658 -0.2338 0.1121
vn 0.1852 -0.2496 0.9505
vn 0.1792 -0.2393 0.9543
vn -0.8571 -0.1911 0.4784
vn -0.8624 -0.1796 0.4734
vn -0.9623 -0.2469 -0.1141
vn -0.9629 -0.2444 -0.1144
vn -0.3976 -0.3133 0.8624
vn -0.4004 -0.3003 0.8657
vn 0.6915 -0.3354 0.6398
vn 0.6922 -0.3317 0.6409
vn 0.8365 -0.2843 -0.4684
vn 0.8335 -0.2940 -0.4677
vn -0.1899 -0.2245 -0.9558
vn -0.1903 -0.2350 -0.9532
vn 0.7726 0.4617 -0.4359
vn 0.7720 0.4645 -0.4338
vn 0.8872 0.4502 0.1014
vn 0.6541 0.4593 0.6010
vn 0.6493 0.4657 0.6013
vn -0.3670 0.4696 0.8030
vn -0.3693 0.4780 0.7969
vn -0.8718 0.4794 -0.1005
vn -0.8683 0.4851 -0.1034
vn -0.1744 0.4737 -0.8632
vn -0.1724 0.4767 -0.8620
vn -0.6510 0.4714 -0.5949
vn 0.3573 0.4588 -0.8135
vn 0.1602 0.4578 0.8745
vn -0.7753 0.4706 0.4213
vn -0.0002 1.0000 -0.0001
vn -0.0005 1.0000 -0.0001
vn -0.0002 1.0000 -0.0002
vn -0.7302 -0.1412 -0.6685
vn -0.7288 -0.1367 -0.6710
vn -0.0002 1.0000 0.0001
vn -0.0005 1.0000 0.0001
vn -0.0001 1.0000 -0.0001
vn -0.7303 -0.1350 -0.6696
vn -0.7297 -0.1328 -0.6708
# 116 vertex normals

vt 0.3732 0.7348 0.0000
vt 0.3733 0.7349 0.0000
vt 0.3732 0.7349 0.0000
vt 0.3733 0.7348 0.0000
# 4 texture coords

g PurpleGem
usemtl material_51
s off
f 1/1/1 2/2/1 3/2/1 
f 1/1/2 4/3/2 5/3/2 
f 1/1/3 6/3/3 7/3/3 
f 1/1/4 8/3/4 9/3/4 
f 10/1/5 11/4/5 12/4/5 
f 10/1/6 12/4/6 13/1/6 
f 14/1/7 10/4/7 13/4/7 
f 14/1/8 13/4/8 15/1/8 
f 11/1/9 16/4/9 17/4/9 
f 11/1/10 17/4/10 12/1/10 
f 16/1/11 18/4/11 19/4/11 
f 16/1/12 19/4/12 17/1/12 
f 18/1/13 14/4/13 15/4/13 
f 18/1/14 15/4/14 19/1/14 
f 1/1/15 20/3/15 21/3/15 
f 5/3/16 2/2/16 1/1/16 
f 7/3/17 4/3/17 1/1/17 
f 6/3/18 1/1/18 9/3/18 
f 21/3/19 8/3/19 1/1/19 
f 3/2/20 20/3/20 1/1/20 
f 21/1/21 20/4/21 22/2/21 
f 21/1/22 22/2/22 23/3/22 
f 9/1/23 8/4/23 24/2/23 
f 9/1/24 24/2/24 25/3/24 
f 7/1/25 6/4/25 26/2/25 
f 7/1/26 26/2/26 27/3/26 
f 5/1/27 4/4/27 28/2/27 
f 5/1/28 28/2/28 29/3/28 
f 2/1/29 5/4/29 29/2/29 
f 2/1/30 29/2/30 30/3/30 
f 4/1/31 7/4/31 27/2/31 
f 4/1/32 27/2/32 28/3/32 
f 6/1/33 9/4/33 25/2/33 
f 6/1/34 25/2/34 26/3/34 
f 8/1/35 21/4/35 23/2/35 
f 8/1/36 23/2/36 24/3/36 
f 20/1/37 3/4/37 31/2/37 
f 20/1/38 31/2/38 22/3/38 
f 17/1/39 19/4/39 24/4/39 
f 17/1/40 24/4/40 23/1/40 
f 24/1/41 19/4/41 25/1/41 
f 19/1/42 15/4/42 26/4/42 
f 19/1/43 26/4/43 25/1/43 
f 15/1/44 13/4/44 28/4/44 
f 15/1/45 28/4/45 27/1/45 
f 13/1/46 12/4/46 30/4/46 
f 13/1/47 30/4/47 29/1/47 
f 12/1/48 17/4/48 22/4/48 
f 12/1/49 22/4/49 31/1/49 
f 12/1/50 31/4/50 30/4/50 
f 17/1/51 23/4/51 22/4/51 
f 15/1/52 27/4/52 26/4/52 
f 28/1/53 13/4/53 29/1/53 
f 32/1/54 33/2/54 34/2/54 
f 32/1/55 35/3/55 36/3/55 
f 32/1/56 37/3/56 38/3/56 
f 32/1/57 39/3/57 40/3/57 
f 41/1/58 42/4/58 43/4/58 
f 41/1/59 43/4/59 44/1/59 
f 45/1/60 41/4/60 44/4/60 
f 45/1/61 44/4/61 46/1/61 
f 42/1/62 47/4/62 48/4/62 
f 42/1/63 48/4/63 43/1/63 
f 47/1/64 49/4/64 50/4/64 
f 47/1/65 50/4/65 48/1/65 
f 49/1/66 45/4/66 46/4/66 
f 49/1/67 46/4/67 50/1/67 
f 32/1/68 51/3/68 52/3/68 
f 36/3/69 33/2/69 32/1/69 
f 38/3/70 35/3/70 32/1/70 
f 37/3/71 32/1/71 40/3/71 
f 52/3/72 39/3/72 32/1/72 
f 34/2/73 51/3/73 32/1/73 
f 52/1/74 51/4/74 53/2/74 
f 52/1/75 53/2/75 54/3/75 
f 40/1/76 39/4/76 55/2/76 
f 40/1/77 55/2/77 56/3/77 
f 38/1/78 37/4/78 57/2/78 
f 38/1/79 57/2/79 58/3/79 
f 36/1/80 35/4/80 59/2/80 
f 36/1/81 59/2/81 60/3/81 
f 33/1/82 36/4/82 60/2/82 
f 33/1/83 60/2/83 61/3/83 
f 35/1/84 38/4/84 58/2/84 
f 35/1/85 58/2/85 59/3/85 
f 37/1/86 40/4/86 56/2/86 
f 37/1/87 56/2/87 57/3/87 
f 39/1/88 52/4/88 54/2/88 
f 39/1/89 54/2/89 55/3/89 
f 51/1/90 34/4/90 62/2/90 
f 51/1/91 62/2/91 53/3/91 
f 48/1/92 50/4/92 55/4/92 
f 48/1/93 55/4/93 54/1/93 
f 55/1/94 50/4/94 56/1/94 
f 50/1/95 46/4/95 57/4/95 
f 50/1/96 57/4/96 56/1/96 
f 46/1/97 44/4/97 59/4/97 
f 46/1/98 59/4/98 58/1/98 
f 44/1/99 43/4/99 61/4/99 
f 44/1/100 61/4/100 60/1/100 
f 43/1/101 48/4/101 53/4/101 
f 43/1/102 53/4/102 62/1/102 
f 43/1/103 62/4/103 61/4/103 
f 48/1/104 54/4/104 53/4/104 
f 46/1/105 58/4/105 57/4/105 
f 59/1/106 44/4/106 60/1/106 
f 16/1/107 11/4/107 18/3/107 
f 11/1/108 10/4/108 14/2/108 
f 11/1/109 14/4/109 18/2/109 
f 30/1/110 31/4/110 3/4/110 
f 30/1/111 3/4/111 2/1/111 
f 47/1/112 42/4/112 49/3/112 
f 42/1/113 41/4/113 45/2/113 
f 42/1/114 45/4/114 49/2/114 
f 61/1/115 62/4/115 34/4/115 
f 61/1/116 34/4/116 33/1/116 
# 0 polygons - 116 triangles

