# 3ds Max Wavefront OBJ Exporter v0.97b - (c)2007 guruware
# File Created: 11.09.2016 18:37:04

mtllib Red Gem.mtl

#
# object RedGem
#

v  -3.0147 0.3326 -1.1570
v  -3.0584 0.1447 -1.1740
v  -2.5462 0.1447 2.0620
v  -2.5093 0.3326 2.0320
v  -0.5049 0.3326 -3.1890
v  -0.5127 0.1447 -3.2360
v  2.5093 0.3326 -2.0320
v  2.5462 0.1447 -2.0620
v  3.0142 0.3326 1.1570
v  3.0584 0.1447 1.1740
v  0.5049 0.3326 3.1890
v  0.5122 0.1447 3.2360
v  -1.8854 -0.8024 -0.7240
v  -1.5692 -0.8024 1.2710
v  -0.3161 -0.8024 -1.9950
v  1.5692 -0.8024 -1.2710
v  1.8854 -0.8024 0.7240
v  0.3156 -0.8024 1.9950
v  -1.0425 1.4098 -1.2870
v  -1.6358 1.4098 0.2590
v  0.0000 1.4098 -0.0000
v  -0.5938 1.4098 1.5460
v  1.0420 1.4098 1.2870
v  0.6713 -1.4098 0.2580
v  0.1123 -1.4098 0.7100
v  0.0000 -1.4098 -0.0000
v  -0.1123 -1.4098 -0.7100
v  0.5590 -1.4098 -0.4530
v  -0.6718 -1.4098 -0.2580
v  -0.5590 -1.4098 0.4530
v  0.5938 1.4098 -1.5460
v  1.6358 1.4098 -0.2590
v  -2.9986 0.3225 -1.1510
v  -3.0407 0.1500 -1.1670
v  -2.5312 0.1500 2.0500
v  -2.4963 0.3225 2.0210
v  -0.5023 0.3225 -3.1720
v  -0.5096 0.1500 -3.2170
v  2.4958 0.3225 -2.0210
v  2.5312 0.1500 -2.0500
v  2.9981 0.3225 1.1510
v  3.0407 0.1500 1.1670
v  0.5023 0.3225 3.1720
v  0.5096 0.1500 3.2170
v  -1.8750 -0.7860 -0.7200
v  -1.5609 -0.7860 1.2640
v  -0.3141 -0.7860 -1.9840
v  1.5609 -0.7860 -1.2640
v  1.8750 -0.7860 0.7200
v  0.3141 -0.7860 1.9840
v  -1.0378 1.3912 -1.2810
v  -1.6285 1.3912 0.2580
v  0.0000 1.3901 -0.0000
v  -0.5912 1.3912 1.5390
v  1.0373 1.3912 1.2810
v  0.6661 -1.3906 0.2560
v  0.1118 -1.3906 0.7050
v  0.0000 -1.3896 -0.0000
v  -0.1118 -1.3906 -0.7050
v  0.5548 -1.3906 -0.4490
v  -0.6661 -1.3906 -0.2560
v  -0.5548 -1.3906 0.4490
v  0.5907 1.3912 -1.5390
v  1.6285 1.3912 -0.2580
# 64 vertices

vn -0.9655 0.2107 0.1528
vn -0.9648 0.2139 0.1529
vn -0.6147 0.2153 -0.7588
vn -0.6150 0.2117 -0.7596
vn 0.3500 0.2143 -0.9119
vn 0.3501 0.2136 -0.9120
vn 0.9650 0.2132 -0.1527
vn 0.9648 0.2139 -0.1528
vn 0.6148 0.2138 0.7592
vn 0.6148 0.2133 0.7593
vn -0.3500 0.2143 0.9119
vn -0.3500 0.2145 0.9119
vn -0.6485 -0.7543 0.1028
vn -0.6483 -0.7545 0.1026
vn -0.4132 -0.7543 -0.5102
vn -0.4133 -0.7543 -0.5102
vn 0.2353 -0.7545 -0.6127
vn 0.2352 -0.7543 -0.6129
vn 0.6485 -0.7543 -0.1028
vn 0.6483 -0.7545 -0.1026
vn 0.4131 -0.7543 0.5102
vn 0.4132 -0.7542 0.5103
vn -0.2353 -0.7545 0.6127
vn -0.2353 -0.7543 0.6129
vn 0.0000 1.0000 -0.0000
vn 0.0000 -1.0000 -0.0000
vn 0.2983 -0.8803 0.3689
vn 0.2987 -0.8801 0.3689
vn 0.1698 -0.8800 -0.4437
vn 0.1701 -0.8802 -0.4430
vn -0.2980 -0.8804 -0.3689
vn -0.2988 -0.8801 -0.3689
vn -0.1698 -0.8800 0.4437
vn -0.1702 -0.8802 0.4430
vn 0.4688 -0.8802 -0.0740
vn 0.4690 -0.8801 -0.0743
vn -0.4690 -0.8800 0.0744
vn -0.4690 -0.8801 0.0743
vn -0.4000 0.8574 0.3239
vn -0.4805 0.8574 -0.1844
vn 0.2461 0.7269 -0.6411
vn 0.6784 0.7268 -0.1074
vn 0.4805 0.8574 0.1845
vn 0.0805 0.8574 0.5083
vn 0.4322 0.7269 0.5337
vn 0.4000 0.8574 -0.3239
vn -0.0805 0.8574 -0.5083
vn -0.4322 0.7268 -0.5338
vn -0.6783 0.7269 0.1075
vn -0.2461 0.7269 0.6411
vn -0.9633 0.2209 0.1526
vn -0.9634 0.2206 0.1526
vn -0.6135 0.2236 -0.7574
vn -0.6138 0.2201 -0.7582
vn 0.3491 0.2246 -0.9098
vn 0.3494 0.2226 -0.9101
vn 0.9627 0.2236 -0.1525
vn 0.9628 0.2232 -0.1525
vn 0.6135 0.2236 0.7574
vn 0.6136 0.2218 0.7578
vn -0.3492 0.2236 0.9100
vn -0.3494 0.2226 0.9102
vn -0.6464 -0.7561 0.1023
vn -0.6464 -0.7561 0.1024
vn -0.4119 -0.7561 -0.5086
vn -0.4120 -0.7560 -0.5087
vn 0.2346 -0.7562 -0.6109
vn 0.2345 -0.7560 -0.6111
vn 0.6464 -0.7561 -0.1023
vn 0.6464 -0.7561 -0.1024
vn 0.4119 -0.7561 0.5086
vn 0.4120 -0.7560 0.5087
vn -0.2346 -0.7562 0.6109
vn -0.2345 -0.7560 0.6111
vn 0.0007 1.0000 0.0003
vn -0.0001 1.0000 -0.0008
vn -0.0010 -1.0000 -0.0013
vn -0.0006 -1.0000 0.0015
vn 0.0010 -1.0000 0.0013
vn 0.0006 -1.0000 -0.0015
vn -0.0016 -1.0000 0.0003
vn 0.0016 -1.0000 -0.0003
vn 0.2988 -0.8802 0.3688
vn 0.2987 -0.8802 0.3688
vn -0.2988 -0.8802 -0.3688
vn -0.2987 -0.8802 -0.3688
vn -0.1701 -0.8802 0.4430
vn 0.4686 -0.8803 -0.0740
vn 0.4688 -0.8802 -0.0742
vn -0.4686 -0.8803 0.0740
vn -0.4688 -0.8802 0.0742
vn -0.3994 0.8578 0.3234
vn -0.4798 0.8579 -0.1841
vn 0.2460 0.7274 -0.6406
vn 0.6779 0.7273 -0.1074
vn 0.4798 0.8578 0.1843
vn 0.0804 0.8579 0.5076
vn 0.4318 0.7274 0.5333
vn 0.3994 0.8578 -0.3235
vn -0.0804 0.8578 -0.5076
vn -0.4318 0.7274 -0.5334
vn -0.6778 0.7274 0.1073
vn -0.2459 0.7274 0.6407
vn 0.0001 1.0000 0.0008
vn -0.0006 1.0000 0.0005
vn -0.0007 1.0000 -0.0003
vn 0.0006 1.0000 -0.0005
# 107 vertex normals

vt 0.6224 0.7520 0.0000
vt 0.6225 0.7520 0.0000
vt 0.6224 0.7521 0.0000
vt 0.6225 0.7521 0.0000
# 4 texture coords

g RedGem
usemtl material_51
s off
f 1/1/1 2/1/1 3/1/1 
f 1/1/2 3/1/2 4/1/2 
f 5/1/3 6/1/3 2/1/3 
f 5/1/4 2/1/4 1/1/4 
f 7/1/5 8/1/5 6/1/5 
f 7/1/6 6/1/6 5/1/6 
f 9/1/7 10/1/7 8/1/7 
f 9/1/8 8/1/8 7/1/8 
f 11/2/9 12/2/9 10/1/9 
f 11/2/10 10/1/10 9/1/10 
f 4/2/11 3/2/11 12/2/11 
f 4/2/12 12/2/12 11/2/12 
f 2/1/13 13/1/13 14/1/13 
f 2/1/14 14/1/14 3/1/14 
f 6/1/15 15/1/15 13/1/15 
f 6/1/16 13/1/16 2/1/16 
f 8/1/17 16/1/17 15/1/17 
f 8/1/18 15/1/18 6/1/18 
f 10/1/19 17/1/19 16/1/19 
f 10/1/20 16/1/20 8/1/20 
f 12/2/21 18/2/21 17/1/21 
f 12/2/22 17/1/22 10/1/22 
f 3/2/23 14/2/23 18/2/23 
f 3/2/24 18/2/24 12/2/24 
f 19/1/25 20/3/25 21/1/25 
f 21/1/25 22/2/25 23/2/25 
f 24/3/26 25/4/26 26/1/26 
f 27/1/26 28/1/26 26/1/26 
f 27/1/26 26/1/26 29/2/26 
f 25/4/26 30/2/26 26/1/26 
f 28/1/26 24/3/26 26/1/26 
f 26/1/26 30/2/26 29/2/26 
f 18/4/27 25/4/27 24/3/27 
f 18/4/28 24/3/28 17/3/28 
f 16/1/29 28/1/29 27/1/29 
f 16/1/30 27/1/30 15/1/30 
f 15/1/31 27/1/31 29/2/31 
f 15/1/32 29/2/32 13/2/32 
f 14/2/33 30/2/33 25/4/33 
f 14/2/34 25/4/34 18/4/34 
f 17/3/35 24/3/35 28/1/35 
f 17/3/36 28/1/36 16/1/36 
f 13/2/37 29/2/37 30/2/37 
f 13/2/38 30/2/38 14/2/38 
f 20/3/39 4/2/39 22/2/39 
f 19/1/40 1/1/40 20/3/40 
f 5/1/41 31/1/41 7/1/41 
f 7/1/42 32/1/42 9/1/42 
f 23/2/43 9/1/43 32/1/43 
f 22/2/44 11/2/44 23/2/44 
f 9/1/45 23/2/45 11/2/45 
f 32/1/46 7/1/46 31/1/46 
f 31/1/47 5/1/47 19/1/47 
f 1/1/48 19/1/48 5/1/48 
f 4/1/49 20/3/49 1/1/49 
f 11/2/50 22/2/50 4/2/50 
f 21/1/25 31/1/25 19/1/25 
f 21/1/25 32/1/25 31/1/25 
f 21/1/25 23/2/25 32/1/25 
f 20/3/25 22/2/25 21/1/25 
f 33/1/51 34/1/51 35/1/51 
f 33/1/52 35/1/52 36/1/52 
f 37/1/53 38/1/53 34/1/53 
f 37/1/54 34/1/54 33/1/54 
f 39/1/55 40/1/55 38/1/55 
f 39/1/56 38/1/56 37/1/56 
f 41/1/57 42/1/57 40/1/57 
f 41/1/58 40/1/58 39/1/58 
f 43/2/59 44/2/59 42/1/59 
f 43/2/60 42/1/60 41/1/60 
f 36/2/61 35/2/61 44/2/61 
f 36/2/62 44/2/62 43/2/62 
f 34/1/63 45/1/63 46/1/63 
f 34/1/64 46/1/64 35/1/64 
f 38/1/65 47/1/65 45/1/65 
f 38/1/66 45/1/66 34/1/66 
f 40/1/67 48/1/67 47/1/67 
f 40/1/68 47/1/68 38/1/68 
f 42/1/69 49/1/69 48/1/69 
f 42/1/70 48/1/70 40/1/70 
f 44/2/71 50/2/71 49/1/71 
f 44/2/72 49/1/72 42/1/72 
f 35/2/73 46/2/73 50/2/73 
f 35/2/74 50/2/74 44/2/74 
f 51/1/75 52/3/75 53/1/75 
f 53/1/76 54/2/76 55/2/76 
f 56/3/77 57/4/77 58/1/77 
f 59/1/78 60/1/78 58/1/78 
f 59/1/79 58/1/79 61/2/79 
f 57/4/80 62/2/80 58/1/80 
f 60/1/81 56/3/81 58/1/81 
f 58/1/82 62/2/82 61/2/82 
f 50/4/83 57/4/83 56/3/83 
f 50/4/84 56/3/84 49/3/84 
f 48/1/30 60/1/30 59/1/30 
f 48/1/30 59/1/30 47/1/30 
f 47/1/85 59/1/85 61/2/85 
f 47/1/86 61/2/86 45/2/86 
f 46/2/87 62/2/87 57/4/87 
f 46/2/87 57/4/87 50/4/87 
f 49/3/88 56/3/88 60/1/88 
f 49/3/89 60/1/89 48/1/89 
f 45/2/90 61/2/90 62/2/90 
f 45/2/91 62/2/91 46/2/91 
f 52/3/92 36/2/92 54/2/92 
f 51/1/93 33/1/93 52/3/93 
f 37/1/94 63/1/94 39/1/94 
f 39/1/95 64/1/95 41/1/95 
f 55/2/96 41/1/96 64/1/96 
f 54/2/97 43/2/97 55/2/97 
f 41/1/98 55/2/98 43/2/98 
f 64/1/99 39/1/99 63/1/99 
f 63/1/100 37/1/100 51/1/100 
f 33/1/101 51/1/101 37/1/101 
f 36/1/102 52/3/102 33/1/102 
f 43/2/103 54/2/103 36/2/103 
f 53/1/104 63/1/104 51/1/104 
f 53/1/105 64/1/105 63/1/105 
f 53/1/106 55/2/106 64/1/106 
f 52/3/107 54/2/107 53/1/107 
# 0 polygons - 120 triangles

