# 3ds Max Wavefront OBJ Exporter v0.97b - (c)2007 guruware
# File Created: 11.09.2016 18:38:03

mtllib Yellow Gem.mtl

#
# object YellowGem
#

v  -0.0114 -2.0298 -0.0230
v  -2.0476 0.0470 -1.6420
v  -1.8318 0.0470 -1.8770
v  -2.2046 0.0470 1.2700
v  -2.3596 0.0470 0.9920
v  0.5174 0.0470 2.3200
v  0.2038 0.0470 2.3810
v  2.3565 0.0470 0.0540
v  2.3180 0.0470 0.3730
v  -1.7039 2.0282 0.8420
v  -1.4502 2.0282 -1.3100
v  -1.5412 1.9300 -1.3930
v  -1.8058 1.9300 0.9020
v  0.2631 2.0293 1.7420
v  0.2953 1.9300 1.8630
v  0.6562 2.0293 -1.7380
v  0.7233 1.9300 -1.8510
v  1.7284 2.0298 0.1500
v  1.8583 1.9300 0.1620
v  0.7695 0.0470 -2.3930
v  1.0607 0.0470 -2.2600
v  0.7451 0.3740 -2.4450
v  1.1304 0.3783 -2.2730
v  2.4152 0.3809 0.0160
v  2.3663 0.3820 0.4400
v  0.5824 0.3814 2.3670
v  0.1654 0.3777 2.4450
v  -2.2145 0.3751 1.3440
v  -2.4152 0.3719 0.9770
v  -2.1058 0.3714 -1.6240
v  -1.8245 0.3724 -1.9310
v  -0.0120 -2.0096 -0.0230
v  -2.0315 0.0560 -1.6340
v  -1.8225 0.0560 -1.8610
v  -2.1921 0.0565 1.2580
v  -2.3424 0.0560 0.9880
v  0.5096 0.0565 2.3040
v  0.2054 0.0565 2.3630
v  2.3388 0.0565 0.0570
v  2.3019 0.0565 0.3660
v  -1.6961 2.0102 0.8380
v  -1.4439 2.0102 -1.3040
v  -1.5292 1.9183 -1.3820
v  -1.7918 1.9183 0.8940
v  0.2615 2.0112 1.7340
v  0.2922 1.9183 1.8470
v  0.6531 2.0112 -1.7300
v  0.7165 1.9183 -1.8360
v  1.7200 2.0118 0.1490
v  1.8422 1.9183 0.1600
v  0.7675 0.0560 -2.3760
v  1.0493 0.0565 -2.2470
v  0.7430 0.3719 -2.4250
v  1.1169 0.3767 -2.2580
v  2.3960 0.3793 0.0200
v  2.3481 0.3809 0.4320
v  0.5725 0.3798 2.3500
v  0.1680 0.3761 2.4260
v  -2.2010 0.3735 1.3290
v  -2.3960 0.3698 0.9730
v  -2.0876 0.3687 -1.6160
v  -1.8147 0.3698 -1.9140
v  1.7283 2.0298 0.1500
# 63 vertices

vn -0.4602 -0.7807 -0.4226
vn -0.5522 -0.7748 0.3079
vn 0.1249 -0.7563 0.6422
vn 0.6559 -0.7507 0.0792
vn -0.6955 0.7138 -0.0820
vn -0.7163 0.6929 -0.0826
vn -0.2963 0.7027 0.6468
vn -0.2981 0.6975 0.6517
vn -0.1426 0.7000 -0.6998
vn -0.1393 0.7114 -0.6889
vn 0.5930 0.7313 -0.3370
vn 0.5723 0.7539 -0.3227
vn 0.5038 0.7287 0.4639
vn 0.5104 0.7208 0.4690
vn 0.2667 -0.7667 -0.5840
vn -0.6796 -0.7291 -0.0805
vn -0.2951 -0.7098 0.6396
vn 0.5315 -0.6899 0.4915
vn 0.6242 -0.6987 -0.3495
vn -0.1344 -0.7229 -0.6778
vn 0.4128 -0.1129 -0.9038
vn 0.4058 -0.1209 -0.9059
vn 0.9802 -0.1589 0.1183
vn 0.9799 -0.1640 0.1134
vn 0.1881 -0.1725 0.9669
vn 0.1827 -0.1663 0.9690
vn -0.8654 -0.1349 0.4825
vn -0.8698 -0.1268 0.4768
vn -0.7333 -0.0942 -0.6734
vn -0.7338 -0.0952 -0.6727
vn -0.9781 -0.1727 -0.1159
vn -0.9787 -0.1691 -0.1164
vn -0.4087 -0.2189 0.8860
vn -0.4101 -0.2124 0.8870
vn 0.7136 -0.2349 0.6600
vn 0.7139 -0.2316 0.6608
vn 0.8551 -0.1987 -0.4789
vn 0.8537 -0.2046 -0.4789
vn -0.1922 -0.1565 -0.9688
vn -0.1933 -0.1681 -0.9666
vn 0.8197 0.3383 -0.4622
vn 0.8198 0.3403 -0.4605
vn 0.9388 0.3274 0.1074
vn 0.6935 0.3360 0.6373
vn 0.6898 0.3411 0.6387
vn -0.3904 0.3452 0.8535
vn -0.3934 0.3514 0.8495
vn -0.9296 0.3526 -0.1072
vn -0.9274 0.3574 -0.1104
vn -0.1858 0.3482 -0.9188
vn -0.1839 0.3506 -0.9183
vn -0.6926 0.3448 -0.6335
vn 0.3811 0.3344 -0.8620
vn 0.1705 0.3334 0.9272
vn -0.8250 0.3442 0.4482
vn -0.4601 -0.7803 -0.4236
vn -0.5523 -0.7743 0.3089
vn 0.1247 -0.7557 0.6430
vn 0.6566 -0.7501 0.0784
vn -0.6949 0.7144 -0.0818
vn -0.7150 0.6943 -0.0825
vn -0.2964 0.7027 0.6468
vn -0.2987 0.6958 0.6532
vn -0.1424 0.7006 -0.6992
vn -0.1390 0.7126 -0.6876
vn 0.5912 0.7332 -0.3359
vn 0.5702 0.7560 -0.3216
vn 0.5031 0.7296 0.4632
vn 0.5099 0.7215 0.4685
vn 0.2686 -0.7663 -0.5837
vn -0.6805 -0.7283 -0.0807
vn -0.2953 -0.7088 0.6407
vn 0.5323 -0.6888 0.4922
vn 0.6251 -0.6977 -0.3499
vn -0.1349 -0.7221 -0.6786
vn 0.4140 -0.1081 -0.9039
vn 0.4063 -0.1169 -0.9062
vn 0.9801 -0.1603 0.1170
vn 0.9800 -0.1629 0.1146
vn 0.1875 -0.1740 0.9667
vn 0.1835 -0.1694 0.9683
vn -0.8660 -0.1323 0.4823
vn -0.8695 -0.1257 0.4776
vn -0.7325 -0.0926 -0.6744
vn -0.7339 -0.0953 -0.6725
vn -0.9781 -0.1726 -0.1160
vn -0.9787 -0.1689 -0.1165
vn -0.4081 -0.2223 0.8855
vn -0.4106 -0.2102 0.8872
vn 0.7135 -0.2358 0.6598
vn 0.7137 -0.2328 0.6606
vn 0.8555 -0.1971 -0.4788
vn 0.8533 -0.2061 -0.4789
vn -0.1925 -0.1588 -0.9684
vn -0.1931 -0.1650 -0.9672
vn 0.8200 0.3372 -0.4625
vn 0.8201 0.3392 -0.4609
vn 0.9385 0.3279 0.1078
vn 0.6939 0.3348 0.6375
vn 0.6900 0.3401 0.6390
vn -0.3905 0.3439 0.8540
vn -0.3938 0.3507 0.8496
vn -0.9301 0.3514 -0.1073
vn -0.9278 0.3564 -0.1107
vn -0.1858 0.3470 -0.9193
vn -0.1838 0.3495 -0.9187
vn -0.6928 0.3452 -0.6331
vn 0.3807 0.3348 -0.8620
vn 0.1711 0.3342 0.9268
vn -0.8248 0.3447 0.4482
vn -0.0005 1.0000 -0.0001
vn -0.0005 1.0000 -0.0000
# 112 vertex normals

vt 0.3823 0.2581 0.0000
vt 0.3822 0.2581 0.0000
vt 0.3822 0.2580 0.0000
vt 0.3823 0.2580 0.0000
# 4 texture coords

g YellowGem
usemtl material_51
s off
f 1/1/1 2/1/1 3/1/1 
f 1/2/2 4/2/2 5/2/2 
f 1/1/3 6/1/3 7/1/3 
f 1/1/4 8/1/4 9/1/4 
f 10/3/5 11/4/5 12/4/5 
f 10/3/6 12/4/6 13/3/6 
f 14/3/7 10/4/7 13/4/7 
f 14/3/8 13/4/8 15/3/8 
f 11/3/9 16/4/9 17/4/9 
f 11/3/10 17/4/10 12/3/10 
f 16/3/11 18/4/11 19/4/11 
f 16/3/12 19/4/12 17/3/12 
f 18/3/13 14/4/13 15/4/13 
f 18/3/14 15/4/14 19/3/14 
f 1/1/15 20/1/15 21/1/15 
f 5/2/16 2/1/16 1/1/16 
f 7/1/17 4/2/17 1/2/17 
f 6/1/18 1/1/18 9/1/18 
f 21/1/19 8/1/19 1/1/19 
f 3/1/20 20/1/20 1/1/20 
f 21/3/21 20/4/21 22/1/21 
f 21/3/22 22/1/22 23/2/22 
f 9/3/23 8/4/23 24/1/23 
f 9/3/24 24/1/24 25/2/24 
f 7/3/25 6/4/25 26/1/25 
f 7/3/26 26/1/26 27/2/26 
f 5/3/27 4/4/27 28/1/27 
f 5/3/28 28/1/28 29/2/28 
f 3/3/29 2/4/29 30/1/29 
f 3/3/30 30/1/30 31/2/30 
f 2/3/31 5/4/31 29/1/31 
f 2/3/32 29/1/32 30/2/32 
f 4/3/33 7/4/33 27/1/33 
f 4/3/34 27/1/34 28/2/34 
f 6/3/35 9/4/35 25/1/35 
f 6/3/36 25/1/36 26/2/36 
f 8/3/37 21/4/37 23/1/37 
f 8/3/38 23/1/38 24/2/38 
f 20/3/39 3/4/39 31/1/39 
f 20/3/40 31/1/40 22/2/40 
f 17/3/41 19/4/41 24/1/41 
f 17/3/42 24/1/42 23/2/42 
f 24/3/43 19/4/43 25/2/43 
f 19/3/44 15/4/44 26/1/44 
f 19/3/45 26/1/45 25/2/45 
f 15/3/46 13/4/46 28/1/46 
f 15/3/47 28/1/47 27/2/47 
f 13/3/48 12/4/48 30/1/48 
f 13/3/49 30/1/49 29/2/49 
f 12/3/50 17/4/50 22/1/50 
f 12/3/51 22/1/51 31/2/51 
f 12/3/52 31/4/52 30/1/52 
f 17/3/53 23/4/53 22/1/53 
f 15/3/54 27/4/54 26/1/54 
f 13/3/55 29/4/55 28/1/55 
f 32/1/56 33/1/56 34/1/56 
f 32/2/57 35/2/57 36/2/57 
f 32/1/58 37/1/58 38/1/58 
f 32/1/59 39/1/59 40/1/59 
f 41/3/60 42/4/60 43/4/60 
f 41/3/61 43/4/61 44/3/61 
f 45/3/62 41/4/62 44/4/62 
f 45/3/63 44/4/63 46/3/63 
f 42/3/64 47/4/64 48/4/64 
f 42/3/65 48/4/65 43/3/65 
f 47/3/66 49/4/66 50/4/66 
f 47/3/67 50/4/67 48/3/67 
f 49/3/68 45/4/68 46/4/68 
f 49/3/69 46/4/69 50/3/69 
f 32/1/70 51/1/70 52/1/70 
f 36/2/71 33/1/71 32/1/71 
f 38/1/72 35/2/72 32/2/72 
f 37/1/73 32/1/73 40/1/73 
f 52/1/74 39/1/74 32/1/74 
f 34/1/75 51/1/75 32/1/75 
f 52/3/76 51/4/76 53/1/76 
f 52/3/77 53/1/77 54/2/77 
f 40/3/78 39/4/78 55/1/78 
f 40/3/79 55/1/79 56/2/79 
f 38/3/80 37/4/80 57/1/80 
f 38/3/81 57/1/81 58/2/81 
f 36/3/82 35/4/82 59/1/82 
f 36/3/83 59/1/83 60/2/83 
f 34/3/84 33/4/84 61/1/84 
f 34/3/85 61/1/85 62/2/85 
f 33/3/86 36/4/86 60/1/86 
f 33/3/87 60/1/87 61/2/87 
f 35/3/88 38/4/88 58/1/88 
f 35/3/89 58/1/89 59/2/89 
f 37/3/90 40/4/90 56/1/90 
f 37/3/91 56/1/91 57/2/91 
f 39/3/92 52/4/92 54/1/92 
f 39/3/93 54/1/93 55/2/93 
f 51/3/94 34/4/94 62/1/94 
f 51/3/95 62/1/95 53/2/95 
f 48/3/96 50/4/96 55/1/96 
f 48/3/97 55/1/97 54/2/97 
f 55/3/98 50/4/98 56/2/98 
f 50/3/99 46/4/99 57/1/99 
f 50/3/100 57/1/100 56/2/100 
f 46/3/101 44/4/101 59/1/101 
f 46/3/102 59/1/102 58/2/102 
f 44/3/103 43/4/103 61/1/103 
f 44/3/104 61/1/104 60/2/104 
f 43/3/105 48/4/105 53/1/105 
f 43/3/106 53/1/106 62/2/106 
f 43/3/107 62/4/107 61/1/107 
f 48/3/108 54/4/108 53/1/108 
f 46/3/109 58/4/109 57/1/109 
f 44/3/110 60/4/110 59/1/110 
f 10/3/111 14/4/111 63/1/111 
f 10/3/112 63/1/112 16/1/112 
f 11/4/111 10/4/111 16/2/111 
f 41/3/111 45/4/111 49/1/111 
f 41/3/112 49/1/112 47/1/112 
f 42/4/111 41/4/111 47/2/111 
# 0 polygons - 116 triangles

