<?xml version="1.0" encoding="utf-8"?>
<COLLADA xmlns="http://www.collada.org/2005/11/COLLADASchema" version="1.4.1" xmlns:xsi="http://www.w3.org/2001/XMLSchema-instance">
  <asset>
    <contributor>
      <author>Centrixe</author>
      <authoring_tool>OpenCOLLADA for 3ds Max;  Version: 1.6;  Revision: 68</authoring_tool>
    </contributor>
    <created>2025-05-29T16:18:51</created>
    <modified>2025-05-29T16:18:51</modified>
    <unit name="inch" meter="0.0254"/>
    <up_axis>Z_UP</up_axis>
  </asset>
  <library_effects>
    <effect id="mat_obj000b040_00">
      <profile_COMMON>
        <newparam sid="tex_000b04_00_dif_png-surface">
          <surface type="2D">
            <init_from>tex_000b04_00_dif_png</init_from>
          </surface>
        </newparam>
        <newparam sid="tex_000b04_00_dif_png-sampler">
          <sampler2D>
            <source>tex_000b04_00_dif_png-surface</source>
          </sampler2D>
        </newparam>
        <technique sid="common">
          <blinn>
            <emission>
              <color>0 0 0 1</color>
            </emission>
            <ambient>
              <color>0.588 0.588 0.588 1</color>
            </ambient>
            <diffuse>
              <texture texture="tex_000b04_00_dif_png-sampler" texcoord="CHANNEL1"/>
            </diffuse>
            <specular>
              <color>0 0 0 1</color>
            </specular>
            <shininess>
              <float>10</float>
            </shininess>
            <reflective>
              <color>0 0 0 1</color>
            </reflective>
            <transparent opaque="A_ONE">
              <color>1 1 1 1</color>
            </transparent>
            <transparency>
              <float>1</float>
            </transparency>
          </blinn>
        </technique>
      </profile_COMMON>
      <extra>
        <technique profile="OpenCOLLADA3dsMax">
          <extended_shader>
            <opacity_type sid="opacity_type" type="int">0</opacity_type>
            <falloff_type sid="falloff_type" type="int">0</falloff_type>
            <falloff sid="falloff" type="float">0</falloff>
            <index_of_refraction sid="index_of_refraction" type="float">1.5</index_of_refraction>
            <wire_size sid="wire_size" type="float">1</wire_size>
            <wire_units sid="wire_units" type="int">0</wire_units>
            <apply_reflection_dimming sid="apply_reflection_dimming" type="bool">0</apply_reflection_dimming>
            <dim_level sid="dim_level" type="float">0</dim_level>
            <reflection_level sid="reflection_level" type="float">3</reflection_level>
          </extended_shader>
          <shader>
            <ambient_diffuse_texture_lock sid="ambient_diffuse_texture_lock" type="bool">1</ambient_diffuse_texture_lock>
            <ambient_diffuse_lock sid="ambient_diffuse_lock" type="bool">1</ambient_diffuse_lock>
            <diffuse_specular_lock sid="diffuse_specular_lock" type="bool">0</diffuse_specular_lock>
            <use_self_illum_color sid="use_self_illum_color" type="bool">0</use_self_illum_color>
            <self_illumination sid="self_illumination" type="float">0</self_illumination>
            <specular_level sid="specular_level" type="float">0</specular_level>
            <soften sid="soften" type="float">0.1</soften>
          </shader>
        </technique>
      </extra>
    </effect>
  </library_effects>
  <library_materials>
    <material id="mat_obj000b040_00-material" name="mat_obj000b040_00">
      <instance_effect url="#mat_obj000b040_00"/>
    </material>
  </library_materials>
  <library_geometries>
    <geometry id="geom-mdl_obj000d00_00_LOD0" name="mdl_obj000d00_00_LOD0">
      <mesh>
        <source id="geom-mdl_obj000d00_00_LOD0-positions">
          <float_array id="geom-mdl_obj000d00_00_LOD0-positions-array" count="204">5.343 20.94118 1.19209e-6 5.343 19.84425 8.193276 5.343 19.84425 -8.108424 5.343 14.80765 14.75802 5.343 14.80765 -14.85728 5.343 7.941837 -18.98617 5.343 7.941845 19.15293 5.343 3.66575e-15 20.89154 5.343 8.61574e-16 -20.99081 5.343 -7.941837 -18.98617 5.343 -7.941845 19.15293 5.343 -14.80765 14.75802 5.343 -14.80765 -14.85728 5.343 -19.84425 -8.108424 5.343 -19.84425 8.193276 5.343 -20.94118 1.19209e-6 -5.343 -19.84425 -8.108424 -5.343 -20.94118 1.19209e-6 -5.343 -19.84425 8.193269 -5.343 -14.80765 14.75802 -5.343 -14.80765 -14.85728 -5.343 -7.941844 -18.98617 -5.343 -7.941844 19.15293 -5.343 2.70188e-15 20.89154 -5.343 -2.42723e-15 -20.99081 -5.343 7.941844 -18.98617 -5.343 7.941844 19.15293 -5.343 14.80765 14.75802 -5.343 14.80765 -14.85728 -5.343 19.84425 -8.108424 -5.343 19.84425 8.193269 -5.343 20.94118 1.19209e-6 5.343 3.66575e-15 20.89154 -5.343 7.941844 19.15293 -5.343 2.70188e-15 20.89154 5.343 7.941845 19.15293 -5.343 14.80765 14.75802 5.343 14.80765 14.75802 5.343 19.84425 8.193276 -5.343 19.84425 8.193269 5.343 20.94118 1.19209e-6 -5.343 20.94118 1.19209e-6 5.343 19.84425 -8.108424 -5.343 19.84425 -8.108424 -5.343 14.80765 -14.85728 5.343 14.80765 -14.85728 -5.343 7.941844 -18.98617 5.343 7.941837 -18.98617 -5.343 -2.42723e-15 -20.99081 5.343 8.61574e-16 -20.99081 5.343 8.61574e-16 -20.99081 5.343 -7.941837 -18.98617 -5.343 -2.42723e-15 -20.99081 -5.343 -7.941844 -18.98617 5.343 -14.80765 -14.85728 -5.343 -14.80765 -14.85728 5.343 -19.84425 -8.108424 -5.343 -19.84425 -8.108424 -5.343 -20.94118 1.19209e-6 5.343 -20.94118 1.19209e-6 -5.343 -19.84425 8.193269 5.343 -19.84425 8.193276 -5.343 -14.80765 14.75802 5.343 -14.80765 14.75802 5.343 -7.941845 19.15293 -5.343 -7.941844 19.15293 5.343 3.66575e-15 20.89154 -5.343 2.70188e-15 20.89154</float_array>
          <technique_common>
            <accessor source="#geom-mdl_obj000d00_00_LOD0-positions-array" count="68" stride="3">
              <param name="X" type="float"/>
              <param name="Y" type="float"/>
              <param name="Z" type="float"/>
            </accessor>
          </technique_common>
        </source>
        <source id="geom-mdl_obj000d00_00_LOD0-normals">
          <float_array id="geom-mdl_obj000d00_00_LOD0-normals-array" count="204">1 0 0 1 0 0 0.9999999 0 0 1 0 0 1 0 0 1 0 0 1 0 0 1 0 0 0.9999999 0 0 1 0 0 1 0 0 1 0 0 1 0 0 0.9999999 0 0 1 0 0 1 0 0 -0.9999999 0 0 -1 0 0 -1 0 0 -0.9999999 0 0 -1 0 0 -1 0 0 -1 0 0 -1 0 0 -1 0 0 -1 0 0 -1 0 0 -0.9999999 0 0 -1 0 0 -0.9999999 0 0 -1 0 0 -1 0 0 -6.43226e-9 0.2138531 0.9768658 -2.45513e-8 0.3824595 0.9239724 0 0.2138531 0.9768658 -1.48037e-8 0.3824596 0.9239724 -1.4108e-7 0.6764125 0.7365229 0 0.6764123 0.7365231 -1.4336e-7 0.9234728 0.383664 -2.45444e-7 0.9234729 0.3836637 -2.77627e-8 0.9999998 -6.87908e-4 0 0.9999998 -6.87858e-4 0 0.9257454 -0.3781474 0 0.9257455 -0.3781474 0 0.6709951 -0.7414619 1.34061e-8 0.6709951 -0.7414619 -8.43994e-8 0.3841974 -0.9232509 -1.64573e-8 0.3841971 -0.923251 -1.08109e-7 0.2447389 -0.9695891 0 0.2447388 -0.9695891 0 -0.2447388 -0.9695891 -1.864e-8 -0.3841971 -0.923251 -1.06408e-7 -0.2447389 -0.9695891 -8.40716e-8 -0.3841974 -0.9232509 1.17419e-8 -0.6709951 -0.7414619 0 -0.6709951 -0.7414619 0 -0.9257454 -0.3781474 0 -0.9257455 -0.3781474 0 -0.9999998 -6.87861e-4 -2.84732e-8 -0.9999998 -6.87904e-4 -2.44336e-7 -0.9234729 0.3836637 -1.43929e-7 -0.9234728 0.383664 -1.41433e-7 -0.6764125 0.7365229 0 -0.6764123 0.7365231 -1.9833e-8 -0.3824596 0.9239722 -2.84524e-8 -0.3824595 0.9239722 -1.11832e-8 -0.2138531 0.9768658 0 -0.2138531 0.9768658</float_array>
          <technique_common>
            <accessor source="#geom-mdl_obj000d00_00_LOD0-normals-array" count="68" stride="3">
              <param name="X" type="float"/>
              <param name="Y" type="float"/>
              <param name="Z" type="float"/>
            </accessor>
          </technique_common>
        </source>
        <source id="geom-mdl_obj000d00_00_LOD0-map0">
          <float_array id="geom-mdl_obj000d00_00_LOD0-map0-array" count="204">1 1 1 1 1 1 1 1 1 1 1 1 1 1 1 1 1 1 1 1 1 1 1 1 1 1 1 1 1 1 1 1 1 1 1 1 1 1 1 1 1 1 1 1 1 1 1 1 1 1 1 1 1 1 1 1 1 1 1 1 1 1 1 1 1 1 1 1 1 1 1 1 1 1 1 1 1 1 1 1 1 1 1 1 1 1 1 1 1 1 1 1 1 1 1 1 1 1 1 1 1 1 1 1 1 1 1 1 1 1 1 1 1 1 1 1 1 1 1 1 1 1 1 1 1 1 1 1 1 1 1 1 1 1 1 1 1 1 1 1 1 1 1 1 1 1 1 1 1 1 1 1 1 1 1 1 1 1 1 1 1 1 1 1 1 1 1 1 1 1 1 1 1 1 1 1 1 1 1 1 1 1 1 1 1 1 1 1 1 1 1 1 1 1 1 1 1 1 1 1 1 1 1 1</float_array>
          <technique_common>
            <accessor source="#geom-mdl_obj000d00_00_LOD0-map0-array" count="68" stride="3">
              <param name="R" type="float"/>
              <param name="G" type="float"/>
              <param name="B" type="float"/>
            </accessor>
          </technique_common>
        </source>
        <source id="geom-mdl_obj000d00_00_LOD0-map1">
          <float_array id="geom-mdl_obj000d00_00_LOD0-map1-array" count="204">0.9580078 0.5 0.5 0.9399414 0.6352539 0.6352539 0.9399414 0.3657227 0.3657227 0.8564453 0.7438965 0.7438965 0.8564453 0.2539062 0.2539062 0.7426758 0.1855469 0.1855469 0.7426758 0.8166504 0.8166504 0.6113281 0.845459 0.845459 0.6113281 0.1523437 0.1523437 0.4799805 0.1855469 0.1855469 0.4799805 0.8166504 0.8166504 0.3664551 0.7438965 0.7438965 0.3664551 0.2539062 0.2539062 0.2832031 0.3657227 0.3657227 0.2832031 0.6352539 0.6352539 0.2651367 0.5 0.5 0.940918 0.3666992 0.3666992 0.9589844 0.5007324 0.5007324 0.940918 0.6362305 0.6362305 0.8574219 0.744873 0.744873 0.8574219 0.2548828 0.2548828 0.7436523 0.1865234 0.1865234 0.7436523 0.8175049 0.8175049 0.6123047 0.8463135 0.8463135 0.6123047 0.1533203 0.1533203 0.480957 0.1865234 0.1865234 0.480957 0.8175049 0.8175049 0.3674316 0.744873 0.744873 0.3674316 0.2548828 0.2548828 0.2841797 0.3666992 0.3666992 0.2841797 0.6362305 0.6362305 0.2661133 0.5007324 0.5007324 0.01634216 0.9793243 0.9793243 0.2496338 0.8643799 0.8643799 0.2496338 0.9787598 0.9787598 0.01634216 0.864624 0.864624 0.2496338 0.75 0.75 0.01634216 0.75 0.75 0.01634216 0.6237793 0.6237793 0.2496338 0.6237793 0.6237793 0.01634216 0.4975586 0.4975586 0.2496338 0.4975586 0.4975586 0.01634216 0.3710937 0.3710937 0.2496338 0.3710937 0.3710937 0.2496338 0.2446289 0.2446289 0.01634216 0.2446289 0.2446289 0.2496338 0.1318359 0.1318359 0.01634216 0.1318359 0.1318359 0.2496338 0.01953125 0.01953125 0.01634216 0.01953125 0.01953125 0.01634216 0.01953125 0.01953125 0.01634216 0.1318359 0.1318359 0.2496338 0.01953125 0.01953125 0.2496338 0.1318359 0.1318359 0.01634216 0.2446289 0.2446289 0.2496338 0.2446289 0.2446289 0.01634216 0.3710937 0.3710937 0.2496338 0.371582 0.371582 0.2496338 0.4985352 0.4985352 0.01634216 0.4975586 0.4975586 0.2496338 0.6242676 0.6242676 0.01634216 0.6237793 0.6237793 0.2496338 0.75 0.75 0.01634216 0.75 0.75 0.01634216 0.864624 0.864624 0.2496338 0.8643799 0.8643799 0.01634216 0.9793243 0.9793243 0.2496338 0.9787598 0.9787598</float_array>
          <technique_common>
            <accessor source="#geom-mdl_obj000d00_00_LOD0-map1-array" count="68" stride="3">
              <param name="S" type="float"/>
              <param name="T" type="float"/>
              <param name="P" type="float"/>
            </accessor>
          </technique_common>
        </source>
        <vertices id="geom-mdl_obj000d00_00_LOD0-vertices">
          <input semantic="POSITION" source="#geom-mdl_obj000d00_00_LOD0-positions"/>
        </vertices>
        <triangles material="mat_obj000b040_00" count="60">
          <input semantic="VERTEX" source="#geom-mdl_obj000d00_00_LOD0-vertices" offset="0"/>
          <input semantic="NORMAL" source="#geom-mdl_obj000d00_00_LOD0-normals" offset="1"/>
          <input semantic="COLOR" source="#geom-mdl_obj000d00_00_LOD0-map0" offset="2" set="0"/>
          <input semantic="TEXCOORD" source="#geom-mdl_obj000d00_00_LOD0-map1" offset="3" set="0"/>
          <p>0 0 0 0 1 1 1 1 2 2 2 2 3 3 3 3 2 2 2 2 1 1 1 1 3 3 3 3 4 4 4 4 2 2 2 2 3 3 3 3 5 5 5 5 4 4 4 4 5 5 5 5 3 3 3 3 6 6 6 6 7 7 7 7 5 5 5 5 6 6 6 6 5 5 5 5 7 7 7 7 8 8 8 8 7 7 7 7 9 9 9 9 8 8 8 8 10 10 10 10 9 9 9 9 7 7 7 7 11 11 11 11 9 9 9 9 10 10 10 10 9 9 9 9 11 11 11 11 12 12 12 12 11 11 11 11 13 13 13 13 12 12 12 12 13 13 13 13 11 11 11 11 14 14 14 14 13 13 13 13 14 14 14 14 15 15 15 15 16 16 16 16 17 17 17 17 18 18 18 18 19 19 19 19 16 16 16 16 18 18 18 18 19 19 19 19 20 20 20 20 16 16 16 16 19 19 19 19 21 21 21 21 20 20 20 20 21 21 21 21 19 19 19 19 22 22 22 22 21 21 21 21 22 22 22 22 23 23 23 23 23 23 23 23 24 24 24 24 21 21 21 21 24 24 24 24 23 23 23 23 25 25 25 25 25 25 25 25 23 23 23 23 26 26 26 26 25 25 25 25 26 26 26 26 27 27 27 27 27 27 27 27 28 28 28 28 25 25 25 25 27 27 27 27 29 29 29 29 28 28 28 28 29 29 29 29 27 27 27 27 30 30 30 30 29 29 29 29 30 30 30 30 31 31 31 31 32 32 32 32 33 33 33 33 34 34 34 34 33 33 33 33 32 32 32 32 35 35 35 35 35 35 35 35 36 36 36 36 33 33 33 33 35 35 35 35 37 37 37 37 36 36 36 36 37 37 37 37 38 38 38 38 36 36 36 36 38 38 38 38 39 39 39 39 36 36 36 36 40 40 40 40 39 39 39 39 38 38 38 38 39 39 39 39 40 40 40 40 41 41 41 41 40 40 40 40 42 42 42 42 41 41 41 41 42 42 42 42 43 43 43 43 41 41 41 41 42 42 42 42 44 44 44 44 43 43 43 43 42 42 42 42 45 45 45 45 44 44 44 44 45 45 45 45 46 46 46 46 44 44 44 44 46 46 46 46 45 45 45 45 47 47 47 47 47 47 47 47 48 48 48 48 46 46 46 46 47 47 47 47 49 49 49 49 48 48 48 48 50 50 50 50 51 51 51 51 52 52 52 52 51 51 51 51 53 53 53 53 52 52 52 52 54 54 54 54 53 53 53 53 51 51 51 51 53 53 53 53 54 54 54 54 55 55 55 55 54 54 54 54 56 56 56 56 55 55 55 55 56 56 56 56 57 57 57 57 55 55 55 55 56 56 56 56 58 58 58 58 57 57 57 57 56 56 56 56 59 59 59 59 58 58 58 58 59 59 59 59 60 60 60 60 58 58 58 58 60 60 60 60 59 59 59 59 61 61 61 61 61 61 61 61 62 62 62 62 60 60 60 60 61 61 61 61 63 63 63 63 62 62 62 62 63 63 63 63 64 64 64 64 62 62 62 62 64 64 64 64 65 65 65 65 62 62 62 62 66 66 66 66 65 65 65 65 64 64 64 64 65 65 65 65 66 66 66 66 67 67 67 67</p>
        </triangles>
      </mesh>
    </geometry>
  </library_geometries>
  <library_lights>
    <light id="EnvironmentAmbientLight" name="EnvironmentAmbientLight">
      <technique_common>
        <ambient>
          <color>0 0 0</color>
        </ambient>
      </technique_common>
    </light>
  </library_lights>
  <library_images>
    <image id="tex_000b04_00_dif_png">
      <init_from>./tex_000b04_00_dif.png</init_from>
    </image>
  </library_images>
  <library_visual_scenes>
    <visual_scene id="MaxScene">
      <node name="EnvironmentAmbientLight">
        <instance_light url="#EnvironmentAmbientLight"/>
      </node>
      <node id="node-mdl_obj000d00_00_LOD0" name="mdl_obj000d00_00_LOD0">
        <rotate>0 0 1 -90</rotate>
        <instance_geometry url="#geom-mdl_obj000d00_00_LOD0">
          <bind_material>
            <technique_common>
              <instance_material symbol="mat_obj000b040_00" target="#mat_obj000b040_00-material">
                <bind_vertex_input semantic="CHANNEL1" input_semantic="TEXCOORD" input_set="0"/>
              </instance_material>
            </technique_common>
          </bind_material>
        </instance_geometry>
        <extra>
          <technique profile="OpenCOLLADA">
            <cast_shadows sid="cast_shadows" type="bool">1</cast_shadows>
            <receive_shadows sid="receive_shadows" type="bool">1</receive_shadows>
            <primary_visibility sid="primary_visibility" type="bool">1</primary_visibility>
            <secondary_visibility sid="secondary_visibility" type="bool">1</secondary_visibility>
          </technique>
        </extra>
      </node>
    </visual_scene>
  </library_visual_scenes>
  <scene>
    <instance_visual_scene url="#MaxScene"/>
  </scene>
</COLLADA>