<?xml version="1.0"?>
<COLLADA xmlns="http://www.collada.org/2005/11/COLLADASchema" version="1.4.1">
    <asset>
        <contributor>
            <authoring_tool>J3D Ripoff Exporter</authoring_tool>
        </contributor>
        <created>2022-10-02T23:09:25.344Z</created>
        <modified>2022-10-02T23:09:25.344Z</modified>
		<unit meter="0.01" name="centimeter" ></unit>
        <up_axis>Y_UP</up_axis>
    </asset>
    <library_images>
        <image id="tex0">
            <init_from>J_kibako.png</init_from>
        </image>
        <image id="tex_vc">
            <init_from>vertexColors.png</init_from>
        </image>
    </library_images>
    <library_effects>
        <effect id="effect0">
            <profile_COMMON>
                <newparam sid="surface0">
                    <surface type="2D">
                        <init_from>tex0</init_from>
                    </surface>
                </newparam>
                <newparam sid="sampler0">
                    <sampler2D>
                        <source>surface0</source>
                    </sampler2D>
                </newparam>
                <technique sid="COMMON">
                    <blinn>
                        <diffuse>
                            <texture texture="sampler0" texcoord="UVSET0"></texture>
                        </diffuse>
                    </blinn>
                </technique>
            </profile_COMMON>
        </effect>
        <effect id="effect_vc">
            <profile_COMMON>
                <newparam sid="surface_vc">
                    <surface type="2D">
                        <init_from>tex_vc</init_from>
                    </surface>
                </newparam>
                <newparam sid="sampler_vc">
                    <sampler2D>
                        <source>surface_vc</source>
                    </sampler2D>
                </newparam>
                <technique sid="COMMON">
                    <blinn>
                        <diffuse>
                            <texture texture="sampler_vc" texcoord="UVSET0"></texture>
                        </diffuse>
                    </blinn>
                </technique>
            </profile_COMMON>
        </effect>
    </library_effects>
    <library_materials>
        <material id="mat0" name="_mat26">
            <instance_effect url="#effect0"></instance_effect>
        </material>
        <material id="mat_vc" name="vertexColors">
            <instance_effect url="#effect_vc"></instance_effect>
        </material>
    </library_materials>
    <library_geometries>
        <geometry id="mesh0">
            <mesh>
                <source id="points0">
                    <float_array id="pointarray0" count="270">100.00000762939453 200.00006103515625 99.99999237060547 100 167.7999725341797 67.20000457763672 100.00001525878906 9.999999974752427e-7 99.99999237060547 100 32.40003204345703 67.20000457763672 99.99999237060547 9.999999974752427e-7 -100.00000762939453 100 32.40003204345703 -67.80000305175781 100 200.00003051757812 -100.00000762939453 100 167.7999725341797 -67.80000305175781 67.20000457763672 167.7999725341797 100 67.20000457763672 32.40003204345703 100 -67.80001068115234 32.40003204345703 100 -99.99999237060547 0.00002499999936844688 100.00000762939453 -67.80001068115234 167.7999725341797 100 -99.99999237060547 200.00001525878906 100.00000762939453 -67.20001220703125 32.40003204345703 -100 -100 0.000018000000636675395 -99.99998474121094 67.80000305175781 32.40003204345703 -100 67.80000305175781 167.7999725341797 -100 -67.20001220703125 167.7999725341797 -100 -100 200.00003051757812 -99.99999237060547 -100.00000762939453 32.40003204345703 67.19999694824219 -99.99999237060547 32.40003204345703 -67.80001831054688 -99.99999237060547 167.7999725341797 -67.80001831054688 -100.00000762939453 167.7999725341797 67.19999694824219 -67.50000762939453 167.50003051757812 -90.99990844726562 -67.20001220703125 167.7999725341797 -100 -67.50000762939453 32.50003433227539 -90.99990844726562 -67.20001220703125 32.40003204345703 -100 67.5 32.50003433227539 -90.99990844726562 67.80000305175781 32.40003204345703 -100 67.5 167.50003051757812 -90.99990844726562 67.80000305175781 167.7999725341797 -100 -67.50001525878906 190.9999237060547 -67.49996948242188 -67.20001983642578 200.00001525878906 -67.5999755859375 67.49999237060547 190.99993896484375 -67.50000762939453 67.79999542236328 200.00003051757812 -67.60001373291016 67.50003051757812 190.99993896484375 67.49999237060547 67.80003356933594 200.00003051757812 67.79991912841797 -67.4999771118164 190.9999237060547 67.50003051757812 -67.19998168945312 200.00001525878906 67.79995727539062 67.49999237060547 190.99993896484375 -67.50000762939453 67.50003051757812 190.99993896484375 67.49999237060547 -67.50001525878906 190.9999237060547 -67.49996948242188 -67.4999771118164 190.9999237060547 67.50003051757812 -67.19998168945312 200.00001525878906 67.79995727539062 -67.20001983642578 200.00001525878906 -67.5999755859375 67.79999542236328 200.00003051757812 -67.60001373291016 67.80003356933594 200.00003051757812 67.79991912841797 -90.99991607666016 32.50003433227539 67.49999237060547 -100.00000762939453 32.40003204345703 67.19999694824219 -90.9999008178711 32.50003433227539 -67.50001525878906 -99.99999237060547 32.40003204345703 -67.80001831054688 -90.9999008178711 167.50003051757812 -67.50001525878906 -99.99999237060547 167.7999725341797 -67.80001831054688 -90.99991607666016 167.50003051757812 67.49999237060547 -100.00000762939453 167.7999725341797 67.19999694824219 -90.9999008178711 32.50003433227539 -67.50001525878906 -90.9999008178711 167.50003051757812 -67.50001525878906 -90.99991607666016 32.50003433227539 67.49999237060547 -90.99991607666016 167.50003051757812 67.49999237060547 100 32.40003204345703 67.20000457763672 90.99990844726562 32.50003433227539 67.50000762939453 100 32.40003204345703 -67.80000305175781 90.99990844726562 32.50003433227539 -67.50000762939453 100 167.7999725341797 -67.80000305175781 90.99990844726562 167.50003051757812 -67.50000762939453 100 167.7999725341797 67.20000457763672 90.99990844726562 167.50003051757812 67.50000762939453 90.99990844726562 167.50003051757812 -67.50000762939453 90.99990844726562 32.50003433227539 -67.50000762939453 90.99990844726562 167.50003051757812 67.50000762939453 90.99990844726562 32.50003433227539 67.50000762939453 90.99990844726562 32.50003433227539 67.50000762939453 67.5 32.50003433227539 90.99990844726562 67.20000457763672 32.40003204345703 100 -67.50000762939453 32.50003433227539 90.99990844726562 -67.80001068115234 32.40003204345703 100 -67.50000762939453 167.50003051757812 90.99990844726562 -67.80001068115234 167.7999725341797 100 67.5 167.50003051757812 90.99990844726562 67.20000457763672 167.7999725341797 100 -67.50000762939453 32.50003433227539 90.99990844726562 -67.50000762939453 167.50003051757812 90.99990844726562 67.5 32.50003433227539 90.99990844726562 67.5 167.50003051757812 90.99990844726562 67.80000305175781 167.7999725341797 -100 67.5 32.50003433227539 -90.99990844726562 67.5 167.50003051757812 -90.99990844726562 -67.50000762939453 32.50003433227539 -90.99990844726562 -67.50000762939453 167.50003051757812 -90.99990844726562</float_array>
                    <technique_common>
                        <accessor count="90" source="#pointarray0" stride="3">
                            <param name="X" type="float"/>
                            <param name="Y" type="float"/>
                            <param name="Z" type="float"/>
                        </accessor>
                    </technique_common>
                </source>
                <source id="uvs0">
                    <float_array id="uvarray0" count="234">0.023437999188899994 0.98828100040555 0.17616300284862518 0.905181996524334 0.023437999188899994 0.5 0.17616300284862518 0.5791929960250854 0.9921879768371582 0.5 0.8316500186920166 0.5791929960250854 0.9921879768371582 0.9921869998797774 0.8307290077209473 0.9088540002703667 0.17616300284862518 0.40518200397491455 0.03125 0.4804689884185791 0.17616300284862518 0.07138097286224365 0.03125 0 0.8394619822502136 0.06747400760650635 0.9921879768371582 0.0039060115814208984 0.8385419845581055 0.40494799613952637 1 0.484375 0.1839749962091446 0.07528698444366455 0.023437999188899994 0.0039060115814208984 0.8472750186920166 0.07528698444366455 1 0.0039060115814208984 0.8385419845581055 0.40885400772094727 0.9921879768371582 0.4882810115814209 0.1839749962091446 0.40518200397491455 0.015625 0.484375 0.17616300284862518 0.07528698444366455 0.015625 0.0039060115814208984 0.8394619822502136 0.07528698444366455 0.9921879768371582 0.007812023162841797 0.9921879768371582 0.4765620231628418 0.1839749962091446 0.40127599239349365 0.015625 0.4804689884185791 0.17616300284862518 0.40127599239349365 0.023437999188899994 0.4882810115814209 0.039062999188899994 0.0039060115814208984 0.20741300284862518 0.45596301555633545 0.2152249962091446 0.42471301555633545 0.7933499813079834 0.45028698444366455 0.8011630177497864 0.42684900760650635 0.8082119822502136 0.45028698444366455 0.8004000186920166 0.44247400760650635 0.23697899281978607 0.4570310115814209 0.22916699945926666 0.45182299613952637 0.9921879768371582 0 0.007813000120222569 0.0039060115814208984 0.9921879768371582 0.484375 0 0.4882810115814209 0.1527249962091446 0.05575597286224365 0.07460000365972519 0.04013097286224365 0.1441500037908554 0.41513097286224365 0.058212000876665115 0.43856799602508545 0.9557290077209473 0.03125 0.8697919845581055 0.033854007720947266 0.9339749813079834 0.42080700397491455 0.8714749813079834 0.42080700397491455 0.8316500186920166 0.40731799602508545 0.8385419845581055 0.07291698455810547 0.1839749962091446 0.40731799602508545 0.17616300284862518 0.07705700397491455 0.015625 0.4882810115814209 0.1995999962091446 0.46377599239349365 0.20741300284862518 0.42861902713775635 0.7855380177497864 0.45809900760650635 0.7933499813079834 0.43075597286224365 0.8004000186920166 0.45419299602508545 0.7925869822502136 0.45028698444366455 0.22916699945926666 0.4609370231628418 0.22135399281978607 0.45963501930236816 0.03125 0.4882810115814209 0.9765629768371582 0.4882810115814209 0.023437999188899994 0 1 0.007812023162841797 0.1527249962091446 0.07919299602508545 0.07460000365972519 0.05966198444366455 0.15196199715137482 0.41122400760650635 0.06602499634027481 0.43466198444366455 0.9261630177497864 0.43643200397491455 0.8636630177497864 0.43643200397491455 0.03125 0.0039060115814208984 0.2152249962091446 0.46377599239349365 0.8011630177497864 0.45809900760650635 0.23697899281978607 0.45963501930236816 0.1370999962091446 0.05966198444366455 0.05897499993443489 0.04403698444366455 0.1285250037908554 0.41513097286224365 0.05897499993443489 0.5479429960250854 0.1370999962091446 0.5635679960250854 0.058212000876665115 0.9385679997503757 0.1441500037908554 0.915131002664566 0.8697919845581055 0.5221349895000458 0.9557290077209473 0.5195310115814209 0.8714749813079834 0.920806996524334 0.9574130177497864 0.9247130006551743 0.20741300284862518 0.928618997335434 0.2152249962091446 0.9598690010607243 0.7933499813079834 0.930756002664566 0.8011630177497864 0.9541929997503757 0.8082119822502136 0.9463809989392757 0.8004000186920166 0.9541929997503757 0.23697899281978607 0.9557290002703667 0.22916699945926666 0.9609370008111 0.1370999962091446 0.05575597286224365 0.04334999993443489 0.04013097286224365 0.13633699715137482 0.41513097286224365 0.05040000006556511 0.43856799602508545 0.9574130177497864 0.42080700397491455 0.8636630177497864 0.42080700397491455 0.20741300284862518 0.45986902713775635 0.1995999962091446 0.42861902713775635 0.7933499813079834 0.45419299602508545 0.7855380177497864 0.43075597286224365 0.7925869822502136 0.45419299602508545 0.8004000186920166 0.44638097286224365 0.22135399281978607 0.4609370231628418 0.22916699945926666 0.45572900772094727 0.9417880177497864 0.41690099239349365 0.8792880177497864 0.41690099239349365 0.19178800284862518 0.40518200397491455</float_array>
                    <technique_common>
                        <accessor count="1" source="#uvarray0" stride="2">
                            <param name="S" type="float"/>
                            <param name="T" type="float"/>
                        </accessor>
                    </technique_common>
                </source>
                <vertices id="vertices0">
                    <input semantic="POSITION" source="#points0"/>
                </vertices>
                <polylist count="92" material="Material1">
                    <input offset="0" semantic="VERTEX" source="#vertices0"/>
                    <input offset="1" semantic="TEXCOORD" source="#uvs0" set="0"/>
                    <vcount>3 3 3 3 3 3 3 3 3 3 3 3 3 3 3 3 3 3 3 3 3 3 3 3 3 3 3 3 3 3 3 3 3 3 3 3 3 3 3 3 3 3 3 3 3 3 3 3 3 3 3 3 3 3 3 3 3 3 3 3 3 3 3 3 3 3 3 3 3 3 3 3 3 3 3 3 3 3 3 3 3 3 3 3 3 3 3 3 3 3 3 3</vcount>
                    <p>2 2 1 1 0 0 3 3 1 1 2 2 4 4 3 3 2 2 5 5 3 3 4 4 6 6 5 5 4 4 7 7 5 5 6 6 0 0 7 7 6 6 1 1 7 7 0 0 9 10 0 9 8 8 2 11 0 9 9 10 10 12 2 11 9 10 11 13 2 11 10 12 12 14 11 13 10 12 13 15 11 13 12 14 8 8 13 15 12 14 0 9 13 15 8 8 16 18 15 17 14 16 4 19 15 17 16 18 17 20 4 19 16 18 6 21 4 19 17 20 18 22 6 21 17 20 19 23 6 21 18 22 21 26 11 25 20 24 15 27 11 25 21 26 22 14 15 27 21 26 19 28 15 27 22 14 23 29 19 28 22 14 13 30 19 28 23 29 14 10 19 32 18 31 15 33 19 32 14 10 26 36 25 35 24 34 27 37 25 35 26 36 30 40 29 39 28 38 31 41 29 39 30 40 2 44 15 43 4 42 11 45 15 43 2 44 34 48 33 47 32 46 35 49 33 47 34 48 38 52 37 51 36 50 39 53 37 51 38 52 42 56 41 55 40 54 43 57 41 55 42 56 45 56 13 17 44 57 19 58 13 17 45 56 32 61 39 60 38 59 33 62 39 60 32 61 36 65 35 64 34 63 37 66 35 64 36 65 19 67 46 54 6 44 45 56 46 54 19 67 6 68 47 55 0 27 46 54 47 55 6 68 0 70 44 57 13 69 47 55 44 57 0 70 50 73 49 72 48 71 51 74 49 72 50 73 54 75 53 51 52 50 55 76 53 51 54 75 58 24 57 14 56 26 59 29 57 14 58 24 20 24 13 9 23 29 11 77 13 9 20 24 48 79 55 35 54 78 49 37 55 35 48 79 52 40 51 38 50 38 53 80 51 38 52 40 28 83 27 82 26 81 29 74 27 82 28 83 62 86 61 85 60 84 63 87 61 85 62 86 66 90 65 89 64 88 67 91 65 89 66 90 70 1 69 5 68 7 71 3 69 5 70 1 60 94 67 93 66 92 72 95 67 93 60 94 64 98 63 97 62 96 65 99 63 97 64 98 75 102 74 101 73 100 76 103 74 101 75 102 79 104 78 51 77 50 80 105 78 51 79 104 83 10 82 14 81 12 84 8 82 14 83 10 73 108 80 107 79 106 74 109 80 107 73 108 77 112 76 111 75 110 78 113 76 111 77 112 24 114 85 51 30 50 25 115 85 51 24 114 88 16 87 20 86 18 89 116 87 20 88 16</p>
                </polylist>
            </mesh>
        </geometry>
        <geometry id="mesh0_VC">
            <mesh>
                <source id="points0_VC">
                    <float_array id="pointarray0_VC" count="270">100.00000762939453 200.00006103515625 99.99999237060547 100 167.7999725341797 67.20000457763672 100.00001525878906 9.999999974752427e-7 99.99999237060547 100 32.40003204345703 67.20000457763672 99.99999237060547 9.999999974752427e-7 -100.00000762939453 100 32.40003204345703 -67.80000305175781 100 200.00003051757812 -100.00000762939453 100 167.7999725341797 -67.80000305175781 67.20000457763672 167.7999725341797 100 67.20000457763672 32.40003204345703 100 -67.80001068115234 32.40003204345703 100 -99.99999237060547 0.00002499999936844688 100.00000762939453 -67.80001068115234 167.7999725341797 100 -99.99999237060547 200.00001525878906 100.00000762939453 -67.20001220703125 32.40003204345703 -100 -100 0.000018000000636675395 -99.99998474121094 67.80000305175781 32.40003204345703 -100 67.80000305175781 167.7999725341797 -100 -67.20001220703125 167.7999725341797 -100 -100 200.00003051757812 -99.99999237060547 -100.00000762939453 32.40003204345703 67.19999694824219 -99.99999237060547 32.40003204345703 -67.80001831054688 -99.99999237060547 167.7999725341797 -67.80001831054688 -100.00000762939453 167.7999725341797 67.19999694824219 -67.50000762939453 167.50003051757812 -90.99990844726562 -67.20001220703125 167.7999725341797 -100 -67.50000762939453 32.50003433227539 -90.99990844726562 -67.20001220703125 32.40003204345703 -100 67.5 32.50003433227539 -90.99990844726562 67.80000305175781 32.40003204345703 -100 67.5 167.50003051757812 -90.99990844726562 67.80000305175781 167.7999725341797 -100 -67.50001525878906 190.9999237060547 -67.49996948242188 -67.20001983642578 200.00001525878906 -67.5999755859375 67.49999237060547 190.99993896484375 -67.50000762939453 67.79999542236328 200.00003051757812 -67.60001373291016 67.50003051757812 190.99993896484375 67.49999237060547 67.80003356933594 200.00003051757812 67.79991912841797 -67.4999771118164 190.9999237060547 67.50003051757812 -67.19998168945312 200.00001525878906 67.79995727539062 67.49999237060547 190.99993896484375 -67.50000762939453 67.50003051757812 190.99993896484375 67.49999237060547 -67.50001525878906 190.9999237060547 -67.49996948242188 -67.4999771118164 190.9999237060547 67.50003051757812 -67.19998168945312 200.00001525878906 67.79995727539062 -67.20001983642578 200.00001525878906 -67.5999755859375 67.79999542236328 200.00003051757812 -67.60001373291016 67.80003356933594 200.00003051757812 67.79991912841797 -90.99991607666016 32.50003433227539 67.49999237060547 -100.00000762939453 32.40003204345703 67.19999694824219 -90.9999008178711 32.50003433227539 -67.50001525878906 -99.99999237060547 32.40003204345703 -67.80001831054688 -90.9999008178711 167.50003051757812 -67.50001525878906 -99.99999237060547 167.7999725341797 -67.80001831054688 -90.99991607666016 167.50003051757812 67.49999237060547 -100.00000762939453 167.7999725341797 67.19999694824219 -90.9999008178711 32.50003433227539 -67.50001525878906 -90.9999008178711 167.50003051757812 -67.50001525878906 -90.99991607666016 32.50003433227539 67.49999237060547 -90.99991607666016 167.50003051757812 67.49999237060547 100 32.40003204345703 67.20000457763672 90.99990844726562 32.50003433227539 67.50000762939453 100 32.40003204345703 -67.80000305175781 90.99990844726562 32.50003433227539 -67.50000762939453 100 167.7999725341797 -67.80000305175781 90.99990844726562 167.50003051757812 -67.50000762939453 100 167.7999725341797 67.20000457763672 90.99990844726562 167.50003051757812 67.50000762939453 90.99990844726562 167.50003051757812 -67.50000762939453 90.99990844726562 32.50003433227539 -67.50000762939453 90.99990844726562 167.50003051757812 67.50000762939453 90.99990844726562 32.50003433227539 67.50000762939453 90.99990844726562 32.50003433227539 67.50000762939453 67.5 32.50003433227539 90.99990844726562 67.20000457763672 32.40003204345703 100 -67.50000762939453 32.50003433227539 90.99990844726562 -67.80001068115234 32.40003204345703 100 -67.50000762939453 167.50003051757812 90.99990844726562 -67.80001068115234 167.7999725341797 100 67.5 167.50003051757812 90.99990844726562 67.20000457763672 167.7999725341797 100 -67.50000762939453 32.50003433227539 90.99990844726562 -67.50000762939453 167.50003051757812 90.99990844726562 67.5 32.50003433227539 90.99990844726562 67.5 167.50003051757812 90.99990844726562 67.80000305175781 167.7999725341797 -100 67.5 32.50003433227539 -90.99990844726562 67.5 167.50003051757812 -90.99990844726562 -67.50000762939453 32.50003433227539 -90.99990844726562 -67.50000762939453 167.50003051757812 -90.99990844726562</float_array>
                    <technique_common>
                        <accessor count="90" source="#pointarray0_VC" stride="3">
                            <param name="X" type="float"/>
                            <param name="Y" type="float"/>
                            <param name="Z" type="float"/>
                        </accessor>
                    </technique_common>
                </source>
                <source id="uvs0_VC">
                    <float_array id="uvarray0_VC" count="24">0.03515625 0.49609375 0.00390625 0.99609375 0.49609375 0.50390625 0.00390625 0.50390625 0.00390625 0.49609375 0.00390625 0.00390625 0.05078125 0.49609375 0.01953125 0.49609375 0.50390625 0.99609375 0.99609375 0.50390625 0.50390625 0.50390625 0.01953125 0.37890625</float_array>
                    <technique_common>
                        <accessor count="1" source="#uvarray0_VC" stride="2">
                            <param name="S" type="float"/>
                            <param name="T" type="float"/>
                        </accessor>
                    </technique_common>
                </source>
                <vertices id="vertices0_VC">
                    <input semantic="POSITION" source="#points0_VC"/>
                </vertices>
                <polylist count="92" material="Material1">
                    <input offset="0" semantic="VERTEX" source="#vertices0_VC"/>
                    <input offset="1" semantic="TEXCOORD" source="#uvs0_VC" set="0"/>
                    <vcount>3 3 3 3 3 3 3 3 3 3 3 3 3 3 3 3 3 3 3 3 3 3 3 3 3 3 3 3 3 3 3 3 3 3 3 3 3 3 3 3 3 3 3 3 3 3 3 3 3 3 3 3 3 3 3 3 3 3 3 3 3 3 3 3 3 3 3 3 3 3 3 3 3 3 3 3 3 3 3 3 3 3 3 3 3 3 3 3 3 3 3 3</vcount>
                    <p>2 0 1 0 0 0 3 0 1 0 2 0 4 0 3 0 2 0 5 0 3 0 4 0 6 0 5 0 4 0 7 0 5 0 6 0 0 0 7 0 6 0 1 0 7 0 0 0 9 0 0 0 8 0 2 0 0 0 9 0 10 0 2 0 9 0 11 0 2 0 10 0 12 0 11 0 10 0 13 0 11 0 12 0 8 0 13 0 12 0 0 0 13 0 8 0 16 0 15 0 14 0 4 0 15 0 16 0 17 0 4 0 16 0 6 0 4 0 17 0 18 0 6 0 17 0 19 0 6 0 18 0 21 0 11 0 20 0 15 0 11 0 21 0 22 0 15 0 21 0 19 0 15 0 22 0 23 0 19 0 22 0 13 0 19 0 23 0 14 0 19 0 18 0 15 0 19 0 14 0 26 1 25 2 24 1 27 2 25 2 26 1 30 1 29 2 28 1 31 3 29 2 30 1 2 0 15 0 4 0 11 0 15 0 2 0 34 4 33 5 32 4 35 5 33 5 34 4 38 4 37 5 36 4 39 5 37 5 38 4 42 6 41 6 40 6 43 6 41 6 42 6 45 0 13 0 44 0 19 0 13 0 45 0 32 4 39 5 38 4 33 5 39 5 32 4 36 4 35 5 34 4 37 5 35 5 36 4 19 0 46 0 6 0 45 0 46 0 19 0 6 0 47 0 0 0 46 0 47 0 6 0 0 0 44 0 13 0 47 0 44 0 0 0 50 1 49 3 48 1 51 3 49 3 50 1 54 1 53 3 52 1 55 3 53 3 54 1 58 7 57 7 56 7 59 7 57 7 58 7 20 0 13 0 23 0 11 0 13 0 20 0 48 1 55 3 54 1 49 3 55 3 48 1 52 1 51 3 50 1 53 3 51 3 52 1 28 1 27 2 26 1 29 2 27 2 28 1 62 8 61 9 60 8 63 10 61 9 62 8 66 8 65 9 64 8 67 9 65 9 66 8 70 7 69 7 68 7 71 7 69 7 70 7 60 8 67 9 66 8 72 10 67 9 60 8 64 3 63 1 62 3 65 9 63 10 64 8 75 1 74 3 73 1 76 3 74 3 75 1 79 1 78 3 77 1 80 3 78 3 79 1 83 7 82 7 81 7 84 7 82 7 83 7 73 1 80 3 79 1 74 3 80 3 73 1 77 1 76 3 75 1 78 3 76 3 77 1 24 1 85 2 30 1 25 2 85 2 24 1 88 7 87 7 86 11 89 7 87 7 88 7</p>
                </polylist>
            </mesh>
        </geometry>
    </library_geometries>
    <library_visual_scenes>
        <visual_scene id="VisualSceneNode">
            <node id="node0" name="m0" type="NODE">
                <instance_geometry url="#mesh0">
                    <bind_material>
                        <technique_common>
                            <instance_material symbol="Material1" target="#mat0">
                                <bind_vertex_input semantic="UVSET0" input_semantic="TEXCOORD" input_set="0"></bind_vertex_input>
                            </instance_material>
                        </technique_common>
                    </bind_material>
                </instance_geometry>
            </node>
            <node id="node0_VC" name="m0_VC" type="NODE">
                <instance_geometry url="#mesh0_VC">
                    <bind_material>
                        <technique_common>
                            <instance_material symbol="Material1" target="#mat_vc">
                                <bind_vertex_input semantic="UVSET0" input_semantic="TEXCOORD" input_set="0"></bind_vertex_input>
                            </instance_material>
                        </technique_common>
                    </bind_material>
                </instance_geometry>
            </node>
        </visual_scene>
    </library_visual_scenes>
    <scene>
        <instance_visual_scene url="#VisualSceneNode"></instance_visual_scene>
    </scene>
</COLLADA>
