<?xml version="1.0"?>
<COLLADA xmlns="http://www.collada.org/2005/11/COLLADASchema" version="1.4.1">
    <asset>
        <contributor>
            <authoring_tool>J3D Ripoff Exporter</authoring_tool>
        </contributor>
        <created>2022-10-02T23:10:44.178Z</created>
        <modified>2022-10-02T23:10:44.178Z</modified>
		<unit meter="0.01" name="centimeter" ></unit>
        <up_axis>Y_UP</up_axis>
    </asset>
    <library_images>
        <image id="tex0">
            <init_from>J_kibako.png</init_from>
        </image>
        <image id="tex1">
            <init_from>J_kibako.png</init_from>
        </image>
        <image id="tex2">
            <init_from>J_kibako.png</init_from>
        </image>
        <image id="tex3">
            <init_from>J_kibako.png</init_from>
        </image>
        <image id="tex4">
            <init_from>J_kibako.png</init_from>
        </image>
        <image id="tex5">
            <init_from>J_kibako.png</init_from>
        </image>
        <image id="tex6">
            <init_from>J_kibako.png</init_from>
        </image>
        <image id="tex7">
            <init_from>J_kibako.png</init_from>
        </image>
        <image id="tex8">
            <init_from>J_kibako.png</init_from>
        </image>
        <image id="tex9">
            <init_from>J_kibako.png</init_from>
        </image>
        <image id="tex10">
            <init_from>J_kibako.png</init_from>
        </image>
        <image id="tex11">
            <init_from>J_kibako.png</init_from>
        </image>
        <image id="tex12">
            <init_from>J_kibako.png</init_from>
        </image>
    </library_images>
    <library_effects>
        <effect id="effect0">
            <profile_COMMON>
                <newparam sid="surface0">
                    <surface type="2D">
                        <init_from>tex0</init_from>
                    </surface>
                </newparam>
                <newparam sid="sampler0">
                    <sampler2D>
                        <source>surface0</source>
                    </sampler2D>
                </newparam>
                <technique sid="COMMON">
                    <blinn>
                        <diffuse>
                            <texture texture="sampler0" texcoord="UVSET0"></texture>
                        </diffuse>
                    </blinn>
                </technique>
            </profile_COMMON>
        </effect>
        <effect id="effect1">
            <profile_COMMON>
                <newparam sid="surface1">
                    <surface type="2D">
                        <init_from>tex1</init_from>
                    </surface>
                </newparam>
                <newparam sid="sampler1">
                    <sampler2D>
                        <source>surface1</source>
                    </sampler2D>
                </newparam>
                <technique sid="COMMON">
                    <blinn>
                        <diffuse>
                            <texture texture="sampler1" texcoord="UVSET0"></texture>
                        </diffuse>
                    </blinn>
                </technique>
            </profile_COMMON>
        </effect>
        <effect id="effect2">
            <profile_COMMON>
                <newparam sid="surface2">
                    <surface type="2D">
                        <init_from>tex2</init_from>
                    </surface>
                </newparam>
                <newparam sid="sampler2">
                    <sampler2D>
                        <source>surface2</source>
                    </sampler2D>
                </newparam>
                <technique sid="COMMON">
                    <blinn>
                        <diffuse>
                            <texture texture="sampler2" texcoord="UVSET0"></texture>
                        </diffuse>
                    </blinn>
                </technique>
            </profile_COMMON>
        </effect>
        <effect id="effect3">
            <profile_COMMON>
                <newparam sid="surface3">
                    <surface type="2D">
                        <init_from>tex3</init_from>
                    </surface>
                </newparam>
                <newparam sid="sampler3">
                    <sampler2D>
                        <source>surface3</source>
                    </sampler2D>
                </newparam>
                <technique sid="COMMON">
                    <blinn>
                        <diffuse>
                            <texture texture="sampler3" texcoord="UVSET0"></texture>
                        </diffuse>
                    </blinn>
                </technique>
            </profile_COMMON>
        </effect>
        <effect id="effect4">
            <profile_COMMON>
                <newparam sid="surface4">
                    <surface type="2D">
                        <init_from>tex4</init_from>
                    </surface>
                </newparam>
                <newparam sid="sampler4">
                    <sampler2D>
                        <source>surface4</source>
                    </sampler2D>
                </newparam>
                <technique sid="COMMON">
                    <blinn>
                        <diffuse>
                            <texture texture="sampler4" texcoord="UVSET0"></texture>
                        </diffuse>
                    </blinn>
                </technique>
            </profile_COMMON>
        </effect>
        <effect id="effect5">
            <profile_COMMON>
                <newparam sid="surface5">
                    <surface type="2D">
                        <init_from>tex5</init_from>
                    </surface>
                </newparam>
                <newparam sid="sampler5">
                    <sampler2D>
                        <source>surface5</source>
                    </sampler2D>
                </newparam>
                <technique sid="COMMON">
                    <blinn>
                        <diffuse>
                            <texture texture="sampler5" texcoord="UVSET0"></texture>
                        </diffuse>
                    </blinn>
                </technique>
            </profile_COMMON>
        </effect>
        <effect id="effect6">
            <profile_COMMON>
                <newparam sid="surface6">
                    <surface type="2D">
                        <init_from>tex6</init_from>
                    </surface>
                </newparam>
                <newparam sid="sampler6">
                    <sampler2D>
                        <source>surface6</source>
                    </sampler2D>
                </newparam>
                <technique sid="COMMON">
                    <blinn>
                        <diffuse>
                            <texture texture="sampler6" texcoord="UVSET0"></texture>
                        </diffuse>
                    </blinn>
                </technique>
            </profile_COMMON>
        </effect>
        <effect id="effect7">
            <profile_COMMON>
                <newparam sid="surface7">
                    <surface type="2D">
                        <init_from>tex7</init_from>
                    </surface>
                </newparam>
                <newparam sid="sampler7">
                    <sampler2D>
                        <source>surface7</source>
                    </sampler2D>
                </newparam>
                <technique sid="COMMON">
                    <blinn>
                        <diffuse>
                            <texture texture="sampler7" texcoord="UVSET0"></texture>
                        </diffuse>
                    </blinn>
                </technique>
            </profile_COMMON>
        </effect>
        <effect id="effect8">
            <profile_COMMON>
                <newparam sid="surface8">
                    <surface type="2D">
                        <init_from>tex8</init_from>
                    </surface>
                </newparam>
                <newparam sid="sampler8">
                    <sampler2D>
                        <source>surface8</source>
                    </sampler2D>
                </newparam>
                <technique sid="COMMON">
                    <blinn>
                        <diffuse>
                            <texture texture="sampler8" texcoord="UVSET0"></texture>
                        </diffuse>
                    </blinn>
                </technique>
            </profile_COMMON>
        </effect>
        <effect id="effect9">
            <profile_COMMON>
                <newparam sid="surface9">
                    <surface type="2D">
                        <init_from>tex9</init_from>
                    </surface>
                </newparam>
                <newparam sid="sampler9">
                    <sampler2D>
                        <source>surface9</source>
                    </sampler2D>
                </newparam>
                <technique sid="COMMON">
                    <blinn>
                        <diffuse>
                            <texture texture="sampler9" texcoord="UVSET0"></texture>
                        </diffuse>
                    </blinn>
                </technique>
            </profile_COMMON>
        </effect>
        <effect id="effect10">
            <profile_COMMON>
                <newparam sid="surface10">
                    <surface type="2D">
                        <init_from>tex10</init_from>
                    </surface>
                </newparam>
                <newparam sid="sampler10">
                    <sampler2D>
                        <source>surface10</source>
                    </sampler2D>
                </newparam>
                <technique sid="COMMON">
                    <blinn>
                        <diffuse>
                            <texture texture="sampler10" texcoord="UVSET0"></texture>
                        </diffuse>
                    </blinn>
                </technique>
            </profile_COMMON>
        </effect>
        <effect id="effect11">
            <profile_COMMON>
                <newparam sid="surface11">
                    <surface type="2D">
                        <init_from>tex11</init_from>
                    </surface>
                </newparam>
                <newparam sid="sampler11">
                    <sampler2D>
                        <source>surface11</source>
                    </sampler2D>
                </newparam>
                <technique sid="COMMON">
                    <blinn>
                        <diffuse>
                            <texture texture="sampler11" texcoord="UVSET0"></texture>
                        </diffuse>
                    </blinn>
                </technique>
            </profile_COMMON>
        </effect>
        <effect id="effect12">
            <profile_COMMON>
                <newparam sid="surface12">
                    <surface type="2D">
                        <init_from>tex12</init_from>
                    </surface>
                </newparam>
                <newparam sid="sampler12">
                    <sampler2D>
                        <source>surface12</source>
                    </sampler2D>
                </newparam>
                <technique sid="COMMON">
                    <blinn>
                        <diffuse>
                            <texture texture="sampler12" texcoord="UVSET0"></texture>
                        </diffuse>
                    </blinn>
                </technique>
            </profile_COMMON>
        </effect>
    </library_effects>
    <library_materials>
        <material id="mat0" name="_mat1_15_1">
            <instance_effect url="#effect0"></instance_effect>
        </material>
        <material id="mat1" name="_mat1_15_1(2)">
            <instance_effect url="#effect1"></instance_effect>
        </material>
        <material id="mat2" name="_mat1_15_1(3)">
            <instance_effect url="#effect2"></instance_effect>
        </material>
        <material id="mat3" name="_mat1_15_1(4)">
            <instance_effect url="#effect3"></instance_effect>
        </material>
        <material id="mat4" name="_mat1_15_1(5)">
            <instance_effect url="#effect4"></instance_effect>
        </material>
        <material id="mat5" name="_mat1_15_1(6)">
            <instance_effect url="#effect5"></instance_effect>
        </material>
        <material id="mat6" name="_mat1_15_1(7)">
            <instance_effect url="#effect6"></instance_effect>
        </material>
        <material id="mat7" name="_mat1_15_1(8)">
            <instance_effect url="#effect7"></instance_effect>
        </material>
        <material id="mat8" name="_mat1_15_1(9)">
            <instance_effect url="#effect8"></instance_effect>
        </material>
        <material id="mat9" name="_mat1_15_1(10)">
            <instance_effect url="#effect9"></instance_effect>
        </material>
        <material id="mat10" name="_mat1_15_1(11)">
            <instance_effect url="#effect10"></instance_effect>
        </material>
        <material id="mat11" name="_mat1_15_1(12)">
            <instance_effect url="#effect11"></instance_effect>
        </material>
        <material id="mat12" name="_mat1_15_1(13)">
            <instance_effect url="#effect12"></instance_effect>
        </material>
    </library_materials>
    <library_geometries>
        <geometry id="mesh0">
            <mesh>
                <source id="points0">
                    <float_array id="pointarray0" count="12">-92.4623899316357 201.05701446533203 42.150997161865234 -92.4623899316357 1.0570297241210938 42.150997161865234 -92.4623899316357 201.05701446533203 92.15102195739746 -92.4623899316357 1.0570297241210938 92.15102195739746</float_array>
                    <technique_common>
                        <accessor count="4" source="#pointarray0" stride="3">
                            <param name="X" type="float"/>
                            <param name="Y" type="float"/>
                            <param name="Z" type="float"/>
                        </accessor>
                    </technique_common>
                </source>
                <source id="uvs0">
                    <float_array id="uvarray0" count="8">0.2578130066394806 0.484375 0.25 0.007812023162841797 0.015625 0.484375 0.007813000120222569 0.007812023162841797</float_array>
                    <technique_common>
                        <accessor count="1" source="#uvarray0" stride="2">
                            <param name="S" type="float"/>
                            <param name="T" type="float"/>
                        </accessor>
                    </technique_common>
                </source>
                <vertices id="vertices0">
                    <input semantic="POSITION" source="#points0"/>
                </vertices>
                <polylist count="2" material="Material1">
                    <input offset="0" semantic="VERTEX" source="#vertices0"/>
                    <input offset="1" semantic="TEXCOORD" source="#uvs0" set="0"/>
                    <vcount>3 3</vcount>
                    <p>2 2 1 1 0 0 3 3 1 1 2 2</p>
                </polylist>
            </mesh>
        </geometry>
        <geometry id="mesh1">
            <mesh>
                <source id="points1">
                    <float_array id="pointarray1" count="15">96.16070671973284 0.19666290283203125 -2.5125719755887985 96.16070671973284 102.58295208215714 23.1012601852417 96.16070671973284 0.19666290283203125 -26.898762702941895 96.16070671973284 200.19664764404297 -26.898762702941895 96.16070671973284 200.19664764404297 -0.919253945350647</float_array>
                    <technique_common>
                        <accessor count="5" source="#pointarray1" stride="3">
                            <param name="X" type="float"/>
                            <param name="Y" type="float"/>
                            <param name="Z" type="float"/>
                        </accessor>
                    </technique_common>
                </source>
                <source id="uvs1">
                    <float_array id="uvarray1" count="10">0.4990670084953308 0.03125 0.40625 0.25746601819992065 0.6171879768371582 0.03125 0.609375 0.4804689884185791 0.4835369884967804 0.4804689884185791</float_array>
                    <technique_common>
                        <accessor count="1" source="#uvarray1" stride="2">
                            <param name="S" type="float"/>
                            <param name="T" type="float"/>
                        </accessor>
                    </technique_common>
                </source>
                <vertices id="vertices1">
                    <input semantic="POSITION" source="#points1"/>
                </vertices>
                <polylist count="3" material="Material1">
                    <input offset="0" semantic="VERTEX" source="#vertices1"/>
                    <input offset="1" semantic="TEXCOORD" source="#uvs1" set="0"/>
                    <vcount>3 3 3</vcount>
                    <p>2 2 1 1 0 0 3 3 1 1 2 2 3 3 4 4 1 1</p>
                </polylist>
            </mesh>
        </geometry>
        <geometry id="mesh2">
            <mesh>
                <source id="points2">
                    <float_array id="pointarray2" count="15">29.136330604553223 100.00629425048828 -98.51932373642921 8.970763206481934 200.00629425048828 -98.51932373642921 29.136326789855957 0.00629425048828125 -98.51932373642921 -29.197138786315918 0.00629425048828125 -98.51932373642921 -29.22391414642334 74.50973510742188 -98.51932373642921</float_array>
                    <technique_common>
                        <accessor count="5" source="#pointarray2" stride="3">
                            <param name="X" type="float"/>
                            <param name="Y" type="float"/>
                            <param name="Z" type="float"/>
                        </accessor>
                    </technique_common>
                </source>
                <source id="uvs2">
                    <float_array id="uvarray2" count="10">0.625 0.2421870231628418 0.5540170073509216 0.484375 0.625 0.03125 0.3971349895000458 0.03125 0.40481799840927124 0.19099301099777222</float_array>
                    <technique_common>
                        <accessor count="1" source="#uvarray2" stride="2">
                            <param name="S" type="float"/>
                            <param name="T" type="float"/>
                        </accessor>
                    </technique_common>
                </source>
                <vertices id="vertices2">
                    <input semantic="POSITION" source="#points2"/>
                </vertices>
                <polylist count="3" material="Material1">
                    <input offset="0" semantic="VERTEX" source="#vertices2"/>
                    <input offset="1" semantic="TEXCOORD" source="#uvs2" set="0"/>
                    <vcount>3 3 3</vcount>
                    <p>2 2 1 1 0 0 3 3 1 1 2 2 3 3 4 4 1 1</p>
                </polylist>
            </mesh>
        </geometry>
        <geometry id="mesh3">
            <mesh>
                <source id="points3">
                    <float_array id="pointarray3" count="27">-0.0038208961486816406 132.27784729003906 97.76827391982079 8.552337169647217 102.40650177001953 97.76827391982079 -7.545917093753815 103.23312377929688 97.76827391982079 29.629594326019287 101.32421493530273 97.76827391982079 29.62959051132202 0.00621795654296875 97.76827391982079 -15.649324893951416 127.4896240234375 97.76827391982079 -28.741365909576416 104.32147979736328 97.76827391982079 -28.703875064849854 0.00621795654296875 97.76827391982079 16.291680812835693 137.26499557495117 97.76827391982079</float_array>
                    <technique_common>
                        <accessor count="9" source="#pointarray3" stride="3">
                            <param name="X" type="float"/>
                            <param name="Y" type="float"/>
                            <param name="Z" type="float"/>
                        </accessor>
                    </technique_common>
                </source>
                <source id="uvs3">
                    <float_array id="uvarray3" count="18">0.5167580246925354 0.364732027053833 0.4803619980812073 0.2223759889602661 0.5489010214805603 0.22631597518920898 0.390625 0.21721899509429932 0.3828130066394806 0.015625 0.5833529829978943 0.34191298484802246 0.6391410231590271 0.2315019965171814 0.6315100193023682 0.015625 0.44739699363708496 0.38849902153015137</float_array>
                    <technique_common>
                        <accessor count="1" source="#uvarray3" stride="2">
                            <param name="S" type="float"/>
                            <param name="T" type="float"/>
                        </accessor>
                    </technique_common>
                </source>
                <vertices id="vertices3">
                    <input semantic="POSITION" source="#points3"/>
                </vertices>
                <polylist count="7" material="Material1">
                    <input offset="0" semantic="VERTEX" source="#vertices3"/>
                    <input offset="1" semantic="TEXCOORD" source="#uvs3" set="0"/>
                    <vcount>3 3 3 3 3 3 3</vcount>
                    <p>2 2 1 1 0 0 3 3 1 1 2 2 4 4 3 3 2 2 6 6 2 2 5 5 7 7 2 2 6 6 8 8 1 1 3 3 7 7 4 4 2 2</p>
                </polylist>
            </mesh>
        </geometry>
        <geometry id="mesh4">
            <mesh>
                <source id="points4">
                    <float_array id="pointarray4" count="9">6.416826248168945 198.83625751570798 99.59065628051758 101.76042175292969 199.21253952383995 100.20946884155273 6.416826248168945 198.83625751570798 -0.40935516357421875</float_array>
                    <technique_common>
                        <accessor count="3" source="#pointarray4" stride="3">
                            <param name="X" type="float"/>
                            <param name="Y" type="float"/>
                            <param name="Z" type="float"/>
                        </accessor>
                    </technique_common>
                </source>
                <source id="uvs4">
                    <float_array id="uvarray4" count="6">0.5958930253982544 0.007278025150299072 0.9808170199394226 0.14044499397277832 0.3975279927253723 0.34634602069854736</float_array>
                    <technique_common>
                        <accessor count="1" source="#uvarray4" stride="2">
                            <param name="S" type="float"/>
                            <param name="T" type="float"/>
                        </accessor>
                    </technique_common>
                </source>
                <vertices id="vertices4">
                    <input semantic="POSITION" source="#points4"/>
                </vertices>
                <polylist count="7" material="Material1">
                    <input offset="0" semantic="VERTEX" source="#vertices4"/>
                    <input offset="1" semantic="TEXCOORD" source="#uvs4" set="0"/>
                    <vcount>3 3 3 3 3 3 3</vcount>
                    <p>1 1 0 0 0 0 1 1 0 0 1 1 2 2 1 1 1 1 2 2 1 1 2 2 0 0 2 2 2 2 0 0 2 2 0 0 1 1 2 2 0 0</p>
                </polylist>
            </mesh>
        </geometry>
        <geometry id="mesh5">
            <mesh>
                <source id="points5">
                    <float_array id="pointarray5" count="9">3.4000110626220703 200.00004529394573 -0.7999954223632812 103.39997863769531 200.00004629394607 -102.79999542236328 3.4000110626220703 200.00004529394573 -100.80000305175781</float_array>
                    <technique_common>
                        <accessor count="3" source="#pointarray5" stride="3">
                            <param name="X" type="float"/>
                            <param name="Y" type="float"/>
                            <param name="Z" type="float"/>
                        </accessor>
                    </technique_common>
                </source>
                <source id="uvs5">
                    <float_array id="uvarray5" count="6">0.5177680253982544 0.23384100198745728 0.9261289834976196 0.4724760055541992 0.4834659993648529 0.47134602069854736</float_array>
                    <technique_common>
                        <accessor count="1" source="#uvarray5" stride="2">
                            <param name="S" type="float"/>
                            <param name="T" type="float"/>
                        </accessor>
                    </technique_common>
                </source>
                <vertices id="vertices5">
                    <input semantic="POSITION" source="#points5"/>
                </vertices>
                <polylist count="7" material="Material1">
                    <input offset="0" semantic="VERTEX" source="#vertices5"/>
                    <input offset="1" semantic="TEXCOORD" source="#uvs5" set="0"/>
                    <vcount>3 3 3 3 3 3 3</vcount>
                    <p>1 1 0 0 0 0 1 1 0 0 1 1 2 2 1 1 1 1 2 2 1 1 2 2 0 0 2 2 2 2 0 0 2 2 0 0 1 1 2 2 0 0</p>
                </polylist>
            </mesh>
        </geometry>
        <geometry id="mesh6">
            <mesh>
                <source id="points6">
                    <float_array id="pointarray6" count="9">-99.99996757507324 200.00004529394573 65.00002247095108 0 200.00004629394607 -1.4000000357627869 -99.99996757507324 200.00004529394573 -34.99998515844345</float_array>
                    <technique_common>
                        <accessor count="3" source="#pointarray6" stride="3">
                            <param name="X" type="float"/>
                            <param name="Y" type="float"/>
                            <param name="Z" type="float"/>
                        </accessor>
                    </technique_common>
                </source>
                <source id="uvs6">
                    <float_array id="uvarray6" count="6">0.015625 0.023437023162841797 0.5 0.2304689884185791 0.015625 0.3125</float_array>
                    <technique_common>
                        <accessor count="1" source="#uvarray6" stride="2">
                            <param name="S" type="float"/>
                            <param name="T" type="float"/>
                        </accessor>
                    </technique_common>
                </source>
                <vertices id="vertices6">
                    <input semantic="POSITION" source="#points6"/>
                </vertices>
                <polylist count="7" material="Material1">
                    <input offset="0" semantic="VERTEX" source="#vertices6"/>
                    <input offset="1" semantic="TEXCOORD" source="#uvs6" set="0"/>
                    <vcount>3 3 3 3 3 3 3</vcount>
                    <p>1 1 0 0 0 0 1 1 0 0 1 1 2 2 1 1 1 1 2 2 1 1 2 2 0 0 2 2 2 2 0 0 2 2 0 0 1 1 2 2 0 0</p>
                </polylist>
            </mesh>
        </geometry>
        <geometry id="mesh7">
            <mesh>
                <source id="points7">
                    <float_array id="pointarray7" count="12">41.59465026855469 200.00003814697266 -101.59995117783546 41.666526794433594 0.00003814697265625 -101.59995117783546 99.99999618530273 200.00003814697266 -101.59995117783546 99.99999237060547 0.00003814697265625 -101.59995117783546</float_array>
                    <technique_common>
                        <accessor count="4" source="#pointarray7" stride="3">
                            <param name="X" type="float"/>
                            <param name="Y" type="float"/>
                            <param name="Z" type="float"/>
                        </accessor>
                    </technique_common>
                </source>
                <source id="uvs7">
                    <float_array id="uvarray7" count="8">0.7561619877815247 0.484375 0.7565100193023682 0.023437023162841797 0.984375 0.484375 0.984375 0.023437023162841797</float_array>
                    <technique_common>
                        <accessor count="1" source="#uvarray7" stride="2">
                            <param name="S" type="float"/>
                            <param name="T" type="float"/>
                        </accessor>
                    </technique_common>
                </source>
                <vertices id="vertices7">
                    <input semantic="POSITION" source="#points7"/>
                </vertices>
                <polylist count="2" material="Material1">
                    <input offset="0" semantic="VERTEX" source="#vertices7"/>
                    <input offset="1" semantic="TEXCOORD" source="#uvs7" set="0"/>
                    <vcount>3 3</vcount>
                    <p>2 2 1 1 0 0 3 3 1 1 2 2</p>
                </polylist>
            </mesh>
        </geometry>
        <geometry id="mesh8">
            <mesh>
                <source id="points8">
                    <float_array id="pointarray8" count="12">-98.80527877807617 200.00003814697266 -101.59995117783546 -98.73340225219727 0.00003814697265625 -101.59995117783546 -40.399932861328125 200.00003814697266 -101.59995117783546 -40.39993667602539 0.00003814697265625 -101.59995117783546</float_array>
                    <technique_common>
                        <accessor count="4" source="#pointarray8" stride="3">
                            <param name="X" type="float"/>
                            <param name="Y" type="float"/>
                            <param name="Z" type="float"/>
                        </accessor>
                    </technique_common>
                </source>
                <source id="uvs8">
                    <float_array id="uvarray8" count="8">0.9827240109443665 0.484375 0.9830719828605652 0.023437023162841797 0.734375 0.484375 0.734375 0.023437023162841797</float_array>
                    <technique_common>
                        <accessor count="1" source="#uvarray8" stride="2">
                            <param name="S" type="float"/>
                            <param name="T" type="float"/>
                        </accessor>
                    </technique_common>
                </source>
                <vertices id="vertices8">
                    <input semantic="POSITION" source="#points8"/>
                </vertices>
                <polylist count="2" material="Material1">
                    <input offset="0" semantic="VERTEX" source="#vertices8"/>
                    <input offset="1" semantic="TEXCOORD" source="#uvs8" set="0"/>
                    <vcount>3 3</vcount>
                    <p>2 2 1 1 0 0 3 3 1 1 2 2</p>
                </polylist>
            </mesh>
        </geometry>
        <geometry id="mesh9">
            <mesh>
                <source id="points9">
                    <float_array id="pointarray9" count="12">41.6665153503418 0.00003814697265625 100.00000151991844 41.59463882446289 200.00003814697266 100.00000151991844 99.99998092651367 0.00003814697265625 100.00000151991844 99.99998474121094 200.00003814697266 100.00000151991844</float_array>
                    <technique_common>
                        <accessor count="4" source="#pointarray9" stride="3">
                            <param name="X" type="float"/>
                            <param name="Y" type="float"/>
                            <param name="Z" type="float"/>
                        </accessor>
                    </technique_common>
                </source>
                <source id="uvs9">
                    <float_array id="uvarray9" count="8">0.7018219828605652 0.023437023162841797 0.7014740109443665 0.484375 0.984375 0.023437023162841797 0.984375 0.484375</float_array>
                    <technique_common>
                        <accessor count="1" source="#uvarray9" stride="2">
                            <param name="S" type="float"/>
                            <param name="T" type="float"/>
                        </accessor>
                    </technique_common>
                </source>
                <vertices id="vertices9">
                    <input semantic="POSITION" source="#points9"/>
                </vertices>
                <polylist count="2" material="Material1">
                    <input offset="0" semantic="VERTEX" source="#vertices9"/>
                    <input offset="1" semantic="TEXCOORD" source="#uvs9" set="0"/>
                    <vcount>3 3</vcount>
                    <p>2 2 1 1 0 0 3 3 1 1 2 2</p>
                </polylist>
            </mesh>
        </geometry>
        <geometry id="mesh10">
            <mesh>
                <source id="points10">
                    <float_array id="pointarray10" count="15">-92.46241193164315 73.11387252807617 -42.64899444580078 -92.46241193164315 201.05701446533203 -11.622753620147705 -92.46241193164315 1.0570297241210938 -42.64899444580078 -92.46241193164315 1.0570297241210938 7.3510284423828125 -92.46241193164315 89.84384727478027 7.3510284423828125</float_array>
                    <technique_common>
                        <accessor count="5" source="#pointarray10" stride="3">
                            <param name="X" type="float"/>
                            <param name="Y" type="float"/>
                            <param name="Z" type="float"/>
                        </accessor>
                    </technique_common>
                </source>
                <source id="uvs10">
                    <float_array id="uvarray10" count="10">0.4140630066394806 0.20277100801467896 0.5371419787406921 0.4882810115814209 0.4140630066394806 0.0039060115814208984 0.625 0.0039060115814208984 0.6328129768371582 0.23953098058700562</float_array>
                    <technique_common>
                        <accessor count="1" source="#uvarray10" stride="2">
                            <param name="S" type="float"/>
                            <param name="T" type="float"/>
                        </accessor>
                    </technique_common>
                </source>
                <vertices id="vertices10">
                    <input semantic="POSITION" source="#points10"/>
                </vertices>
                <polylist count="3" material="Material1">
                    <input offset="0" semantic="VERTEX" source="#vertices10"/>
                    <input offset="1" semantic="TEXCOORD" source="#uvs10" set="0"/>
                    <vcount>3 3 3</vcount>
                    <p>2 2 1 1 0 0 3 3 1 1 2 2 3 3 4 4 1 1</p>
                </polylist>
            </mesh>
        </geometry>
        <geometry id="mesh11">
            <mesh>
                <source id="points11">
                    <float_array id="pointarray11" count="18">98.5607026162179 155.1966209411621 30.501222610473633 98.5607026162179 77.69664001464844 30.501222610473633 98.5607026162179 79.6397933959961 55.50123608112335 98.5607026162179 0.19666290283203125 71.68741035461426 98.5607026162179 81.58295059204102 80.50124740600586 98.5607026162179 155.1966209411621 56.48073410987854</float_array>
                    <technique_common>
                        <accessor count="6" source="#pointarray11" stride="3">
                            <param name="X" type="float"/>
                            <param name="Y" type="float"/>
                            <param name="Z" type="float"/>
                        </accessor>
                    </technique_common>
                </source>
                <source id="uvs11">
                    <float_array id="uvarray11" count="12">0.578125 0.4101560115814209 0.609375 0.2460939884185791 0.4882810115814209 0.2517799735069275 0.4990670084953308 0.03125 0.3671880066394806 0.25746601819992065 0.4522869884967804 0.4101560115814209</float_array>
                    <technique_common>
                        <accessor count="1" source="#uvarray11" stride="2">
                            <param name="S" type="float"/>
                            <param name="T" type="float"/>
                        </accessor>
                    </technique_common>
                </source>
                <vertices id="vertices11">
                    <input semantic="POSITION" source="#points11"/>
                </vertices>
                <polylist count="4" material="Material1">
                    <input offset="0" semantic="VERTEX" source="#vertices11"/>
                    <input offset="1" semantic="TEXCOORD" source="#uvs11" set="0"/>
                    <vcount>3 3 3 3</vcount>
                    <p>2 2 1 1 0 0 3 3 1 1 2 2 4 4 3 3 2 2 5 5 4 4 2 2</p>
                </polylist>
            </mesh>
        </geometry>
        <geometry id="mesh12">
            <mesh>
                <source id="points12">
                    <float_array id="pointarray12" count="12">-58.602659702301025 200.00003814697266 100.00000151991844 -58.56672382354736 0.00003814697265625 100.00000151991844 -87.80533218383789 200.00003814697266 100.00000151991844 -87.73345565795898 0.00003814697265625 100.00000151991844</float_array>
                    <technique_common>
                        <accessor count="4" source="#pointarray12" stride="3">
                            <param name="X" type="float"/>
                            <param name="Y" type="float"/>
                            <param name="Z" type="float"/>
                        </accessor>
                    </technique_common>
                </source>
                <source id="uvs12">
                    <float_array id="uvarray12" count="8">0.14761200547218323 0.4882810115814209 0.15559899806976318 0.03125 0.006161999888718128 0.4882810115814209 0.014321999624371529 0.03125</float_array>
                    <technique_common>
                        <accessor count="1" source="#uvarray12" stride="2">
                            <param name="S" type="float"/>
                            <param name="T" type="float"/>
                        </accessor>
                    </technique_common>
                </source>
                <vertices id="vertices12">
                    <input semantic="POSITION" source="#points12"/>
                </vertices>
                <polylist count="2" material="Material1">
                    <input offset="0" semantic="VERTEX" source="#vertices12"/>
                    <input offset="1" semantic="TEXCOORD" source="#uvs12" set="0"/>
                    <vcount>3 3</vcount>
                    <p>2 2 1 1 0 0 3 3 1 1 2 2</p>
                </polylist>
            </mesh>
        </geometry>
    </library_geometries>
    <library_controllers>
        <controller id="controller0">
            <skin source="#mesh0">
                <bind_shape_matrix>1 0 0 0 0 1 0 0 0 0 1 0 0 0 0 1</bind_shape_matrix>
                <source id="joints0">
                    <Name_array id="JointArr0" count="15">jointnode-1 jointnode0 jointnode1 jointnode2 jointnode3 jointnode4 jointnode5 jointnode6 jointnode7 jointnode8 jointnode9 jointnode10 jointnode11 jointnode12 jointnode13</Name_array>
                    <technique_common>
                        <accessor source="#JointArr0" count="15">
                            <param name="JOINT" type="Name" />
                        </accessor>
                    </technique_common>
                </source>
                <source id="matrices0">
                    <float_array id="MatArr0" count="240">1 0 0 0 0 1 0 0 0 0 1 0 0 0 0 1 1 0 0 0 0 1 0 0 0 0 1 0 0 0 0 1 1 0 0 7.170401096343994 0 1 0 -91.00616455078125 0 0 1 -98.16827392578125 0 0 0 1 -1 0 -1.2246467991473532e-16 -92.46255493164061 0 1 0 -103.2569808959961 1.2246467991473532e-16 0 -1 66.35104370117189 0 0 0 1 1 0 0 -35.210044860839844 0 1 0 -198.834228515625 0 0 1 -58.689693450927734 0 0 0 1 1 0 0 -33.79998016357422 0 1 0 -200.0000762939453 0 0 1 65.0000228881836 0 0 0 1 1 0 0 69.5999984741211 0 1 0 -200.0000762939453 0 0 1 -0.7999950051307678 0 0 0 1 1 0 0 -63.20000076293945 0 1 0 -90.99998474121094 0 0 1 101.199951171875 0 0 0 1 1 0 0 77.1999282836914 0 1 0 -90.99998474121094 0 0 1 101.199951171875 0 0 0 1 1 0 0 -63.199989318847656 0 1 0 -90.99998474121094 0 0 1 -100.4000015258789 0 0 0 1 1 0 0 66.19998168945312 0 1 0 -90.99998474121094 0 0 1 -100.4000015258789 0 0 0 1 -1 0 -1.2246467991473532e-16 98.56053161621094 0 1 0 -102.39661407470703 1.2246467991473532e-16 0 -1 54.70127105712889 0 0 0 1 1 0 0 7.663664817810059 0 1 0 -91.00624084472656 0 0 1 98.11932373046875 0 0 0 1 -1 0 -1.2246467991473532e-16 96.16053771972656 0 1 0 -102.39661407470703 1.2246467991473532e-16 0 -1 -2.6987199783325315 0 0 0 1 -1 0 -1.2246467991473532e-16 -92.46255493164062 0 1 0 -103.2569808959961 1.2246467991473532e-16 0 -1 -18.448951721191396 0 0 0 1</float_array>
                    <technique_common>
                        <accessor source="#MatArr0" count="15" stride="16">
                            <param type="float4x4" />
                        </accessor>
                    </technique_common>
                </source>
                <source id="weights0">
                    <float_array id="WeightArr0" count="1">1</float_array>
                    <technique_common>
                        <accessor source="#WeightArr0" count="1">
                            <param type="float" />
                        </accessor>
                    </technique_common>
                </source>
                <joints>
                    <input semantic="JOINT" source="#joints0" />
                    <input semantic="INV_BIND_MATRIX" source="#matrices0" />
                </joints>
                <vertex_weights count="4">
                    <input semantic="JOINT" offset="0" source="#joints0" />
                    <input semantic="WEIGHT" offset="1" source="#weights0" />
                    <vcount>1 1 1 1</vcount>
                    <v>3 0 3 0 3 0 3 0</v>
                </vertex_weights>
            </skin>
        </controller>
        <controller id="controller1">
            <skin source="#mesh1">
                <bind_shape_matrix>1 0 0 0 0 1 0 0 0 0 1 0 0 0 0 1</bind_shape_matrix>
                <source id="joints1">
                    <Name_array id="JointArr1" count="15">jointnode-1 jointnode0 jointnode1 jointnode2 jointnode3 jointnode4 jointnode5 jointnode6 jointnode7 jointnode8 jointnode9 jointnode10 jointnode11 jointnode12 jointnode13</Name_array>
                    <technique_common>
                        <accessor source="#JointArr1" count="15">
                            <param name="JOINT" type="Name" />
                        </accessor>
                    </technique_common>
                </source>
                <source id="matrices1">
                    <float_array id="MatArr1" count="240">1 0 0 0 0 1 0 0 0 0 1 0 0 0 0 1 1 0 0 0 0 1 0 0 0 0 1 0 0 0 0 1 1 0 0 7.170401096343994 0 1 0 -91.00616455078125 0 0 1 -98.16827392578125 0 0 0 1 -1 0 -1.2246467991473532e-16 -92.46255493164061 0 1 0 -103.2569808959961 1.2246467991473532e-16 0 -1 66.35104370117189 0 0 0 1 1 0 0 -35.210044860839844 0 1 0 -198.834228515625 0 0 1 -58.689693450927734 0 0 0 1 1 0 0 -33.79998016357422 0 1 0 -200.0000762939453 0 0 1 65.0000228881836 0 0 0 1 1 0 0 69.5999984741211 0 1 0 -200.0000762939453 0 0 1 -0.7999950051307678 0 0 0 1 1 0 0 -63.20000076293945 0 1 0 -90.99998474121094 0 0 1 101.199951171875 0 0 0 1 1 0 0 77.1999282836914 0 1 0 -90.99998474121094 0 0 1 101.199951171875 0 0 0 1 1 0 0 -63.199989318847656 0 1 0 -90.99998474121094 0 0 1 -100.4000015258789 0 0 0 1 1 0 0 66.19998168945312 0 1 0 -90.99998474121094 0 0 1 -100.4000015258789 0 0 0 1 -1 0 -1.2246467991473532e-16 98.56053161621094 0 1 0 -102.39661407470703 1.2246467991473532e-16 0 -1 54.70127105712889 0 0 0 1 1 0 0 7.663664817810059 0 1 0 -91.00624084472656 0 0 1 98.11932373046875 0 0 0 1 -1 0 -1.2246467991473532e-16 96.16053771972656 0 1 0 -102.39661407470703 1.2246467991473532e-16 0 -1 -2.6987199783325315 0 0 0 1 -1 0 -1.2246467991473532e-16 -92.46255493164062 0 1 0 -103.2569808959961 1.2246467991473532e-16 0 -1 -18.448951721191396 0 0 0 1</float_array>
                    <technique_common>
                        <accessor source="#MatArr1" count="15" stride="16">
                            <param type="float4x4" />
                        </accessor>
                    </technique_common>
                </source>
                <source id="weights1">
                    <float_array id="WeightArr1" count="1">1</float_array>
                    <technique_common>
                        <accessor source="#WeightArr1" count="1">
                            <param type="float" />
                        </accessor>
                    </technique_common>
                </source>
                <joints>
                    <input semantic="JOINT" source="#joints1" />
                    <input semantic="INV_BIND_MATRIX" source="#matrices1" />
                </joints>
                <vertex_weights count="5">
                    <input semantic="JOINT" offset="0" source="#joints1" />
                    <input semantic="WEIGHT" offset="1" source="#weights1" />
                    <vcount>1 1 1 1 1</vcount>
                    <v>13 0 13 0 13 0 13 0 13 0</v>
                </vertex_weights>
            </skin>
        </controller>
        <controller id="controller2">
            <skin source="#mesh2">
                <bind_shape_matrix>1 0 0 0 0 1 0 0 0 0 1 0 0 0 0 1</bind_shape_matrix>
                <source id="joints2">
                    <Name_array id="JointArr2" count="15">jointnode-1 jointnode0 jointnode1 jointnode2 jointnode3 jointnode4 jointnode5 jointnode6 jointnode7 jointnode8 jointnode9 jointnode10 jointnode11 jointnode12 jointnode13</Name_array>
                    <technique_common>
                        <accessor source="#JointArr2" count="15">
                            <param name="JOINT" type="Name" />
                        </accessor>
                    </technique_common>
                </source>
                <source id="matrices2">
                    <float_array id="MatArr2" count="240">1 0 0 0 0 1 0 0 0 0 1 0 0 0 0 1 1 0 0 0 0 1 0 0 0 0 1 0 0 0 0 1 1 0 0 7.170401096343994 0 1 0 -91.00616455078125 0 0 1 -98.16827392578125 0 0 0 1 -1 0 -1.2246467991473532e-16 -92.46255493164061 0 1 0 -103.2569808959961 1.2246467991473532e-16 0 -1 66.35104370117189 0 0 0 1 1 0 0 -35.210044860839844 0 1 0 -198.834228515625 0 0 1 -58.689693450927734 0 0 0 1 1 0 0 -33.79998016357422 0 1 0 -200.0000762939453 0 0 1 65.0000228881836 0 0 0 1 1 0 0 69.5999984741211 0 1 0 -200.0000762939453 0 0 1 -0.7999950051307678 0 0 0 1 1 0 0 -63.20000076293945 0 1 0 -90.99998474121094 0 0 1 101.199951171875 0 0 0 1 1 0 0 77.1999282836914 0 1 0 -90.99998474121094 0 0 1 101.199951171875 0 0 0 1 1 0 0 -63.199989318847656 0 1 0 -90.99998474121094 0 0 1 -100.4000015258789 0 0 0 1 1 0 0 66.19998168945312 0 1 0 -90.99998474121094 0 0 1 -100.4000015258789 0 0 0 1 -1 0 -1.2246467991473532e-16 98.56053161621094 0 1 0 -102.39661407470703 1.2246467991473532e-16 0 -1 54.70127105712889 0 0 0 1 1 0 0 7.663664817810059 0 1 0 -91.00624084472656 0 0 1 98.11932373046875 0 0 0 1 -1 0 -1.2246467991473532e-16 96.16053771972656 0 1 0 -102.39661407470703 1.2246467991473532e-16 0 -1 -2.6987199783325315 0 0 0 1 -1 0 -1.2246467991473532e-16 -92.46255493164062 0 1 0 -103.2569808959961 1.2246467991473532e-16 0 -1 -18.448951721191396 0 0 0 1</float_array>
                    <technique_common>
                        <accessor source="#MatArr2" count="15" stride="16">
                            <param type="float4x4" />
                        </accessor>
                    </technique_common>
                </source>
                <source id="weights2">
                    <float_array id="WeightArr2" count="1">1</float_array>
                    <technique_common>
                        <accessor source="#WeightArr2" count="1">
                            <param type="float" />
                        </accessor>
                    </technique_common>
                </source>
                <joints>
                    <input semantic="JOINT" source="#joints2" />
                    <input semantic="INV_BIND_MATRIX" source="#matrices2" />
                </joints>
                <vertex_weights count="5">
                    <input semantic="JOINT" offset="0" source="#joints2" />
                    <input semantic="WEIGHT" offset="1" source="#weights2" />
                    <vcount>1 1 1 1 1</vcount>
                    <v>12 0 12 0 12 0 12 0 12 0</v>
                </vertex_weights>
            </skin>
        </controller>
        <controller id="controller3">
            <skin source="#mesh3">
                <bind_shape_matrix>1 0 0 0 0 1 0 0 0 0 1 0 0 0 0 1</bind_shape_matrix>
                <source id="joints3">
                    <Name_array id="JointArr3" count="15">jointnode-1 jointnode0 jointnode1 jointnode2 jointnode3 jointnode4 jointnode5 jointnode6 jointnode7 jointnode8 jointnode9 jointnode10 jointnode11 jointnode12 jointnode13</Name_array>
                    <technique_common>
                        <accessor source="#JointArr3" count="15">
                            <param name="JOINT" type="Name" />
                        </accessor>
                    </technique_common>
                </source>
                <source id="matrices3">
                    <float_array id="MatArr3" count="240">1 0 0 0 0 1 0 0 0 0 1 0 0 0 0 1 1 0 0 0 0 1 0 0 0 0 1 0 0 0 0 1 1 0 0 7.170401096343994 0 1 0 -91.00616455078125 0 0 1 -98.16827392578125 0 0 0 1 -1 0 -1.2246467991473532e-16 -92.46255493164061 0 1 0 -103.2569808959961 1.2246467991473532e-16 0 -1 66.35104370117189 0 0 0 1 1 0 0 -35.210044860839844 0 1 0 -198.834228515625 0 0 1 -58.689693450927734 0 0 0 1 1 0 0 -33.79998016357422 0 1 0 -200.0000762939453 0 0 1 65.0000228881836 0 0 0 1 1 0 0 69.5999984741211 0 1 0 -200.0000762939453 0 0 1 -0.7999950051307678 0 0 0 1 1 0 0 -63.20000076293945 0 1 0 -90.99998474121094 0 0 1 101.199951171875 0 0 0 1 1 0 0 77.1999282836914 0 1 0 -90.99998474121094 0 0 1 101.199951171875 0 0 0 1 1 0 0 -63.199989318847656 0 1 0 -90.99998474121094 0 0 1 -100.4000015258789 0 0 0 1 1 0 0 66.19998168945312 0 1 0 -90.99998474121094 0 0 1 -100.4000015258789 0 0 0 1 -1 0 -1.2246467991473532e-16 98.56053161621094 0 1 0 -102.39661407470703 1.2246467991473532e-16 0 -1 54.70127105712889 0 0 0 1 1 0 0 7.663664817810059 0 1 0 -91.00624084472656 0 0 1 98.11932373046875 0 0 0 1 -1 0 -1.2246467991473532e-16 96.16053771972656 0 1 0 -102.39661407470703 1.2246467991473532e-16 0 -1 -2.6987199783325315 0 0 0 1 -1 0 -1.2246467991473532e-16 -92.46255493164062 0 1 0 -103.2569808959961 1.2246467991473532e-16 0 -1 -18.448951721191396 0 0 0 1</float_array>
                    <technique_common>
                        <accessor source="#MatArr3" count="15" stride="16">
                            <param type="float4x4" />
                        </accessor>
                    </technique_common>
                </source>
                <source id="weights3">
                    <float_array id="WeightArr3" count="1">1</float_array>
                    <technique_common>
                        <accessor source="#WeightArr3" count="1">
                            <param type="float" />
                        </accessor>
                    </technique_common>
                </source>
                <joints>
                    <input semantic="JOINT" source="#joints3" />
                    <input semantic="INV_BIND_MATRIX" source="#matrices3" />
                </joints>
                <vertex_weights count="9">
                    <input semantic="JOINT" offset="0" source="#joints3" />
                    <input semantic="WEIGHT" offset="1" source="#weights3" />
                    <vcount>1 1 1 1 1 1 1 1 1</vcount>
                    <v>2 0 2 0 2 0 2 0 2 0 2 0 2 0 2 0 2 0</v>
                </vertex_weights>
            </skin>
        </controller>
        <controller id="controller4">
            <skin source="#mesh4">
                <bind_shape_matrix>1 0 0 0 0 1 0 0 0 0 1 0 0 0 0 1</bind_shape_matrix>
                <source id="joints4">
                    <Name_array id="JointArr4" count="15">jointnode-1 jointnode0 jointnode1 jointnode2 jointnode3 jointnode4 jointnode5 jointnode6 jointnode7 jointnode8 jointnode9 jointnode10 jointnode11 jointnode12 jointnode13</Name_array>
                    <technique_common>
                        <accessor source="#JointArr4" count="15">
                            <param name="JOINT" type="Name" />
                        </accessor>
                    </technique_common>
                </source>
                <source id="matrices4">
                    <float_array id="MatArr4" count="240">1 0 0 0 0 1 0 0 0 0 1 0 0 0 0 1 1 0 0 0 0 1 0 0 0 0 1 0 0 0 0 1 1 0 0 7.170401096343994 0 1 0 -91.00616455078125 0 0 1 -98.16827392578125 0 0 0 1 -1 0 -1.2246467991473532e-16 -92.46255493164061 0 1 0 -103.2569808959961 1.2246467991473532e-16 0 -1 66.35104370117189 0 0 0 1 1 0 0 -35.210044860839844 0 1 0 -198.834228515625 0 0 1 -58.689693450927734 0 0 0 1 1 0 0 -33.79998016357422 0 1 0 -200.0000762939453 0 0 1 65.0000228881836 0 0 0 1 1 0 0 69.5999984741211 0 1 0 -200.0000762939453 0 0 1 -0.7999950051307678 0 0 0 1 1 0 0 -63.20000076293945 0 1 0 -90.99998474121094 0 0 1 101.199951171875 0 0 0 1 1 0 0 77.1999282836914 0 1 0 -90.99998474121094 0 0 1 101.199951171875 0 0 0 1 1 0 0 -63.199989318847656 0 1 0 -90.99998474121094 0 0 1 -100.4000015258789 0 0 0 1 1 0 0 66.19998168945312 0 1 0 -90.99998474121094 0 0 1 -100.4000015258789 0 0 0 1 -1 0 -1.2246467991473532e-16 98.56053161621094 0 1 0 -102.39661407470703 1.2246467991473532e-16 0 -1 54.70127105712889 0 0 0 1 1 0 0 7.663664817810059 0 1 0 -91.00624084472656 0 0 1 98.11932373046875 0 0 0 1 -1 0 -1.2246467991473532e-16 96.16053771972656 0 1 0 -102.39661407470703 1.2246467991473532e-16 0 -1 -2.6987199783325315 0 0 0 1 -1 0 -1.2246467991473532e-16 -92.46255493164062 0 1 0 -103.2569808959961 1.2246467991473532e-16 0 -1 -18.448951721191396 0 0 0 1</float_array>
                    <technique_common>
                        <accessor source="#MatArr4" count="15" stride="16">
                            <param type="float4x4" />
                        </accessor>
                    </technique_common>
                </source>
                <source id="weights4">
                    <float_array id="WeightArr4" count="1">1</float_array>
                    <technique_common>
                        <accessor source="#WeightArr4" count="1">
                            <param type="float" />
                        </accessor>
                    </technique_common>
                </source>
                <joints>
                    <input semantic="JOINT" source="#joints4" />
                    <input semantic="INV_BIND_MATRIX" source="#matrices4" />
                </joints>
                <vertex_weights count="3">
                    <input semantic="JOINT" offset="0" source="#joints4" />
                    <input semantic="WEIGHT" offset="1" source="#weights4" />
                    <vcount>1 1 1</vcount>
                    <v>4 0 4 0 4 0</v>
                </vertex_weights>
            </skin>
        </controller>
        <controller id="controller5">
            <skin source="#mesh5">
                <bind_shape_matrix>1 0 0 0 0 1 0 0 0 0 1 0 0 0 0 1</bind_shape_matrix>
                <source id="joints5">
                    <Name_array id="JointArr5" count="15">jointnode-1 jointnode0 jointnode1 jointnode2 jointnode3 jointnode4 jointnode5 jointnode6 jointnode7 jointnode8 jointnode9 jointnode10 jointnode11 jointnode12 jointnode13</Name_array>
                    <technique_common>
                        <accessor source="#JointArr5" count="15">
                            <param name="JOINT" type="Name" />
                        </accessor>
                    </technique_common>
                </source>
                <source id="matrices5">
                    <float_array id="MatArr5" count="240">1 0 0 0 0 1 0 0 0 0 1 0 0 0 0 1 1 0 0 0 0 1 0 0 0 0 1 0 0 0 0 1 1 0 0 7.170401096343994 0 1 0 -91.00616455078125 0 0 1 -98.16827392578125 0 0 0 1 -1 0 -1.2246467991473532e-16 -92.46255493164061 0 1 0 -103.2569808959961 1.2246467991473532e-16 0 -1 66.35104370117189 0 0 0 1 1 0 0 -35.210044860839844 0 1 0 -198.834228515625 0 0 1 -58.689693450927734 0 0 0 1 1 0 0 -33.79998016357422 0 1 0 -200.0000762939453 0 0 1 65.0000228881836 0 0 0 1 1 0 0 69.5999984741211 0 1 0 -200.0000762939453 0 0 1 -0.7999950051307678 0 0 0 1 1 0 0 -63.20000076293945 0 1 0 -90.99998474121094 0 0 1 101.199951171875 0 0 0 1 1 0 0 77.1999282836914 0 1 0 -90.99998474121094 0 0 1 101.199951171875 0 0 0 1 1 0 0 -63.199989318847656 0 1 0 -90.99998474121094 0 0 1 -100.4000015258789 0 0 0 1 1 0 0 66.19998168945312 0 1 0 -90.99998474121094 0 0 1 -100.4000015258789 0 0 0 1 -1 0 -1.2246467991473532e-16 98.56053161621094 0 1 0 -102.39661407470703 1.2246467991473532e-16 0 -1 54.70127105712889 0 0 0 1 1 0 0 7.663664817810059 0 1 0 -91.00624084472656 0 0 1 98.11932373046875 0 0 0 1 -1 0 -1.2246467991473532e-16 96.16053771972656 0 1 0 -102.39661407470703 1.2246467991473532e-16 0 -1 -2.6987199783325315 0 0 0 1 -1 0 -1.2246467991473532e-16 -92.46255493164062 0 1 0 -103.2569808959961 1.2246467991473532e-16 0 -1 -18.448951721191396 0 0 0 1</float_array>
                    <technique_common>
                        <accessor source="#MatArr5" count="15" stride="16">
                            <param type="float4x4" />
                        </accessor>
                    </technique_common>
                </source>
                <source id="weights5">
                    <float_array id="WeightArr5" count="1">1</float_array>
                    <technique_common>
                        <accessor source="#WeightArr5" count="1">
                            <param type="float" />
                        </accessor>
                    </technique_common>
                </source>
                <joints>
                    <input semantic="JOINT" source="#joints5" />
                    <input semantic="INV_BIND_MATRIX" source="#matrices5" />
                </joints>
                <vertex_weights count="3">
                    <input semantic="JOINT" offset="0" source="#joints5" />
                    <input semantic="WEIGHT" offset="1" source="#weights5" />
                    <vcount>1 1 1</vcount>
                    <v>5 0 5 0 5 0</v>
                </vertex_weights>
            </skin>
        </controller>
        <controller id="controller6">
            <skin source="#mesh6">
                <bind_shape_matrix>1 0 0 0 0 1 0 0 0 0 1 0 0 0 0 1</bind_shape_matrix>
                <source id="joints6">
                    <Name_array id="JointArr6" count="15">jointnode-1 jointnode0 jointnode1 jointnode2 jointnode3 jointnode4 jointnode5 jointnode6 jointnode7 jointnode8 jointnode9 jointnode10 jointnode11 jointnode12 jointnode13</Name_array>
                    <technique_common>
                        <accessor source="#JointArr6" count="15">
                            <param name="JOINT" type="Name" />
                        </accessor>
                    </technique_common>
                </source>
                <source id="matrices6">
                    <float_array id="MatArr6" count="240">1 0 0 0 0 1 0 0 0 0 1 0 0 0 0 1 1 0 0 0 0 1 0 0 0 0 1 0 0 0 0 1 1 0 0 7.170401096343994 0 1 0 -91.00616455078125 0 0 1 -98.16827392578125 0 0 0 1 -1 0 -1.2246467991473532e-16 -92.46255493164061 0 1 0 -103.2569808959961 1.2246467991473532e-16 0 -1 66.35104370117189 0 0 0 1 1 0 0 -35.210044860839844 0 1 0 -198.834228515625 0 0 1 -58.689693450927734 0 0 0 1 1 0 0 -33.79998016357422 0 1 0 -200.0000762939453 0 0 1 65.0000228881836 0 0 0 1 1 0 0 69.5999984741211 0 1 0 -200.0000762939453 0 0 1 -0.7999950051307678 0 0 0 1 1 0 0 -63.20000076293945 0 1 0 -90.99998474121094 0 0 1 101.199951171875 0 0 0 1 1 0 0 77.1999282836914 0 1 0 -90.99998474121094 0 0 1 101.199951171875 0 0 0 1 1 0 0 -63.199989318847656 0 1 0 -90.99998474121094 0 0 1 -100.4000015258789 0 0 0 1 1 0 0 66.19998168945312 0 1 0 -90.99998474121094 0 0 1 -100.4000015258789 0 0 0 1 -1 0 -1.2246467991473532e-16 98.56053161621094 0 1 0 -102.39661407470703 1.2246467991473532e-16 0 -1 54.70127105712889 0 0 0 1 1 0 0 7.663664817810059 0 1 0 -91.00624084472656 0 0 1 98.11932373046875 0 0 0 1 -1 0 -1.2246467991473532e-16 96.16053771972656 0 1 0 -102.39661407470703 1.2246467991473532e-16 0 -1 -2.6987199783325315 0 0 0 1 -1 0 -1.2246467991473532e-16 -92.46255493164062 0 1 0 -103.2569808959961 1.2246467991473532e-16 0 -1 -18.448951721191396 0 0 0 1</float_array>
                    <technique_common>
                        <accessor source="#MatArr6" count="15" stride="16">
                            <param type="float4x4" />
                        </accessor>
                    </technique_common>
                </source>
                <source id="weights6">
                    <float_array id="WeightArr6" count="1">1</float_array>
                    <technique_common>
                        <accessor source="#WeightArr6" count="1">
                            <param type="float" />
                        </accessor>
                    </technique_common>
                </source>
                <joints>
                    <input semantic="JOINT" source="#joints6" />
                    <input semantic="INV_BIND_MATRIX" source="#matrices6" />
                </joints>
                <vertex_weights count="3">
                    <input semantic="JOINT" offset="0" source="#joints6" />
                    <input semantic="WEIGHT" offset="1" source="#weights6" />
                    <vcount>1 1 1</vcount>
                    <v>6 0 6 0 6 0</v>
                </vertex_weights>
            </skin>
        </controller>
        <controller id="controller7">
            <skin source="#mesh7">
                <bind_shape_matrix>1 0 0 0 0 1 0 0 0 0 1 0 0 0 0 1</bind_shape_matrix>
                <source id="joints7">
                    <Name_array id="JointArr7" count="15">jointnode-1 jointnode0 jointnode1 jointnode2 jointnode3 jointnode4 jointnode5 jointnode6 jointnode7 jointnode8 jointnode9 jointnode10 jointnode11 jointnode12 jointnode13</Name_array>
                    <technique_common>
                        <accessor source="#JointArr7" count="15">
                            <param name="JOINT" type="Name" />
                        </accessor>
                    </technique_common>
                </source>
                <source id="matrices7">
                    <float_array id="MatArr7" count="240">1 0 0 0 0 1 0 0 0 0 1 0 0 0 0 1 1 0 0 0 0 1 0 0 0 0 1 0 0 0 0 1 1 0 0 7.170401096343994 0 1 0 -91.00616455078125 0 0 1 -98.16827392578125 0 0 0 1 -1 0 -1.2246467991473532e-16 -92.46255493164061 0 1 0 -103.2569808959961 1.2246467991473532e-16 0 -1 66.35104370117189 0 0 0 1 1 0 0 -35.210044860839844 0 1 0 -198.834228515625 0 0 1 -58.689693450927734 0 0 0 1 1 0 0 -33.79998016357422 0 1 0 -200.0000762939453 0 0 1 65.0000228881836 0 0 0 1 1 0 0 69.5999984741211 0 1 0 -200.0000762939453 0 0 1 -0.7999950051307678 0 0 0 1 1 0 0 -63.20000076293945 0 1 0 -90.99998474121094 0 0 1 101.199951171875 0 0 0 1 1 0 0 77.1999282836914 0 1 0 -90.99998474121094 0 0 1 101.199951171875 0 0 0 1 1 0 0 -63.199989318847656 0 1 0 -90.99998474121094 0 0 1 -100.4000015258789 0 0 0 1 1 0 0 66.19998168945312 0 1 0 -90.99998474121094 0 0 1 -100.4000015258789 0 0 0 1 -1 0 -1.2246467991473532e-16 98.56053161621094 0 1 0 -102.39661407470703 1.2246467991473532e-16 0 -1 54.70127105712889 0 0 0 1 1 0 0 7.663664817810059 0 1 0 -91.00624084472656 0 0 1 98.11932373046875 0 0 0 1 -1 0 -1.2246467991473532e-16 96.16053771972656 0 1 0 -102.39661407470703 1.2246467991473532e-16 0 -1 -2.6987199783325315 0 0 0 1 -1 0 -1.2246467991473532e-16 -92.46255493164062 0 1 0 -103.2569808959961 1.2246467991473532e-16 0 -1 -18.448951721191396 0 0 0 1</float_array>
                    <technique_common>
                        <accessor source="#MatArr7" count="15" stride="16">
                            <param type="float4x4" />
                        </accessor>
                    </technique_common>
                </source>
                <source id="weights7">
                    <float_array id="WeightArr7" count="1">1</float_array>
                    <technique_common>
                        <accessor source="#WeightArr7" count="1">
                            <param type="float" />
                        </accessor>
                    </technique_common>
                </source>
                <joints>
                    <input semantic="JOINT" source="#joints7" />
                    <input semantic="INV_BIND_MATRIX" source="#matrices7" />
                </joints>
                <vertex_weights count="4">
                    <input semantic="JOINT" offset="0" source="#joints7" />
                    <input semantic="WEIGHT" offset="1" source="#weights7" />
                    <vcount>1 1 1 1</vcount>
                    <v>7 0 7 0 7 0 7 0</v>
                </vertex_weights>
            </skin>
        </controller>
        <controller id="controller8">
            <skin source="#mesh8">
                <bind_shape_matrix>1 0 0 0 0 1 0 0 0 0 1 0 0 0 0 1</bind_shape_matrix>
                <source id="joints8">
                    <Name_array id="JointArr8" count="15">jointnode-1 jointnode0 jointnode1 jointnode2 jointnode3 jointnode4 jointnode5 jointnode6 jointnode7 jointnode8 jointnode9 jointnode10 jointnode11 jointnode12 jointnode13</Name_array>
                    <technique_common>
                        <accessor source="#JointArr8" count="15">
                            <param name="JOINT" type="Name" />
                        </accessor>
                    </technique_common>
                </source>
                <source id="matrices8">
                    <float_array id="MatArr8" count="240">1 0 0 0 0 1 0 0 0 0 1 0 0 0 0 1 1 0 0 0 0 1 0 0 0 0 1 0 0 0 0 1 1 0 0 7.170401096343994 0 1 0 -91.00616455078125 0 0 1 -98.16827392578125 0 0 0 1 -1 0 -1.2246467991473532e-16 -92.46255493164061 0 1 0 -103.2569808959961 1.2246467991473532e-16 0 -1 66.35104370117189 0 0 0 1 1 0 0 -35.210044860839844 0 1 0 -198.834228515625 0 0 1 -58.689693450927734 0 0 0 1 1 0 0 -33.79998016357422 0 1 0 -200.0000762939453 0 0 1 65.0000228881836 0 0 0 1 1 0 0 69.5999984741211 0 1 0 -200.0000762939453 0 0 1 -0.7999950051307678 0 0 0 1 1 0 0 -63.20000076293945 0 1 0 -90.99998474121094 0 0 1 101.199951171875 0 0 0 1 1 0 0 77.1999282836914 0 1 0 -90.99998474121094 0 0 1 101.199951171875 0 0 0 1 1 0 0 -63.199989318847656 0 1 0 -90.99998474121094 0 0 1 -100.4000015258789 0 0 0 1 1 0 0 66.19998168945312 0 1 0 -90.99998474121094 0 0 1 -100.4000015258789 0 0 0 1 -1 0 -1.2246467991473532e-16 98.56053161621094 0 1 0 -102.39661407470703 1.2246467991473532e-16 0 -1 54.70127105712889 0 0 0 1 1 0 0 7.663664817810059 0 1 0 -91.00624084472656 0 0 1 98.11932373046875 0 0 0 1 -1 0 -1.2246467991473532e-16 96.16053771972656 0 1 0 -102.39661407470703 1.2246467991473532e-16 0 -1 -2.6987199783325315 0 0 0 1 -1 0 -1.2246467991473532e-16 -92.46255493164062 0 1 0 -103.2569808959961 1.2246467991473532e-16 0 -1 -18.448951721191396 0 0 0 1</float_array>
                    <technique_common>
                        <accessor source="#MatArr8" count="15" stride="16">
                            <param type="float4x4" />
                        </accessor>
                    </technique_common>
                </source>
                <source id="weights8">
                    <float_array id="WeightArr8" count="1">1</float_array>
                    <technique_common>
                        <accessor source="#WeightArr8" count="1">
                            <param type="float" />
                        </accessor>
                    </technique_common>
                </source>
                <joints>
                    <input semantic="JOINT" source="#joints8" />
                    <input semantic="INV_BIND_MATRIX" source="#matrices8" />
                </joints>
                <vertex_weights count="4">
                    <input semantic="JOINT" offset="0" source="#joints8" />
                    <input semantic="WEIGHT" offset="1" source="#weights8" />
                    <vcount>1 1 1 1</vcount>
                    <v>8 0 8 0 8 0 8 0</v>
                </vertex_weights>
            </skin>
        </controller>
        <controller id="controller9">
            <skin source="#mesh9">
                <bind_shape_matrix>1 0 0 0 0 1 0 0 0 0 1 0 0 0 0 1</bind_shape_matrix>
                <source id="joints9">
                    <Name_array id="JointArr9" count="15">jointnode-1 jointnode0 jointnode1 jointnode2 jointnode3 jointnode4 jointnode5 jointnode6 jointnode7 jointnode8 jointnode9 jointnode10 jointnode11 jointnode12 jointnode13</Name_array>
                    <technique_common>
                        <accessor source="#JointArr9" count="15">
                            <param name="JOINT" type="Name" />
                        </accessor>
                    </technique_common>
                </source>
                <source id="matrices9">
                    <float_array id="MatArr9" count="240">1 0 0 0 0 1 0 0 0 0 1 0 0 0 0 1 1 0 0 0 0 1 0 0 0 0 1 0 0 0 0 1 1 0 0 7.170401096343994 0 1 0 -91.00616455078125 0 0 1 -98.16827392578125 0 0 0 1 -1 0 -1.2246467991473532e-16 -92.46255493164061 0 1 0 -103.2569808959961 1.2246467991473532e-16 0 -1 66.35104370117189 0 0 0 1 1 0 0 -35.210044860839844 0 1 0 -198.834228515625 0 0 1 -58.689693450927734 0 0 0 1 1 0 0 -33.79998016357422 0 1 0 -200.0000762939453 0 0 1 65.0000228881836 0 0 0 1 1 0 0 69.5999984741211 0 1 0 -200.0000762939453 0 0 1 -0.7999950051307678 0 0 0 1 1 0 0 -63.20000076293945 0 1 0 -90.99998474121094 0 0 1 101.199951171875 0 0 0 1 1 0 0 77.1999282836914 0 1 0 -90.99998474121094 0 0 1 101.199951171875 0 0 0 1 1 0 0 -63.199989318847656 0 1 0 -90.99998474121094 0 0 1 -100.4000015258789 0 0 0 1 1 0 0 66.19998168945312 0 1 0 -90.99998474121094 0 0 1 -100.4000015258789 0 0 0 1 -1 0 -1.2246467991473532e-16 98.56053161621094 0 1 0 -102.39661407470703 1.2246467991473532e-16 0 -1 54.70127105712889 0 0 0 1 1 0 0 7.663664817810059 0 1 0 -91.00624084472656 0 0 1 98.11932373046875 0 0 0 1 -1 0 -1.2246467991473532e-16 96.16053771972656 0 1 0 -102.39661407470703 1.2246467991473532e-16 0 -1 -2.6987199783325315 0 0 0 1 -1 0 -1.2246467991473532e-16 -92.46255493164062 0 1 0 -103.2569808959961 1.2246467991473532e-16 0 -1 -18.448951721191396 0 0 0 1</float_array>
                    <technique_common>
                        <accessor source="#MatArr9" count="15" stride="16">
                            <param type="float4x4" />
                        </accessor>
                    </technique_common>
                </source>
                <source id="weights9">
                    <float_array id="WeightArr9" count="1">1</float_array>
                    <technique_common>
                        <accessor source="#WeightArr9" count="1">
                            <param type="float" />
                        </accessor>
                    </technique_common>
                </source>
                <joints>
                    <input semantic="JOINT" source="#joints9" />
                    <input semantic="INV_BIND_MATRIX" source="#matrices9" />
                </joints>
                <vertex_weights count="4">
                    <input semantic="JOINT" offset="0" source="#joints9" />
                    <input semantic="WEIGHT" offset="1" source="#weights9" />
                    <vcount>1 1 1 1</vcount>
                    <v>9 0 9 0 9 0 9 0</v>
                </vertex_weights>
            </skin>
        </controller>
        <controller id="controller10">
            <skin source="#mesh10">
                <bind_shape_matrix>1 0 0 0 0 1 0 0 0 0 1 0 0 0 0 1</bind_shape_matrix>
                <source id="joints10">
                    <Name_array id="JointArr10" count="15">jointnode-1 jointnode0 jointnode1 jointnode2 jointnode3 jointnode4 jointnode5 jointnode6 jointnode7 jointnode8 jointnode9 jointnode10 jointnode11 jointnode12 jointnode13</Name_array>
                    <technique_common>
                        <accessor source="#JointArr10" count="15">
                            <param name="JOINT" type="Name" />
                        </accessor>
                    </technique_common>
                </source>
                <source id="matrices10">
                    <float_array id="MatArr10" count="240">1 0 0 0 0 1 0 0 0 0 1 0 0 0 0 1 1 0 0 0 0 1 0 0 0 0 1 0 0 0 0 1 1 0 0 7.170401096343994 0 1 0 -91.00616455078125 0 0 1 -98.16827392578125 0 0 0 1 -1 0 -1.2246467991473532e-16 -92.46255493164061 0 1 0 -103.2569808959961 1.2246467991473532e-16 0 -1 66.35104370117189 0 0 0 1 1 0 0 -35.210044860839844 0 1 0 -198.834228515625 0 0 1 -58.689693450927734 0 0 0 1 1 0 0 -33.79998016357422 0 1 0 -200.0000762939453 0 0 1 65.0000228881836 0 0 0 1 1 0 0 69.5999984741211 0 1 0 -200.0000762939453 0 0 1 -0.7999950051307678 0 0 0 1 1 0 0 -63.20000076293945 0 1 0 -90.99998474121094 0 0 1 101.199951171875 0 0 0 1 1 0 0 77.1999282836914 0 1 0 -90.99998474121094 0 0 1 101.199951171875 0 0 0 1 1 0 0 -63.199989318847656 0 1 0 -90.99998474121094 0 0 1 -100.4000015258789 0 0 0 1 1 0 0 66.19998168945312 0 1 0 -90.99998474121094 0 0 1 -100.4000015258789 0 0 0 1 -1 0 -1.2246467991473532e-16 98.56053161621094 0 1 0 -102.39661407470703 1.2246467991473532e-16 0 -1 54.70127105712889 0 0 0 1 1 0 0 7.663664817810059 0 1 0 -91.00624084472656 0 0 1 98.11932373046875 0 0 0 1 -1 0 -1.2246467991473532e-16 96.16053771972656 0 1 0 -102.39661407470703 1.2246467991473532e-16 0 -1 -2.6987199783325315 0 0 0 1 -1 0 -1.2246467991473532e-16 -92.46255493164062 0 1 0 -103.2569808959961 1.2246467991473532e-16 0 -1 -18.448951721191396 0 0 0 1</float_array>
                    <technique_common>
                        <accessor source="#MatArr10" count="15" stride="16">
                            <param type="float4x4" />
                        </accessor>
                    </technique_common>
                </source>
                <source id="weights10">
                    <float_array id="WeightArr10" count="1">1</float_array>
                    <technique_common>
                        <accessor source="#WeightArr10" count="1">
                            <param type="float" />
                        </accessor>
                    </technique_common>
                </source>
                <joints>
                    <input semantic="JOINT" source="#joints10" />
                    <input semantic="INV_BIND_MATRIX" source="#matrices10" />
                </joints>
                <vertex_weights count="5">
                    <input semantic="JOINT" offset="0" source="#joints10" />
                    <input semantic="WEIGHT" offset="1" source="#weights10" />
                    <vcount>1 1 1 1 1</vcount>
                    <v>14 0 14 0 14 0 14 0 14 0</v>
                </vertex_weights>
            </skin>
        </controller>
        <controller id="controller11">
            <skin source="#mesh11">
                <bind_shape_matrix>1 0 0 0 0 1 0 0 0 0 1 0 0 0 0 1</bind_shape_matrix>
                <source id="joints11">
                    <Name_array id="JointArr11" count="15">jointnode-1 jointnode0 jointnode1 jointnode2 jointnode3 jointnode4 jointnode5 jointnode6 jointnode7 jointnode8 jointnode9 jointnode10 jointnode11 jointnode12 jointnode13</Name_array>
                    <technique_common>
                        <accessor source="#JointArr11" count="15">
                            <param name="JOINT" type="Name" />
                        </accessor>
                    </technique_common>
                </source>
                <source id="matrices11">
                    <float_array id="MatArr11" count="240">1 0 0 0 0 1 0 0 0 0 1 0 0 0 0 1 1 0 0 0 0 1 0 0 0 0 1 0 0 0 0 1 1 0 0 7.170401096343994 0 1 0 -91.00616455078125 0 0 1 -98.16827392578125 0 0 0 1 -1 0 -1.2246467991473532e-16 -92.46255493164061 0 1 0 -103.2569808959961 1.2246467991473532e-16 0 -1 66.35104370117189 0 0 0 1 1 0 0 -35.210044860839844 0 1 0 -198.834228515625 0 0 1 -58.689693450927734 0 0 0 1 1 0 0 -33.79998016357422 0 1 0 -200.0000762939453 0 0 1 65.0000228881836 0 0 0 1 1 0 0 69.5999984741211 0 1 0 -200.0000762939453 0 0 1 -0.7999950051307678 0 0 0 1 1 0 0 -63.20000076293945 0 1 0 -90.99998474121094 0 0 1 101.199951171875 0 0 0 1 1 0 0 77.1999282836914 0 1 0 -90.99998474121094 0 0 1 101.199951171875 0 0 0 1 1 0 0 -63.199989318847656 0 1 0 -90.99998474121094 0 0 1 -100.4000015258789 0 0 0 1 1 0 0 66.19998168945312 0 1 0 -90.99998474121094 0 0 1 -100.4000015258789 0 0 0 1 -1 0 -1.2246467991473532e-16 98.56053161621094 0 1 0 -102.39661407470703 1.2246467991473532e-16 0 -1 54.70127105712889 0 0 0 1 1 0 0 7.663664817810059 0 1 0 -91.00624084472656 0 0 1 98.11932373046875 0 0 0 1 -1 0 -1.2246467991473532e-16 96.16053771972656 0 1 0 -102.39661407470703 1.2246467991473532e-16 0 -1 -2.6987199783325315 0 0 0 1 -1 0 -1.2246467991473532e-16 -92.46255493164062 0 1 0 -103.2569808959961 1.2246467991473532e-16 0 -1 -18.448951721191396 0 0 0 1</float_array>
                    <technique_common>
                        <accessor source="#MatArr11" count="15" stride="16">
                            <param type="float4x4" />
                        </accessor>
                    </technique_common>
                </source>
                <source id="weights11">
                    <float_array id="WeightArr11" count="1">1</float_array>
                    <technique_common>
                        <accessor source="#WeightArr11" count="1">
                            <param type="float" />
                        </accessor>
                    </technique_common>
                </source>
                <joints>
                    <input semantic="JOINT" source="#joints11" />
                    <input semantic="INV_BIND_MATRIX" source="#matrices11" />
                </joints>
                <vertex_weights count="6">
                    <input semantic="JOINT" offset="0" source="#joints11" />
                    <input semantic="WEIGHT" offset="1" source="#weights11" />
                    <vcount>1 1 1 1 1 1</vcount>
                    <v>11 0 11 0 11 0 11 0 11 0 11 0</v>
                </vertex_weights>
            </skin>
        </controller>
        <controller id="controller12">
            <skin source="#mesh12">
                <bind_shape_matrix>1 0 0 0 0 1 0 0 0 0 1 0 0 0 0 1</bind_shape_matrix>
                <source id="joints12">
                    <Name_array id="JointArr12" count="15">jointnode-1 jointnode0 jointnode1 jointnode2 jointnode3 jointnode4 jointnode5 jointnode6 jointnode7 jointnode8 jointnode9 jointnode10 jointnode11 jointnode12 jointnode13</Name_array>
                    <technique_common>
                        <accessor source="#JointArr12" count="15">
                            <param name="JOINT" type="Name" />
                        </accessor>
                    </technique_common>
                </source>
                <source id="matrices12">
                    <float_array id="MatArr12" count="240">1 0 0 0 0 1 0 0 0 0 1 0 0 0 0 1 1 0 0 0 0 1 0 0 0 0 1 0 0 0 0 1 1 0 0 7.170401096343994 0 1 0 -91.00616455078125 0 0 1 -98.16827392578125 0 0 0 1 -1 0 -1.2246467991473532e-16 -92.46255493164061 0 1 0 -103.2569808959961 1.2246467991473532e-16 0 -1 66.35104370117189 0 0 0 1 1 0 0 -35.210044860839844 0 1 0 -198.834228515625 0 0 1 -58.689693450927734 0 0 0 1 1 0 0 -33.79998016357422 0 1 0 -200.0000762939453 0 0 1 65.0000228881836 0 0 0 1 1 0 0 69.5999984741211 0 1 0 -200.0000762939453 0 0 1 -0.7999950051307678 0 0 0 1 1 0 0 -63.20000076293945 0 1 0 -90.99998474121094 0 0 1 101.199951171875 0 0 0 1 1 0 0 77.1999282836914 0 1 0 -90.99998474121094 0 0 1 101.199951171875 0 0 0 1 1 0 0 -63.199989318847656 0 1 0 -90.99998474121094 0 0 1 -100.4000015258789 0 0 0 1 1 0 0 66.19998168945312 0 1 0 -90.99998474121094 0 0 1 -100.4000015258789 0 0 0 1 -1 0 -1.2246467991473532e-16 98.56053161621094 0 1 0 -102.39661407470703 1.2246467991473532e-16 0 -1 54.70127105712889 0 0 0 1 1 0 0 7.663664817810059 0 1 0 -91.00624084472656 0 0 1 98.11932373046875 0 0 0 1 -1 0 -1.2246467991473532e-16 96.16053771972656 0 1 0 -102.39661407470703 1.2246467991473532e-16 0 -1 -2.6987199783325315 0 0 0 1 -1 0 -1.2246467991473532e-16 -92.46255493164062 0 1 0 -103.2569808959961 1.2246467991473532e-16 0 -1 -18.448951721191396 0 0 0 1</float_array>
                    <technique_common>
                        <accessor source="#MatArr12" count="15" stride="16">
                            <param type="float4x4" />
                        </accessor>
                    </technique_common>
                </source>
                <source id="weights12">
                    <float_array id="WeightArr12" count="1">1</float_array>
                    <technique_common>
                        <accessor source="#WeightArr12" count="1">
                            <param type="float" />
                        </accessor>
                    </technique_common>
                </source>
                <joints>
                    <input semantic="JOINT" source="#joints12" />
                    <input semantic="INV_BIND_MATRIX" source="#matrices12" />
                </joints>
                <vertex_weights count="4">
                    <input semantic="JOINT" offset="0" source="#joints12" />
                    <input semantic="WEIGHT" offset="1" source="#weights12" />
                    <vcount>1 1 1 1</vcount>
                    <v>10 0 10 0 10 0 10 0</v>
                </vertex_weights>
            </skin>
        </controller>
    </library_controllers>
    <library_visual_scenes>
        <visual_scene id="VisualSceneNode">
            <node id="node0" name="m0" type="NODE">
                <instance_controller url="#controller0">
                    <skeleton>#jointnode-1</skeleton>
                    <bind_material>
                        <technique_common>
                            <instance_material symbol="Material1" target="#mat1">
                                <bind_vertex_input semantic="UVSET0" input_semantic="TEXCOORD" input_set="0"></bind_vertex_input>
                            </instance_material>
                        </technique_common>
                    </bind_material>
                </instance_controller>
            </node>
            <node id="node1" name="m1" type="NODE">
                <instance_controller url="#controller1">
                    <skeleton>#jointnode-1</skeleton>
                    <bind_material>
                        <technique_common>
                            <instance_material symbol="Material1" target="#mat11">
                                <bind_vertex_input semantic="UVSET0" input_semantic="TEXCOORD" input_set="0"></bind_vertex_input>
                            </instance_material>
                        </technique_common>
                    </bind_material>
                </instance_controller>
            </node>
            <node id="node2" name="m2" type="NODE">
                <instance_controller url="#controller2">
                    <skeleton>#jointnode-1</skeleton>
                    <bind_material>
                        <technique_common>
                            <instance_material symbol="Material1" target="#mat10">
                                <bind_vertex_input semantic="UVSET0" input_semantic="TEXCOORD" input_set="0"></bind_vertex_input>
                            </instance_material>
                        </technique_common>
                    </bind_material>
                </instance_controller>
            </node>
            <node id="node3" name="m3" type="NODE">
                <instance_controller url="#controller3">
                    <skeleton>#jointnode-1</skeleton>
                    <bind_material>
                        <technique_common>
                            <instance_material symbol="Material1" target="#mat0">
                                <bind_vertex_input semantic="UVSET0" input_semantic="TEXCOORD" input_set="0"></bind_vertex_input>
                            </instance_material>
                        </technique_common>
                    </bind_material>
                </instance_controller>
            </node>
            <node id="node4" name="m4" type="NODE">
                <instance_controller url="#controller4">
                    <skeleton>#jointnode-1</skeleton>
                    <bind_material>
                        <technique_common>
                            <instance_material symbol="Material1" target="#mat2">
                                <bind_vertex_input semantic="UVSET0" input_semantic="TEXCOORD" input_set="0"></bind_vertex_input>
                            </instance_material>
                        </technique_common>
                    </bind_material>
                </instance_controller>
            </node>
            <node id="node5" name="m5" type="NODE">
                <instance_controller url="#controller5">
                    <skeleton>#jointnode-1</skeleton>
                    <bind_material>
                        <technique_common>
                            <instance_material symbol="Material1" target="#mat3">
                                <bind_vertex_input semantic="UVSET0" input_semantic="TEXCOORD" input_set="0"></bind_vertex_input>
                            </instance_material>
                        </technique_common>
                    </bind_material>
                </instance_controller>
            </node>
            <node id="node6" name="m6" type="NODE">
                <instance_controller url="#controller6">
                    <skeleton>#jointnode-1</skeleton>
                    <bind_material>
                        <technique_common>
                            <instance_material symbol="Material1" target="#mat4">
                                <bind_vertex_input semantic="UVSET0" input_semantic="TEXCOORD" input_set="0"></bind_vertex_input>
                            </instance_material>
                        </technique_common>
                    </bind_material>
                </instance_controller>
            </node>
            <node id="node7" name="m7" type="NODE">
                <instance_controller url="#controller7">
                    <skeleton>#jointnode-1</skeleton>
                    <bind_material>
                        <technique_common>
                            <instance_material symbol="Material1" target="#mat5">
                                <bind_vertex_input semantic="UVSET0" input_semantic="TEXCOORD" input_set="0"></bind_vertex_input>
                            </instance_material>
                        </technique_common>
                    </bind_material>
                </instance_controller>
            </node>
            <node id="node8" name="m8" type="NODE">
                <instance_controller url="#controller8">
                    <skeleton>#jointnode-1</skeleton>
                    <bind_material>
                        <technique_common>
                            <instance_material symbol="Material1" target="#mat6">
                                <bind_vertex_input semantic="UVSET0" input_semantic="TEXCOORD" input_set="0"></bind_vertex_input>
                            </instance_material>
                        </technique_common>
                    </bind_material>
                </instance_controller>
            </node>
            <node id="node9" name="m9" type="NODE">
                <instance_controller url="#controller9">
                    <skeleton>#jointnode-1</skeleton>
                    <bind_material>
                        <technique_common>
                            <instance_material symbol="Material1" target="#mat7">
                                <bind_vertex_input semantic="UVSET0" input_semantic="TEXCOORD" input_set="0"></bind_vertex_input>
                            </instance_material>
                        </technique_common>
                    </bind_material>
                </instance_controller>
            </node>
            <node id="node10" name="m10" type="NODE">
                <instance_controller url="#controller10">
                    <skeleton>#jointnode-1</skeleton>
                    <bind_material>
                        <technique_common>
                            <instance_material symbol="Material1" target="#mat12">
                                <bind_vertex_input semantic="UVSET0" input_semantic="TEXCOORD" input_set="0"></bind_vertex_input>
                            </instance_material>
                        </technique_common>
                    </bind_material>
                </instance_controller>
            </node>
            <node id="node11" name="m11" type="NODE">
                <instance_controller url="#controller11">
                    <skeleton>#jointnode-1</skeleton>
                    <bind_material>
                        <technique_common>
                            <instance_material symbol="Material1" target="#mat9">
                                <bind_vertex_input semantic="UVSET0" input_semantic="TEXCOORD" input_set="0"></bind_vertex_input>
                            </instance_material>
                        </technique_common>
                    </bind_material>
                </instance_controller>
            </node>
            <node id="node12" name="m12" type="NODE">
                <instance_controller url="#controller12">
                    <skeleton>#jointnode-1</skeleton>
                    <bind_material>
                        <technique_common>
                            <instance_material symbol="Material1" target="#mat8">
                                <bind_vertex_input semantic="UVSET0" input_semantic="TEXCOORD" input_set="0"></bind_vertex_input>
                            </instance_material>
                        </technique_common>
                    </bind_material>
                </instance_controller>
            </node>
            <node id="jointnode-1" name="root" sid="jointnode-1" type="JOINT">
                <node id="jointnode0" name="center" sid="jointnode0" type="JOINT">
                    <node id="jointnode1" name="crash9" sid="jointnode1" type="JOINT">
                        <translate>-7.170401096343994 91.00616455078125 98.16827392578125</translate>
                    </node>
                    <node id="jointnode2" name="crash8" sid="jointnode2" type="JOINT">
                        <translate>-92.46255493164062 103.2569808959961 66.35104370117188</translate>
                        <rotate>0 1 0 180</rotate>
                    </node>
                    <node id="jointnode3" name="crash7" sid="jointnode3" type="JOINT">
                        <translate>35.210044860839844 198.834228515625 58.689693450927734</translate>
                    </node>
                    <node id="jointnode4" name="crash6" sid="jointnode4" type="JOINT">
                        <translate>33.79998016357422 200.0000762939453 -65.0000228881836</translate>
                    </node>
                    <node id="jointnode5" name="crash5" sid="jointnode5" type="JOINT">
                        <translate>-69.5999984741211 200.0000762939453 0.7999950051307678</translate>
                    </node>
                    <node id="jointnode6" name="crash4" sid="jointnode6" type="JOINT">
                        <translate>63.20000076293945 90.99998474121094 -101.199951171875</translate>
                    </node>
                    <node id="jointnode7" name="crash3" sid="jointnode7" type="JOINT">
                        <translate>-77.1999282836914 90.99998474121094 -101.199951171875</translate>
                    </node>
                    <node id="jointnode8" name="crash2" sid="jointnode8" type="JOINT">
                        <translate>63.199989318847656 90.99998474121094 100.4000015258789</translate>
                    </node>
                    <node id="jointnode9" name="crash13" sid="jointnode9" type="JOINT">
                        <translate>-66.19998168945312 90.99998474121094 100.4000015258789</translate>
                    </node>
                    <node id="jointnode10" name="crash12" sid="jointnode10" type="JOINT">
                        <translate>98.56053161621094 102.39661407470703 54.701271057128906</translate>
                        <rotate>0 1 0 180</rotate>
                    </node>
                    <node id="jointnode11" name="crash11" sid="jointnode11" type="JOINT">
                        <translate>-7.663664817810059 91.00624084472656 -98.11932373046875</translate>
                    </node>
                    <node id="jointnode12" name="crash10" sid="jointnode12" type="JOINT">
                        <translate>96.16053771972656 102.39661407470703 -2.6987199783325195</translate>
                        <rotate>0 1 0 180</rotate>
                    </node>
                    <node id="jointnode13" name="crash1" sid="jointnode13" type="JOINT">
                        <translate>-92.46255493164062 103.2569808959961 -18.448951721191406</translate>
                        <rotate>0 1 0 180</rotate>
                    </node>
                </node>
            </node>
        </visual_scene>
    </library_visual_scenes>
    <scene>
        <instance_visual_scene url="#VisualSceneNode"></instance_visual_scene>
    </scene>
</COLLADA>
