# Blender v2.68 (sub 0) OBJ File: ''
# www.blender.org
mtllib gem.mtl
o mesh0120
v -3.716820 1.726485 0.000000
v -3.386680 1.726485 -1.400740
v -0.000000 -0.034686 0.000000
v -2.628190 1.726485 -2.624310
v -1.402810 1.726484 -3.382530
v -0.000000 -0.034686 0.000000
v -0.000000 1.726484 -3.712940
v 1.402810 1.726484 -3.382540
v -0.000000 -0.034686 0.000000
v 2.628190 1.726484 -2.624310
v 3.386680 1.726483 -1.400740
v -0.000000 -0.034686 0.000000
v 1.236820 3.043714 1.232950
v 3.039270 2.448093 -0.000000
v 1.236820 3.043714 -1.232950
v 0.000000 2.448094 -3.035390
v -1.236830 3.043714 -1.232940
v 1.236820 3.043714 -1.232950
v -1.236830 3.043714 1.232950
v 1.236820 3.043714 1.232950
v 1.236820 3.043714 -1.232950
v -1.236830 3.043714 -1.232940
v -1.236830 3.043714 1.232950
v 1.236820 3.043714 -1.232950
v -3.039270 2.448094 0.000000
v -1.236830 3.043714 1.232950
v -1.236830 3.043714 -1.232940
v -1.236830 3.043714 1.232950
v 0.000000 2.448094 3.035390
v 1.236820 3.043714 1.232950
v -3.386680 1.726485 1.400740
v -0.000000 -0.034686 0.000000
v -2.628190 1.726485 2.624310
v 1.402810 1.726484 3.382540
v -0.000000 -0.034686 0.000000
v 2.628190 1.726484 2.624310
v -2.628190 1.726485 2.624310
v -0.000000 -0.034686 0.000000
v -1.402810 1.726484 3.382540
v 2.628190 1.726484 2.624310
v -0.000000 -0.034686 0.000000
v 3.386680 1.726483 1.400740
v -2.149090 2.448094 -2.145210
v -3.386680 1.726485 -1.400740
v -3.039270 2.448094 0.000000
v 0.000000 2.448094 -3.035390
v -1.402810 1.726484 -3.382530
v -2.149090 2.448094 -2.145210
v -0.000000 1.726484 -3.712940
v -1.402810 1.726484 -3.382530
v 0.000000 2.448094 -3.035390
v 2.149080 2.448093 -2.145210
v 1.402810 1.726484 -3.382540
v 0.000000 2.448094 -3.035390
v 3.039270 2.448093 -0.000000
v 3.386680 1.726483 -1.400740
v 2.149080 2.448093 -2.145210
v 3.716820 1.726483 -0.000000
v 3.386680 1.726483 -1.400740
v 3.039270 2.448093 -0.000000
v -2.149090 2.448094 2.145210
v -3.039270 2.448094 0.000000
v -3.386680 1.726485 1.400740
v 0.000000 2.448094 3.035390
v -2.149090 2.448094 2.145210
v -1.402810 1.726484 3.382540
v 2.149080 2.448093 2.145210
v 0.000000 2.448094 3.035390
v 1.402810 1.726484 3.382540
v 3.039270 2.448093 -0.000000
v 2.149080 2.448093 2.145210
v 3.386680 1.726483 1.400740
v 3.716820 1.726483 -0.000000
v 3.039270 2.448093 -0.000000
v 3.386680 1.726483 1.400740
v 2.149080 2.448093 2.145210
v 2.628190 1.726484 2.624310
v 3.386680 1.726483 1.400740
v 2.628190 1.726484 2.624310
v 2.149080 2.448093 2.145210
v 1.402810 1.726484 3.382540
v 0.000000 2.448094 3.035390
v 0.000000 1.726484 3.712940
v 1.402810 1.726484 3.382540
v 0.000000 1.726484 3.712940
v 0.000000 2.448094 3.035390
v -1.402810 1.726484 3.382540
v -2.149090 2.448094 2.145210
v -2.628190 1.726485 2.624310
v -1.402810 1.726484 3.382540
v -2.628190 1.726485 2.624310
v -2.149090 2.448094 2.145210
v -3.386680 1.726485 1.400740
v -3.039270 2.448094 0.000000
v -3.716820 1.726485 0.000000
v -3.386680 1.726485 1.400740
v -3.716820 1.726485 0.000000
v -3.039270 2.448094 0.000000
v -3.386680 1.726485 -1.400740
v -2.628190 1.726485 -2.624310
v -3.386680 1.726485 -1.400740
v -2.149090 2.448094 -2.145210
v -2.628190 1.726485 -2.624310
v -2.149090 2.448094 -2.145210
v -1.402810 1.726484 -3.382530
v -0.000000 1.726484 -3.712940
v 0.000000 2.448094 -3.035390
v 1.402810 1.726484 -3.382540
v 2.628190 1.726484 -2.624310
v 1.402810 1.726484 -3.382540
v 2.149080 2.448093 -2.145210
v 2.628190 1.726484 -2.624310
v 2.149080 2.448093 -2.145210
v 3.386680 1.726483 -1.400740
v -1.402810 1.726484 3.382540
v -0.000000 -0.034686 0.000000
v 0.000000 1.726484 3.712940
v -3.716820 1.726485 0.000000
v -0.000000 -0.034686 0.000000
v -3.386680 1.726485 1.400740
v -0.000000 -0.034686 0.000000
v -3.386680 1.726485 -1.400740
v -2.628190 1.726485 -2.624310
v -0.000000 -0.034686 0.000000
v -1.402810 1.726484 -3.382530
v -0.000000 1.726484 -3.712940
v -0.000000 -0.034686 0.000000
v 1.402810 1.726484 -3.382540
v 2.628190 1.726484 -2.624310
v -0.000000 -0.034686 0.000000
v 3.386680 1.726483 -1.400740
v 3.716820 1.726483 -0.000000
v 3.386680 1.726483 1.400740
v -0.000000 -0.034686 0.000000
v 3.716820 1.726483 -0.000000
v 0.000000 1.726484 3.712940
v -0.000000 -0.034686 0.000000
v 1.402810 1.726484 3.382540
v -1.236830 3.043714 -1.232940
v 0.000000 2.448094 -3.035390
v -2.149090 2.448094 -2.145210
v 1.236820 3.043714 -1.232950
v 2.149080 2.448093 -2.145210
v 0.000000 2.448094 -3.035390
v 1.236820 3.043714 -1.232950
v 3.039270 2.448093 -0.000000
v 2.149080 2.448093 -2.145210
v 3.039270 2.448093 -0.000000
v 1.236820 3.043714 1.232950
v 2.149080 2.448093 2.145210
v 2.149080 2.448093 2.145210
v 1.236820 3.043714 1.232950
v 0.000000 2.448094 3.035390
v 0.000000 2.448094 3.035390
v -1.236830 3.043714 1.232950
v -2.149090 2.448094 2.145210
v -2.149090 2.448094 2.145210
v -1.236830 3.043714 1.232950
v -3.039270 2.448094 0.000000
v -1.236830 3.043714 -1.232940
v -2.149090 2.448094 -2.145210
v -3.039270 2.448094 0.000000
vt 0.375000 1.400000
vt 0.437500 1.400000
vt 0.583333 1.298816
vt 0.500000 1.400000
vt 0.562500 1.400000
vt 0.625000 1.400000
vt 0.687500 1.400000
vt 0.750000 1.400000
vt 0.812500 1.400000
vt 0.707107 1.000000
vt 1.000000 1.292893
vt 0.292185 1.000000
vt 0.000000 1.292893
vt 0.000000 1.707107
vt 0.500000 1.800000
vt 0.375000 1.800000
vt 0.625000 1.800000
vt 0.750000 1.800000
vt 0.875000 1.800000
vt 0.875000 1.400000
usemtl mesh0119mat
s 1
f 1/1 2/2 3/3
f 4/4 5/5 6/3
f 7/6 8/7 9/3
f 10/8 11/9 12/3
f 13/10 14/11 15/10
f 16/12 17/13 18/10
f 19/13 20/10 21/10
f 22/13 23/13 24/10
f 25/14 26/13 27/13
f 28/13 29/12 30/10
f 31/2 32/3 33/4
f 34/7 35/3 36/8
f 37/4 38/3 39/5
f 40/8 41/3 42/9
f 43/15 44/2 45/16
f 46/17 47/5 48/15
f 49/6 50/5 51/17
f 52/18 53/7 54/17
f 55/19 56/9 57/18
f 58/20 59/9 60/19
f 61/15 62/16 63/2
f 64/17 65/15 66/5
f 67/18 68/17 69/7
f 70/19 71/18 72/9
f 73/20 74/19 75/9
f 76/18 77/8 78/9
f 79/8 80/18 81/7
f 82/17 83/6 84/7
f 85/6 86/17 87/5
f 88/15 89/4 90/5
f 91/4 92/15 93/2
f 94/16 95/1 96/2
f 97/1 98/16 99/2
f 100/4 101/2 102/15
f 103/4 104/15 105/5
f 106/6 107/17 108/7
f 109/8 110/7 111/18
f 112/8 113/18 114/9
f 115/5 116/3 117/6
f 118/1 119/3 120/2
f 121/3 122/2 123/4
f 124/3 125/5 126/6
f 127/3 128/7 129/8
f 130/3 131/9 132/20
f 133/9 134/3 135/20
f 136/6 137/3 138/7
f 139/13 140/12 141/13
f 142/10 143/10 144/12
f 145/10 146/11 147/10
f 148/11 149/10 150/10
f 151/10 152/10 153/12
f 154/12 155/13 156/13
f 157/13 158/13 159/14
f 160/13 161/13 162/14
